0, 0, Header, 1, 2, 10000
2, 0, Start_track
2,95123,Note_on_c,1,67,81
2,95454,Note_off_c,1,67,0
2,105918,Note_on_c,1,79,81
2,106856,Note_off_c,1,79,0
2,131909,Note_on_c,1,88,81
2,145083,Note_off_c,1,88,0
2,167606,Note_on_c,1,79,81
2,170631,Note_off_c,1,79,0
2,181465,Note_on_c,1,64,81
2,184338,Note_on_c,1,64,81
2,186899,Note_off_c,1,64,0
2,203312,Note_on_c,1,64,81
2,205519,Note_off_c,1,64,0
2,206392,Note_off_c,1,64,0
2,285442,Note_on_c,1,64,81
2,291629,Note_on_c,1,60,81
2,292013,Note_off_c,1,64,0
2,351355,Note_off_c,1,60,0
2,391751,Note_on_c,1,60,81
2,411443,Note_off_c,1,60,0
2,453390,Note_on_c,1,64,81
2,477829,Note_off_c,1,64,0
2,485153,Note_on_c,1,60,81
2,524170,Note_on_c,1,64,81
2,525581,Note_off_c,1,64,0
2,655938,Note_on_c,1,60,81
2,657100,Note_off_c,1,60,0
2,669080,Note_on_c,1,67,81
2,670307,Note_off_c,1,67,0
2,692529,Note_on_c,1,64,81
2,693139,Note_off_c,1,60,0
2,708591,Note_on_c,1,64,81
2,711405,Note_off_c,1,64,0
2,729127,Note_on_c,1,64,81
2,760936,Note_off_c,1,64,0
2,761674,Note_on_c,1,64,81
2,774746,Note_on_c,1,64,81
2,780214,Note_off_c,1,64,0
2,780648,Note_off_c,1,64,0
2,796781,Note_off_c,1,64,0
2,905444,Note_on_c,1,64,81
2,909006,Note_off_c,1,64,0
2,958322,Note_on_c,1,64,81
2,1026493,Note_on_c,1,64,81
2,1027225,Note_off_c,1,64,0
2,1079928,Note_on_c,1,64,81
2,1101400,Note_off_c,1,64,0
2,1104946,Note_off_c,1,64,0
2,1111366,Note_on_c,1,64,81
2,1114329,Note_off_c,1,64,0
2,1312097,Note_on_c,1,60,81
2,1314758,Note_off_c,1,60,0
2,1321697,Note_on_c,1,64,81
2,1324022,Note_off_c,1,64,0
2,1383789,Note_on_c,1,64,81
2,1385066,Note_off_c,1,64,0
2,1389575,Note_on_c,1,60,81
2,1390313,Note_on_c,1,48,81
2,1390411,Note_off_c,1,48,0
2,1395603,Note_off_c,1,60,0
2,1507321,Note_on_c,1,76,81
2,1507598,Note_off_c,1,76,0
2,1513697,Note_on_c,1,67,81
2,1515289,Note_off_c,1,67,0
2,1528363,Note_on_c,1,64,81
2,1528911,Note_off_c,1,64,0
2,1601653,Note_on_c,1,64,81
2,1607354,Note_off_c,1,64,0
2,1609914,Note_on_c,1,60,81
2,1613897,Note_off_c,1,60,0
2,1623805,Note_on_c,1,60,81
2,2227802,Note_on_c,1,64,81
2,2230261,Note_off_c,1,64,0
2,2245605,Note_off_c,1,60,0
2,2245717,Note_on_c,1,64,81
2,2341449,Note_on_c,1,67,81
2,2341711,Note_off_c,1,67,0
2,2353426,Note_on_c,1,64,81
2,2386110,Note_off_c,1,64,0
2,2437548,Note_on_c,1,64,81
2,2438249,Note_off_c,1,64,0
2,2503796,Note_on_c,1,64,81
2,2525976,Note_off_c,1,64,0
2,2528665,Note_off_c,1,64,0
2,2561946,Note_on_c,1,55,81
2,2564143,Note_off_c,1,55,0
2,2617143,Note_on_c,1,64,81
2,2621910,Note_on_c,1,64,81
2,2634619,Note_off_c,1,64,0
2,2640001,Note_off_c,1,64,0
2,2663628,Note_on_c,1,60,81
2,2750922,Note_off_c,1,60,0
2,2765392,Note_on_c,1,60,81
2,2786952,Note_off_c,1,60,0
2,2832331,Note_on_c,1,60,81
2,2841959,Note_off_c,1,60,0
2,2851229,Note_on_c,1,64,81
2,2854030,Note_on_c,1,48,81
2,2854107,Note_off_c,1,48,0
2,2881407,Note_off_c,1,64,0
2,2887269,Note_on_c,1,60,81
2,2903309,Note_off_c,1,60,0
2,2910612,Note_on_c,1,79,81
2,2912113,Note_off_c,1,79,0
2,2916893,Note_on_c,1,64,81
2,2917733,Note_off_c,1,64,0
2,2948158,Note_on_c,1,60,81
2,2972165,Note_off_c,1,60,0
2,2987966,Note_on_c,1,64,81
2,2987986,Note_on_c,1,60,81
2,2989334,Note_on_c,1,64,81
2,2991173,Note_off_c,1,64,0
2,2999604,Note_off_c,1,64,0
2,3019755,Note_off_c,1,60,0
2,3023141,Note_on_c,1,67,81
2,3023471,Note_on_c,1,64,81
2,3023772,Note_off_c,1,67,0
2,3027426,Note_off_c,1,64,0
2,3033182,Note_on_c,1,67,81
2,3033288,Note_off_c,1,67,0
2,3045383,Note_on_c,1,67,81
2,3045800,Note_off_c,1,67,0
2,3048834,Note_on_c,1,79,81
2,3049211,Note_off_c,1,79,0
2,3055848,Note_on_c,1,64,81
2,3057357,Note_off_c,1,64,0
2,3063823,Note_on_c,1,60,81
2,3068044,Note_on_c,1,64,81
2,3068894,Note_off_c,1,64,0
2,3088685,Note_on_c,1,91,81
2,3088809,Note_off_c,1,91,0
2,3115187,Note_off_c,1,60,0
2,3118373,Note_on_c,1,60,81
2,3138393,Note_on_c,1,64,81
2,3153062,Note_off_c,1,64,0
2,3153496,Note_on_c,1,60,81
2,3153578,Note_off_c,1,60,0
2,3157544,Note_off_c,1,60,0
2,3177043,Note_on_c,1,79,81
2,3179764,Note_off_c,1,79,0
2,3182625,Note_on_c,1,64,81
2,3195784,Note_off_c,1,64,0
2,3223323,Note_on_c,1,60,81
2,3228770,Note_on_c,1,64,81
2,3230709,Note_off_c,1,64,0
2,3231402,Note_on_c,1,60,81
2,3231730,Note_off_c,1,60,0
2,3268961,Note_on_c,1,60,81
2,3303373,Note_off_c,1,60,0
2,3311661,Note_on_c,1,64,81
2,3313650,Note_off_c,1,64,0
2,3457050,Note_off_c,1,60,0
2,3585100,Note_on_c,1,64,81
2,3693922,Note_on_c,1,67,81
2,3694075,Note_off_c,1,67,0
2,3720081,Note_off_c,1,64,0
2,3722613,Note_on_c,1,60,81
2,3751110,Note_on_c,1,64,81
2,3751713,Note_off_c,1,60,0
2,3753871,Note_off_c,1,64,0
2,3754098,Note_on_c,1,67,81
2,3754840,Note_off_c,1,67,0
2,3831932,Note_on_c,1,64,81
2,3831935,Note_on_c,1,64,81
2,3849372,Note_on_c,1,60,81
2,3851320,Note_off_c,1,60,0
2,3855737,Note_off_c,1,64,0
2,3894292,Note_off_c,1,64,0
2,3904919,Note_on_c,1,64,81
2,3911979,Note_off_c,1,64,0
2,3913921,Note_on_c,1,67,81
2,3914292,Note_off_c,1,67,0
2,3921846,Note_on_c,1,67,81
2,3922146,Note_off_c,1,67,0
2,3941281,Note_on_c,1,67,81
2,3941801,Note_off_c,1,67,0
2,3978061,Note_on_c,1,67,81
2,3979099,Note_off_c,1,67,0
2,3982672,Note_on_c,1,55,81
2,3984130,Note_off_c,1,55,0
2,4017839,Note_on_c,1,64,81
2,4018712,Note_on_c,1,64,81
2,4018726,Note_off_c,1,64,0
2,4018842,Note_on_c,1,64,81
2,4019202,Note_off_c,1,64,0
2,4021215,Note_off_c,1,64,0
2,4021266,Note_on_c,1,60,81
2,4049433,Note_on_c,1,60,81
2,4064983,Note_off_c,1,60,0
2,4079208,Note_on_c,1,36,81
2,4087344,Note_off_c,1,60,0
2,4115692,Note_on_c,1,60,81
2,4130951,Note_off_c,1,36,0
2,4135422,Note_on_c,1,64,81
2,4135597,Note_off_c,1,60,0
2,4136071,Note_on_c,1,64,81
2,4146053,Note_off_c,1,64,0
2,4157385,Note_off_c,1,64,0
2,4185478,Note_on_c,1,64,81
2,4188950,Note_off_c,1,64,0
2,4189115,Note_on_c,1,67,81
2,4189806,Note_off_c,1,67,0
2,4304941,Note_on_c,1,64,81
2,4341755,Note_on_c,1,64,81
2,4347162,Note_off_c,1,64,0
2,4381210,Note_on_c,1,64,81
2,4383597,Note_off_c,1,64,0
2,4427962,Note_on_c,1,91,81
2,4428081,Note_off_c,1,91,0
2,4449391,Note_on_c,1,64,81
2,4468181,Note_off_c,1,64,0
2,4488797,Note_on_c,1,64,81
2,4495769,Note_off_c,1,64,0
2,4529721,Note_on_c,1,67,81
2,4530008,Note_off_c,1,67,0
2,4583871,Note_off_c,1,64,0
2,4599286,Note_on_c,1,64,81
2,4602420,Note_off_c,1,64,0
2,4610538,Note_on_c,1,64,81
2,4611919,Note_off_c,1,64,0
2,4702462,Note_on_c,1,67,81
2,4703779,Note_off_c,1,67,0
2,4706158,Note_on_c,1,60,81
2,4714097,Note_on_c,1,64,81
2,4724885,Note_off_c,1,64,0
2,4774525,Note_on_c,1,64,81
2,4775408,Note_off_c,1,64,0
2,4955551,Note_off_c,1,60,0
2,4979071,Note_on_c,1,67,81
2,4979494,Note_off_c,1,67,0
2,4994716,Note_on_c,1,60,81
2,5003773,Note_on_c,1,64,81
2,5004063,Note_off_c,1,60,0
2,5031755,Note_on_c,1,64,81
2,5045666,Note_off_c,1,64,0
2,5054423,Note_off_c,1,64,0
2,5065794,Note_on_c,1,67,81
2,5066982,Note_off_c,1,67,0
2,5072600,Note_on_c,1,64,81
2,5080946,Note_off_c,1,64,0
2,5085340,Note_on_c,1,60,81
2,5089487,Note_off_c,1,60,0
2,5103628,Note_on_c,1,60,81
2,5148232,Note_on_c,1,48,81
2,5148322,Note_off_c,1,48,0
2,5260950,Note_off_c,1,60,0
2,5261043,Note_on_c,1,60,81
2,5291029,Note_on_c,1,67,81
2,5291388,Note_off_c,1,67,0
2,5451682,Note_on_c,1,64,81
2,5458075,Note_off_c,1,64,0
2,5609226,Note_on_c,1,67,81
2,5610195,Note_off_c,1,67,0
2,5664984,Note_on_c,1,64,81
2,5695272,Note_off_c,1,64,0
2,5788345,Note_on_c,1,67,81
2,5788699,Note_off_c,1,67,0
2,5817420,Note_on_c,1,67,81
2,5818366,Note_off_c,1,67,0
2,5829192,Note_off_c,1,60,0
2,5851505,Note_on_c,1,64,81
2,5870220,Note_off_c,1,64,0
2,5918563,Note_on_c,1,76,81
2,5918844,Note_off_c,1,76,0
2,5972411,Note_on_c,1,67,81
2,5974012,Note_off_c,1,67,0
2,5997998,Note_on_c,1,60,81
2,6007605,Note_off_c,1,60,0
2,6144083,Note_on_c,1,60,81
2,6169303,Note_on_c,1,48,81
2,6169333,Note_on_c,1,48,81
2,6169409,Note_off_c,1,48,0
2,6169435,Note_off_c,1,48,0
2,6321013,Note_off_c,1,60,0
2,6346464,Note_on_c,1,64,81
2,6347080,Note_on_c,1,88,81
2,6347381,Note_off_c,1,88,0
2,6450355,Note_on_c,1,64,81
2,6507443,Note_off_c,1,64,0
2,6534696,Note_on_c,1,67,81
2,6535631,Note_off_c,1,67,0
2,6588107,Note_on_c,1,60,81
2,6622771,Note_off_c,1,64,0
2,6654983,Note_off_c,1,60,0
2,6680308,Note_on_c,1,64,81
2,6685147,Note_on_c,1,55,81
2,6686948,Note_off_c,1,64,0
2,6686984,Note_off_c,1,55,0
2,6692740,Note_on_c,1,64,81
2,6710513,Note_on_c,1,64,81
2,6713975,Note_off_c,1,64,0
2,6725035,Note_on_c,1,64,81
2,6733191,Note_off_c,1,64,0
2,6758275,Note_on_c,1,64,81
2,6759291,Note_off_c,1,64,0
2,6794914,Note_on_c,1,67,81
2,6795402,Note_off_c,1,67,0
2,6801171,Note_off_c,1,64,0
2,6885712,Note_on_c,1,64,81
2,6887257,Note_off_c,1,64,0
2,6901021,Note_on_c,1,64,81
2,6918715,Note_off_c,1,64,0
2,6938605,Note_on_c,1,76,81
2,6938897,Note_off_c,1,76,0
2,6993190,Note_on_c,1,64,81
2,6995727,Note_off_c,1,64,0
2,7107596,Note_on_c,1,60,81
2,7183082,Note_on_c,1,64,81
2,7185287,Note_off_c,1,64,0
2,7187581,Note_on_c,1,76,81
2,7187686,Note_off_c,1,76,0
2,7232555,Note_on_c,1,79,81
2,7232678,Note_off_c,1,79,0
2,7251980,Note_off_c,1,60,0
2,7258909,Note_on_c,1,64,81
2,7261993,Note_off_c,1,64,0
2,7268305,Note_on_c,1,60,81
2,7276030,Note_on_c,1,64,81
2,7298872,Note_off_c,1,64,0
2,7326655,Note_on_c,1,60,81
2,7331285,Note_on_c,1,67,81
2,7331676,Note_off_c,1,67,0
2,7338838,Note_on_c,1,67,81
2,7339568,Note_off_c,1,67,0
2,7340853,Note_on_c,1,67,81
2,7342056,Note_off_c,1,67,0
2,7347446,Note_off_c,1,60,0
2,7389742,Note_off_c,1,60,0
2,7389792,Note_on_c,1,60,81
2,7418037,Note_off_c,1,60,0
2,7481093,Note_on_c,1,67,81
2,7482594,Note_off_c,1,67,0
2,7506202,Note_on_c,1,67,81
2,7506549,Note_off_c,1,67,0
2,7516599,Note_on_c,1,67,81
2,7517840,Note_off_c,1,67,0
2,7540444,Note_on_c,1,64,81
2,7541616,Note_on_c,1,60,81
2,7543081,Note_off_c,1,64,0
2,7586714,Note_off_c,1,60,0
2,7590197,Note_on_c,1,60,81
2,7611967,Note_off_c,1,60,0
2,7620421,Note_on_c,1,67,81
2,7620878,Note_off_c,1,67,0
2,7726098,Note_on_c,1,60,81
2,7881516,Note_on_c,1,60,81
2,7881521,Note_on_c,1,60,81
2,7881728,Note_off_c,1,60,0
2,7910788,Note_off_c,1,60,0
2,7938429,Note_on_c,1,67,81
2,7939322,Note_off_c,1,67,0
2,7986536,Note_on_c,1,67,81
2,7988192,Note_off_c,1,67,0
2,8013566,Note_on_c,1,60,81
2,8015725,Note_on_c,1,60,81
2,8064364,Note_off_c,1,60,0
2,8064396,Note_off_c,1,60,0
2,8073359,Note_on_c,1,60,81
2,8102530,Note_off_c,1,60,0
2,8102559,Note_off_c,1,60,0
2,8102710,Note_on_c,1,64,81
2,8158161,Note_on_c,1,64,81
2,8341936,Note_on_c,1,64,81
2,8343139,Note_off_c,1,64,0
2,8389183,Note_off_c,1,64,0
2,8411434,Note_on_c,1,60,81
2,8435561,Note_off_c,1,60,0
2,8435567,Note_on_c,1,64,81
2,8653557,Note_on_c,1,76,81
2,8653797,Note_off_c,1,76,0
2,8760447,Note_off_c,1,64,0
2,9124220,Note_on_c,1,64,81
2,9161777,Note_off_c,1,64,0
2,9294133,Note_off_c,1,64,0
2,9596109,Note_on_c,1,36,81
2,10118451,Note_on_c,1,67,81
2,10119253,Note_off_c,1,67,0
2,10211608,Note_off_c,1,36,0
2,10213880,Note_on_c,1,67,81
2,10214362,Note_off_c,1,67,0
2,10222035,Note_on_c,1,72,81
2,10222161,Note_off_c,1,72,0
2,10365592,Note_on_c,1,67,81
2,10366582,Note_off_c,1,67,0
2,10393185,Note_on_c,1,60,81
2,10404501,Note_on_c,1,64,81
2,10407928,Note_off_c,1,64,0
2,10409339,Note_on_c,1,64,81
2,10416446,Note_off_c,1,64,0
2,10419659,Note_off_c,1,60,0
2,10423139,Note_on_c,1,64,81
2,10426176,Note_off_c,1,64,0
2,10426622,Note_on_c,1,64,81
2,10429110,Note_off_c,1,64,0
2,10429254,Note_on_c,1,64,81
2,10434315,Note_on_c,1,64,81
2,10435015,Note_off_c,1,64,0
2,10439716,Note_on_c,1,48,81
2,10439794,Note_off_c,1,48,0
2,10456781,Note_off_c,1,64,0
2,10459905,Note_on_c,1,67,81
2,10460541,Note_off_c,1,67,0
2,10474499,Note_on_c,1,64,81
2,10478502,Note_off_c,1,64,0
2,10492222,Note_on_c,1,60,81
2,10511035,Note_on_c,1,64,81
2,10514281,Note_on_c,1,67,81
2,10514546,Note_off_c,1,64,0
2,10514973,Note_off_c,1,67,0
2,10574748,Note_on_c,1,67,81
2,10575227,Note_off_c,1,67,0
2,10629368,Note_off_c,1,60,0
2,10633761,Note_on_c,1,67,81
2,10634695,Note_off_c,1,67,0
2,10659497,Note_on_c,1,64,81
2,10671417,Note_on_c,1,60,81
2,10674657,Note_on_c,1,76,81
2,10674768,Note_off_c,1,76,0
2,10692860,Note_off_c,1,64,0
2,10694797,Note_off_c,1,60,0
2,10694971,Note_on_c,1,60,81
2,10709782,Note_off_c,1,60,0
2,10722914,Note_on_c,1,60,81
2,10731129,Note_off_c,1,60,0
2,10743323,Note_on_c,1,64,81
2,10747663,Note_off_c,1,64,0
2,10747758,Note_on_c,1,60,81
2,10747793,Note_on_c,1,60,81
2,10752790,Note_on_c,1,91,81
2,10752926,Note_off_c,1,91,0
2,10762722,Note_on_c,1,60,81
2,10838553,Note_off_c,1,60,0
2,10852753,Note_off_c,1,60,0
2,10873222,Note_on_c,1,60,81
2,10881779,Note_on_c,1,64,81
2,10882041,Note_off_c,1,60,0
2,10884349,Note_off_c,1,64,0
2,10886830,Note_on_c,1,60,81
2,10930423,Note_off_c,1,60,0
2,10979320,Note_off_c,1,60,0
2,10980758,Note_on_c,1,60,81
2,11015585,Note_on_c,1,67,81
2,11015888,Note_off_c,1,67,0
2,11043481,Note_on_c,1,64,81
2,11044305,Note_off_c,1,60,0
2,11079154,Note_off_c,1,64,0
2,11093833,Note_on_c,1,60,81
2,11102488,Note_on_c,1,60,81
2,11111725,Note_off_c,1,60,0
2,11138733,Note_off_c,1,60,0
2,11154928,Note_on_c,1,67,81
2,11155150,Note_off_c,1,67,0
2,11173451,Note_on_c,1,64,81
2,11183297,Note_on_c,1,60,81
2,11259099,Note_off_c,1,64,0
2,11291298,Note_on_c,1,64,81
2,11296224,Note_off_c,1,64,0
2,11382348,Note_off_c,1,60,0
2,11414635,Note_on_c,1,64,81
2,11417206,Note_on_c,1,64,81
2,11481324,Note_off_c,1,64,0
2,11503508,Note_on_c,1,72,81
2,11503671,Note_off_c,1,72,0
2,11514191,Note_on_c,1,88,81
2,11515710,Note_off_c,1,64,0
2,11516466,Note_off_c,1,88,0
2,11537748,Note_on_c,1,60,81
2,11583524,Note_off_c,1,60,0
2,11607551,Note_on_c,1,64,81
2,11607981,Note_off_c,1,64,0
2,11644066,Note_on_c,1,76,81
2,11644343,Note_off_c,1,76,0
2,11709818,Note_on_c,1,52,81
2,11709960,Note_off_c,1,52,0
2,11712053,Note_on_c,1,60,81
2,11722546,Note_on_c,1,64,81
2,11731923,Note_off_c,1,64,0
2,11807046,Note_off_c,1,60,0
2,11810601,Note_on_c,1,64,81
2,11811248,Note_off_c,1,64,0
2,11861625,Note_on_c,1,67,81
2,11862970,Note_off_c,1,67,0
2,11990337,Note_on_c,1,64,81
2,12001286,Note_off_c,1,64,0
2,12007669,Note_on_c,1,64,81
2,12008761,Note_on_c,1,60,81
2,12008856,Note_off_c,1,64,0
2,12164999,Note_off_c,1,60,0
2,12290360,Note_on_c,1,60,81
2,12297194,Note_off_c,1,60,0
2,12319452,Note_on_c,1,67,81
2,12319592,Note_off_c,1,67,0
2,12406485,Note_on_c,1,76,81
2,12406781,Note_off_c,1,76,0
2,12514109,Note_on_c,1,67,81
2,12514724,Note_off_c,1,67,0
2,12582914,Note_on_c,1,64,81
2,12585404,Note_off_c,1,64,0
2,12716311,Note_on_c,1,60,81
2,13214055,Note_on_c,1,72,81
2,13214219,Note_off_c,1,72,0
2,13264860,Note_on_c,1,64,81
2,13266541,Note_on_c,1,60,81
2,13290017,Note_on_c,1,64,81
2,13290446,Note_off_c,1,60,0
2,13290490,Note_off_c,1,64,0
2,13295586,Note_off_c,1,64,0
2,13328573,Note_on_c,1,64,81
2,13328583,Note_off_c,1,60,0
2,13329869,Note_off_c,1,64,0
2,13357829,Note_on_c,1,60,81
2,13486293,Note_on_c,1,64,81
2,13486852,Note_off_c,1,64,0
2,13487662,Note_off_c,1,60,0
2,13521265,Note_on_c,1,67,81
2,13522045,Note_off_c,1,67,0
2,13547703,Note_on_c,1,76,81
2,13548013,Note_off_c,1,76,0
2,13574226,Note_on_c,1,60,81
2,13614110,Note_on_c,1,64,81
2,13615155,Note_off_c,1,64,0
2,13615158,Note_off_c,1,60,0
2,13615334,Note_on_c,1,60,81
2,13621497,Note_on_c,1,60,81
2,13632739,Note_off_c,1,60,0
2,13671719,Note_on_c,1,64,81
2,13678908,Note_off_c,1,64,0
2,13711835,Note_off_c,1,60,0
2,13786556,Note_on_c,1,60,81
2,13814568,Note_off_c,1,60,0
2,13825431,Note_on_c,1,64,81
2,13826574,Note_off_c,1,64,0
2,13924445,Note_on_c,1,60,81
2,13949094,Note_on_c,1,67,81
2,13949666,Note_off_c,1,67,0
2,13980310,Note_off_c,1,60,0
2,14004919,Note_on_c,1,64,81
2,14006901,Note_off_c,1,64,0
2,14117255,Note_on_c,1,60,81
2,14136918,Note_off_c,1,60,0
2,14152195,Note_on_c,1,64,81
2,14156461,Note_on_c,1,72,81
2,14156523,Note_off_c,1,72,0
2,14210292,Note_on_c,1,64,81
2,14211186,Note_off_c,1,64,0
2,14214374,Note_off_c,1,64,0
2,14229774,Note_on_c,1,64,81
2,14231570,Note_off_c,1,64,0
2,14280126,Note_on_c,1,64,81
2,14285454,Note_off_c,1,64,0
2,14391093,Note_on_c,1,64,81
2,14393929,Note_off_c,1,64,0
2,14394325,Note_on_c,1,64,81
2,14404289,Note_off_c,1,64,0
2,14431682,Note_on_c,1,64,81
2,14502701,Note_off_c,1,64,0
2,14597513,Note_on_c,1,64,81
2,14599690,Note_off_c,1,64,0
2,14646534,Note_on_c,1,72,81
2,14646638,Note_off_c,1,72,0
2,14660284,Note_on_c,1,64,81
2,15090170,Note_off_c,1,64,0
2,15102945,Note_on_c,1,67,81
2,15104130,Note_off_c,1,67,0
2,15112967,Note_on_c,1,76,81
2,15113221,Note_off_c,1,76,0
2,15243922,Note_on_c,1,64,81
2,15245000,Note_off_c,1,64,0
2,15246068,Note_on_c,1,60,81
2,15247814,Note_on_c,1,64,81
2,15248634,Note_off_c,1,64,0
2,15314919,Note_on_c,1,72,81
2,15315026,Note_off_c,1,72,0
2,15324366,Note_on_c,1,72,81
2,15324472,Note_off_c,1,72,0
2,15522042,Note_off_c,1,60,0
2,15522194,Note_on_c,1,96,81
2,15522300,Note_off_c,1,96,0
2,15522806,Note_on_c,1,60,81
2,15555779,Note_on_c,1,64,81
2,15559980,Note_off_c,1,64,0
2,15663058,Note_off_c,1,60,0
2,15934781,Note_on_c,1,67,81
2,15935315,Note_off_c,1,67,0
2,15994943,Note_on_c,1,64,81
2,15999797,Note_off_c,1,64,0
2,16041380,Note_on_c,1,67,81
2,16041614,Note_off_c,1,67,0
2,16107621,Note_on_c,1,67,81
2,16108593,Note_off_c,1,67,0
2,16129085,Note_on_c,1,60,81
2,16141555,Note_on_c,1,48,81
2,16141624,Note_off_c,1,48,0
2,16148248,Note_off_c,1,60,0
2,16160925,Note_on_c,1,67,81
2,16161411,Note_off_c,1,67,0
2,16163376,Note_on_c,1,67,81
2,16163762,Note_off_c,1,67,0
2,16171605,Note_on_c,1,67,81
2,16172031,Note_off_c,1,67,0
2,16205013,Note_on_c,1,72,81
2,16205120,Note_off_c,1,72,0
2,16232230,Note_on_c,1,76,81
2,16232330,Note_off_c,1,76,0
2,16238586,Note_on_c,1,60,81
2,16259100,Note_on_c,1,64,81
2,16264553,Note_off_c,1,64,0
2,16295549,Note_off_c,1,60,0
2,16299111,Note_on_c,1,60,81
2,16328341,Note_on_c,1,60,81
2,16328431,Note_off_c,1,60,0
2,16761137,Note_on_c,1,64,81
2,16761491,Note_off_c,1,60,0
2,16763947,Note_off_c,1,64,0
2,16764345,Note_on_c,1,64,81
2,16766883,Note_off_c,1,64,0
2,16901103,Note_on_c,1,64,81
2,16952699,Note_off_c,1,64,0
2,17015816,Note_on_c,1,64,81
2,17034396,Note_off_c,1,64,0
2,17092713,Note_on_c,1,64,81
2,17102049,Note_on_c,1,60,81
2,17108156,Note_off_c,1,64,0
2,17131378,Note_off_c,1,60,0
2,17224242,Note_on_c,1,64,81
2,17279586,Note_on_c,1,64,81
2,17280869,Note_off_c,1,64,0
2,17281360,Note_on_c,1,60,81
2,17281424,Note_off_c,1,64,0
2,17293871,Note_off_c,1,60,0
2,17381366,Note_on_c,1,67,81
2,17382120,Note_off_c,1,67,0
2,17393594,Note_on_c,1,60,81
2,17530898,Note_on_c,1,67,81
2,17531652,Note_off_c,1,67,0
2,17557780,Note_off_c,1,60,0
2,17582033,Note_on_c,1,67,81
2,17582305,Note_off_c,1,67,0
2,17586898,Note_on_c,1,64,81
2,17600262,Note_off_c,1,64,0
2,17600301,Note_on_c,1,60,81
2,17611719,Note_off_c,1,60,0
2,17615034,Note_on_c,1,60,81
2,17619532,Note_on_c,1,72,81
2,17619634,Note_off_c,1,72,0
2,17706256,Note_on_c,1,64,81
2,17706925,Note_off_c,1,60,0
2,17707344,Note_off_c,1,64,0
2,17721785,Note_on_c,1,91,81
2,17721903,Note_off_c,1,91,0
2,17737457,Note_on_c,1,76,81
2,17737556,Note_off_c,1,76,0
2,17759182,Note_on_c,1,60,81
2,17953571,Note_on_c,1,79,81
2,17953930,Note_off_c,1,79,0
2,17987635,Note_off_c,1,60,0
2,18120439,Note_on_c,1,60,81
2,18122677,Note_off_c,1,60,0
2,18128310,Note_on_c,1,60,81
2,18155077,Note_off_c,1,60,0
2,18155328,Note_on_c,1,60,81
2,18223854,Note_off_c,1,60,0
2,18223859,Note_on_c,1,60,81
2,18264548,Note_off_c,1,60,0
2,18273164,Note_on_c,1,76,81
2,18273266,Note_off_c,1,76,0
2,18277241,Note_on_c,1,64,81
2,18278064,Note_off_c,1,64,0
2,18304853,Note_on_c,1,67,81
2,18305045,Note_off_c,1,67,0
2,18306972,Note_on_c,1,72,81
2,18307079,Note_off_c,1,72,0
2,18363416,Note_on_c,1,67,81
2,18365423,Note_off_c,1,67,0
2,18366735,Note_on_c,1,79,81
2,18368644,Note_off_c,1,79,0
2,18387349,Note_on_c,1,60,81
2,18468870,Note_off_c,1,60,0
2,18522734,Note_on_c,1,64,81
2,18571783,Note_on_c,1,48,81
2,18571880,Note_off_c,1,48,0
2,18674001,Note_off_c,1,64,0
2,19143694,Note_on_c,1,67,81
2,19144160,Note_off_c,1,67,0
2,19290318,Note_on_c,1,64,81
2,19321021,Note_off_c,1,64,0
2,19323427,Note_on_c,1,64,81
2,19348180,Note_on_c,1,67,81
2,19349076,Note_off_c,1,67,0
2,19438282,Note_on_c,1,91,81
2,19438418,Note_off_c,1,91,0
2,19612754,Note_on_c,1,67,81
2,19614036,Note_off_c,1,67,0
2,19638039,Note_on_c,1,67,81
2,19638808,Note_off_c,1,67,0
2,19642424,Note_on_c,1,72,81
2,19642529,Note_off_c,1,72,0
2,19837369,Note_on_c,1,60,81
2,19839080,Note_off_c,1,64,0
2,19842197,Note_off_c,1,60,0
2,19892396,Note_on_c,1,64,81
2,19894214,Note_off_c,1,64,0
2,20042454,Note_on_c,1,67,81
2,20042940,Note_off_c,1,67,0
2,20099683,Note_on_c,1,60,81
2,20212086,Note_on_c,1,64,81
2,20212469,Note_off_c,1,60,0
2,20265719,Note_on_c,1,64,81
2,20307200,Note_off_c,1,64,0
2,20317739,Note_off_c,1,64,0
2,20321460,Note_on_c,1,64,81
2,20329921,Note_on_c,1,64,81
2,20333193,Note_off_c,1,64,0
2,20334411,Note_off_c,1,64,0
2,20401878,Note_on_c,1,60,81
2,20421582,Note_on_c,1,76,81
2,20421887,Note_off_c,1,76,0
2,20437820,Note_on_c,1,64,81
2,20440178,Note_off_c,1,64,0
2,20452368,Note_on_c,1,72,81
2,20452473,Note_off_c,1,72,0
2,20493714,Note_off_c,1,60,0
2,20500174,Note_on_c,1,76,81
2,20500276,Note_off_c,1,76,0
2,20534456,Note_on_c,1,60,81
2,20722327,Note_on_c,1,67,81
2,20723655,Note_off_c,1,67,0
2,20756102,Note_on_c,1,64,81
2,20800694,Note_off_c,1,64,0
2,20993473,Note_on_c,1,72,81
2,20993568,Note_off_c,1,72,0
2,21232404,Note_off_c,1,60,0
2,21233167,Note_on_c,1,64,81
2,21271132,Note_off_c,1,64,0
2,21354410,Note_on_c,1,64,81
2,21355296,Note_off_c,1,64,0
2,21369689,Note_on_c,1,64,81
2,21383200,Note_off_c,1,64,0
2,21485895,Note_on_c,1,64,81
2,21521414,Note_off_c,1,64,0
2,21521670,Note_on_c,1,64,81
2,21523845,Note_off_c,1,64,0
2,21528738,Note_on_c,1,64,81
2,21593750,Note_on_c,1,60,81
2,21595593,Note_off_c,1,64,0
2,21598619,Note_off_c,1,60,0
2,21602127,Note_on_c,1,67,81
2,21602383,Note_off_c,1,67,0
2,21664183,Note_on_c,1,64,81
2,21822535,Note_on_c,1,55,81
2,21822737,Note_off_c,1,55,0
2,22085543,Note_on_c,1,76,81
2,22085918,Note_off_c,1,76,0
2,22133204,Note_on_c,1,64,81
2,22147193,Note_off_c,1,64,0
2,22213305,Note_on_c,1,67,81
2,22214237,Note_off_c,1,67,0
2,22287243,Note_on_c,1,60,81
2,22302826,Note_off_c,1,60,0
2,22569565,Note_on_c,1,60,81
2,22571666,Note_off_c,1,60,0
2,22589136,Note_on_c,1,64,81
2,22593833,Note_off_c,1,64,0
2,22654455,Note_off_c,1,64,0
2,22663506,Note_on_c,1,64,81
2,22675493,Note_off_c,1,64,0
2,22744394,Note_on_c,1,64,81
2,23031780,Note_off_c,1,64,0
2,23102679,Note_on_c,1,67,81
2,23103546,Note_off_c,1,67,0
2,23124980,Note_on_c,1,72,81
2,23125087,Note_off_c,1,72,0
2,23337710,Note_on_c,1,64,81
2,23344860,Note_on_c,1,64,81
2,23404132,Note_off_c,1,64,0
2,23584305,Note_off_c,1,64,0
2,23649495,Note_on_c,1,67,81
2,23649774,Note_off_c,1,67,0
2,23854138,Note_on_c,1,84,81
2,23856697,Note_on_c,1,67,81
2,23856818,Note_off_c,1,67,0
2,23857646,Note_off_c,1,84,0
2,23971878,Note_on_c,1,67,81
2,23972941,Note_off_c,1,67,0
2,24001823,Note_on_c,1,67,81
2,24002433,Note_off_c,1,67,0
2,24126185,Note_on_c,1,60,81
2,24154900,Note_off_c,1,60,0
2,24166272,Note_on_c,1,52,81
2,24166374,Note_off_c,1,52,0
2,24171754,Note_on_c,1,60,81
2,24356902,Note_on_c,1,60,81
2,24358059,Note_off_c,1,60,0
2,24358285,Note_off_c,1,60,0
2,24365650,Note_on_c,1,72,81
2,24365754,Note_off_c,1,72,0
2,24402907,Note_on_c,1,60,81
2,24424564,Note_on_c,1,60,81
2,24426194,Note_off_c,1,60,0
2,24494866,Note_on_c,1,60,81
2,24495205,Note_off_c,1,60,0
2,24537207,Note_off_c,1,60,0
2,24544103,Note_on_c,1,60,81
2,24598011,Note_on_c,1,67,81
2,24599790,Note_off_c,1,67,0
2,24646191,Note_off_c,1,60,0
2,24649978,Note_on_c,1,60,81
2,24666930,Note_off_c,1,60,0
2,24667034,Note_on_c,1,60,81
2,24700906,Note_on_c,1,64,81
2,24701793,Note_off_c,1,64,0
2,24704860,Note_on_c,1,60,81
2,24705065,Note_off_c,1,60,0
2,24706746,Note_on_c,1,64,81
2,24707151,Note_off_c,1,64,0
2,24719998,Note_off_c,1,60,0
2,24720321,Note_on_c,1,64,81
2,24720639,Note_off_c,1,64,0
2,24721657,Note_on_c,1,64,81
2,24750670,Note_on_c,1,67,81
2,24751625,Note_off_c,1,67,0
2,24751960,Note_off_c,1,64,0
2,24774930,Note_on_c,1,60,81
2,24786099,Note_off_c,1,60,0
2,24797334,Note_on_c,1,60,81
2,24797372,Note_on_c,1,60,81
2,24798917,Note_off_c,1,60,0
2,24804281,Note_on_c,1,60,81
2,24809798,Note_off_c,1,60,0
2,24936060,Note_on_c,1,64,81
2,24947879,Note_on_c,1,67,81
2,24948344,Note_off_c,1,67,0
2,24950491,Note_off_c,1,64,0
2,24976418,Note_on_c,1,67,81
2,24976982,Note_off_c,1,67,0
2,25012984,Note_on_c,1,64,81
2,25015696,Note_off_c,1,64,0
2,25023246,Note_on_c,1,67,81
2,25024483,Note_off_c,1,67,0
2,25031008,Note_on_c,1,76,81
2,25031287,Note_off_c,1,76,0
2,25041838,Note_on_c,1,64,81
2,25042170,Note_off_c,1,60,0
2,25053626,Note_on_c,1,64,81
2,25056664,Note_off_c,1,64,0
2,25057073,Note_off_c,1,64,0
2,25061625,Note_on_c,1,36,81
2,25061795,Note_on_c,1,64,81
2,25134971,Note_off_c,1,64,0
2,25140002,Note_on_c,1,67,81
2,25141403,Note_off_c,1,67,0
2,25152546,Note_on_c,1,67,81
2,25152883,Note_off_c,1,67,0
2,25181358,Note_on_c,1,67,81
2,25181745,Note_off_c,1,67,0
2,25218687,Note_on_c,1,67,81
2,25219069,Note_off_c,1,67,0
2,25248262,Note_on_c,1,67,81
2,25248779,Note_off_c,1,67,0
2,25261238,Note_on_c,1,67,81
2,25261731,Note_off_c,1,67,0
2,25272199,Note_on_c,1,67,81
2,25273751,Note_off_c,1,67,0
2,25279077,Note_on_c,1,60,81
2,25287431,Note_on_c,1,76,81
2,25287533,Note_off_c,1,76,0
2,25383598,Note_on_c,1,72,81
2,25383702,Note_off_c,1,72,0
2,25452263,Note_off_c,1,36,0
2,25620530,Note_off_c,1,60,0
2,25632672,Note_on_c,1,64,81
2,25640931,Note_off_c,1,64,0
2,25652200,Note_on_c,1,60,81
2,25678768,Note_on_c,1,67,81
2,25679164,Note_off_c,1,67,0
2,25701783,Note_off_c,1,60,0
2,25726062,Note_on_c,1,60,81
2,25726562,Note_off_c,1,60,0
2,25726776,Note_on_c,1,60,81
2,25727345,Note_off_c,1,60,0
2,25731781,Note_on_c,1,79,81
2,25732091,Note_off_c,1,79,0
2,25732496,Note_on_c,1,79,81
2,25732827,Note_off_c,1,79,0
2,25754698,Note_on_c,1,60,81
2,25781199,Note_off_c,1,60,0
2,25782914,Note_on_c,1,60,81
2,25832052,Note_off_c,1,60,0
2,25833065,Note_on_c,1,60,81
2,25882025,Note_on_c,1,88,81
2,25882286,Note_off_c,1,60,0
2,25882395,Note_off_c,1,88,0
2,25885418,Note_on_c,1,67,81
2,25885751,Note_off_c,1,67,0
2,25912753,Note_on_c,1,60,81
2,25930691,Note_off_c,1,60,0
2,25962801,Note_on_c,1,60,81
2,25983811,Note_on_c,1,64,81
2,25991231,Note_off_c,1,60,0
2,25992640,Note_on_c,1,64,81
2,25999167,Note_off_c,1,64,0
2,26001775,Note_off_c,1,64,0
2,26013240,Note_on_c,1,64,81
2,26013757,Note_off_c,1,64,0
2,26016378,Note_on_c,1,79,81
2,26016601,Note_off_c,1,79,0
2,26017031,Note_on_c,1,60,81
2,26017787,Note_off_c,1,60,0
2,26020450,Note_on_c,1,60,81
2,26020958,Note_off_c,1,60,0
2,26021648,Note_on_c,1,60,81
2,26022050,Note_off_c,1,60,0
2,26026895,Note_on_c,1,60,81
2,26027283,Note_off_c,1,60,0
2,26031588,Note_on_c,1,60,81
2,26032099,Note_off_c,1,60,0
2,26033091,Note_on_c,1,60,81
2,26033618,Note_off_c,1,60,0
2,26043226,Note_on_c,1,60,81
2,26043713,Note_off_c,1,60,0
2,26043988,Note_on_c,1,79,81
2,26044357,Note_off_c,1,79,0
2,26045383,Note_on_c,1,60,81
2,26045869,Note_off_c,1,60,0
2,26055739,Note_on_c,1,60,81
2,26056470,Note_off_c,1,60,0
2,26087280,Note_on_c,1,60,81
2,26098343,Note_off_c,1,60,0
2,26103932,Note_on_c,1,60,81
2,26104337,Note_off_c,1,60,0
2,26107411,Note_on_c,1,60,81
2,26108135,Note_off_c,1,60,0
2,26114872,Note_on_c,1,60,81
2,26123926,Note_off_c,1,60,0
2,26124144,Note_on_c,1,60,81
2,26139116,Note_off_c,1,60,0
2,26156328,Note_on_c,1,60,81
2,26157115,Note_off_c,1,60,0
2,26157592,Note_on_c,1,64,81
2,26157889,Note_off_c,1,64,0
2,26158121,Note_on_c,1,60,81
2,26160764,Note_on_c,1,64,81
2,26164071,Note_on_c,1,67,81
2,26164363,Note_off_c,1,67,0
2,26171349,Note_off_c,1,60,0
2,26172058,Note_on_c,1,60,81
2,26172802,Note_off_c,1,64,0
2,26184655,Note_off_c,1,60,0
2,26188709,Note_on_c,1,60,81
2,26189112,Note_off_c,1,60,0
2,26195553,Note_on_c,1,79,81
2,26195594,Note_on_c,1,60,81
2,26196633,Note_off_c,1,79,0
2,26196783,Note_on_c,1,60,81
2,26197286,Note_off_c,1,60,0
2,26198783,Note_on_c,1,60,81
2,26199293,Note_off_c,1,60,0
2,26199293,Note_off_c,1,60,0
2,26199515,Note_on_c,1,60,81
2,26199988,Note_off_c,1,60,0
2,26202155,Note_on_c,1,67,81
2,26202654,Note_off_c,1,67,0
2,26204609,Note_on_c,1,60,81
2,26205021,Note_off_c,1,60,0
2,26216199,Note_on_c,1,60,81
2,26216688,Note_off_c,1,60,0
2,26216974,Note_on_c,1,60,81
2,26217483,Note_off_c,1,60,0
2,26219044,Note_on_c,1,79,81
2,26219240,Note_off_c,1,79,0
2,26224198,Note_on_c,1,60,81
2,26227473,Note_off_c,1,60,0
2,26233121,Note_on_c,1,79,81
2,26233255,Note_off_c,1,79,0
2,26234211,Note_on_c,1,60,81
2,26234987,Note_off_c,1,60,0
2,26240392,Note_on_c,1,60,81
2,26240793,Note_off_c,1,60,0
2,26246610,Note_on_c,1,60,81
2,26246996,Note_off_c,1,60,0
2,26250141,Note_on_c,1,60,81
2,26250635,Note_off_c,1,60,0
2,26251613,Note_on_c,1,60,81
2,26252075,Note_off_c,1,60,0
2,26270917,Note_on_c,1,60,81
2,26271413,Note_off_c,1,60,0
2,26272020,Note_on_c,1,84,81
2,26272701,Note_off_c,1,84,0
2,26272930,Note_on_c,1,60,81
2,26273412,Note_off_c,1,60,0
2,26277608,Note_on_c,1,60,81
2,26285638,Note_off_c,1,60,0
2,26285683,Note_on_c,1,64,81
2,26286152,Note_off_c,1,64,0
2,26321875,Note_on_c,1,67,81
2,26322292,Note_off_c,1,67,0
2,26324704,Note_on_c,1,64,81
2,26331900,Note_off_c,1,64,0
2,26365158,Note_on_c,1,60,81
2,26378320,Note_off_c,1,60,0
2,26383095,Note_on_c,1,60,81
2,26394874,Note_off_c,1,60,0
2,26402236,Note_on_c,1,60,81
2,26415208,Note_off_c,1,60,0
2,26421390,Note_on_c,1,84,81
2,26432383,Note_off_c,1,84,0
2,26440471,Note_on_c,1,60,81
2,26453415,Note_off_c,1,60,0
2,26457903,Note_on_c,1,60,81
2,26476621,Note_off_c,1,60,0
2,26477871,Note_on_c,1,79,81
2,26478533,Note_off_c,1,79,0
2,26500302,Note_on_c,1,60,81
2,26510425,Note_off_c,1,60,0
2,26519350,Note_on_c,1,72,81
2,26519458,Note_off_c,1,72,0
2,26521708,Note_on_c,1,64,81
2,26527404,Note_off_c,1,64,0
2,26538365,Note_on_c,1,60,81
2,26546933,Note_off_c,1,60,0
2,26569323,Note_on_c,1,64,81
2,26574698,Note_off_c,1,64,0
2,26596952,Note_on_c,1,60,81
2,26600739,Note_off_c,1,60,0
2,26602732,Note_on_c,1,64,81
2,26606661,Note_off_c,1,64,0
2,26611902,Note_on_c,1,67,81
2,26613109,Note_off_c,1,67,0
2,26634382,Note_on_c,1,60,81
2,26659752,Note_off_c,1,60,0
2,26677002,Note_on_c,1,64,81
2,26683211,Note_off_c,1,64,0
2,26686240,Note_on_c,1,64,81
2,26687964,Note_off_c,1,64,0
2,26871483,Note_on_c,1,84,81
2,26896951,Note_on_c,1,67,81
2,26898777,Note_off_c,1,67,0
2,26956554,Note_off_c,1,84,0
2,26956931,Note_on_c,1,64,81
2,27001207,Note_on_c,1,64,81
2,27001648,Note_off_c,1,64,0
2,27018934,Note_on_c,1,64,81
2,27020280,Note_off_c,1,64,0
2,27033434,Note_on_c,1,40,81
2,27034310,Note_off_c,1,40,0
2,27059749,Note_off_c,1,64,0
2,27060364,Note_on_c,1,67,81
2,27061249,Note_off_c,1,67,0
2,27083279,Note_on_c,1,40,81
2,27084147,Note_off_c,1,40,0
2,27109789,Note_on_c,1,72,81
2,27109980,Note_off_c,1,72,0
2,27122656,Note_on_c,1,64,81
2,27123221,Note_off_c,1,64,0
2,27125896,Note_on_c,1,60,81
2,27132795,Note_off_c,1,60,0
2,27133042,Note_on_c,1,60,81
2,27133535,Note_off_c,1,60,0
2,27139281,Note_on_c,1,60,81
2,27139678,Note_off_c,1,60,0
2,27146360,Note_on_c,1,60,81
2,27146855,Note_off_c,1,60,0
2,27147105,Note_on_c,1,60,81
2,27147562,Note_off_c,1,60,0
2,27147625,Note_on_c,1,48,81
2,27147688,Note_off_c,1,48,0
2,27211243,Note_on_c,1,67,81
2,27211913,Note_off_c,1,67,0
2,27247700,Note_on_c,1,60,81
2,27256624,Note_off_c,1,60,0
2,27268112,Note_on_c,1,67,81
2,27269229,Note_off_c,1,67,0
2,27285902,Note_on_c,1,60,81
2,27312273,Note_off_c,1,60,0
2,27324893,Note_on_c,1,79,81
2,27325768,Note_off_c,1,79,0
2,27356450,Note_on_c,1,84,81
2,27374614,Note_on_c,1,60,81
2,27375277,Note_off_c,1,84,0
2,27403908,Note_off_c,1,60,0
2,27404009,Note_on_c,1,64,81
2,27406964,Note_off_c,1,64,0
2,27407696,Note_on_c,1,67,81
2,27407996,Note_off_c,1,67,0
2,27450742,Note_on_c,1,60,81
2,27454567,Note_on_c,1,64,81
2,27457575,Note_off_c,1,64,0
2,27473118,Note_off_c,1,60,0
2,27473193,Note_on_c,1,64,81
2,27491421,Note_on_c,1,64,81
2,27494436,Note_off_c,1,64,0
2,27510500,Note_on_c,1,67,81
2,27510694,Note_off_c,1,67,0
2,27515038,Note_on_c,1,67,81
2,27515274,Note_off_c,1,67,0
2,27519435,Note_off_c,1,64,0
2,27523075,Note_on_c,1,67,81
2,27524339,Note_off_c,1,67,0
2,27560821,Note_on_c,1,67,81
2,27561744,Note_off_c,1,67,0
2,27596411,Note_on_c,1,72,81
2,27596517,Note_off_c,1,72,0
2,27652601,Note_on_c,1,67,81
2,27652825,Note_off_c,1,67,0
2,27679970,Note_on_c,1,64,81
2,27680555,Note_off_c,1,64,0
2,27694026,Note_on_c,1,64,81
2,27713706,Note_off_c,1,64,0
2,27736999,Note_on_c,1,67,81
2,27738494,Note_off_c,1,67,0
2,27757444,Note_on_c,1,64,81
2,27763269,Note_off_c,1,64,0
2,27780618,Note_on_c,1,67,81
2,27781111,Note_off_c,1,67,0
2,27807074,Note_on_c,1,67,81
2,27807339,Note_off_c,1,67,0
2,27807478,Note_on_c,1,60,81
2,27807929,Note_off_c,1,60,0
2,27808172,Note_on_c,1,60,81
2,27808667,Note_off_c,1,60,0
2,27810050,Note_on_c,1,60,81
2,27811300,Note_off_c,1,60,0
2,27814301,Note_on_c,1,60,81
2,27814777,Note_off_c,1,60,0
2,27815021,Note_on_c,1,60,81
2,27815489,Note_off_c,1,60,0
2,27824091,Note_on_c,1,60,81
2,27824480,Note_off_c,1,60,0
2,27831173,Note_on_c,1,60,81
2,27831560,Note_off_c,1,60,0
2,27837879,Note_on_c,1,60,81
2,27838375,Note_off_c,1,60,0
2,27838544,Note_on_c,1,60,81
2,27855709,Note_off_c,1,60,0
2,27864061,Note_on_c,1,67,81
2,27864401,Note_off_c,1,67,0
2,27865316,Note_on_c,1,60,81
2,27865798,Note_off_c,1,60,0
2,27866791,Note_on_c,1,60,81
2,27867588,Note_off_c,1,60,0
2,27871844,Note_on_c,1,60,81
2,27872346,Note_off_c,1,60,0
2,27873147,Note_on_c,1,60,81
2,27873534,Note_off_c,1,60,0
2,27890314,Note_on_c,1,60,81
2,27892698,Note_on_c,1,60,81
2,27893106,Note_off_c,1,60,0
2,27893185,Note_off_c,1,60,0
2,27893424,Note_on_c,1,60,81
2,27893891,Note_off_c,1,60,0
2,27897503,Note_on_c,1,72,81
2,27897566,Note_off_c,1,72,0
2,27911184,Note_on_c,1,60,81
2,27912396,Note_off_c,1,60,0
2,27937464,Note_on_c,1,79,81
2,27938403,Note_off_c,1,79,0
2,27957240,Note_on_c,1,60,81
2,27958182,Note_off_c,1,60,0
2,27965174,Note_on_c,1,67,81
2,27965514,Note_off_c,1,67,0
2,27977149,Note_on_c,1,79,81
2,27978075,Note_off_c,1,79,0
2,28010722,Note_on_c,1,67,81
2,28012355,Note_off_c,1,67,0
2,28015121,Note_on_c,1,64,81
2,28015567,Note_on_c,1,52,81
2,28015777,Note_off_c,1,52,0
2,28033946,Note_on_c,1,79,81
2,28034855,Note_off_c,1,79,0
2,28046433,Note_on_c,1,79,81
2,28047367,Note_off_c,1,79,0
2,28053227,Note_on_c,1,43,81
2,28054165,Note_off_c,1,43,0
2,28073315,Note_on_c,1,79,81
2,28074260,Note_off_c,1,79,0
2,28078791,Note_on_c,1,64,81
2,28080567,Note_on_c,1,60,81
2,28081130,Note_off_c,1,64,0
2,28089563,Note_off_c,1,60,0
2,28091136,Note_on_c,1,84,81
2,28093664,Note_off_c,1,84,0
2,28107688,Note_on_c,1,60,81
2,28107747,Note_on_c,1,84,81
2,28117139,Note_off_c,1,84,0
2,28130082,Note_off_c,1,60,0
2,28136848,Note_on_c,1,64,81
2,28137313,Note_off_c,1,64,0
2,28139678,Note_off_c,1,64,0
2,28141882,Note_on_c,1,60,81
2,28159460,Note_off_c,1,60,0
2,28161768,Note_on_c,1,60,81
2,28169594,Note_off_c,1,60,0
2,28170844,Note_on_c,1,55,81
2,28172521,Note_off_c,1,55,0
2,28176187,Note_on_c,1,79,81
2,28176674,Note_off_c,1,79,0
2,28188049,Note_on_c,1,79,81
2,28189432,Note_off_c,1,79,0
2,28217642,Note_on_c,1,67,81
2,28218634,Note_off_c,1,67,0
2,28224885,Note_on_c,1,60,81
2,28233487,Note_off_c,1,60,0
2,28241696,Note_on_c,1,60,81
2,28252269,Note_off_c,1,60,0
2,28259296,Note_on_c,1,60,81
2,28260958,Note_off_c,1,60,0
2,28267057,Note_on_c,1,60,81
2,28267120,Note_on_c,1,60,81
2,28278224,Note_off_c,1,60,0
2,28281571,Note_on_c,1,60,81
2,28281580,Note_off_c,1,60,0
2,28302549,Note_off_c,1,60,0
2,28315612,Note_on_c,1,67,81
2,28315883,Note_off_c,1,67,0
2,28319659,Note_on_c,1,67,81
2,28319852,Note_off_c,1,67,0
2,28324692,Note_on_c,1,60,81
2,28335689,Note_on_c,1,64,81
2,28335828,Note_off_c,1,64,0
2,28349946,Note_on_c,1,60,81
2,28356271,Note_off_c,1,60,0
2,28369172,Note_off_c,1,60,0
2,28378954,Note_on_c,1,60,81
2,28399747,Note_off_c,1,60,0
2,28410269,Note_on_c,1,72,81
2,28410456,Note_off_c,1,72,0
2,28431929,Note_on_c,1,60,81
2,28443502,Note_off_c,1,60,0
2,28446972,Note_on_c,1,67,81
2,28447807,Note_off_c,1,67,0
2,28455647,Note_on_c,1,79,81
2,28456141,Note_off_c,1,79,0
2,28476995,Note_on_c,1,64,81
2,28489493,Note_off_c,1,64,0
2,28489578,Note_on_c,1,64,81
2,28491661,Note_off_c,1,64,0
2,28503295,Note_on_c,1,60,81
2,28525880,Note_on_c,1,60,81
2,28528215,Note_off_c,1,60,0
2,28534955,Note_off_c,1,60,0
2,28570534,Note_on_c,1,60,81
2,28587377,Note_on_c,1,64,81
2,28591747,Note_off_c,1,64,0
2,28616212,Note_off_c,1,60,0
2,28633380,Note_on_c,1,67,81
2,28633594,Note_off_c,1,67,0
2,28634860,Note_on_c,1,64,81
2,28648285,Note_on_c,1,64,81
2,28649066,Note_off_c,1,64,0
2,28649538,Note_off_c,1,64,0
2,28732016,Note_on_c,1,67,81
2,28732904,Note_off_c,1,67,0
2,28783632,Note_on_c,1,67,81
2,28784004,Note_off_c,1,67,0
2,28837239,Note_on_c,1,64,81
2,28839058,Note_off_c,1,64,0
2,28859624,Note_on_c,1,64,81
2,28861415,Note_on_c,1,67,81
2,28862047,Note_off_c,1,67,0
2,28864630,Note_off_c,1,64,0
2,28888831,Note_on_c,1,67,81
2,28889906,Note_off_c,1,67,0
2,28896529,Note_on_c,1,64,81
2,28897322,Note_off_c,1,64,0
2,28903001,Note_on_c,1,60,81
2,28915644,Note_on_c,1,72,81
2,28915744,Note_off_c,1,72,0
2,28923988,Note_off_c,1,60,0
2,28943876,Note_on_c,1,64,81
2,28944537,Note_off_c,1,64,0
2,28969129,Note_on_c,1,67,81
2,28970460,Note_off_c,1,67,0
2,28977474,Note_on_c,1,76,81
2,28977773,Note_off_c,1,76,0
2,28986202,Note_on_c,1,64,81
2,28986799,Note_on_c,1,64,81
2,28987484,Note_off_c,1,64,0
2,28988536,Note_off_c,1,64,0
2,28994784,Note_on_c,1,60,81
2,29005316,Note_off_c,1,60,0
2,29026679,Note_on_c,1,79,81
2,29027607,Note_off_c,1,79,0
2,29036020,Note_on_c,1,64,81
2,29044212,Note_on_c,1,60,81
2,29045175,Note_off_c,1,60,0
2,29071823,Note_on_c,1,79,81
2,29072599,Note_off_c,1,79,0
2,29076524,Note_off_c,1,64,0
2,29076572,Note_on_c,1,67,81
2,29077168,Note_off_c,1,67,0
2,29086207,Note_on_c,1,60,81
2,29087313,Note_off_c,1,60,0
2,29099489,Note_on_c,1,60,81
2,29102701,Note_off_c,1,60,0
2,29108057,Note_on_c,1,60,81
2,29114770,Note_off_c,1,60,0
2,29124209,Note_on_c,1,64,81
2,29128908,Note_off_c,1,64,0
2,29137409,Note_on_c,1,84,81
2,29142934,Note_off_c,1,84,0
2,29162474,Note_on_c,1,64,81
2,29166201,Note_off_c,1,64,0
2,29170906,Note_on_c,1,60,81
2,29175811,Note_off_c,1,60,0
2,29181509,Note_on_c,1,79,81
2,29182445,Note_off_c,1,79,0
2,29212885,Note_on_c,1,84,81
2,29216933,Note_off_c,1,84,0
2,29223972,Note_on_c,1,84,81
2,29229226,Note_on_c,1,79,81
2,29230157,Note_off_c,1,79,0
2,29262702,Note_on_c,1,79,81
2,29264079,Note_off_c,1,79,0
2,29268461,Note_on_c,1,79,81
2,29269421,Note_off_c,1,79,0
2,29292963,Note_off_c,1,84,0
2,29301700,Note_on_c,1,60,81
2,29313017,Note_off_c,1,60,0
2,29329625,Note_on_c,1,67,81
2,29331061,Note_off_c,1,67,0
2,29353748,Note_on_c,1,60,81
2,29373422,Note_on_c,1,60,81
2,29375291,Note_off_c,1,60,0
2,29395630,Note_on_c,1,60,81
2,29398008,Note_off_c,1,60,0
2,29414927,Note_on_c,1,43,81
2,29418905,Note_off_c,1,43,0
2,29425503,Note_on_c,1,60,81
2,29431967,Note_off_c,1,60,0
2,29439305,Note_on_c,1,60,81
2,29440977,Note_off_c,1,60,0
2,29450209,Note_on_c,1,67,81
2,29450558,Note_off_c,1,67,0
2,29457071,Note_off_c,1,60,0
2,29457154,Note_on_c,1,60,81
2,29464328,Note_off_c,1,60,0
2,29464595,Note_on_c,1,79,81
2,29469806,Note_off_c,1,79,0
2,29475024,Note_on_c,1,79,81
2,29476071,Note_off_c,1,79,0
2,29485156,Note_on_c,1,64,81
2,29486696,Note_on_c,1,60,81
2,29487956,Note_off_c,1,60,0
2,29489270,Note_on_c,1,67,81
2,29489676,Note_off_c,1,67,0
2,29494160,Note_off_c,1,64,0
2,29497474,Note_on_c,1,64,81
2,29510558,Note_off_c,1,64,0
2,29528720,Note_on_c,1,64,81
2,29533665,Note_off_c,1,64,0
2,29537703,Note_on_c,1,79,81
2,29538787,Note_off_c,1,79,0
2,29550406,Note_on_c,1,60,81
2,29555514,Note_on_c,1,60,81
2,29555628,Note_on_c,1,60,81
2,29557721,Note_off_c,1,60,0
2,29559732,Note_off_c,1,60,0
2,29573908,Note_on_c,1,79,81
2,29574836,Note_off_c,1,79,0
2,29577458,Note_on_c,1,67,81
2,29577748,Note_off_c,1,67,0
2,29582248,Note_on_c,1,52,81
2,29582332,Note_off_c,1,52,0
2,29582507,Note_on_c,1,67,81
2,29583025,Note_off_c,1,67,0
2,29585120,Note_on_c,1,60,81
2,29590500,Note_off_c,1,60,0
2,29633976,Note_off_c,1,60,0
2,29636059,Note_on_c,1,67,81
2,29636343,Note_off_c,1,67,0
2,29657001,Note_on_c,1,60,81
2,29672372,Note_off_c,1,60,0
2,29672482,Note_on_c,1,60,81
2,29681155,Note_off_c,1,60,0
2,29708124,Note_on_c,1,67,81
2,29708547,Note_off_c,1,67,0
2,29722774,Note_on_c,1,60,81
2,29722980,Note_on_c,1,79,81
2,29723971,Note_off_c,1,79,0
2,29726600,Note_on_c,1,64,81
2,29726668,Note_on_c,1,88,81
2,29727139,Note_off_c,1,88,0
2,29738528,Note_off_c,1,60,0
2,29741730,Note_on_c,1,84,81
2,29748288,Note_on_c,1,79,81
2,29748513,Note_off_c,1,79,0
2,29748969,Note_off_c,1,84,0
2,29749049,Note_off_c,1,64,0
2,29750370,Note_on_c,1,76,81
2,29750472,Note_off_c,1,76,0
2,29750728,Note_on_c,1,67,81
2,29751148,Note_off_c,1,67,0
2,29751964,Note_on_c,1,64,81
2,29752207,Note_off_c,1,64,0
2,29752572,Note_on_c,1,64,81
2,29763257,Note_on_c,1,67,81
2,29763295,Note_off_c,1,64,0
2,29763392,Note_off_c,1,67,0
2,29790953,Note_on_c,1,84,81
2,29791752,Note_on_c,1,79,81
2,29792750,Note_off_c,1,79,0
2,29797811,Note_off_c,1,84,0
2,29800414,Note_on_c,1,79,81
2,29802425,Note_off_c,1,79,0
2,29803194,Note_on_c,1,67,81
2,29803991,Note_off_c,1,67,0
2,29812564,Note_on_c,1,79,81
2,29812696,Note_off_c,1,79,0
2,29826966,Note_on_c,1,60,81
2,29827384,Note_on_c,1,79,81
2,29828364,Note_off_c,1,79,0
2,29831125,Note_off_c,1,60,0
2,29849549,Note_on_c,1,84,81
2,29871894,Note_on_c,1,64,81
2,29873783,Note_off_c,1,64,0
2,29885615,Note_off_c,1,84,0
2,29887293,Note_on_c,1,79,81
2,29887751,Note_on_c,1,79,81
2,29888268,Note_off_c,1,79,0
2,29890482,Note_off_c,1,79,0
2,29896653,Note_on_c,1,79,81
2,29897786,Note_off_c,1,79,0
2,29906542,Note_on_c,1,79,81
2,29906909,Note_off_c,1,79,0
2,29907782,Note_on_c,1,79,81
2,29908645,Note_off_c,1,79,0
2,29925982,Note_on_c,1,79,81
2,29926458,Note_on_c,1,79,81
2,29926973,Note_off_c,1,79,0
2,29929232,Note_off_c,1,79,0
2,29934100,Note_on_c,1,79,81
2,29934286,Note_off_c,1,79,0
2,29941259,Note_on_c,1,60,81
2,29942074,Note_on_c,1,79,81
2,29943067,Note_off_c,1,79,0
2,29945884,Note_off_c,1,60,0
2,29956595,Note_on_c,1,79,81
2,29958570,Note_off_c,1,79,0
2,29970800,Note_on_c,1,79,81
2,29972464,Note_off_c,1,79,0
2,29975111,Note_on_c,1,64,81
2,29976041,Note_on_c,1,36,81
2,29978410,Note_off_c,1,64,0
2,29993208,Note_on_c,1,79,81
2,29993605,Note_off_c,1,79,0
2,29994436,Note_on_c,1,79,81
2,29995314,Note_off_c,1,79,0
2,30005970,Note_on_c,1,84,81
2,30006120,Note_on_c,1,79,81
2,30007116,Note_off_c,1,79,0
2,30009956,Note_off_c,1,84,0
2,30031712,Note_on_c,1,67,81
2,30033003,Note_off_c,1,67,0
2,30035915,Note_on_c,1,76,81
2,30035983,Note_off_c,1,76,0
2,30058114,Note_on_c,1,76,81
2,30058190,Note_off_c,1,76,0
2,30058898,Note_on_c,1,60,81
2,30061079,Note_on_c,1,76,81
2,30061183,Note_off_c,1,76,0
2,30061640,Note_off_c,1,36,0
2,30064909,Note_off_c,1,60,0
2,30066708,Note_on_c,1,60,81
2,30070265,Note_on_c,1,60,81
2,30070333,Note_off_c,1,60,0
2,30075849,Note_off_c,1,60,0
2,30102896,Note_on_c,1,60,81
2,30105239,Note_on_c,1,64,81
2,30113090,Note_off_c,1,60,0
2,30114724,Note_off_c,1,64,0
2,30132804,Note_on_c,1,52,81
2,30132966,Note_off_c,1,52,0
2,30136123,Note_on_c,1,60,81
2,30148735,Note_off_c,1,60,0
2,30151942,Note_on_c,1,60,81
2,30161211,Note_off_c,1,60,0
2,30163205,Note_on_c,1,60,81
2,30172693,Note_off_c,1,60,0
2,30184454,Note_on_c,1,60,81
2,30186797,Note_on_c,1,67,81
2,30188614,Note_off_c,1,67,0
2,30213427,Note_off_c,1,60,0
2,30234038,Note_on_c,1,64,81
2,30238300,Note_on_c,1,79,81
2,30242279,Note_off_c,1,79,0
2,30259547,Note_on_c,1,84,81
2,30282348,Note_on_c,1,55,81
2,30286054,Note_off_c,1,55,0
2,30286689,Note_on_c,1,64,81
2,30293015,Note_off_c,1,84,0
2,30326134,Note_off_c,1,64,0
2,30326468,Note_on_c,1,60,81
2,30327382,Note_off_c,1,64,0
2,30328906,Note_on_c,1,60,81
2,30343729,Note_off_c,1,60,0
2,30345130,Note_on_c,1,60,81
2,30346854,Note_off_c,1,60,0
2,30346884,Note_off_c,1,60,0
2,30351415,Note_on_c,1,79,81
2,30351550,Note_off_c,1,79,0
2,30359277,Note_on_c,1,67,81
2,30359911,Note_off_c,1,67,0
2,30363111,Note_on_c,1,67,81
2,30364280,Note_off_c,1,67,0
2,30414714,Note_on_c,1,79,81
2,30419319,Note_off_c,1,79,0
2,30451138,Note_on_c,1,64,81
2,30456212,Note_off_c,1,64,0
2,30460824,Note_on_c,1,64,81
2,30466451,Note_on_c,1,67,81
2,30467994,Note_off_c,1,67,0
2,30468881,Note_on_c,1,67,81
2,30470251,Note_off_c,1,67,0
2,30481634,Note_off_c,1,64,0
2,30485939,Note_on_c,1,67,81
2,30486590,Note_off_c,1,67,0
2,30489508,Note_on_c,1,60,81
2,30494194,Note_off_c,1,60,0
2,30516265,Note_on_c,1,64,81
2,30519217,Note_off_c,1,64,0
2,30541380,Note_on_c,1,60,81
2,30556489,Note_off_c,1,60,0
2,30557279,Note_on_c,1,60,81
2,30563723,Note_off_c,1,60,0
2,30571392,Note_on_c,1,60,81
2,30584331,Note_on_c,1,48,81
2,30584417,Note_off_c,1,48,0
2,30597179,Note_off_c,1,60,0
2,30600412,Note_on_c,1,60,81
2,30617839,Note_on_c,1,60,81
2,30618612,Note_off_c,1,60,0
2,30626395,Note_off_c,1,60,0
2,30626841,Note_on_c,1,60,81
2,30633631,Note_on_c,1,67,81
2,30633956,Note_off_c,1,67,0
2,30646823,Note_off_c,1,60,0
2,30647038,Note_on_c,1,60,81
2,30653118,Note_on_c,1,60,81
2,30653210,Note_off_c,1,60,0
2,30673006,Note_off_c,1,60,0
2,30676388,Note_on_c,1,60,81
2,30687895,Note_off_c,1,60,0
2,30688046,Note_on_c,1,60,81
2,30691420,Note_off_c,1,60,0
2,30696805,Note_on_c,1,67,81
2,30697535,Note_off_c,1,67,0
2,30699806,Note_on_c,1,60,81
2,30703066,Note_on_c,1,64,81
2,30713184,Note_off_c,1,64,0
2,30717434,Note_on_c,1,60,81
2,30717447,Note_off_c,1,60,0
2,30723104,Note_on_c,1,64,81
2,30723877,Note_off_c,1,64,0
2,30725538,Note_off_c,1,60,0
2,30727708,Note_on_c,1,60,81
2,30736303,Note_on_c,1,76,81
2,30736414,Note_off_c,1,76,0
2,30742732,Note_off_c,1,60,0
2,30742815,Note_on_c,1,64,81
2,30743198,Note_on_c,1,60,81
2,30743638,Note_off_c,1,64,0
2,30743789,Note_on_c,1,64,81
2,30744548,Note_off_c,1,60,0
2,30751037,Note_on_c,1,76,81
2,30751289,Note_off_c,1,76,0
2,30792250,Note_off_c,1,64,0
2,30798210,Note_on_c,1,64,81
2,30830659,Note_off_c,1,64,0
2,30839525,Note_on_c,1,64,81
2,30848159,Note_off_c,1,64,0
2,30864249,Note_on_c,1,76,81
2,30864552,Note_off_c,1,76,0
2,30866981,Note_on_c,1,64,81
2,30875918,Note_off_c,1,64,0
2,30876420,Note_on_c,1,60,81
2,30890882,Note_on_c,1,48,81
2,30890972,Note_off_c,1,48,0
2,30900156,Note_off_c,1,60,0
2,30908206,Note_on_c,1,60,81
2,30908241,Note_on_c,1,64,81
2,30914106,Note_off_c,1,60,0
2,30914204,Note_on_c,1,60,81
2,30926459,Note_off_c,1,64,0
2,30926459,Note_off_c,1,60,0
2,30931352,Note_on_c,1,60,81
2,30932617,Note_on_c,1,76,81
2,30932709,Note_off_c,1,76,0
2,30934522,Note_on_c,1,60,81
2,30945978,Note_on_c,1,64,81
2,30954221,Note_off_c,1,60,0
2,30954862,Note_off_c,1,64,0
2,30955636,Note_off_c,1,60,0
2,30961402,Note_on_c,1,67,81
2,30962396,Note_off_c,1,67,0
2,30983717,Note_on_c,1,60,81
2,30989903,Note_off_c,1,60,0
2,31010473,Note_on_c,1,60,81
2,31035402,Note_off_c,1,60,0
2,31053449,Note_on_c,1,43,81
2,31059890,Note_off_c,1,43,0
2,31083009,Note_on_c,1,72,81
2,31083109,Note_off_c,1,72,0
2,31111222,Note_on_c,1,60,81
2,31112575,Note_off_c,1,60,0
2,31114749,Note_on_c,1,60,81
2,31115086,Note_on_c,1,60,81
2,31120446,Note_off_c,1,60,0
2,31137533,Note_on_c,1,60,81
2,31139066,Note_off_c,1,60,0
2,31140092,Note_off_c,1,60,0
2,31140726,Note_on_c,1,67,81
2,31140913,Note_off_c,1,67,0
2,31142438,Note_on_c,1,60,81
2,31158238,Note_off_c,1,60,0
2,31158546,Note_on_c,1,60,81
2,31164336,Note_on_c,1,60,81
2,31167159,Note_off_c,1,60,0
2,31173734,Note_on_c,1,64,81
2,31177899,Note_off_c,1,64,0
2,31180731,Note_off_c,1,60,0
2,31195199,Note_on_c,1,64,81
2,31197759,Note_on_c,1,64,81
2,31198037,Note_off_c,1,64,0
2,31200164,Note_on_c,1,64,81
2,31201918,Note_off_c,1,64,0
2,31203968,Note_off_c,1,64,0
2,31222912,Note_on_c,1,79,81
2,31223093,Note_off_c,1,79,0
2,31224341,Note_on_c,1,79,81
2,31225058,Note_off_c,1,79,0
2,31268748,Note_on_c,1,60,81
2,31272130,Note_off_c,1,60,0
2,31272239,Note_on_c,1,64,81
2,31272590,Note_off_c,1,64,0
2,31275571,Note_on_c,1,67,81
2,31278754,Note_off_c,1,67,0
2,31280316,Note_on_c,1,67,81
2,31281519,Note_off_c,1,67,0
2,31287509,Note_on_c,1,67,81
2,31288964,Note_off_c,1,67,0
2,31293907,Note_on_c,1,64,81
2,31301642,Note_off_c,1,64,0
2,31307814,Note_on_c,1,79,81
2,31308549,Note_off_c,1,79,0
2,31353871,Note_on_c,1,60,81
2,31355223,Note_on_c,1,48,81
2,31355316,Note_off_c,1,48,0
2,31356646,Note_on_c,1,79,81
2,31357188,Note_off_c,1,60,0
2,31357637,Note_off_c,1,79,0
2,31366351,Note_on_c,1,67,81
2,31366898,Note_off_c,1,67,0
2,31367056,Note_on_c,1,64,81
2,31370133,Note_on_c,1,72,81
2,31370240,Note_off_c,1,72,0
2,31376088,Note_off_c,1,64,0
2,31377418,Note_on_c,1,67,81
2,31378019,Note_off_c,1,67,0
2,31380410,Note_on_c,1,67,81
2,31380839,Note_off_c,1,67,0
2,31382073,Note_on_c,1,79,81
2,31382288,Note_off_c,1,79,0
2,31394288,Note_on_c,1,64,81
2,31395495,Note_off_c,1,64,0
2,31399783,Note_on_c,1,60,81
2,31400701,Note_on_c,1,64,81
2,31402151,Note_on_c,1,76,81
2,31402250,Note_off_c,1,76,0
2,31415315,Note_off_c,1,60,0
2,31441666,Note_on_c,1,64,81
2,31446973,Note_off_c,1,64,0
2,31462727,Note_on_c,1,79,81
2,31463169,Note_on_c,1,64,81
2,31463336,Note_off_c,1,79,0
2,31463705,Note_off_c,1,64,0
2,31478936,Note_off_c,1,64,0
2,31479972,Note_on_c,1,64,81
2,31494880,Note_on_c,1,60,81
2,31494935,Note_off_c,1,64,0
2,31496688,Note_on_c,1,76,81
2,31496790,Note_off_c,1,76,0
2,31511124,Note_off_c,1,60,0
2,31515978,Note_on_c,1,79,81
2,31516211,Note_off_c,1,79,0
2,31519479,Note_on_c,1,67,81
2,31520291,Note_off_c,1,67,0
2,31528113,Note_on_c,1,67,81
2,31528693,Note_off_c,1,67,0
2,31528961,Note_on_c,1,60,81
2,31530218,Note_on_c,1,60,81
2,31530218,Note_on_c,1,60,81
2,31530232,Note_off_c,1,60,0
2,31536373,Note_on_c,1,52,81
2,31536449,Note_off_c,1,52,0
2,31541100,Note_on_c,1,52,81
2,31541178,Note_off_c,1,52,0
2,31542303,Note_on_c,1,64,81
2,31542448,Note_off_c,1,60,0
2,31543138,Note_off_c,1,64,0
2,31544443,Note_on_c,1,60,81
2,31546608,Note_off_c,1,60,0
2,31546869,Note_on_c,1,60,81
2,31548427,Note_off_c,1,60,0
2,31558829,Note_off_c,1,60,0
2,31560243,Note_on_c,1,64,81
2,31572053,Note_on_c,1,60,81
2,31572700,Note_off_c,1,64,0
2,31574324,Note_off_c,1,60,0
2,31575564,Note_on_c,1,60,81
2,31578336,Note_off_c,1,60,0
2,31580524,Note_on_c,1,60,81
2,31582522,Note_off_c,1,60,0
2,31586123,Note_on_c,1,60,81
2,31588894,Note_on_c,1,60,81
2,31588909,Note_off_c,1,60,0
2,31593006,Note_off_c,1,60,0
2,31611082,Note_on_c,1,67,81
2,31611356,Note_off_c,1,67,0
2,31615216,Note_on_c,1,60,81
2,31617021,Note_off_c,1,60,0
2,31619846,Note_on_c,1,64,81
2,31620406,Note_off_c,1,64,0
2,31620714,Note_on_c,1,60,81
2,31623078,Note_on_c,1,52,81
2,31623210,Note_off_c,1,52,0
2,31623873,Note_on_c,1,60,81
2,31625499,Note_off_c,1,60,0
2,31633786,Note_on_c,1,48,81
2,31633858,Note_off_c,1,48,0
2,31637771,Note_off_c,1,60,0
2,31639027,Note_on_c,1,60,81
2,31652415,Note_on_c,1,60,81
2,31652705,Note_off_c,1,60,0
2,31658210,Note_off_c,1,60,0
2,31658297,Note_on_c,1,60,81
2,31658328,Note_on_c,1,64,81
2,31660721,Note_off_c,1,64,0
2,31660778,Note_off_c,1,60,0
2,31661227,Note_on_c,1,60,81
2,31663287,Note_on_c,1,76,81
2,31663401,Note_off_c,1,76,0
2,31665226,Note_on_c,1,60,81
2,31666101,Note_on_c,1,60,81
2,31666283,Note_off_c,1,60,0
2,31670166,Note_on_c,1,60,81
2,31670343,Note_off_c,1,60,0
2,31673546,Note_off_c,1,60,0
2,31673776,Note_off_c,1,60,0
2,31676683,Note_on_c,1,60,81
2,31684040,Note_off_c,1,60,0
2,31686954,Note_on_c,1,60,81
2,31686961,Note_on_c,1,60,81
2,31701028,Note_on_c,1,48,81
2,31701091,Note_off_c,1,48,0
2,31703356,Note_off_c,1,60,0
2,31706865,Note_on_c,1,60,81
2,31706903,Note_on_c,1,60,81
2,31710679,Note_off_c,1,60,0
2,31711770,Note_on_c,1,60,81
2,31714065,Note_off_c,1,60,0
2,31714072,Note_off_c,1,60,0
2,31715347,Note_on_c,1,60,81
2,31717918,Note_off_c,1,60,0
2,31717919,Note_off_c,1,60,0
2,31718593,Note_on_c,1,60,81
2,31718647,Note_on_c,1,60,81
2,31721746,Note_off_c,1,60,0
2,31726714,Note_off_c,1,60,0
2,31727037,Note_on_c,1,60,81
2,31730580,Note_on_c,1,60,81
2,31730617,Note_off_c,1,60,0
2,31739676,Note_on_c,1,60,81
2,31739763,Note_off_c,1,60,0
2,31740019,Note_on_c,1,60,81
2,31756950,Note_on_c,1,72,81
2,31757053,Note_off_c,1,72,0
2,31762676,Note_off_c,1,60,0
2,31762995,Note_on_c,1,60,81
2,31764309,Note_on_c,1,64,81
2,31764851,Note_off_c,1,60,0
2,31764851,Note_off_c,1,60,0
2,31765588,Note_off_c,1,64,0
2,31765589,Note_on_c,1,60,81
2,31777328,Note_off_c,1,60,0
2,31777517,Note_on_c,1,60,81
2,31778816,Note_on_c,1,76,81
2,31778905,Note_off_c,1,76,0
2,31795752,Note_off_c,1,60,0
2,31797395,Note_on_c,1,60,81
2,31806966,Note_off_c,1,60,0
2,31809618,Note_on_c,1,60,81
2,31815283,Note_off_c,1,60,0
2,31815542,Note_on_c,1,60,81
2,31817946,Note_off_c,1,60,0
2,31821148,Note_on_c,1,64,81
2,31821964,Note_off_c,1,64,0
2,31827737,Note_on_c,1,60,81
2,31828833,Note_on_c,1,64,81
2,31830254,Note_off_c,1,60,0
2,31834607,Note_on_c,1,64,81
2,31835262,Note_on_c,1,52,81
2,31835326,Note_off_c,1,52,0
2,31837075,Note_on_c,1,52,81
2,31837142,Note_off_c,1,52,0
2,31839719,Note_off_c,1,64,0
2,31839766,Note_off_c,1,64,0
2,31857658,Note_on_c,1,60,81
2,31862905,Note_off_c,1,60,0
2,31863191,Note_on_c,1,60,81
2,31877807,Note_on_c,1,64,81
2,31879046,Note_off_c,1,60,0
2,31879758,Note_on_c,1,60,81
2,31884204,Note_off_c,1,64,0
2,31897687,Note_off_c,1,60,0
2,31897784,Note_on_c,1,60,81
2,31899612,Note_on_c,1,60,81
2,31902086,Note_off_c,1,60,0
2,31927697,Note_on_c,1,60,81
2,31934473,Note_on_c,1,64,81
2,31941724,Note_off_c,1,64,0
2,31945649,Note_on_c,1,60,81
2,31945672,Note_off_c,1,60,0
2,31952048,Note_off_c,1,60,0
2,31952084,Note_off_c,1,60,0
2,31952086,Note_on_c,1,60,81
2,31956838,Note_on_c,1,48,81
2,31956940,Note_off_c,1,48,0
2,31959038,Note_off_c,1,60,0
2,31959116,Note_on_c,1,60,81
2,31969751,Note_off_c,1,60,0
2,31969809,Note_on_c,1,60,81
2,31971090,Note_on_c,1,60,81
2,31972290,Note_off_c,1,60,0
2,31982056,Note_on_c,1,60,81
2,31982821,Note_off_c,1,60,0
2,31999975,Note_on_c,1,64,81
2,32002681,Note_off_c,1,60,0
2,32003521,Note_off_c,1,64,0
2,32005635,Note_on_c,1,84,81
2,32008451,Note_off_c,1,84,0
2,32008613,Note_on_c,1,79,81
2,32012472,Note_off_c,1,79,0
2,32013269,Note_on_c,1,79,81
2,32013787,Note_off_c,1,79,0
2,32014794,Note_on_c,1,60,81
2,32032712,Note_on_c,1,64,81
2,32035418,Note_off_c,1,60,0
2,32036258,Note_off_c,1,64,0
2,32038326,Note_on_c,1,60,81
2,32041152,Note_on_c,1,60,81
2,32041644,Note_off_c,1,60,0
2,32078507,Note_on_c,1,91,81
2,32078628,Note_off_c,1,91,0
2,32098175,Note_on_c,1,64,81
2,32108405,Note_on_c,1,64,81
2,32112849,Note_off_c,1,64,0
2,32115263,Note_on_c,1,60,81
2,32115334,Note_off_c,1,60,0
2,32117610,Note_off_c,1,64,0
2,32128253,Note_off_c,1,60,0
2,32128706,Note_on_c,1,60,81
2,32130288,Note_off_c,1,60,0
2,32148358,Note_on_c,1,60,81
2,32150494,Note_on_c,1,60,81
2,32152801,Note_on_c,1,64,81
2,32153083,Note_off_c,1,60,0
2,32153440,Note_on_c,1,60,81
2,32153844,Note_on_c,1,60,81
2,32154365,Note_off_c,1,64,0
2,32154373,Note_off_c,1,60,0
2,32163678,Note_off_c,1,60,0
2,32164594,Note_on_c,1,60,81
2,32168211,Note_on_c,1,60,81
2,32168281,Note_off_c,1,60,0
2,32170029,Note_on_c,1,48,81
2,32170116,Note_off_c,1,48,0
2,32171978,Note_off_c,1,60,0
2,32178096,Note_off_c,1,60,0
2,32178404,Note_on_c,1,60,81
2,32179815,Note_on_c,1,48,81
2,32179876,Note_off_c,1,48,0
2,32180793,Note_off_c,1,60,0
2,32180967,Note_on_c,1,60,81
2,32184322,Note_off_c,1,60,0
2,32184732,Note_on_c,1,64,81
2,32184732,Note_on_c,1,60,81
2,32185882,Note_off_c,1,64,0
2,32190202,Note_off_c,1,60,0
2,32190765,Note_on_c,1,60,81
2,32194842,Note_on_c,1,60,81
2,32195523,Note_off_c,1,60,0
2,32224067,Note_off_c,1,60,0
2,32254639,Note_on_c,1,64,81
2,32288525,Note_on_c,1,60,81
2,32325218,Note_on_c,1,67,81
2,32326178,Note_off_c,1,67,0
2,32352876,Note_on_c,1,72,81
2,32352983,Note_off_c,1,72,0
2,32371912,Note_off_c,1,60,0
2,32393338,Note_on_c,1,60,81
2,32407181,Note_off_c,1,60,0
2,32407763,Note_off_c,1,64,0
2,32439877,Note_on_c,1,60,81
2,32445046,Note_off_c,1,60,0
2,32459820,Note_on_c,1,79,81
2,32473500,Note_off_c,1,79,0
2,32517352,Note_on_c,1,60,81
2,32530287,Note_off_c,1,60,0
2,32549939,Note_on_c,1,72,81
2,32550090,Note_off_c,1,72,0
2,32552712,Note_on_c,1,84,81
2,32560022,Note_off_c,1,84,0
2,32578768,Note_on_c,1,60,81
2,32589848,Note_off_c,1,60,0
2,32628178,Note_on_c,1,60,81
2,32647062,Note_off_c,1,60,0
2,32659466,Note_on_c,1,60,81
2,32659879,Note_on_c,1,64,81
2,32660729,Note_off_c,1,64,0
2,32668383,Note_off_c,1,60,0
2,32706123,Note_on_c,1,79,81
2,32706955,Note_off_c,1,79,0
2,32718004,Note_on_c,1,64,81
2,32719170,Note_off_c,1,64,0
2,32730757,Note_on_c,1,79,81
2,32731695,Note_off_c,1,79,0
2,32741390,Note_on_c,1,60,81
2,32747198,Note_off_c,1,60,0
2,32749911,Note_on_c,1,48,81
2,32749979,Note_off_c,1,48,0
2,32756097,Note_on_c,1,60,81
2,32763532,Note_off_c,1,60,0
2,32812762,Note_on_c,1,60,81
2,32813766,Note_on_c,1,60,81
2,32820466,Note_off_c,1,60,0
2,32821832,Note_on_c,1,60,81
2,32838739,Note_off_c,1,60,0
2,32838822,Note_off_c,1,60,0
2,32840716,Note_on_c,1,60,81
2,32844077,Note_on_c,1,64,81
2,32844135,Note_on_c,1,60,81
2,32844679,Note_off_c,1,60,0
2,32845208,Note_on_c,1,60,81
2,32846500,Note_off_c,1,64,0
2,32853816,Note_off_c,1,60,0
2,32859851,Note_off_c,1,60,0
2,32879170,Note_on_c,1,88,81
2,32879848,Note_off_c,1,88,0
2,32893196,Note_on_c,1,64,81
2,32894632,Note_off_c,1,64,0
2,32894759,Note_on_c,1,64,81
2,32896415,Note_on_c,1,79,81
2,32896490,Note_off_c,1,79,0
2,32901788,Note_off_c,1,64,0
2,32934628,Note_on_c,1,60,81
2,32937363,Note_on_c,1,60,81
2,32941028,Note_off_c,1,60,0
2,32948612,Note_on_c,1,60,81
2,32953122,Note_off_c,1,60,0
2,32968593,Note_on_c,1,60,81
2,32969094,Note_off_c,1,60,0
2,32970231,Note_on_c,1,64,81
2,32970886,Note_off_c,1,64,0
2,32972064,Note_on_c,1,64,81
2,32972853,Note_off_c,1,64,0
2,32981505,Note_off_c,1,60,0
2,33004181,Note_on_c,1,60,81
2,33009591,Note_off_c,1,60,0
2,33064568,Note_on_c,1,60,81
2,33075989,Note_on_c,1,60,81
2,33079450,Note_on_c,1,67,81
2,33079860,Note_off_c,1,67,0
2,33080775,Note_off_c,1,60,0
2,33089696,Note_off_c,1,60,0
2,33091752,Note_on_c,1,79,81
2,33097295,Note_off_c,1,79,0
2,33103793,Note_on_c,1,79,81
2,33107330,Note_off_c,1,79,0
2,33112439,Note_on_c,1,84,81
2,33129084,Note_off_c,1,84,0
2,33131215,Note_on_c,1,79,81
2,33143325,Note_off_c,1,79,0
2,33144782,Note_on_c,1,64,81
2,33147767,Note_off_c,1,64,0
2,33162680,Note_on_c,1,60,81
2,33192499,Note_off_c,1,60,0
2,33193587,Note_on_c,1,60,81
2,33199600,Note_on_c,1,76,81
2,33199696,Note_off_c,1,76,0
2,33200444,Note_on_c,1,60,81
2,33200665,Note_off_c,1,60,0
2,33204439,Note_off_c,1,60,0
2,33204654,Note_on_c,1,60,81
2,33206831,Note_off_c,1,60,0
2,33207080,Note_on_c,1,64,81
2,33207834,Note_on_c,1,48,81
2,33207944,Note_off_c,1,48,0
2,33208473,Note_off_c,1,64,0
2,33208499,Note_on_c,1,60,81
2,33212722,Note_off_c,1,60,0
2,33215704,Note_on_c,1,67,81
2,33216328,Note_off_c,1,67,0
2,33237798,Note_on_c,1,67,81
2,33239690,Note_off_c,1,67,0
2,33246074,Note_on_c,1,64,81
2,33246856,Note_off_c,1,64,0
2,33249533,Note_on_c,1,64,81
2,33250271,Note_on_c,1,60,81
2,33255167,Note_off_c,1,64,0
2,33272047,Note_off_c,1,60,0
2,33272074,Note_on_c,1,60,81
2,33276511,Note_off_c,1,60,0
2,33277122,Note_on_c,1,60,81
2,33279107,Note_on_c,1,60,81
2,33284832,Note_off_c,1,60,0
2,33287226,Note_on_c,1,48,81
2,33287289,Note_off_c,1,48,0
2,33289247,Note_off_c,1,60,0
2,33289301,Note_on_c,1,60,81
2,33290244,Note_on_c,1,48,81
2,33290325,Note_off_c,1,48,0
2,33291653,Note_on_c,1,60,81
2,33298401,Note_off_c,1,60,0
2,33298942,Note_off_c,1,60,0
2,33299478,Note_on_c,1,64,81
2,33299693,Note_on_c,1,60,81
2,33301090,Note_off_c,1,64,0
2,33314254,Note_off_c,1,60,0
2,33314405,Note_on_c,1,60,81
2,33317942,Note_off_c,1,60,0
2,33318557,Note_on_c,1,60,81
2,33321385,Note_on_c,1,60,81
2,33323016,Note_off_c,1,60,0
2,33323627,Note_on_c,1,60,81
2,33329279,Note_off_c,1,60,0
2,33329286,Note_off_c,1,60,0
2,33338977,Note_on_c,1,67,81
2,33339495,Note_off_c,1,67,0
2,33365547,Note_on_c,1,67,81
2,33366243,Note_off_c,1,67,0
2,33389373,Note_on_c,1,67,81
2,33389475,Note_off_c,1,67,0
2,33391822,Note_on_c,1,60,81
2,33400058,Note_on_c,1,67,81
2,33400556,Note_off_c,1,67,0
2,33409896,Note_off_c,1,60,0
2,33410398,Note_on_c,1,60,81
2,33416441,Note_on_c,1,60,81
2,33416453,Note_off_c,1,60,0
2,33418317,Note_off_c,1,60,0
2,33419660,Note_on_c,1,60,81
2,33437362,Note_on_c,1,64,81
2,33438330,Note_on_c,1,48,81
2,33438437,Note_off_c,1,48,0
2,33453689,Note_off_c,1,60,0
2,33453969,Note_on_c,1,60,81
2,33454453,Note_off_c,1,64,0
2,33457544,Note_off_c,1,60,0
2,33540045,Note_on_c,1,36,81
2,33540693,Note_on_c,1,76,81
2,33541000,Note_off_c,1,76,0
2,33562879,Note_on_c,1,76,81
2,33563130,Note_off_c,1,76,0
2,33572546,Note_on_c,1,60,81
2,33580293,Note_off_c,1,60,0
2,33586103,Note_on_c,1,64,81
2,33589026,Note_off_c,1,36,0
2,33593338,Note_off_c,1,64,0
2,33620364,Note_on_c,1,60,81
2,33694292,Note_on_c,1,60,81
2,33696574,Note_off_c,1,60,0
2,33698127,Note_on_c,1,48,81
2,33698234,Note_off_c,1,48,0
2,33711727,Note_off_c,1,60,0
2,33721661,Note_on_c,1,60,81
2,33746905,Note_off_c,1,60,0
2,33771201,Note_on_c,1,60,81
2,33789130,Note_off_c,1,60,0
2,33794672,Note_on_c,1,60,81
2,33800141,Note_on_c,1,64,81
2,33802960,Note_off_c,1,64,0
2,33804003,Note_off_c,1,60,0
2,33867505,Note_on_c,1,64,81
2,33883169,Note_on_c,1,67,81
2,33883411,Note_off_c,1,67,0
2,33891326,Note_on_c,1,64,81
2,33896914,Note_off_c,1,64,0
2,33899134,Note_on_c,1,48,81
2,33899200,Note_off_c,1,48,0
2,33927631,Note_off_c,1,64,0
2,33999971,Note_on_c,1,48,81
2,34000051,Note_off_c,1,48,0
2,34018642,Note_on_c,1,60,81
2,34155622,Note_off_c,1,60,0
2,34189779,Note_on_c,1,67,81
2,34191079,Note_off_c,1,67,0
2,34219438,Note_on_c,1,67,81
2,34220066,Note_off_c,1,67,0
2,34236074,Note_on_c,1,64,81
2,34236659,Note_off_c,1,64,0
2,34236872,Note_on_c,1,60,81
2,34240672,Note_on_c,1,48,81
2,34240736,Note_off_c,1,48,0
2,34246231,Note_off_c,1,60,0
2,34246380,Note_on_c,1,60,81
2,34248534,Note_on_c,1,64,81
2,34249108,Note_off_c,1,60,0
2,34263310,Note_on_c,1,67,81
2,34263673,Note_off_c,1,67,0
2,34279678,Note_on_c,1,60,81
2,34284886,Note_on_c,1,60,81
2,34286768,Note_off_c,1,64,0
2,34392669,Note_off_c,1,60,0
2,34417453,Note_on_c,1,60,81
2,34426069,Note_off_c,1,60,0
2,34426071,Note_off_c,1,60,0
2,34466060,Note_on_c,1,60,81
2,34535229,Note_off_c,1,60,0
2,34537801,Note_on_c,1,60,81
2,34556333,Note_off_c,1,60,0
2,34576257,Note_on_c,1,67,81
2,34576656,Note_off_c,1,67,0
2,34587287,Note_on_c,1,60,81
2,34616537,Note_on_c,1,67,81
2,34617258,Note_off_c,1,67,0
2,34685354,Note_on_c,1,76,81
2,34685642,Note_off_c,1,76,0
2,34686601,Note_on_c,1,67,81
2,34687106,Note_off_c,1,67,0
2,34696316,Note_on_c,1,64,81
2,34696859,Note_off_c,1,60,0
2,34697478,Note_off_c,1,64,0
2,34715612,Note_on_c,1,67,81
2,34715940,Note_off_c,1,67,0
2,34744175,Note_on_c,1,67,81
2,34744673,Note_off_c,1,67,0
2,34757504,Note_on_c,1,60,81
2,34773857,Note_off_c,1,60,0
2,34792082,Note_on_c,1,60,81
2,34821444,Note_on_c,1,76,81
2,34821542,Note_off_c,1,76,0
2,34873830,Note_on_c,1,76,81
2,34873927,Note_off_c,1,76,0
2,34877461,Note_on_c,1,60,81
2,34877514,Note_off_c,1,60,0
2,34889192,Note_off_c,1,60,0
2,34889254,Note_on_c,1,60,81
2,35023521,Note_on_c,1,67,81
2,35023831,Note_off_c,1,67,0
2,35041115,Note_on_c,1,64,81
2,35058015,Note_off_c,1,64,0
2,35070870,Note_on_c,1,67,81
2,35071049,Note_off_c,1,67,0
2,35091406,Note_off_c,1,60,0
2,35118070,Note_on_c,1,60,81
2,35148610,Note_off_c,1,60,0
2,35213955,Note_on_c,1,60,81
2,35220369,Note_on_c,1,64,81
2,35224630,Note_off_c,1,64,0
2,35253079,Note_off_c,1,60,0
2,35258908,Note_on_c,1,60,81
2,35279176,Note_on_c,1,79,81
2,35279819,Note_off_c,1,79,0
2,35295985,Note_off_c,1,60,0
2,35297817,Note_on_c,1,60,81
2,35321771,Note_off_c,1,60,0
2,35342557,Note_on_c,1,60,81
2,35428191,Note_off_c,1,60,0
2,35443043,Note_on_c,1,79,81
2,35449847,Note_off_c,1,79,0
2,35452337,Note_on_c,1,60,81
2,35467102,Note_off_c,1,60,0
2,35468400,Note_on_c,1,60,81
2,35470507,Note_on_c,1,48,81
2,35470579,Note_off_c,1,48,0
2,35470785,Note_off_c,1,60,0
2,35473596,Note_on_c,1,60,81
2,35497079,Note_off_c,1,60,0
2,35497873,Note_on_c,1,60,81
2,35512896,Note_off_c,1,60,0
2,35539837,Note_on_c,1,64,81
2,35546573,Note_off_c,1,64,0
2,35555872,Note_on_c,1,67,81
2,35556264,Note_off_c,1,67,0
2,35563134,Note_on_c,1,64,81
2,35566952,Note_off_c,1,64,0
2,35573584,Note_on_c,1,60,81
2,35607627,Note_on_c,1,67,81
2,35607934,Note_off_c,1,67,0
2,35650996,Note_on_c,1,64,81
2,35651817,Note_on_c,1,52,81
2,35651945,Note_off_c,1,52,0
2,35652856,Note_off_c,1,64,0
2,35664716,Note_on_c,1,48,81
2,35664789,Note_off_c,1,48,0
2,35728583,Note_off_c,1,60,0
2,35733866,Note_on_c,1,64,81
2,35736947,Note_off_c,1,64,0
2,35737031,Note_on_c,1,60,81
2,35749079,Note_off_c,1,60,0
2,35764401,Note_on_c,1,64,81
2,35764503,Note_off_c,1,64,0
2,35765907,Note_on_c,1,67,81
2,35766927,Note_off_c,1,67,0
2,35776593,Note_on_c,1,60,81
2,35779552,Note_off_c,1,60,0
2,35781018,Note_on_c,1,60,81
2,35793675,Note_off_c,1,60,0
2,35794981,Note_on_c,1,60,81
2,35797205,Note_on_c,1,60,81
2,35797344,Note_off_c,1,60,0
2,35832965,Note_on_c,1,60,81
2,35845397,Note_off_c,1,60,0
2,35921342,Note_off_c,1,60,0
2,35943515,Note_on_c,1,60,81
2,35989514,Note_on_c,1,88,81
2,35991374,Note_off_c,1,88,0
2,36024868,Note_off_c,1,60,0
2,36027676,Note_on_c,1,60,81
2,36091990,Note_on_c,1,67,81
2,36092646,Note_off_c,1,67,0
2,36111236,Note_off_c,1,60,0
2,36127808,Note_on_c,1,60,81
2,36144524,Note_off_c,1,60,0
2,36146697,Note_on_c,1,64,81
2,36196743,Note_on_c,1,60,81
2,36197205,Note_off_c,1,64,0
2,36232790,Note_off_c,1,60,0
2,36243202,Note_on_c,1,60,81
2,36313955,Note_off_c,1,60,0
2,36315760,Note_on_c,1,60,81
2,36336888,Note_off_c,1,60,0
2,36354090,Note_on_c,1,60,81
2,36386830,Note_on_c,1,64,81
2,36387800,Note_off_c,1,60,0
2,36390550,Note_on_c,1,60,81
2,36393462,Note_off_c,1,64,0
2,36442766,Note_on_c,1,60,81
2,36442854,Note_off_c,1,60,0
2,36450911,Note_on_c,1,76,81
2,36451201,Note_off_c,1,76,0
2,36491143,Note_off_c,1,60,0
2,36493891,Note_on_c,1,60,81
2,36522190,Note_on_c,1,76,81
2,36522501,Note_off_c,1,76,0
2,36547479,Note_off_c,1,60,0
2,36594352,Note_on_c,1,60,81
2,36605600,Note_off_c,1,60,0
2,36622435,Note_on_c,1,48,81
2,36622512,Note_off_c,1,48,0
2,36639544,Note_on_c,1,72,81
2,36639672,Note_off_c,1,72,0
2,36672837,Note_on_c,1,76,81
2,36672944,Note_off_c,1,76,0
2,36673620,Note_on_c,1,64,81
2,36673816,Note_on_c,1,67,81
2,36675126,Note_off_c,1,64,0
2,36675270,Note_off_c,1,67,0
2,36676459,Note_on_c,1,60,81
2,36677608,Note_on_c,1,64,81
2,36678559,Note_off_c,1,64,0
2,36687337,Note_off_c,1,60,0
2,36697825,Note_on_c,1,60,81
2,36733184,Note_off_c,1,60,0
2,36737049,Note_on_c,1,67,81
2,36737986,Note_off_c,1,67,0
2,36740774,Note_on_c,1,60,81
2,36768484,Note_on_c,1,64,81
2,36774651,Note_off_c,1,64,0
2,36839444,Note_off_c,1,60,0
2,36841429,Note_on_c,1,64,81
2,36844427,Note_off_c,1,64,0
2,36854826,Note_on_c,1,60,81
2,36871869,Note_on_c,1,60,81
2,36874803,Note_off_c,1,60,0
2,36928964,Note_off_c,1,60,0
2,36940070,Note_on_c,1,64,81
2,36944675,Note_off_c,1,64,0
2,36948262,Note_on_c,1,60,81
2,36964837,Note_off_c,1,60,0
2,36968140,Note_on_c,1,60,81
2,36986298,Note_off_c,1,60,0
2,37005645,Note_on_c,1,60,81
2,37029069,Note_off_c,1,60,0
2,37044859,Note_on_c,1,67,81
2,37045189,Note_off_c,1,67,0
2,37091313,Note_on_c,1,67,81
2,37091806,Note_off_c,1,67,0
2,37170151,Note_on_c,1,60,81
2,37175428,Note_off_c,1,60,0
2,37212177,Note_on_c,1,60,81
2,37212180,Note_on_c,1,60,81
2,37257637,Note_off_c,1,60,0
2,37257771,Note_on_c,1,60,81
2,37258155,Note_off_c,1,60,0
2,37295583,Note_on_c,1,67,81
2,37295742,Note_off_c,1,67,0
2,37301209,Note_on_c,1,64,81
2,37305176,Note_off_c,1,64,0
2,37332970,Note_off_c,1,60,0
2,37353978,Note_on_c,1,60,81
2,37361184,Note_on_c,1,76,81
2,37361483,Note_off_c,1,76,0
2,37394734,Note_off_c,1,60,0
2,37433218,Note_on_c,1,60,81
2,37482827,Note_off_c,1,60,0
2,37482937,Note_on_c,1,60,81
2,37499893,Note_off_c,1,60,0
2,37507347,Note_on_c,1,64,81
2,37536266,Note_off_c,1,64,0
2,37543552,Note_on_c,1,88,81
2,37545144,Note_on_c,1,64,81
2,37547280,Note_off_c,1,88,0
2,37550860,Note_off_c,1,64,0
2,37555364,Note_on_c,1,48,81
2,37555422,Note_off_c,1,48,0
2,37567715,Note_on_c,1,55,81
2,37571460,Note_off_c,1,55,0
2,37630678,Note_on_c,1,60,81
2,37699306,Note_off_c,1,60,0
2,37815776,Note_on_c,1,64,81
2,37819218,Note_off_c,1,64,0
2,37819726,Note_on_c,1,60,81
2,37832921,Note_on_c,1,76,81
2,37833185,Note_off_c,1,76,0
2,37915572,Note_on_c,1,72,81
2,37915742,Note_off_c,1,72,0
2,38002831,Note_on_c,1,67,81
2,38003313,Note_off_c,1,67,0
2,38154624,Note_off_c,1,60,0
2,38168450,Note_on_c,1,60,81
2,38207273,Note_on_c,1,52,81
2,38207345,Note_off_c,1,52,0
2,38481691,Note_on_c,1,64,81
2,38482531,Note_off_c,1,64,0
2,38565949,Note_on_c,1,76,81
2,38566055,Note_off_c,1,76,0
2,38587322,Note_on_c,1,67,81
2,38588529,Note_off_c,1,67,0
2,38640148,Note_off_c,1,60,0
2,38675924,Note_on_c,1,60,81
2,38703145,Note_off_c,1,60,0
2,38714050,Note_on_c,1,64,81
2,38715217,Note_off_c,1,64,0
2,38715310,Note_on_c,1,60,81
2,38744085,Note_on_c,1,76,81
2,38744386,Note_off_c,1,76,0
2,38762904,Note_on_c,1,67,81
2,38764694,Note_off_c,1,67,0
2,38822306,Note_on_c,1,52,81
2,38822404,Note_off_c,1,52,0
2,38923028,Note_on_c,1,64,81
2,38928030,Note_on_c,1,67,81
2,38928153,Note_off_c,1,67,0
2,38953099,Note_off_c,1,64,0
2,39030792,Note_off_c,1,60,0
2,39039602,Note_on_c,1,67,81
2,39039985,Note_off_c,1,67,0
2,39048780,Note_on_c,1,60,81
2,39091303,Note_off_c,1,60,0
2,39104062,Note_on_c,1,60,81
2,39110320,Note_on_c,1,67,81
2,39112952,Note_off_c,1,67,0
2,39115186,Note_off_c,1,60,0
2,39188970,Note_on_c,1,60,81
2,39229475,Note_off_c,1,60,0
2,39299000,Note_on_c,1,60,81
2,39314461,Note_off_c,1,60,0
2,39314697,Note_on_c,1,60,81
2,39322968,Note_off_c,1,60,0
2,39329989,Note_on_c,1,60,81
2,39353746,Note_on_c,1,67,81
2,39354172,Note_off_c,1,67,0
2,39553810,Note_on_c,1,67,81
2,39554943,Note_off_c,1,67,0
2,39620344,Note_on_c,1,72,81
2,39620464,Note_off_c,1,72,0
2,39725408,Note_off_c,1,60,0
2,39792297,Note_on_c,1,60,81
2,39818750,Note_on_c,1,55,81
2,39823227,Note_off_c,1,55,0
2,39881803,Note_on_c,1,64,81
2,39899577,Note_on_c,1,60,81
2,39900071,Note_off_c,1,64,0
2,39904877,Note_off_c,1,60,0
2,39934551,Note_off_c,1,60,0
2,39934594,Note_on_c,1,88,81
2,39958413,Note_on_c,1,67,81
2,39958833,Note_off_c,1,67,0
2,40000527,Note_off_c,1,88,0
2,40271565,Note_on_c,1,64,81
2,40276237,Note_off_c,1,64,0
2,40334774,Note_on_c,1,64,81
2,40344343,Note_on_c,1,64,81
2,40346151,Note_off_c,1,64,0
2,40358743,Note_on_c,1,64,81
2,40369474,Note_off_c,1,64,0
2,40387590,Note_off_c,1,64,0
2,40391590,Note_on_c,1,60,81
2,40407852,Note_on_c,1,72,81
2,40407955,Note_off_c,1,72,0
2,40501630,Note_on_c,1,64,81
2,40502393,Note_off_c,1,64,0
2,40505506,Note_on_c,1,64,81
2,40523963,Note_off_c,1,64,0
2,40587364,Note_off_c,1,60,0
2,40713410,Note_on_c,1,64,81
2,40715363,Note_off_c,1,64,0
2,41026894,Note_on_c,1,60,81
2,41033626,Note_on_c,1,60,81
2,41039221,Note_off_c,1,60,0
2,41042466,Note_on_c,1,60,81
2,41044337,Note_off_c,1,60,0
2,41053201,Note_on_c,1,60,81
2,41064891,Note_off_c,1,60,0
2,41072973,Note_on_c,1,60,81
2,41080623,Note_on_c,1,64,81
2,41097787,Note_off_c,1,60,0
2,41101021,Note_on_c,1,84,81
2,41101056,Note_off_c,1,64,0
2,41102403,Note_off_c,1,60,0
2,41140835,Note_off_c,1,84,0
2,41149336,Note_on_c,1,60,81
2,41154347,Note_off_c,1,60,0
2,41158505,Note_on_c,1,60,81
2,41163186,Note_off_c,1,60,0
2,41189748,Note_on_c,1,60,81
2,41201149,Note_off_c,1,60,0
2,41208712,Note_on_c,1,84,81
2,41217947,Note_off_c,1,84,0
2,41228338,Note_on_c,1,60,81
2,41238882,Note_off_c,1,60,0
2,41239519,Note_on_c,1,91,81
2,41239626,Note_off_c,1,91,0
2,41247368,Note_on_c,1,79,81
2,41249649,Note_off_c,1,79,0
2,41250850,Note_on_c,1,67,81
2,41251097,Note_off_c,1,67,0
2,41252695,Note_on_c,1,67,81
2,41252858,Note_off_c,1,67,0
2,41267925,Note_on_c,1,60,81
2,41269874,Note_on_c,1,79,81
2,41270239,Note_off_c,1,79,0
2,41286682,Note_off_c,1,60,0
2,41302465,Note_on_c,1,72,81
2,41302572,Note_off_c,1,72,0
2,41308165,Note_on_c,1,67,81
2,41308565,Note_off_c,1,67,0
2,41335607,Note_on_c,1,60,81
2,41350889,Note_off_c,1,60,0
2,41381391,Note_on_c,1,55,81
2,41381832,Note_off_c,1,55,0
2,41405818,Note_on_c,1,55,81
2,41406561,Note_off_c,1,55,0
2,41452888,Note_on_c,1,64,81
2,41499032,Note_on_c,1,64,81
2,41519852,Note_off_c,1,64,0
2,41546380,Note_on_c,1,60,81
2,41548621,Note_off_c,1,64,0
2,41598722,Note_on_c,1,48,81
2,41598788,Note_off_c,1,48,0
2,41602384,Note_off_c,1,60,0
2,41636881,Note_on_c,1,60,81
2,41654244,Note_off_c,1,60,0
2,41666905,Note_on_c,1,67,81
2,41667649,Note_off_c,1,67,0
2,41683977,Note_on_c,1,60,81
2,41720395,Note_on_c,1,64,81
2,41734032,Note_off_c,1,64,0
2,41736259,Note_off_c,1,60,0
2,41736710,Note_on_c,1,60,81
2,41754109,Note_off_c,1,60,0
2,41764291,Note_on_c,1,64,81
2,41764460,Note_off_c,1,64,0
2,41770175,Note_on_c,1,60,81
2,41780348,Note_on_c,1,60,81
2,41780781,Note_on_c,1,60,81
2,41786542,Note_off_c,1,60,0
2,41787452,Note_off_c,1,60,0
2,41787661,Note_on_c,1,60,81
2,41789895,Note_on_c,1,60,81
2,41789898,Note_off_c,1,60,0
2,41790141,Note_off_c,1,60,0
2,41791409,Note_on_c,1,64,81
2,41791477,Note_off_c,1,64,0
2,41793313,Note_on_c,1,60,81
2,41832853,Note_on_c,1,52,81
2,41832993,Note_off_c,1,52,0
2,41868621,Note_on_c,1,64,81
2,41869731,Note_off_c,1,64,0
2,41895375,Note_off_c,1,60,0
2,41905353,Note_on_c,1,60,81
2,41917415,Note_on_c,1,76,81
2,41917526,Note_off_c,1,76,0
2,41921139,Note_off_c,1,60,0
2,41921139,Note_off_c,1,60,0
2,41921498,Note_on_c,1,60,81
2,41933046,Note_off_c,1,60,0
2,41934933,Note_on_c,1,60,81
2,42018407,Note_on_c,1,72,81
2,42018514,Note_off_c,1,72,0
2,42030052,Note_on_c,1,64,81
2,42031382,Note_off_c,1,64,0
2,42050357,Note_off_c,1,60,0
2,42050512,Note_on_c,1,60,81
2,42087461,Note_off_c,1,60,0
2,42092232,Note_on_c,1,64,81
2,42094259,Note_off_c,1,64,0
2,42101118,Note_on_c,1,60,81
2,42142620,Note_off_c,1,60,0
2,42155405,Note_on_c,1,60,81
2,42155405,Note_on_c,1,60,81
2,42180056,Note_off_c,1,60,0
2,42181338,Note_off_c,1,60,0
2,42183283,Note_on_c,1,60,81
2,42191656,Note_on_c,1,64,81
2,42192074,Note_off_c,1,64,0
2,42194956,Note_off_c,1,60,0
2,42206806,Note_on_c,1,60,81
2,42217861,Note_off_c,1,60,0
2,42224930,Note_on_c,1,60,81
2,42452051,Note_off_c,1,60,0
2,42499709,Note_on_c,1,67,81
2,42500022,Note_off_c,1,67,0
2,42564028,Note_on_c,1,60,81
2,42664161,Note_on_c,1,72,81
2,42664268,Note_off_c,1,72,0
2,42693505,Note_off_c,1,60,0
2,42696597,Note_on_c,1,60,81
2,42722597,Note_off_c,1,60,0
2,42727233,Note_on_c,1,67,81
2,42727700,Note_off_c,1,67,0
2,42744497,Note_on_c,1,60,81
2,42746103,Note_off_c,1,60,0
2,42746957,Note_on_c,1,60,81
2,42868558,Note_off_c,1,60,0
2,42879615,Note_on_c,1,60,81
2,42889925,Note_off_c,1,60,0
2,42890264,Note_on_c,1,60,81
2,42890821,Note_off_c,1,60,0
2,42893760,Note_on_c,1,64,81
2,42903072,Note_off_c,1,64,0
2,42915988,Note_on_c,1,60,81
2,42925838,Note_off_c,1,60,0
2,42928279,Note_on_c,1,64,81
2,42929457,Note_off_c,1,64,0
2,42929479,Note_on_c,1,60,81
2,42939294,Note_off_c,1,60,0
2,42940363,Note_on_c,1,64,81
2,42948360,Note_off_c,1,64,0
2,42956344,Note_on_c,1,67,81
2,42956765,Note_off_c,1,67,0
2,42960753,Note_on_c,1,60,81
2,42963864,Note_on_c,1,60,81
2,42963880,Note_off_c,1,60,0
2,42979181,Note_off_c,1,60,0
2,42984552,Note_on_c,1,60,81
2,43011142,Note_on_c,1,60,81
2,43012342,Note_off_c,1,60,0
2,43014102,Note_on_c,1,60,81
2,43016868,Note_off_c,1,60,0
2,43021298,Note_off_c,1,60,0
2,43021622,Note_on_c,1,60,81
2,43033896,Note_on_c,1,64,81
2,43034156,Note_off_c,1,60,0
2,43034405,Note_off_c,1,64,0
2,43036195,Note_on_c,1,76,81
2,43036500,Note_off_c,1,76,0
2,43037616,Note_on_c,1,60,81
2,43040776,Note_on_c,1,60,81
2,43051065,Note_on_c,1,60,81
2,43053943,Note_off_c,1,60,0
2,43054028,Note_on_c,1,60,81
2,43058185,Note_off_c,1,60,0
2,43059438,Note_off_c,1,60,0
2,43074330,Note_on_c,1,64,81
2,43074739,Note_off_c,1,64,0
2,43075095,Note_off_c,1,60,0
2,43076306,Note_on_c,1,60,81
2,43161719,Note_off_c,1,60,0
2,43171268,Note_on_c,1,60,81
2,43181506,Note_off_c,1,60,0
2,43182183,Note_on_c,1,60,81
2,43213800,Note_on_c,1,64,81
2,43223860,Note_off_c,1,64,0
2,43224587,Note_off_c,1,60,0
2,43225628,Note_on_c,1,60,81
2,43229481,Note_off_c,1,60,0
2,43243480,Note_on_c,1,60,81
2,43288258,Note_off_c,1,60,0
2,43295693,Note_on_c,1,60,81
2,43299709,Note_on_c,1,60,81
2,43305538,Note_off_c,1,60,0
2,43307133,Note_on_c,1,60,81
2,43308826,Note_off_c,1,60,0
2,43310230,Note_on_c,1,67,81
2,43310357,Note_off_c,1,67,0
2,43328133,Note_on_c,1,67,81
2,43328476,Note_off_c,1,67,0
2,43363478,Note_on_c,1,67,81
2,43364219,Note_off_c,1,67,0
2,43364219,Note_on_c,1,67,81
2,43364294,Note_off_c,1,67,0
2,43369647,Note_off_c,1,60,0
2,43370025,Note_on_c,1,64,81
2,43403814,Note_on_c,1,64,81
2,43408341,Note_off_c,1,64,0
2,43425283,Note_off_c,1,64,0
2,43427365,Note_on_c,1,60,81
2,43434541,Note_on_c,1,48,81
2,43434620,Note_off_c,1,48,0
2,43450351,Note_on_c,1,60,81
2,43450427,Note_off_c,1,60,0
2,43456632,Note_off_c,1,60,0
2,43474185,Note_on_c,1,72,81
2,43474292,Note_off_c,1,72,0
2,43477522,Note_on_c,1,60,81
2,43506556,Note_off_c,1,60,0
2,43506968,Note_on_c,1,60,81
2,43509701,Note_on_c,1,60,81
2,43510686,Note_off_c,1,60,0
2,43511831,Note_on_c,1,60,81
2,43516985,Note_off_c,1,60,0
2,43519179,Note_on_c,1,64,81
2,43519724,Note_off_c,1,64,0
2,43522333,Note_on_c,1,60,81
2,43538821,Note_on_c,1,67,81
2,43539703,Note_off_c,1,67,0
2,43544143,Note_on_c,1,100,81
2,43544270,Note_off_c,1,100,0
2,43562419,Note_off_c,1,60,0
2,43576038,Note_off_c,1,60,0
2,43576184,Note_on_c,1,60,81
2,43588229,Note_on_c,1,64,81
2,43591362,Note_off_c,1,64,0
2,43605315,Note_on_c,1,60,81
2,43620523,Note_off_c,1,60,0
2,43629264,Note_off_c,1,60,0
2,43629539,Note_on_c,1,60,81
2,43640941,Note_off_c,1,60,0
2,43645035,Note_on_c,1,60,81
2,43671201,Note_on_c,1,60,81
2,43672600,Note_off_c,1,60,0
2,43687791,Note_off_c,1,60,0
2,43705948,Note_on_c,1,67,81
2,43706751,Note_off_c,1,67,0
2,43722785,Note_on_c,1,64,81
2,43737834,Note_off_c,1,64,0
2,43770183,Note_on_c,1,60,81
2,43770428,Note_on_c,1,64,81
2,43770616,Note_off_c,1,64,0
2,43786487,Note_off_c,1,60,0
2,43803192,Note_on_c,1,64,81
2,43842625,Note_off_c,1,64,0
2,43844877,Note_on_c,1,64,81
2,43851756,Note_on_c,1,64,81
2,43852317,Note_off_c,1,64,0
2,43852333,Note_off_c,1,64,0
2,43891044,Note_on_c,1,64,81
2,43931571,Note_on_c,1,64,81
2,43938212,Note_off_c,1,64,0
2,43990797,Note_on_c,1,64,81
2,43999561,Note_off_c,1,64,0
2,44000579,Note_on_c,1,64,81
2,44007612,Note_off_c,1,64,0
2,44058791,Note_on_c,1,64,81
2,44074655,Note_off_c,1,64,0
2,44089241,Note_on_c,1,67,81
2,44089288,Note_off_c,1,64,0
2,44089696,Note_off_c,1,67,0
2,44090786,Note_on_c,1,64,81
2,44095585,Note_off_c,1,64,0
2,44113450,Note_on_c,1,60,81
2,44126913,Note_on_c,1,60,81
2,44127452,Note_off_c,1,60,0
2,44155519,Note_off_c,1,60,0
2,44158810,Note_on_c,1,60,81
2,44184401,Note_off_c,1,60,0
2,44209765,Note_on_c,1,76,81
2,44210063,Note_off_c,1,76,0
2,44216925,Note_on_c,1,60,81
2,44218234,Note_off_c,1,60,0
2,44219552,Note_on_c,1,60,81
2,44234142,Note_off_c,1,60,0
2,44246165,Note_on_c,1,60,81
2,44253888,Note_off_c,1,60,0
2,44254095,Note_on_c,1,60,81
2,44254205,Note_on_c,1,48,81
2,44254285,Note_off_c,1,48,0
2,44257890,Note_off_c,1,60,0
2,44258165,Note_on_c,1,60,81
2,44265788,Note_off_c,1,60,0
2,44270449,Note_on_c,1,60,81
2,44273193,Note_on_c,1,60,81
2,44278733,Note_on_c,1,60,81
2,44297698,Note_off_c,1,60,0
2,44298730,Note_on_c,1,60,81
2,44307506,Note_off_c,1,60,0
2,44313347,Note_off_c,1,60,0
2,44342649,Note_on_c,1,60,81
2,44378957,Note_off_c,1,60,0
2,44380179,Note_off_c,1,60,0
2,44387705,Note_on_c,1,60,81
2,44435640,Note_on_c,1,48,81
2,44435722,Note_off_c,1,48,0
2,44450425,Note_off_c,1,60,0
2,44513261,Note_on_c,1,64,81
2,44527448,Note_off_c,1,64,0
2,44551576,Note_on_c,1,55,81
2,44553281,Note_off_c,1,55,0
2,44727920,Note_on_c,1,64,81
2,44809316,Note_on_c,1,60,81
2,44830188,Note_off_c,1,64,0
2,44898710,Note_on_c,1,67,81
2,44899295,Note_off_c,1,67,0
2,45097495,Note_on_c,1,79,81
2,45097976,Note_off_c,1,79,0
2,45098020,Note_on_c,1,67,81
2,45099260,Note_off_c,1,67,0
2,45158869,Note_on_c,1,67,81
2,45159511,Note_off_c,1,67,0
2,45197673,Note_on_c,1,48,81
2,45197770,Note_off_c,1,48,0
2,45328156,Note_on_c,1,60,81
2,45377953,Note_off_c,1,60,0
2,45421078,Note_on_c,1,64,81
2,45422005,Note_off_c,1,64,0
2,45573345,Note_on_c,1,64,81
2,45576770,Note_off_c,1,64,0
2,45664349,Note_off_c,1,60,0
2,45880826,Note_on_c,1,60,81
2,46018744,Note_on_c,1,72,81
2,46018851,Note_off_c,1,72,0
2,46080348,Note_off_c,1,60,0
2,46096003,Note_on_c,1,64,81
2,46129857,Note_off_c,1,64,0
2,46129988,Note_on_c,1,60,81
2,46146688,Note_off_c,1,60,0
2,46159184,Note_on_c,1,60,81
2,46170980,Note_off_c,1,60,0
2,46204728,Note_on_c,1,67,81
2,46207386,Note_off_c,1,67,0
2,46220735,Note_on_c,1,60,81
2,46438309,Note_on_c,1,67,81
2,46438619,Note_off_c,1,67,0
2,46491972,Note_off_c,1,60,0
2,46492051,Note_on_c,1,64,81
2,46549579,Note_on_c,1,60,81
2,46606162,Note_off_c,1,64,0
2,46652830,Note_off_c,1,60,0
2,46652914,Note_on_c,1,60,81
2,46670443,Note_on_c,1,64,81
2,46678190,Note_off_c,1,60,0
2,46687874,Note_on_c,1,60,81
2,46688165,Note_off_c,1,64,0
2,46704200,Note_on_c,1,60,81
2,46704319,Note_off_c,1,60,0
2,46735693,Note_off_c,1,60,0
2,46746932,Note_on_c,1,60,81
2,46758295,Note_on_c,1,64,81
2,46759506,Note_off_c,1,60,0
2,46761158,Note_off_c,1,64,0
2,46793388,Note_on_c,1,60,81
2,46839778,Note_off_c,1,60,0
2,46852521,Note_on_c,1,60,81
2,46903470,Note_on_c,1,64,81
2,46909078,Note_off_c,1,64,0
2,46954943,Note_off_c,1,60,0
2,46997707,Note_on_c,1,60,81
2,47042350,Note_off_c,1,60,0
2,47231531,Note_on_c,1,60,81
2,47309905,Note_off_c,1,60,0
2,47368942,Note_on_c,1,67,81
2,47369230,Note_off_c,1,67,0
2,47374560,Note_on_c,1,64,81
2,47397398,Note_off_c,1,64,0
2,47477242,Note_on_c,1,64,81
2,47477572,Note_off_c,1,64,0
2,47477788,Note_on_c,1,60,81
2,47489066,Note_on_c,1,76,81
2,47489170,Note_off_c,1,76,0
2,47562621,Note_on_c,1,67,81
2,47563018,Note_off_c,1,67,0
2,47627263,Note_off_c,1,60,0
2,47656486,Note_on_c,1,36,81
2,47685863,Note_on_c,1,60,81
2,47695192,Note_off_c,1,36,0
2,47715282,Note_on_c,1,76,81
2,47715601,Note_off_c,1,76,0
2,47722021,Note_off_c,1,60,0
2,47729826,Note_on_c,1,64,81
2,47740741,Note_off_c,1,64,0
2,47752827,Note_on_c,1,67,81
2,47753240,Note_off_c,1,67,0
2,47781981,Note_on_c,1,60,81
2,47823389,Note_on_c,1,72,81
2,47823550,Note_off_c,1,72,0
2,47832780,Note_off_c,1,60,0
2,47856672,Note_on_c,1,60,81
2,48069212,Note_on_c,1,64,81
2,48111078,Note_off_c,1,64,0
2,48111197,Note_off_c,1,60,0
2,48149202,Note_on_c,1,67,81
2,48150005,Note_off_c,1,67,0
2,48213603,Note_on_c,1,67,81
2,48214794,Note_off_c,1,67,0
2,48701490,Note_on_c,1,67,81
2,48701872,Note_off_c,1,67,0
2,48754648,Note_on_c,1,64,81
2,48795513,Note_off_c,1,64,0
2,48952069,Note_on_c,1,67,81
2,48952781,Note_off_c,1,67,0
2,49077711,Note_on_c,1,67,81
2,49078051,Note_off_c,1,67,0
2,49115536,Note_on_c,1,67,81
2,49116115,Note_off_c,1,67,0
2,49273599,Note_on_c,1,67,81
2,49273794,Note_off_c,1,67,0
2,49344799,Note_on_c,1,72,81
2,49344861,Note_off_c,1,72,0
2,49358184,Note_on_c,1,67,81
2,49360420,Note_off_c,1,67,0
2,49430359,Note_on_c,1,60,81
2,49463253,Note_off_c,1,60,0
2,49463369,Note_on_c,1,60,81
2,49493107,Note_off_c,1,60,0
2,49499922,Note_on_c,1,60,81
2,49528078,Note_off_c,1,60,0
2,49550665,Note_on_c,1,60,81
2,49561907,Note_off_c,1,60,0
2,49565923,Note_on_c,1,40,81
2,49580166,Note_off_c,1,40,0
2,49605174,Note_on_c,1,60,81
2,49636839,Note_off_c,1,60,0
2,49692357,Note_on_c,1,60,81
2,49713590,Note_off_c,1,60,0
2,49714324,Note_on_c,1,64,81
2,49721930,Note_on_c,1,55,81
2,49724007,Note_off_c,1,55,0
2,49727375,Note_on_c,1,60,81
2,49744437,Note_off_c,1,60,0
2,49785659,Note_on_c,1,60,81
2,49787285,Note_off_c,1,60,0
2,49820503,Note_off_c,1,64,0
2,49823711,Note_on_c,1,64,81
2,49824782,Note_off_c,1,64,0
2,49834256,Note_on_c,1,60,81
2,49877096,Note_off_c,1,60,0
2,49946020,Note_on_c,1,84,81
2,49950265,Note_off_c,1,84,0
2,49960248,Note_on_c,1,60,81
2,49964164,Note_off_c,1,60,0
2,49968676,Note_on_c,1,60,81
2,49969625,Note_off_c,1,60,0
2,50009137,Note_on_c,1,60,81
2,50021994,Note_off_c,1,60,0
2,50042098,Note_on_c,1,60,81
2,50049929,Note_off_c,1,60,0
2,50093388,Note_on_c,1,64,81
2,50181007,Note_off_c,1,64,0
2,50411843,Note_on_c,1,64,81
2,50415875,Note_off_c,1,64,0
2,50514034,Note_on_c,1,64,81
2,50521104,Note_off_c,1,64,0
2,50587606,Note_on_c,1,64,81
2,50637205,Note_off_c,1,64,0
2,50713525,Note_on_c,1,60,81
2,50773033,Note_off_c,1,60,0
2,50818722,Note_on_c,1,60,81
2,50847619,Note_off_c,1,60,0
2,50857254,Note_on_c,1,67,81
2,50857662,Note_off_c,1,67,0
2,50897614,Note_on_c,1,67,81
2,50898225,Note_off_c,1,67,0
2,50912711,Note_on_c,1,67,81
2,50913256,Note_off_c,1,67,0
2,51385281,Note_on_c,1,67,81
2,51385849,Note_off_c,1,67,0
2,51410080,Note_on_c,1,67,81
2,51410537,Note_off_c,1,67,0
2,51464689,Note_on_c,1,52,81
2,51464765,Note_off_c,1,52,0
2,51537154,Note_on_c,1,67,81
2,51537543,Note_off_c,1,67,0
2,51599722,Note_on_c,1,64,81
2,51615298,Note_on_c,1,60,81
2,51623428,Note_off_c,1,64,0
2,51975672,Note_on_c,1,76,81
2,51975959,Note_off_c,1,76,0
2,52087613,Note_off_c,1,60,0
2,52144348,Note_on_c,1,48,81
2,52144434,Note_off_c,1,48,0
2,52146813,Note_on_c,1,64,81
2,52148922,Note_on_c,1,48,81
2,52149041,Note_off_c,1,48,0
2,52151119,Note_off_c,1,64,0
2,52186374,Note_on_c,1,60,81
2,52190638,Note_off_c,1,60,0
2,52236680,Note_on_c,1,60,81
2,52244500,Note_off_c,1,60,0
2,52246459,Note_on_c,1,67,81
2,52247362,Note_off_c,1,67,0
2,52264013,Note_on_c,1,60,81
2,52284881,Note_off_c,1,60,0
2,52361420,Note_on_c,1,60,81
2,52362122,Note_on_c,1,60,81
2,52364083,Note_on_c,1,64,81
2,52365145,Note_off_c,1,64,0
2,52407777,Note_off_c,1,60,0
2,52497407,Note_on_c,1,60,81
2,52529886,Note_off_c,1,60,0
2,52576786,Note_on_c,1,64,81
2,52577060,Note_off_c,1,60,0
2,52643058,Note_off_c,1,64,0
2,52657372,Note_on_c,1,67,81
2,52657651,Note_off_c,1,67,0
2,52664365,Note_on_c,1,84,81
2,52669155,Note_off_c,1,84,0
2,52671112,Note_on_c,1,60,81
2,52686588,Note_off_c,1,60,0
2,52687929,Note_on_c,1,79,81
2,52688660,Note_on_c,1,67,81
2,52688998,Note_off_c,1,67,0
2,52703825,Note_off_c,1,79,0
2,52739589,Note_on_c,1,79,81
2,52744656,Note_off_c,1,79,0
2,52750086,Note_on_c,1,60,81
2,52763475,Note_off_c,1,60,0
2,52765279,Note_on_c,1,79,81
2,52778347,Note_off_c,1,79,0
2,52791370,Note_on_c,1,60,81
2,52803860,Note_off_c,1,60,0
2,52805612,Note_on_c,1,79,81
2,52813460,Note_off_c,1,79,0
2,52831654,Note_on_c,1,60,81
2,52840843,Note_off_c,1,60,0
2,52847909,Note_on_c,1,79,81
2,52870329,Note_off_c,1,79,0
2,52873013,Note_on_c,1,79,81
2,52879940,Note_off_c,1,79,0
2,52896638,Note_on_c,1,60,81
2,52909698,Note_off_c,1,60,0
2,52939725,Note_on_c,1,84,81
2,52957521,Note_off_c,1,84,0
2,52970649,Note_on_c,1,67,81
2,52970866,Note_off_c,1,67,0
2,52977947,Note_on_c,1,60,81
2,52995304,Note_off_c,1,60,0
2,52995619,Note_on_c,1,76,81
2,52995620,Note_on_c,1,72,81
2,52995948,Note_off_c,1,72,0
2,52995950,Note_off_c,1,76,0
2,53001278,Note_on_c,1,60,81
2,53041265,Note_on_c,1,60,81
2,53041385,Note_off_c,1,60,0
2,53051990,Note_on_c,1,60,81
2,53061824,Note_off_c,1,60,0
2,53065601,Note_on_c,1,60,81
2,53065673,Note_off_c,1,60,0
2,53090960,Note_on_c,1,76,81
2,53091257,Note_off_c,1,76,0
2,53100873,Note_off_c,1,60,0
2,53125643,Note_on_c,1,64,81
2,53126146,Note_off_c,1,64,0
2,53126960,Note_on_c,1,60,81
2,53148841,Note_off_c,1,60,0
2,53153794,Note_on_c,1,72,81
2,53153898,Note_off_c,1,72,0
2,53196719,Note_on_c,1,67,81
2,53197159,Note_off_c,1,67,0
2,53206597,Note_on_c,1,67,81
2,53208697,Note_off_c,1,67,0
2,53219260,Note_on_c,1,72,81
2,53219424,Note_off_c,1,72,0
2,53235620,Note_on_c,1,67,81
2,53236297,Note_off_c,1,67,0
2,53267397,Note_on_c,1,60,81
2,53276992,Note_on_c,1,48,81
2,53277071,Note_off_c,1,48,0
2,53336942,Note_on_c,1,88,81
2,53337346,Note_off_c,1,88,0
2,53349179,Note_off_c,1,60,0
2,53350157,Note_on_c,1,64,81
2,53350705,Note_off_c,1,64,0
2,53354714,Note_on_c,1,67,81
2,53355065,Note_off_c,1,67,0
2,53368669,Note_on_c,1,67,81
2,53369009,Note_off_c,1,67,0
2,53378502,Note_on_c,1,67,81
2,53378861,Note_off_c,1,67,0
2,53381518,Note_on_c,1,67,81
2,53382203,Note_off_c,1,67,0
2,53415293,Note_on_c,1,76,81
2,53415607,Note_off_c,1,76,0
2,53418451,Note_on_c,1,67,81
2,53418737,Note_off_c,1,67,0
2,53497340,Note_on_c,1,60,81
2,53503108,Note_on_c,1,64,81
2,53507660,Note_off_c,1,64,0
2,53561288,Note_on_c,1,64,81
2,53616470,Note_on_c,1,64,81
2,53616970,Note_off_c,1,60,0
2,53617171,Note_off_c,1,64,0
2,53631400,Note_off_c,1,64,0
2,53647915,Note_on_c,1,60,81
2,53665756,Note_off_c,1,60,0
2,53739265,Note_on_c,1,64,81
2,53794496,Note_on_c,1,60,81
2,53794904,Note_off_c,1,64,0
2,53918973,Note_on_c,1,64,81
2,53920788,Note_off_c,1,64,0
2,53924125,Note_off_c,1,60,0
2,53929981,Note_on_c,1,60,81
2,53930021,Note_on_c,1,64,81
2,53978548,Note_on_c,1,64,81
2,53997667,Note_off_c,1,64,0
2,53998889,Note_on_c,1,64,81
2,54007152,Note_off_c,1,64,0
2,54016478,Note_on_c,1,67,81
2,54016777,Note_off_c,1,67,0
2,54079726,Note_off_c,1,64,0
2,54190205,Note_on_c,1,64,81
2,54190709,Note_off_c,1,64,0
2,54266280,Note_off_c,1,60,0
2,54307858,Note_on_c,1,60,81
2,54365334,Note_on_c,1,64,81
2,54369971,Note_off_c,1,64,0
2,54390142,Note_off_c,1,60,0
2,54485168,Note_on_c,1,67,81
2,54485850,Note_off_c,1,67,0
2,54602486,Note_on_c,1,67,81
2,54603150,Note_off_c,1,67,0
2,54624604,Note_on_c,1,67,81
2,54625488,Note_off_c,1,67,0
2,54770582,Note_on_c,1,67,81
2,54771134,Note_off_c,1,67,0
2,54786386,Note_on_c,1,72,81
2,54786492,Note_off_c,1,72,0
2,54840117,Note_on_c,1,64,81
2,54840855,Note_off_c,1,64,0
2,54846770,Note_on_c,1,60,81
2,54943166,Note_on_c,1,64,81
2,54945099,Note_off_c,1,60,0
2,54945099,Note_off_c,1,64,0
2,55106459,Note_on_c,1,60,81
2,55282617,Note_off_c,1,60,0
2,55327468,Note_on_c,1,60,81
2,55402493,Note_off_c,1,60,0
2,55434372,Note_on_c,1,60,81
2,55579197,Note_off_c,1,60,0
2,55680641,Note_on_c,1,67,81
2,55681021,Note_off_c,1,67,0
2,55753652,Note_on_c,1,60,81
2,55875590,Note_off_c,1,60,0
2,55939789,Note_on_c,1,67,81
2,55940624,Note_off_c,1,67,0
2,56056589,Note_on_c,1,60,81
2,56276528,Note_on_c,1,67,81
2,56276796,Note_off_c,1,67,0
2,56331787,Note_on_c,1,64,81
2,56332117,Note_off_c,1,64,0
2,56394094,Note_off_c,1,60,0
2,56431949,Note_on_c,1,67,81
2,56433213,Note_off_c,1,67,0
2,56457986,Note_on_c,1,60,81
2,56843927,Note_on_c,1,64,81
2,56864078,Note_off_c,1,64,0
2,56871190,Note_on_c,1,67,81
2,56871743,Note_off_c,1,67,0
2,56945729,Note_on_c,1,72,81
2,56945836,Note_off_c,1,72,0
2,56954830,Note_off_c,1,60,0
2,56955106,Note_on_c,1,60,81
2,56975605,Note_on_c,1,67,81
2,56976062,Note_off_c,1,67,0
2,57004519,Note_on_c,1,67,81
2,57004799,Note_off_c,1,67,0
2,57027346,Note_off_c,1,60,0
2,57029520,Note_on_c,1,67,81
2,57029988,Note_off_c,1,67,0
2,57046531,Note_on_c,1,60,81
2,57055239,Note_off_c,1,60,0
2,57086843,Note_on_c,1,60,81
2,57114893,Note_on_c,1,64,81
2,57170305,Note_off_c,1,60,0
2,57172325,Note_on_c,1,60,81
2,57174236,Note_off_c,1,64,0
2,57186991,Note_on_c,1,60,81
2,57189833,Note_off_c,1,60,0
2,57222307,Note_off_c,1,60,0
2,57314804,Note_on_c,1,60,81
2,57390131,Note_on_c,1,48,81
2,57390212,Note_off_c,1,48,0
2,57493854,Note_on_c,1,64,81
2,57497691,Note_off_c,1,64,0
2,57646850,Note_off_c,1,60,0
2,57855890,Note_on_c,1,64,81
2,57856468,Note_off_c,1,64,0
2,57880070,Note_on_c,1,64,81
2,57884297,Note_off_c,1,64,0
2,57902608,Note_on_c,1,64,81
2,57903148,Note_off_c,1,64,0
2,57908559,Note_on_c,1,64,81
2,57913911,Note_off_c,1,64,0
2,57919783,Note_on_c,1,84,81
2,57919911,Note_on_c,1,64,81
2,57930291,Note_off_c,1,84,0
2,57937457,Note_on_c,1,67,81
2,57939015,Note_off_c,1,67,0
2,57946073,Note_on_c,1,84,81
2,57961382,Note_off_c,1,64,0
2,57961437,Note_on_c,1,64,81
2,57961501,Note_off_c,1,84,0
2,57967686,Note_on_c,1,67,81
2,57968661,Note_off_c,1,67,0
2,58071719,Note_on_c,1,67,81
2,58073134,Note_off_c,1,67,0
2,58119740,Note_on_c,1,67,81
2,58121029,Note_off_c,1,67,0
2,58386798,Note_on_c,1,67,81
2,58386961,Note_off_c,1,67,0
2,58438364,Note_off_c,1,64,0
2,60281443,Note_on_c,1,84,81
2,60546660,Note_off_c,1,84,0
2,60719221,Note_on_c,1,67,81
2,60720196,Note_off_c,1,67,0
2,60723147,Note_on_c,1,64,81
2,60723898,Note_off_c,1,64,0
2,60789804,Note_on_c,1,64,81
2,60826184,Note_on_c,1,67,81
2,60826533,Note_off_c,1,67,0
2,60873359,Note_on_c,1,67,81
2,60874642,Note_off_c,1,67,0
2,60942327,Note_off_c,1,64,0
2,61240897,Note_on_c,1,67,81
2,61241311,Note_off_c,1,67,0
2,61574327,Note_on_c,1,67,81
2,61574402,Note_off_c,1,67,0
2,61630232,Note_on_c,1,64,81
2,61679960,Note_on_c,1,60,81
2,61681049,Note_off_c,1,64,0
2,61870096,Note_on_c,1,64,81
2,61893882,Note_off_c,1,64,0
2,62286225,Note_off_c,1,60,0
2,62460939,Note_on_c,1,67,81
2,62461503,Note_off_c,1,67,0
2,62547426,Note_on_c,1,79,81
2,62548272,Note_off_c,1,79,0
2,62611152,Note_on_c,1,67,81
2,62611327,Note_off_c,1,67,0
2,63193071,Note_on_c,1,67,81
2,63193630,Note_off_c,1,67,0
2,63211445,Note_on_c,1,60,81
2,63213024,Note_off_c,1,60,0
2,63227484,Note_on_c,1,67,81
2,63227743,Note_off_c,1,67,0
2,63229086,Note_on_c,1,67,81
2,63230110,Note_off_c,1,67,0
2,63275950,Note_on_c,1,60,81
2,63319983,Note_off_c,1,60,0
2,63392221,Note_on_c,1,67,81
2,63392606,Note_off_c,1,67,0
2,63395006,Note_on_c,1,79,81
2,63397106,Note_off_c,1,79,0
2,63440765,Note_on_c,1,79,81
2,63443580,Note_off_c,1,79,0
2,63480133,Note_on_c,1,79,81
2,63481876,Note_off_c,1,79,0
2,63521745,Note_on_c,1,60,81
2,63548707,Note_on_c,1,67,81
2,63549508,Note_off_c,1,67,0
2,63571004,Note_on_c,1,64,81
2,63572408,Note_off_c,1,64,0
2,63572471,Note_on_c,1,60,81
2,63583587,Note_off_c,1,60,0
2,63583588,Note_off_c,1,60,0
2,63612760,Note_on_c,1,67,81
2,63612903,Note_off_c,1,67,0
2,63615826,Note_on_c,1,67,81
2,63616361,Note_off_c,1,67,0
2,63635801,Note_on_c,1,60,81
2,63719979,Note_on_c,1,60,81
2,63779336,Note_off_c,1,60,0
2,63797188,Note_on_c,1,67,81
2,63798031,Note_off_c,1,67,0
2,63805851,Note_on_c,1,64,81
2,63822699,Note_off_c,1,64,0
2,63857440,Note_on_c,1,67,81
2,63857769,Note_off_c,1,67,0
2,64377794,Note_on_c,1,64,81
2,64412779,Note_off_c,1,64,0
2,64631204,Note_on_c,1,67,81
2,64631682,Note_off_c,1,67,0
2,64728836,Note_on_c,1,88,81
2,64733837,Note_off_c,1,88,0
2,65302521,Note_on_c,1,67,81
2,65304957,Note_off_c,1,67,0
2,65707226,Note_off_c,1,60,0
2,65788416,Note_on_c,1,67,81
2,65789287,Note_off_c,1,67,0
2,65836929,Note_on_c,1,67,81
2,65838039,Note_off_c,1,67,0
2,66093430,Note_on_c,1,67,81
2,66094909,Note_off_c,1,67,0
2,66710241,Note_on_c,1,67,81
2,66710827,Note_off_c,1,67,0
2,66728842,Note_on_c,1,72,81
2,66728904,Note_off_c,1,72,0
2,67210407,Note_on_c,1,52,81
2,67210480,Note_off_c,1,52,0
2,67456345,Note_on_c,1,67,81
2,67457250,Note_off_c,1,67,0
2,67467230,Note_on_c,1,91,81
2,67467308,Note_off_c,1,91,0
2,67546650,Note_on_c,1,72,81
2,67546754,Note_off_c,1,72,0
2,67625355,Note_on_c,1,76,81
2,67625464,Note_off_c,1,76,0
2,67878315,Note_on_c,1,64,81
2,67884040,Note_on_c,1,64,81
2,67888976,Note_on_c,1,64,81
2,67889339,Note_off_c,1,64,0
2,67933484,Note_on_c,1,67,81
2,67934682,Note_off_c,1,67,0
2,67986503,Note_off_c,1,64,0
2,67998751,Note_off_c,1,64,0
2,68040289,Note_on_c,1,64,81
2,68055350,Note_on_c,1,64,81
2,68060502,Note_off_c,1,64,0
2,68093001,Note_off_c,1,64,0
2,68223666,Note_on_c,1,64,81
2,68226971,Note_on_c,1,64,81
2,68242364,Note_off_c,1,64,0
2,68329899,Note_off_c,1,64,0
2,68332018,Note_on_c,1,64,81
2,68576191,Note_off_c,1,64,0
2,68598203,Note_on_c,1,67,81
2,68598393,Note_off_c,1,67,0
2,68627878,Note_on_c,1,64,81
2,68635161,Note_off_c,1,64,0
2,68635281,Note_on_c,1,60,81
2,68635889,Note_on_c,1,60,81
2,68635967,Note_off_c,1,60,0
2,68840382,Note_on_c,1,64,81
2,68843062,Note_off_c,1,64,0
2,69390571,Note_off_c,1,60,0
2,69672756,Note_on_c,1,60,81
2,69705286,Note_on_c,1,67,81
2,69706160,Note_off_c,1,67,0
2,69745870,Note_on_c,1,67,81
2,69746851,Note_off_c,1,67,0
2,69866555,Note_on_c,1,60,81
2,69867236,Note_off_c,1,60,0
2,70098389,Note_on_c,1,67,81
2,70098676,Note_off_c,1,67,0
2,70212468,Note_off_c,1,60,0
2,70216039,Note_on_c,1,60,81
2,70222757,Note_on_c,1,64,81
2,70242156,Note_off_c,1,64,0
2,70303084,Note_off_c,1,60,0
2,70345918,Note_on_c,1,64,81
2,70351802,Note_off_c,1,64,0
2,70394879,Note_on_c,1,64,81
2,70403117,Note_off_c,1,64,0
2,70412827,Note_on_c,1,64,81
2,70412940,Note_on_c,1,60,81
2,70413950,Note_off_c,1,64,0
2,70513293,Note_on_c,1,72,81
2,70513356,Note_off_c,1,72,0
2,70561174,Note_off_c,1,60,0
2,70566916,Note_on_c,1,60,81
2,70589569,Note_off_c,1,60,0
2,70596437,Note_on_c,1,64,81
2,70596980,Note_off_c,1,64,0
2,70608233,Note_on_c,1,67,81
2,70609334,Note_off_c,1,67,0
2,70663501,Note_on_c,1,67,81
2,70664279,Note_off_c,1,67,0
2,70667775,Note_on_c,1,60,81
2,70693838,Note_on_c,1,67,81
2,70694619,Note_off_c,1,67,0
2,70734502,Note_on_c,1,67,81
2,70734962,Note_off_c,1,67,0
2,70856678,Note_on_c,1,60,81
2,70862011,Note_off_c,1,60,0
2,70957060,Note_off_c,1,60,0
2,71028581,Note_on_c,1,64,81
2,71058476,Note_off_c,1,64,0
2,71075563,Note_on_c,1,67,81
2,71076375,Note_off_c,1,67,0
2,71126892,Note_on_c,1,52,81
2,71127105,Note_off_c,1,52,0
2,71165075,Note_on_c,1,67,81
2,71165770,Note_off_c,1,67,0
2,71182611,Note_on_c,1,72,81
2,71182718,Note_off_c,1,72,0
2,71221456,Note_on_c,1,64,81
2,71238742,Note_on_c,1,64,81
2,71240947,Note_off_c,1,64,0
2,71251757,Note_on_c,1,67,81
2,71252988,Note_off_c,1,67,0
2,71288810,Note_on_c,1,60,81
2,71295172,Note_on_c,1,64,81
2,71309059,Note_off_c,1,60,0
2,71328228,Note_off_c,1,64,0
2,71328941,Note_on_c,1,64,81
2,71329806,Note_off_c,1,64,0
2,71343426,Note_on_c,1,64,81
2,71376959,Note_on_c,1,48,81
2,71377031,Note_off_c,1,48,0
2,71386851,Note_on_c,1,55,81
2,71390829,Note_off_c,1,55,0
2,71403550,Note_on_c,1,48,81
2,71403621,Note_off_c,1,48,0
2,71417436,Note_off_c,1,64,0
2,71420745,Note_off_c,1,64,0
2,71450833,Note_on_c,1,64,81
2,71458874,Note_off_c,1,64,0
2,71532069,Note_on_c,1,64,81
2,71534715,Note_off_c,1,64,0
2,71550957,Note_on_c,1,67,81
2,71551643,Note_off_c,1,67,0
2,71584720,Note_on_c,1,67,81
2,71585906,Note_off_c,1,67,0
2,71652473,Note_on_c,1,72,81
2,71652611,Note_off_c,1,72,0
2,71886549,Note_on_c,1,60,81
2,72316598,Note_on_c,1,67,81
2,72317436,Note_off_c,1,67,0
2,72403145,Note_off_c,1,60,0
2,72522640,Note_on_c,1,67,81
2,72523238,Note_off_c,1,67,0
2,72598450,Note_on_c,1,67,81
2,72599634,Note_off_c,1,67,0
2,72614385,Note_on_c,1,64,81
2,72621791,Note_on_c,1,60,81
2,72622073,Note_off_c,1,64,0
2,72967686,Note_on_c,1,48,81
2,72967753,Note_off_c,1,48,0
2,72986312,Note_on_c,1,67,81
2,72987750,Note_off_c,1,67,0
2,73055096,Note_on_c,1,67,81
2,73055857,Note_off_c,1,67,0
2,73130645,Note_on_c,1,64,81
2,73143514,Note_off_c,1,64,0
2,73157516,Note_on_c,1,67,81
2,73158139,Note_off_c,1,67,0
2,73198853,Note_off_c,1,60,0
2,73209082,Note_on_c,1,84,81
2,73209745,Note_on_c,1,60,81
2,73210080,Note_off_c,1,84,0
2,73223543,Note_on_c,1,60,81
2,73225770,Note_off_c,1,60,0
2,73241313,Note_on_c,1,60,81
2,73263196,Note_off_c,1,60,0
2,73263211,Note_on_c,1,64,81
2,73290402,Note_on_c,1,67,81
2,73291262,Note_off_c,1,67,0
2,73291961,Note_on_c,1,67,81
2,73293277,Note_off_c,1,67,0
2,73301789,Note_off_c,1,64,0
2,73310365,Note_off_c,1,60,0
2,73322836,Note_on_c,1,67,81
2,73323450,Note_off_c,1,67,0
2,73327523,Note_on_c,1,67,81
2,73329017,Note_off_c,1,67,0
2,73353062,Note_on_c,1,60,81
2,73354276,Note_off_c,1,60,0
2,73362657,Note_on_c,1,60,81
2,73364171,Note_off_c,1,60,0
2,73368554,Note_on_c,1,60,81
2,73369703,Note_on_c,1,64,81
2,73373107,Note_on_c,1,67,81
2,73373263,Note_off_c,1,67,0
2,73387717,Note_off_c,1,64,0
2,73391037,Note_on_c,1,67,81
2,73391767,Note_off_c,1,67,0
2,73394827,Note_on_c,1,60,81
2,73395133,Note_off_c,1,60,0
2,73413514,Note_on_c,1,60,81
2,73417566,Note_off_c,1,60,0
2,73452297,Note_off_c,1,60,0
2,73461577,Note_on_c,1,60,81
2,73464072,Note_on_c,1,72,81
2,73464177,Note_off_c,1,72,0
2,73487589,Note_on_c,1,76,81
2,73487877,Note_off_c,1,76,0
2,73489307,Note_on_c,1,60,81
2,73509236,Note_off_c,1,60,0
2,73523617,Note_on_c,1,64,81
2,73525587,Note_off_c,1,60,0
2,73526743,Note_on_c,1,67,81
2,73526879,Note_off_c,1,67,0
2,73570460,Note_on_c,1,64,81
2,73570596,Note_off_c,1,64,0
2,73571961,Note_off_c,1,64,0
2,73593378,Note_on_c,1,60,81
2,73618345,Note_on_c,1,67,81
2,73618597,Note_off_c,1,67,0
2,73653992,Note_off_c,1,60,0
2,73693902,Note_on_c,1,64,81
2,73695784,Note_on_c,1,60,81
2,73696131,Note_off_c,1,64,0
2,73828316,Note_off_c,1,60,0
2,73971345,Note_on_c,1,55,81
2,73973115,Note_off_c,1,55,0
2,74004519,Note_on_c,1,67,81
2,74004812,Note_off_c,1,67,0
2,74069450,Note_on_c,1,64,81
2,74282265,Note_on_c,1,67,81
2,74282660,Note_off_c,1,67,0
2,74530247,Note_on_c,1,64,81
2,74610448,Note_on_c,1,67,81
2,74610715,Note_off_c,1,67,0
2,74642383,Note_on_c,1,64,81
2,74652002,Note_off_c,1,64,0
2,74690727,Note_off_c,1,64,0
2,74734319,Note_off_c,1,64,0
2,74849076,Note_on_c,1,67,81
2,74850484,Note_off_c,1,67,0
2,75084325,Note_on_c,1,60,81
2,75206267,Note_off_c,1,60,0
2,75237674,Note_on_c,1,60,81
2,75250323,Note_off_c,1,60,0
2,75252923,Note_on_c,1,60,81
2,75284948,Note_off_c,1,60,0
2,75284991,Note_on_c,1,64,81
2,75291858,Note_on_c,1,60,81
2,75317525,Note_off_c,1,64,0
2,75319100,Note_on_c,1,67,81
2,75319980,Note_off_c,1,67,0
2,75357213,Note_on_c,1,64,81
2,75398859,Note_on_c,1,52,81
2,75399067,Note_off_c,1,52,0
2,75399300,Note_off_c,1,64,0
2,75428406,Note_on_c,1,48,81
2,75428473,Note_off_c,1,48,0
2,75454943,Note_on_c,1,64,81
2,75458900,Note_off_c,1,64,0
2,75465122,Note_on_c,1,67,81
2,75465570,Note_off_c,1,67,0
2,75473737,Note_on_c,1,72,81
2,75473894,Note_off_c,1,72,0
2,75493800,Note_off_c,1,60,0
2,75499704,Note_on_c,1,67,81
2,75500136,Note_off_c,1,67,0
2,75586121,Note_on_c,1,67,81
2,75586461,Note_off_c,1,67,0
2,75593054,Note_on_c,1,72,81
2,75593145,Note_off_c,1,72,0
2,75601508,Note_on_c,1,60,81
2,75610957,Note_on_c,1,88,81
2,75611945,Note_off_c,1,88,0
2,75644083,Note_on_c,1,72,81
2,75644177,Note_off_c,1,72,0
2,75654969,Note_on_c,1,76,81
2,75655299,Note_off_c,1,76,0
2,75718281,Note_off_c,1,60,0
2,75744274,Note_on_c,1,67,81
2,75744840,Note_off_c,1,67,0
2,75749200,Note_on_c,1,60,81
2,75768058,Note_on_c,1,72,81
2,75768158,Note_off_c,1,72,0
2,75865238,Note_on_c,1,91,81
2,75865335,Note_off_c,1,91,0
2,75919537,Note_off_c,1,60,0
2,75921113,Note_on_c,1,60,81
2,75928512,Note_on_c,1,76,81
2,75928625,Note_off_c,1,76,0
2,76072678,Note_off_c,1,60,0
2,76092833,Note_on_c,1,72,81
2,76092940,Note_off_c,1,72,0
2,76446987,Note_on_c,1,72,81
2,76447089,Note_off_c,1,72,0
2,76521639,Note_on_c,1,64,81
2,76557652,Note_on_c,1,72,81
2,76557754,Note_off_c,1,72,0
2,76561327,Note_on_c,1,64,81
2,76562590,Note_off_c,1,64,0
2,76593821,Note_off_c,1,64,0
2,76660485,Note_on_c,1,67,81
2,76662770,Note_off_c,1,67,0
2,76774971,Note_on_c,1,64,81
2,77097788,Note_off_c,1,64,0
2,77343556,Note_on_c,1,67,81
2,77343654,Note_off_c,1,67,0
2,77460923,Note_on_c,1,60,81
2,77463491,Note_off_c,1,60,0
2,77496118,Note_on_c,1,67,81
2,77496671,Note_off_c,1,67,0
2,77650273,Note_on_c,1,60,81
2,77927045,Note_off_c,1,60,0
2,78604466,Note_on_c,1,64,81
2,78606036,Note_off_c,1,64,0
2,78809714,Note_on_c,1,64,81
2,78813303,Note_off_c,1,64,0
2,78867550,Note_on_c,1,60,81
2,78934418,Note_on_c,1,60,81
2,78946440,Note_off_c,1,60,0
2,79067691,Note_on_c,1,67,81
2,79068138,Note_off_c,1,67,0
2,79077840,Note_on_c,1,64,81
2,79078254,Note_off_c,1,60,0
2,79142516,Note_off_c,1,64,0
2,79201244,Note_on_c,1,60,81
2,79233698,Note_on_c,1,64,81
2,79234738,Note_off_c,1,60,0
2,79236797,Note_off_c,1,64,0
2,79278104,Note_on_c,1,67,81
2,79278427,Note_off_c,1,67,0
2,79301962,Note_on_c,1,76,81
2,79302066,Note_off_c,1,76,0
2,79307668,Note_on_c,1,64,81
2,79313384,Note_off_c,1,64,0
2,79326567,Note_on_c,1,67,81
2,79327207,Note_off_c,1,67,0
2,79354442,Note_on_c,1,67,81
2,79354713,Note_off_c,1,67,0
2,79406239,Note_on_c,1,67,81
2,79406774,Note_off_c,1,67,0
2,79420171,Note_on_c,1,64,81
2,79436907,Note_on_c,1,67,81
2,79437167,Note_off_c,1,67,0
2,79484990,Note_on_c,1,60,81
2,79529276,Note_off_c,1,64,0
2,79537184,Note_on_c,1,64,81
2,79537458,Note_off_c,1,60,0
2,79539976,Note_off_c,1,64,0
2,79552793,Note_on_c,1,67,81
2,79553160,Note_off_c,1,67,0
2,79561131,Note_on_c,1,64,81
2,79561602,Note_off_c,1,64,0
2,79573876,Note_on_c,1,55,81
2,79575530,Note_off_c,1,55,0
2,79631328,Note_on_c,1,60,81
2,79703655,Note_off_c,1,60,0
2,79803576,Note_on_c,1,64,81
2,79833387,Note_off_c,1,64,0
2,79854683,Note_on_c,1,67,81
2,79855632,Note_off_c,1,67,0
2,79868401,Note_on_c,1,64,81
2,79870483,Note_off_c,1,64,0
2,79871872,Note_on_c,1,64,81
2,79874610,Note_off_c,1,64,0
2,79914813,Note_on_c,1,60,81
2,79947553,Note_off_c,1,60,0
2,79947809,Note_on_c,1,64,81
2,79953004,Note_on_c,1,67,81
2,79954011,Note_off_c,1,67,0
2,79964214,Note_on_c,1,67,81
2,79964519,Note_off_c,1,67,0
2,79980046,Note_off_c,1,64,0
2,80003886,Note_on_c,1,60,81
2,80042527,Note_off_c,1,60,0
2,80046714,Note_on_c,1,64,81
2,80064285,Note_on_c,1,67,81
2,80070199,Note_off_c,1,67,0
2,80077728,Note_on_c,1,67,81
2,80078362,Note_off_c,1,67,0
2,80084776,Note_off_c,1,64,0
2,80106646,Note_on_c,1,60,81
2,80346270,Note_off_c,1,60,0
2,80355423,Note_on_c,1,64,81
2,80356859,Note_off_c,1,64,0
2,80374014,Note_on_c,1,67,81
2,80374569,Note_off_c,1,67,0
2,80440729,Note_on_c,1,55,81
2,80441172,Note_off_c,1,55,0
2,80441294,Note_on_c,1,64,81
2,80466674,Note_off_c,1,64,0
2,80466957,Note_on_c,1,64,81
2,80469080,Note_off_c,1,64,0
2,80470070,Note_on_c,1,67,81
2,80470428,Note_off_c,1,67,0
2,80499195,Note_on_c,1,67,81
2,80499392,Note_off_c,1,67,0
2,80555840,Note_on_c,1,67,81
2,80557189,Note_off_c,1,67,0
2,81491438,Note_on_c,1,60,81
2,81527101,Note_on_c,1,64,81
2,81534915,Note_off_c,1,64,0
2,81551685,Note_on_c,1,64,81
2,81554092,Note_off_c,1,64,0
2,81622199,Note_on_c,1,91,81
2,81622319,Note_off_c,1,91,0
2,81724721,Note_on_c,1,64,81
2,81736353,Note_off_c,1,64,0
2,81752774,Note_off_c,1,60,0
2,81764023,Note_on_c,1,52,81
2,81764156,Note_off_c,1,52,0
2,81764210,Note_on_c,1,67,81
2,81764503,Note_off_c,1,67,0
2,81813285,Note_on_c,1,64,81
2,81814157,Note_off_c,1,64,0
2,81844601,Note_on_c,1,64,81
2,81969452,Note_on_c,1,64,81
2,81969539,Note_off_c,1,64,0
2,82169391,Note_off_c,1,64,0
2,82169985,Note_on_c,1,60,81
2,82210337,Note_on_c,1,72,81
2,82210440,Note_off_c,1,72,0
2,82247754,Note_off_c,1,60,0
2,82263995,Note_on_c,1,67,81
2,82264974,Note_off_c,1,67,0
2,82353860,Note_on_c,1,64,81
2,82363205,Note_on_c,1,60,81
2,82363657,Note_off_c,1,64,0
2,82367420,Note_off_c,1,60,0
2,82892389,Note_on_c,1,60,81
2,82924828,Note_on_c,1,67,81
2,82925122,Note_off_c,1,67,0
2,82932600,Note_on_c,1,64,81
2,82938677,Note_off_c,1,64,0
2,83065841,Note_off_c,1,60,0
2,83067665,Note_on_c,1,60,81
2,83161149,Note_on_c,1,60,81
2,83171350,Note_off_c,1,60,0
2,83193356,Note_on_c,1,60,81
2,83193936,Note_off_c,1,60,0
2,83198935,Note_off_c,1,60,0
2,83210401,Note_on_c,1,60,81
2,83392415,Note_on_c,1,67,81
2,83393409,Note_off_c,1,67,0
2,83431051,Note_off_c,1,60,0
2,83512533,Note_on_c,1,60,81
2,83525704,Note_off_c,1,60,0
2,83552879,Note_on_c,1,60,81
2,83709691,Note_off_c,1,60,0
2,83728054,Note_on_c,1,64,81
2,83736525,Note_off_c,1,64,0
2,83852311,Note_on_c,1,64,81
2,83853359,Note_on_c,1,60,81
2,83854167,Note_off_c,1,64,0
2,83857515,Note_off_c,1,60,0
2,83859655,Note_on_c,1,60,81
2,83967423,Note_off_c,1,60,0
2,83983727,Note_on_c,1,64,81
2,84007323,Note_off_c,1,64,0
2,84019203,Note_on_c,1,64,81
2,84026100,Note_off_c,1,64,0
2,84033771,Note_on_c,1,60,81
2,84090881,Note_off_c,1,60,0
2,84124240,Note_on_c,1,60,81
2,84227643,Note_off_c,1,60,0
2,84421027,Note_on_c,1,64,81
2,84429583,Note_on_c,1,67,81
2,84430802,Note_off_c,1,67,0
2,84556152,Note_off_c,1,64,0
2,84687350,Note_on_c,1,60,81
2,84687711,Note_on_c,1,64,81
2,84689291,Note_on_c,1,67,81
2,84689429,Note_off_c,1,67,0
2,84709578,Note_off_c,1,64,0
2,84764598,Note_off_c,1,60,0
2,84769009,Note_on_c,1,64,81
2,84770219,Note_off_c,1,64,0
2,84966396,Note_on_c,1,67,81
2,84966625,Note_off_c,1,67,0
2,85155666,Note_on_c,1,79,81
2,85167749,Note_off_c,1,79,0
2,85257327,Note_on_c,1,67,81
2,85257694,Note_off_c,1,67,0
2,85286075,Note_on_c,1,79,81
2,85287788,Note_on_c,1,67,81
2,85289007,Note_off_c,1,67,0
2,85290849,Note_off_c,1,79,0
2,85387218,Note_on_c,1,64,81
2,85390186,Note_off_c,1,64,0
2,85426656,Note_on_c,1,67,81
2,85427125,Note_off_c,1,67,0
2,85427452,Note_on_c,1,67,81
2,85427966,Note_off_c,1,67,0
2,85449583,Note_on_c,1,60,81
2,85495791,Note_off_c,1,60,0
2,85498440,Note_on_c,1,55,81
2,85499058,Note_off_c,1,55,0
2,85504775,Note_on_c,1,60,81
2,85504775,Note_on_c,1,60,81
2,85594156,Note_off_c,1,60,0
2,85607778,Note_on_c,1,60,81
2,85644063,Note_off_c,1,60,0
2,85650490,Note_on_c,1,64,81
2,85659891,Note_on_c,1,88,81
2,85660606,Note_off_c,1,88,0
2,85677588,Note_on_c,1,52,81
2,85677658,Note_off_c,1,52,0
2,85678733,Note_off_c,1,60,0
2,85678932,Note_off_c,1,64,0
2,85731370,Note_on_c,1,67,81
2,85732011,Note_off_c,1,67,0
2,85735743,Note_on_c,1,67,81
2,85735921,Note_off_c,1,67,0
2,85751580,Note_on_c,1,72,81
2,85751753,Note_off_c,1,72,0
2,85777638,Note_on_c,1,76,81
2,85777755,Note_off_c,1,76,0
2,85868952,Note_on_c,1,67,81
2,85869464,Note_off_c,1,67,0
2,85949689,Note_on_c,1,64,81
2,85993020,Note_on_c,1,72,81
2,85993159,Note_off_c,1,72,0
2,85998263,Note_off_c,1,64,0
2,86086414,Note_on_c,1,67,81
2,86087134,Note_off_c,1,67,0
2,86170446,Note_on_c,1,67,81
2,86171018,Note_off_c,1,67,0
2,86214236,Note_on_c,1,67,81
2,86214576,Note_off_c,1,67,0
2,86432243,Note_on_c,1,67,81
2,86432669,Note_off_c,1,67,0
2,86435847,Note_on_c,1,76,81
2,86436138,Note_off_c,1,76,0
2,86729707,Note_on_c,1,67,81
2,86730108,Note_off_c,1,67,0
2,86768521,Note_on_c,1,67,81
2,86768932,Note_off_c,1,67,0
2,86897117,Note_on_c,1,67,81
2,86897421,Note_off_c,1,67,0
2,86897546,Note_on_c,1,79,81
2,86897683,Note_off_c,1,79,0
2,86937527,Note_on_c,1,60,81
2,86970465,Note_on_c,1,67,81
2,86971193,Note_off_c,1,67,0
2,87000044,Note_on_c,1,67,81
2,87000291,Note_off_c,1,67,0
2,87016679,Note_off_c,1,60,0
2,87070155,Note_on_c,1,67,81
2,87070461,Note_off_c,1,67,0
2,87083232,Note_on_c,1,76,81
2,87083536,Note_off_c,1,76,0
2,87085497,Note_on_c,1,60,81
2,87095106,Note_off_c,1,60,0
2,87121692,Note_on_c,1,67,81
2,87122688,Note_off_c,1,67,0
2,87151158,Note_on_c,1,64,81
2,87152832,Note_on_c,1,60,81
2,87155285,Note_off_c,1,64,0
2,87173367,Note_on_c,1,67,81
2,87174303,Note_off_c,1,67,0
2,87265943,Note_off_c,1,60,0
2,87282979,Note_on_c,1,60,81
2,87298771,Note_on_c,1,67,81
2,87300447,Note_off_c,1,67,0
2,87322582,Note_on_c,1,60,81
2,87329278,Note_off_c,1,60,0
2,87344812,Note_on_c,1,60,81
2,87356830,Note_on_c,1,55,81
2,87358605,Note_off_c,1,55,0
2,87365463,Note_off_c,1,60,0
2,87399749,Note_off_c,1,60,0
2,87407971,Note_on_c,1,60,81
2,87408011,Note_on_c,1,60,81
2,87425794,Note_on_c,1,67,81
2,87426088,Note_off_c,1,67,0
2,87441164,Note_on_c,1,67,81
2,87442146,Note_off_c,1,67,0
2,87444394,Note_on_c,1,67,81
2,87445175,Note_off_c,1,67,0
2,87464465,Note_off_c,1,60,0
2,87470622,Note_on_c,1,60,81
2,87488444,Note_on_c,1,72,81
2,87488552,Note_off_c,1,72,0
2,87511634,Note_off_c,1,60,0
2,87512336,Note_off_c,1,60,0
2,87513458,Note_on_c,1,60,81
2,87590028,Note_off_c,1,60,0
2,87590066,Note_on_c,1,60,81
2,87667453,Note_off_c,1,60,0
2,87674859,Note_on_c,1,60,81
2,87702233,Note_off_c,1,60,0
2,87720914,Note_on_c,1,52,81
2,87721018,Note_off_c,1,52,0
2,87826172,Note_on_c,1,76,81
2,87826285,Note_off_c,1,76,0
2,87845649,Note_on_c,1,76,81
2,87845947,Note_off_c,1,76,0
2,87891423,Note_on_c,1,67,81
2,87891869,Note_off_c,1,67,0
2,88047055,Note_on_c,1,64,81
2,88047729,Note_off_c,1,64,0
2,88047840,Note_on_c,1,60,81
2,88066838,Note_off_c,1,60,0
2,88139863,Note_on_c,1,60,81
2,88166347,Note_off_c,1,60,0
2,88172260,Note_on_c,1,55,81
2,88175762,Note_off_c,1,55,0
2,88177803,Note_on_c,1,64,81
2,88265157,Note_on_c,1,67,81
2,88265511,Note_off_c,1,67,0
2,88275881,Note_on_c,1,67,81
2,88276989,Note_off_c,1,67,0
2,88378279,Note_on_c,1,64,81
2,88385447,Note_off_c,1,64,0
2,88442928,Note_off_c,1,64,0
2,88609896,Note_on_c,1,60,81
2,88714241,Note_on_c,1,52,81
2,88714430,Note_off_c,1,52,0
2,88963618,Note_off_c,1,60,0
2,88964526,Note_on_c,1,55,81
2,88966587,Note_off_c,1,55,0
2,89001547,Note_on_c,1,67,81
2,89001814,Note_off_c,1,67,0
2,89059627,Note_on_c,1,67,81
2,89060109,Note_off_c,1,67,0
2,89063499,Note_on_c,1,72,81
2,89063690,Note_off_c,1,72,0
2,89080163,Note_on_c,1,64,81
2,89080667,Note_off_c,1,64,0
2,89080750,Note_on_c,1,60,81
2,89085160,Note_off_c,1,60,0
2,89090945,Note_on_c,1,76,81
2,89091242,Note_off_c,1,76,0
2,89095958,Note_on_c,1,60,81
2,89118071,Note_off_c,1,60,0
2,89130886,Note_on_c,1,64,81
2,89145985,Note_off_c,1,64,0
2,89146054,Note_on_c,1,60,81
2,89165565,Note_off_c,1,60,0
2,89177503,Note_on_c,1,60,81
2,89231278,Note_off_c,1,60,0
2,89254463,Note_on_c,1,60,81
2,89301782,Note_on_c,1,67,81
2,89303114,Note_off_c,1,67,0
2,89315299,Note_off_c,1,60,0
2,89326624,Note_on_c,1,60,81
2,89352722,Note_off_c,1,60,0
2,89364615,Note_on_c,1,60,81
2,89412273,Note_off_c,1,60,0
2,89422098,Note_on_c,1,67,81
2,89423048,Note_off_c,1,67,0
2,89433151,Note_on_c,1,60,81
2,89478140,Note_on_c,1,76,81
2,89478433,Note_off_c,1,76,0
2,89560874,Note_on_c,1,64,81
2,89567044,Note_off_c,1,64,0
2,89568143,Note_on_c,1,60,81
2,89633834,Note_off_c,1,60,0
2,89638749,Note_off_c,1,60,0
2,89642497,Note_on_c,1,60,81
2,89673468,Note_on_c,1,64,81
2,89675783,Note_off_c,1,64,0
2,89797597,Note_on_c,1,67,81
2,89797877,Note_off_c,1,67,0
2,89814708,Note_on_c,1,67,81
2,89815463,Note_off_c,1,67,0
2,89819794,Note_off_c,1,60,0
2,89829893,Note_on_c,1,60,81
2,89841328,Note_on_c,1,76,81
2,89841424,Note_off_c,1,76,0
2,89874436,Note_off_c,1,60,0
2,89876543,Note_on_c,1,67,81
2,89876878,Note_off_c,1,67,0
2,89886155,Note_on_c,1,67,81
2,89887848,Note_off_c,1,67,0
2,89894468,Note_on_c,1,60,81
2,89898282,Note_on_c,1,76,81
2,89898392,Note_off_c,1,76,0
2,89921760,Note_off_c,1,60,0
2,89926527,Note_on_c,1,60,81
2,89950115,Note_on_c,1,64,81
2,89953186,Note_off_c,1,64,0
2,90001221,Note_on_c,1,76,81
2,90001506,Note_off_c,1,76,0
2,90073050,Note_on_c,1,64,81
2,90079734,Note_off_c,1,64,0
2,90116699,Note_on_c,1,67,81
2,90117105,Note_off_c,1,67,0
2,90295506,Note_on_c,1,64,81
2,90296908,Note_off_c,1,60,0
2,90312741,Note_on_c,1,48,81
2,90312833,Note_off_c,1,48,0
2,90363912,Note_off_c,1,64,0
2,90513572,Note_on_c,1,60,81
2,90587072,Note_off_c,1,60,0
2,91390312,Note_on_c,1,64,81
2,91393000,Note_off_c,1,64,0
2,91521659,Note_on_c,1,48,81
2,91521737,Note_off_c,1,48,0
2,91557291,Note_on_c,1,64,81
2,91690428,Note_off_c,1,64,0
2,91726809,Note_on_c,1,67,81
2,91727070,Note_off_c,1,67,0
2,91727158,Note_on_c,1,67,81
2,91727281,Note_on_c,1,67,81
2,91727324,Note_off_c,1,67,0
2,91727505,Note_off_c,1,67,0
2,91739608,Note_on_c,1,76,81
2,91739897,Note_off_c,1,76,0
2,91815842,Note_on_c,1,67,81
2,91816428,Note_off_c,1,67,0
2,92002609,Note_on_c,1,64,81
2,92013841,Note_on_c,1,67,81
2,92014734,Note_off_c,1,67,0
2,92119422,Note_on_c,1,52,81
2,92119633,Note_off_c,1,52,0
2,92180156,Note_off_c,1,64,0
2,92387840,Note_on_c,1,64,81
2,92388827,Note_off_c,1,64,0
2,92631065,Note_on_c,1,64,81
2,92633268,Note_off_c,1,64,0
2,92723002,Note_on_c,1,64,81
2,92723829,Note_off_c,1,64,0
2,92790452,Note_on_c,1,52,81
2,92790665,Note_off_c,1,52,0
2,92887250,Note_on_c,1,67,81
2,92888581,Note_off_c,1,67,0
2,93070386,Note_on_c,1,64,81
2,93091975,Note_on_c,1,67,81
2,93092760,Note_off_c,1,67,0
2,93103384,Note_off_c,1,64,0
2,93240019,Note_on_c,1,60,81
2,93416950,Note_on_c,1,64,81
2,93419687,Note_off_c,1,60,0
2,93419820,Note_on_c,1,64,81
2,93420209,Note_off_c,1,64,0
2,93677954,Note_off_c,1,64,0
2,93720162,Note_on_c,1,64,81
2,93745615,Note_off_c,1,64,0
2,93811824,Note_on_c,1,55,81
2,93813036,Note_off_c,1,55,0
2,93879105,Note_on_c,1,52,81
2,93879229,Note_off_c,1,52,0
2,93886899,Note_on_c,1,64,81
2,93889410,Note_off_c,1,64,0
2,94163919,Note_on_c,1,64,81
2,94194658,Note_off_c,1,64,0
2,94344736,Note_on_c,1,67,81
2,94344962,Note_off_c,1,67,0
2,94397663,Note_on_c,1,55,81
2,94398829,Note_off_c,1,55,0
2,94442029,Note_on_c,1,67,81
2,94443809,Note_off_c,1,67,0
2,94446739,Note_on_c,1,67,81
2,94447179,Note_off_c,1,67,0
2,94547688,Note_on_c,1,64,81
2,94735938,Note_off_c,1,64,0
2,95504181,Note_on_c,1,67,81
2,95504496,Note_off_c,1,67,0
2,95575182,Note_on_c,1,64,81
2,95577450,Note_off_c,1,64,0
2,95577484,Note_on_c,1,60,81
2,95609470,Note_off_c,1,60,0
2,95630114,Note_on_c,1,67,81
2,95632929,Note_off_c,1,67,0
2,95917142,Note_on_c,1,64,81
2,95991106,Note_on_c,1,67,81
2,95992349,Note_off_c,1,67,0
2,96015391,Note_off_c,1,64,0
2,96015973,Note_on_c,1,60,81
2,96199839,Note_on_c,1,64,81
2,96215612,Note_off_c,1,60,0
2,96282566,Note_on_c,1,76,81
2,96282863,Note_off_c,1,76,0
2,96521594,Note_on_c,1,60,81
2,96521717,Note_off_c,1,64,0
2,96555276,Note_off_c,1,60,0
2,96562547,Note_on_c,1,60,81
2,96618626,Note_off_c,1,60,0
2,96648488,Note_on_c,1,67,81
2,96649069,Note_off_c,1,67,0
2,96649452,Note_on_c,1,72,81
2,96649591,Note_off_c,1,72,0
2,96653273,Note_on_c,1,67,81
2,96654142,Note_off_c,1,67,0
2,96672128,Note_on_c,1,67,81
2,96672969,Note_off_c,1,67,0
2,96750823,Note_on_c,1,67,81
2,96751728,Note_off_c,1,67,0
2,96785136,Note_on_c,1,64,81
2,96794124,Note_on_c,1,60,81
2,96795821,Note_off_c,1,64,0
2,96837477,Note_off_c,1,60,0
2,96889314,Note_on_c,1,60,81
2,96897891,Note_off_c,1,60,0
2,96914698,Note_on_c,1,76,81
2,96914995,Note_off_c,1,76,0
2,96924619,Note_on_c,1,60,81
2,97140754,Note_off_c,1,60,0
2,97142160,Note_on_c,1,60,81
2,97283217,Note_off_c,1,60,0
2,97283302,Note_on_c,1,64,81
2,97710952,Note_on_c,1,64,81
2,97717197,Note_off_c,1,64,0
2,98024530,Note_on_c,1,48,81
2,98024621,Note_off_c,1,48,0
2,98179498,Note_on_c,1,67,81
2,98179832,Note_off_c,1,67,0
2,98210019,Note_on_c,1,64,81
2,98214683,Note_off_c,1,64,0
2,98400869,Note_off_c,1,64,0
2,98780256,Note_on_c,1,67,81
2,98780505,Note_off_c,1,67,0
2,98829966,Note_on_c,1,64,81
2,98832508,Note_off_c,1,64,0
2,98832904,Note_on_c,1,64,81
2,98834097,Note_off_c,1,64,0
2,98834573,Note_on_c,1,60,81
2,98839458,Note_off_c,1,60,0
2,98868534,Note_on_c,1,60,81
2,98948006,Note_off_c,1,60,0
2,99082448,Note_on_c,1,67,81
2,99082761,Note_off_c,1,67,0
2,99124608,Note_on_c,1,48,81
2,99124696,Note_off_c,1,48,0
2,99174743,Note_on_c,1,67,81
2,99175479,Note_off_c,1,67,0
2,99271167,Note_on_c,1,60,81
2,99350062,Note_off_c,1,60,0
2,99369400,Note_on_c,1,60,81
2,99394195,Note_off_c,1,60,0
2,99397628,Note_on_c,1,60,81
2,99424910,Note_on_c,1,64,81
2,99425331,Note_off_c,1,60,0
2,99432324,Note_on_c,1,60,81
2,99432326,Note_off_c,1,64,0
2,99520975,Note_on_c,1,60,81
2,99521728,Note_off_c,1,60,0
2,99526096,Note_on_c,1,76,81
2,99526205,Note_off_c,1,76,0
2,99542386,Note_on_c,1,60,81
2,99568825,Note_off_c,1,60,0
2,99575711,Note_on_c,1,67,81
2,99576456,Note_off_c,1,67,0
2,99589899,Note_off_c,1,60,0
2,99606773,Note_on_c,1,60,81
2,99615578,Note_off_c,1,60,0
2,99642236,Note_on_c,1,76,81
2,99642347,Note_off_c,1,76,0
2,99918518,Note_on_c,1,60,81
2,99993933,Note_on_c,1,64,81
2,99994247,Note_off_c,1,60,0
2,100050371,Note_on_c,1,67,81
2,100051236,Note_off_c,1,67,0
2,100093310,Note_on_c,1,67,81
2,100093768,Note_off_c,1,67,0
2,100107613,Note_off_c,1,64,0
2,100136063,Note_on_c,1,67,81
2,100136663,Note_off_c,1,67,0
2,100177208,Note_on_c,1,67,81
2,100178192,Note_off_c,1,67,0
2,100385008,Note_on_c,1,60,81
2,100427117,Note_on_c,1,64,81
2,100437484,Note_off_c,1,64,0
2,100464921,Note_off_c,1,60,0
2,100508193,Note_on_c,1,60,81
2,100530275,Note_on_c,1,67,81
2,100531052,Note_off_c,1,67,0
2,100881372,Note_off_c,1,60,0
2,100881470,Note_on_c,1,64,81
2,100882987,Note_off_c,1,64,0
2,100889602,Note_on_c,1,67,81
2,100890338,Note_off_c,1,67,0
2,100962700,Note_on_c,1,60,81
2,101430410,Note_on_c,1,67,81
2,101431553,Note_off_c,1,67,0
2,101452916,Note_on_c,1,64,81
2,101454245,Note_off_c,1,64,0
2,102078871,Note_on_c,1,67,81
2,102079555,Note_off_c,1,67,0
2,102081622,Note_off_c,1,60,0
2,102350270,Note_on_c,1,64,81
2,102369827,Note_off_c,1,64,0
2,102453366,Note_on_c,1,67,81
2,102453792,Note_off_c,1,67,0
2,103002513,Note_on_c,1,67,81
2,103003897,Note_off_c,1,67,0
2,103583134,Note_on_c,1,52,81
2,103583268,Note_off_c,1,52,0
2,103866022,Note_on_c,1,64,81
2,103874687,Note_off_c,1,64,0
2,104017632,Note_on_c,1,67,81
2,104019748,Note_off_c,1,67,0
2,104025539,Note_on_c,1,67,81
2,104026763,Note_off_c,1,67,0
2,104487094,Note_on_c,1,64,81
2,104528158,Note_off_c,1,64,0
2,104687240,Note_on_c,1,67,81
2,104687671,Note_off_c,1,67,0
2,104728093,Note_on_c,1,60,81
2,104766821,Note_on_c,1,72,81
2,104766926,Note_off_c,1,72,0
2,104831128,Note_on_c,1,64,81
2,104845820,Note_off_c,1,64,0
2,104859919,Note_off_c,1,60,0
2,104860448,Note_on_c,1,67,81
2,104862123,Note_off_c,1,67,0
2,104864463,Note_on_c,1,64,81
2,104936615,Note_on_c,1,60,81
2,104941447,Note_off_c,1,64,0
2,105045561,Note_on_c,1,72,81
2,105045668,Note_off_c,1,72,0
2,105083332,Note_off_c,1,60,0
2,105096821,Note_on_c,1,60,81
2,105136307,Note_on_c,1,64,81
2,105137157,Note_off_c,1,60,0
2,105157899,Note_on_c,1,60,81
2,105180014,Note_off_c,1,60,0
2,105199559,Note_off_c,1,64,0
2,105273217,Note_on_c,1,60,81
2,105279015,Note_on_c,1,64,81
2,105281755,Note_off_c,1,64,0
2,105298148,Note_on_c,1,67,81
2,105298895,Note_off_c,1,67,0
2,105302452,Note_on_c,1,67,81
2,105302823,Note_off_c,1,67,0
2,105403206,Note_on_c,1,64,81
2,105454062,Note_off_c,1,60,0
2,105588802,Note_off_c,1,64,0
2,105612666,Note_on_c,1,64,81
2,105632296,Note_off_c,1,64,0
2,105666325,Note_on_c,1,67,81
2,105667998,Note_off_c,1,67,0
2,105679377,Note_on_c,1,64,81
2,105893041,Note_off_c,1,64,0
2,105904372,Note_on_c,1,76,81
2,105904687,Note_off_c,1,76,0
2,105993462,Note_on_c,1,60,81
2,106045422,Note_on_c,1,60,81
2,106100139,Note_on_c,1,64,81
2,106100593,Note_off_c,1,64,0
2,106109939,Note_off_c,1,60,0
2,106271633,Note_on_c,1,72,81
2,106271720,Note_off_c,1,72,0
2,106283412,Note_on_c,1,76,81
2,106283711,Note_off_c,1,76,0
2,106304175,Note_on_c,1,72,81
2,106304286,Note_off_c,1,72,0
2,106325791,Note_off_c,1,60,0
2,106358565,Note_on_c,1,64,81
2,106359717,Note_off_c,1,64,0
2,106360716,Note_on_c,1,60,81
2,106420705,Note_on_c,1,76,81
2,106420807,Note_off_c,1,76,0
2,106449380,Note_on_c,1,91,81
2,106449497,Note_off_c,1,91,0
2,106451495,Note_on_c,1,64,81
2,106454827,Note_on_c,1,76,81
2,106454929,Note_off_c,1,76,0
2,106457248,Note_off_c,1,64,0
2,106570770,Note_on_c,1,60,81
2,106572017,Note_off_c,1,60,0
2,106607715,Note_on_c,1,72,81
2,106607819,Note_off_c,1,72,0
2,106629498,Note_off_c,1,60,0
2,106629577,Note_on_c,1,60,81
2,106642462,Note_on_c,1,67,81
2,106642928,Note_off_c,1,67,0
2,106668417,Note_off_c,1,60,0
2,106695534,Note_on_c,1,64,81
2,106699994,Note_off_c,1,64,0
2,106702877,Note_on_c,1,64,81
2,106705327,Note_on_c,1,64,81
2,106718275,Note_off_c,1,64,0
2,106738947,Note_on_c,1,72,81
2,106739054,Note_off_c,1,72,0
2,106784124,Note_on_c,1,48,81
2,106784220,Note_off_c,1,48,0
2,106788148,Note_off_c,1,64,0
2,106969830,Note_on_c,1,60,81
2,106975627,Note_off_c,1,60,0
2,107028198,Note_on_c,1,60,81
2,107051586,Note_off_c,1,60,0
2,107065181,Note_on_c,1,60,81
2,107115515,Note_off_c,1,60,0
2,107133070,Note_on_c,1,72,81
2,107133170,Note_off_c,1,72,0
2,107152561,Note_on_c,1,60,81
2,107192299,Note_on_c,1,67,81
2,107192573,Note_off_c,1,67,0
2,107229758,Note_on_c,1,67,81
2,107230152,Note_off_c,1,67,0
2,107459564,Note_off_c,1,60,0
2,107490105,Note_on_c,1,60,81
2,107509802,Note_on_c,1,64,81
2,107511721,Note_off_c,1,64,0
2,107595350,Note_on_c,1,64,81
2,107597651,Note_off_c,1,64,0
2,107661306,Note_off_c,1,60,0
2,107697298,Note_on_c,1,55,81
2,107700218,Note_off_c,1,55,0
2,107702153,Note_on_c,1,60,81
2,107824317,Note_off_c,1,60,0
2,107867755,Note_on_c,1,60,81
2,107930087,Note_on_c,1,72,81
2,107930182,Note_off_c,1,72,0
2,107931799,Note_on_c,1,67,81
2,107932254,Note_off_c,1,67,0
2,107957412,Note_on_c,1,64,81
2,107958208,Note_off_c,1,60,0
2,107959986,Note_off_c,1,64,0
2,107985088,Note_on_c,1,67,81
2,107985658,Note_on_c,1,52,81
2,107985690,Note_off_c,1,67,0
2,107985773,Note_off_c,1,52,0
2,107985810,Note_on_c,1,67,81
2,107986031,Note_off_c,1,67,0
2,108004356,Note_on_c,1,67,81
2,108005568,Note_off_c,1,67,0
2,108030248,Note_on_c,1,64,81
2,108030718,Note_off_c,1,64,0
2,108041408,Note_on_c,1,60,81
2,108060817,Note_on_c,1,76,81
2,108060930,Note_off_c,1,76,0
2,108123456,Note_on_c,1,64,81
2,108159392,Note_off_c,1,64,0
2,108165854,Note_off_c,1,60,0
2,108166021,Note_on_c,1,60,81
2,108178870,Note_on_c,1,55,81
2,108179317,Note_off_c,1,55,0
2,108188805,Note_off_c,1,60,0
2,108211221,Note_on_c,1,60,81
2,108252213,Note_on_c,1,67,81
2,108252400,Note_off_c,1,67,0
2,108252400,Note_on_c,1,91,81
2,108252507,Note_off_c,1,91,0
2,108261246,Note_off_c,1,60,0
2,108261287,Note_on_c,1,64,81
2,108269200,Note_off_c,1,64,0
2,108275641,Note_on_c,1,64,81
2,108276546,Note_off_c,1,64,0
2,108292765,Note_on_c,1,72,81
2,108292869,Note_off_c,1,72,0
2,108294990,Note_on_c,1,60,81
2,108318078,Note_on_c,1,67,81
2,108318404,Note_off_c,1,67,0
2,108359083,Note_on_c,1,55,81
2,108359863,Note_off_c,1,55,0
2,108372771,Note_on_c,1,67,81
2,108372927,Note_off_c,1,67,0
2,108387511,Note_on_c,1,67,81
2,108388080,Note_off_c,1,67,0
2,108392072,Note_on_c,1,72,81
2,108392177,Note_off_c,1,72,0
2,108441879,Note_on_c,1,64,81
2,108526796,Note_off_c,1,60,0
2,108551017,Note_on_c,1,67,81
2,108551207,Note_off_c,1,67,0
2,108558286,Note_off_c,1,64,0
2,108559834,Note_on_c,1,60,81
2,108617999,Note_on_c,1,67,81
2,108618285,Note_off_c,1,67,0
2,108684774,Note_off_c,1,60,0
2,108751653,Note_on_c,1,64,81
2,108769942,Note_off_c,1,64,0
2,108782125,Note_on_c,1,88,81
2,108787053,Note_off_c,1,88,0
2,108798928,Note_on_c,1,64,81
2,108817679,Note_on_c,1,67,81
2,108817926,Note_off_c,1,67,0
2,108837113,Note_off_c,1,64,0
2,108848415,Note_on_c,1,60,81
2,108856399,Note_on_c,1,67,81
2,108856737,Note_off_c,1,67,0
2,108907614,Note_on_c,1,67,81
2,108907873,Note_off_c,1,67,0
2,108922975,Note_on_c,1,64,81
2,108924103,Note_off_c,1,64,0
2,108974476,Note_off_c,1,60,0
2,108984308,Note_on_c,1,60,81
2,108998481,Note_on_c,1,64,81
2,108999125,Note_off_c,1,64,0
2,109059508,Note_on_c,1,72,81
2,109059614,Note_off_c,1,72,0
2,109094846,Note_off_c,1,60,0
2,109095109,Note_on_c,1,60,81
2,109165830,Note_on_c,1,36,81
2,109174418,Note_off_c,1,60,0
2,109288439,Note_on_c,1,67,81
2,109288562,Note_off_c,1,67,0
2,109288570,Note_on_c,1,67,81
2,109290503,Note_off_c,1,67,0
2,109305493,Note_on_c,1,76,81
2,109305595,Note_off_c,1,76,0
2,109327174,Note_on_c,1,67,81
2,109327914,Note_off_c,1,67,0
2,109355063,Note_off_c,1,36,0
2,109366513,Note_on_c,1,60,81
2,109382467,Note_off_c,1,60,0
2,109382794,Note_on_c,1,64,81
2,109383666,Note_off_c,1,64,0
2,109390214,Note_on_c,1,60,81
2,109440723,Note_on_c,1,60,81
2,109441171,Note_off_c,1,60,0
2,109443919,Note_off_c,1,60,0
2,109444061,Note_on_c,1,60,81
2,109462593,Note_on_c,1,60,81
2,109465968,Note_off_c,1,60,0
2,109483219,Note_off_c,1,60,0
2,109483637,Note_on_c,1,64,81
2,109492854,Note_on_c,1,60,81
2,109506800,Note_off_c,1,64,0
2,109690608,Note_on_c,1,60,81
2,109691217,Note_off_c,1,60,0
2,109878098,Note_off_c,1,60,0
2,109978255,Note_on_c,1,60,81
2,109980720,Note_off_c,1,60,0
2,110020010,Note_on_c,1,64,81
2,110040241,Note_off_c,1,64,0
2,110099818,Note_on_c,1,60,81
2,110180004,Note_off_c,1,60,0
2,110180140,Note_on_c,1,60,81
2,110243939,Note_on_c,1,60,81
2,110254275,Note_off_c,1,60,0
2,110341972,Note_on_c,1,64,81
2,110354563,Note_off_c,1,64,0
2,110358349,Note_off_c,1,60,0
2,110391770,Note_on_c,1,60,81
2,110415575,Note_off_c,1,60,0
2,110424686,Note_on_c,1,60,81
2,110439995,Note_on_c,1,76,81
2,110440303,Note_off_c,1,76,0
2,110476641,Note_off_c,1,60,0
2,110477906,Note_on_c,1,64,81
2,110479436,Note_off_c,1,64,0
2,110562174,Note_on_c,1,67,81
2,110562615,Note_off_c,1,67,0
2,110598092,Note_on_c,1,67,81
2,110598705,Note_off_c,1,67,0
2,110609977,Note_on_c,1,60,81
2,110645698,Note_on_c,1,67,81
2,110646558,Note_off_c,1,67,0
2,110700561,Note_on_c,1,67,81
2,110700900,Note_off_c,1,67,0
2,110706361,Note_on_c,1,67,81
2,110706882,Note_off_c,1,67,0
2,110722249,Note_on_c,1,72,81
2,110722348,Note_off_c,1,72,0
2,110815958,Note_off_c,1,60,0
2,110848545,Note_on_c,1,52,81
2,110848673,Note_off_c,1,52,0
2,110856416,Note_on_c,1,72,81
2,110856522,Note_off_c,1,72,0
2,110858238,Note_on_c,1,67,81
2,110859147,Note_off_c,1,67,0
2,110863859,Note_on_c,1,67,81
2,110864451,Note_off_c,1,67,0
2,110874769,Note_on_c,1,60,81
2,110898879,Note_off_c,1,60,0
2,110923565,Note_on_c,1,67,81
2,110924107,Note_off_c,1,67,0
2,110958705,Note_on_c,1,60,81
2,110967890,Note_off_c,1,60,0
2,110982014,Note_on_c,1,60,81
2,111028263,Note_off_c,1,60,0
2,111046867,Note_on_c,1,67,81
2,111047521,Note_off_c,1,67,0
2,111087502,Note_on_c,1,60,81
2,111091212,Note_on_c,1,72,81
2,111091332,Note_off_c,1,72,0
2,111227746,Note_on_c,1,64,81
2,111231194,Note_off_c,1,60,0
2,111259034,Note_off_c,1,64,0
2,111259326,Note_on_c,1,60,81
2,111297125,Note_on_c,1,64,81
2,111298510,Note_off_c,1,64,0
2,111299027,Note_on_c,1,60,81
2,111309202,Note_on_c,1,64,81
2,111313517,Note_off_c,1,64,0
2,111353701,Note_on_c,1,67,81
2,111354183,Note_off_c,1,67,0
2,111360640,Note_on_c,1,64,81
2,111361607,Note_off_c,1,64,0
2,111430259,Note_on_c,1,67,81
2,111431781,Note_off_c,1,67,0
2,111445354,Note_off_c,1,60,0
2,111483495,Note_on_c,1,64,81
2,111483715,Note_off_c,1,60,0
2,111494990,Note_on_c,1,67,81
2,111495713,Note_off_c,1,67,0
2,111505306,Note_on_c,1,64,81
2,111511071,Note_off_c,1,64,0
2,111555380,Note_on_c,1,60,81
2,111598302,Note_off_c,1,64,0
2,111599874,Note_on_c,1,64,81
2,111602295,Note_off_c,1,64,0
2,111606906,Note_off_c,1,60,0
2,111660331,Note_on_c,1,60,81
2,111873452,Note_off_c,1,60,0
2,111873587,Note_on_c,1,64,81
2,111877310,Note_off_c,1,64,0
2,111900304,Note_on_c,1,64,81
2,111909420,Note_off_c,1,64,0
2,112054074,Note_on_c,1,60,81
2,112069686,Note_off_c,1,60,0
2,112070662,Note_on_c,1,60,81
2,112087529,Note_off_c,1,60,0
2,112087590,Note_on_c,1,60,81
2,112102790,Note_off_c,1,60,0
2,112107930,Note_on_c,1,60,81
2,112154764,Note_on_c,1,64,81
2,112166476,Note_off_c,1,64,0
2,112196439,Note_on_c,1,72,81
2,112196546,Note_off_c,1,72,0
2,112217639,Note_on_c,1,64,81
2,112219570,Note_off_c,1,64,0
2,112234164,Note_on_c,1,64,81
2,112234758,Note_off_c,1,64,0
2,112236092,Note_on_c,1,64,81
2,112236805,Note_on_c,1,60,81
2,112254939,Note_off_c,1,60,0
2,112307009,Note_off_c,1,64,0
2,112325752,Note_on_c,1,67,81
2,112326749,Note_off_c,1,67,0
2,112347329,Note_on_c,1,60,81
2,112350094,Note_off_c,1,60,0
2,112351294,Note_off_c,1,60,0
2,112355840,Note_on_c,1,67,81
2,112356714,Note_off_c,1,67,0
2,112361436,Note_on_c,1,67,81
2,112362722,Note_off_c,1,67,0
2,112365703,Note_on_c,1,67,81
2,112367444,Note_off_c,1,67,0
2,112392362,Note_on_c,1,64,81
2,112396364,Note_off_c,1,64,0
2,112476537,Note_on_c,1,64,81
2,112481636,Note_off_c,1,64,0
2,112616702,Note_on_c,1,67,81
2,112617880,Note_off_c,1,67,0
2,112825938,Note_on_c,1,67,81
2,112826470,Note_off_c,1,67,0
2,112971492,Note_on_c,1,72,81
2,112971599,Note_off_c,1,72,0
2,112988310,Note_on_c,1,64,81
2,113010936,Note_on_c,1,67,81
2,113011415,Note_off_c,1,67,0
2,113084454,Note_off_c,1,64,0
2,113129706,Note_on_c,1,64,81
2,113140870,Note_off_c,1,64,0
2,113222165,Note_on_c,1,67,81
2,113224072,Note_off_c,1,67,0
2,113357002,Note_on_c,1,64,81
2,113367944,Note_off_c,1,64,0
2,113428539,Note_on_c,1,64,81
2,113433555,Note_off_c,1,64,0
2,113531117,Note_on_c,1,64,81
2,113543793,Note_off_c,1,64,0
2,113581500,Note_on_c,1,67,81
2,113581947,Note_off_c,1,67,0
2,113586187,Note_on_c,1,64,81
2,113587438,Note_off_c,1,64,0
2,113616926,Note_on_c,1,64,81
2,113650090,Note_off_c,1,64,0
2,113791828,Note_on_c,1,64,81
2,113837368,Note_off_c,1,64,0
2,113839278,Note_on_c,1,67,81
2,113839621,Note_off_c,1,67,0
2,113855536,Note_on_c,1,64,81
2,113856879,Note_off_c,1,64,0
2,113857344,Note_on_c,1,60,81
2,113863475,Note_off_c,1,60,0
2,113868012,Note_on_c,1,64,81
2,113873390,Note_off_c,1,64,0
2,113904131,Note_on_c,1,64,81
2,113921642,Note_off_c,1,64,0
2,113933027,Note_on_c,1,60,81
2,113969700,Note_on_c,1,64,81
2,114011308,Note_off_c,1,60,0
2,114019620,Note_on_c,1,67,81
2,114020483,Note_off_c,1,67,0
2,114055595,Note_on_c,1,60,81
2,114084167,Note_on_c,1,67,81
2,114084792,Note_off_c,1,67,0
2,114220680,Note_on_c,1,91,81
2,114220786,Note_off_c,1,91,0
2,114343023,Note_off_c,1,60,0
2,114349482,Note_on_c,1,67,81
2,114350648,Note_off_c,1,67,0
2,114471705,Note_off_c,1,64,0
2,114477349,Note_on_c,1,64,81
2,114488752,Note_off_c,1,64,0
2,114523442,Note_on_c,1,64,81
2,114545335,Note_off_c,1,64,0
2,114822993,Note_on_c,1,64,81
2,114866872,Note_on_c,1,72,81
2,114866976,Note_off_c,1,72,0
2,115002280,Note_off_c,1,64,0
2,115358497,Note_on_c,1,67,81
2,115358752,Note_off_c,1,67,0
2,115633539,Note_on_c,1,64,81
2,115643916,Note_off_c,1,64,0
2,115901794,Note_on_c,1,64,81
2,115931148,Note_on_c,1,60,81
2,116033900,Note_on_c,1,64,81
2,116038755,Note_on_c,1,67,81
2,116039495,Note_off_c,1,67,0
2,116046753,Note_off_c,1,64,0
2,116060891,Note_off_c,1,60,0
2,116100705,Note_off_c,1,64,0
2,116100850,Note_on_c,1,60,81
2,116118908,Note_on_c,1,60,81
2,116137057,Note_on_c,1,67,81
2,116137572,Note_off_c,1,67,0
2,116158747,Note_off_c,1,60,0
2,116244186,Note_on_c,1,64,81
2,116244728,Note_off_c,1,64,0
2,116249497,Note_off_c,1,60,0
2,116249963,Note_on_c,1,60,81
2,116254075,Note_off_c,1,60,0
2,116254172,Note_on_c,1,60,81
2,116258492,Note_on_c,1,67,81
2,116259115,Note_off_c,1,67,0
2,116267759,Note_on_c,1,60,81
2,116279930,Note_off_c,1,60,0
2,116399394,Note_on_c,1,60,81
2,116444861,Note_off_c,1,60,0
2,116453013,Note_on_c,1,67,81
2,116453565,Note_off_c,1,67,0
2,116457322,Note_on_c,1,67,81
2,116458669,Note_off_c,1,67,0
2,116460738,Note_on_c,1,64,81
2,116461369,Note_on_c,1,60,81
2,116463692,Note_off_c,1,64,0
2,116463696,Note_off_c,1,60,0
2,116463771,Note_off_c,1,60,0
2,116492296,Note_on_c,1,64,81
2,116494988,Note_on_c,1,60,81
2,116497099,Note_off_c,1,64,0
2,116511638,Note_on_c,1,60,81
2,116524788,Note_off_c,1,60,0
2,116529012,Note_on_c,1,60,81
2,116545684,Note_off_c,1,60,0
2,116561127,Note_off_c,1,60,0
2,116570501,Note_on_c,1,64,81
2,116571207,Note_off_c,1,64,0
2,116571408,Note_on_c,1,60,81
2,116597675,Note_off_c,1,60,0
2,116616478,Note_on_c,1,60,81
2,116632985,Note_off_c,1,60,0
2,116635617,Note_on_c,1,60,81
2,116668794,Note_off_c,1,60,0
2,116681186,Note_on_c,1,60,81
2,116741867,Note_off_c,1,60,0
2,116752196,Note_on_c,1,60,81
2,116765719,Note_off_c,1,60,0
2,116792084,Note_on_c,1,60,81
2,116829083,Note_off_c,1,60,0
2,116877211,Note_on_c,1,60,81
2,116932161,Note_off_c,1,60,0
2,117048669,Note_on_c,1,67,81
2,117048838,Note_off_c,1,67,0
2,117060681,Note_on_c,1,91,81
2,117060799,Note_off_c,1,91,0
2,117262242,Note_on_c,1,64,81
2,117264817,Note_off_c,1,64,0
2,117265557,Note_on_c,1,60,81
2,117273565,Note_off_c,1,60,0
2,117287352,Note_on_c,1,60,81
2,117299363,Note_on_c,1,76,81
2,117299638,Note_off_c,1,76,0
2,117301454,Note_on_c,1,76,81
2,117301758,Note_off_c,1,76,0
2,117318210,Note_on_c,1,60,81
2,117425942,Note_off_c,1,60,0
2,117431590,Note_on_c,1,67,81
2,117432442,Note_off_c,1,67,0
2,117451129,Note_on_c,1,64,81
2,117453525,Note_off_c,1,64,0
2,117453816,Note_on_c,1,60,81
2,117457733,Note_on_c,1,72,81
2,117457838,Note_off_c,1,72,0
2,117560268,Note_on_c,1,60,81
2,117569858,Note_off_c,1,60,0
2,117573571,Note_off_c,1,60,0
2,117602542,Note_off_c,1,60,0
2,117633705,Note_on_c,1,40,81
2,117645087,Note_off_c,1,40,0
2,117673746,Note_on_c,1,64,81
2,117675332,Note_off_c,1,64,0
2,117675468,Note_on_c,1,60,81
2,117710727,Note_off_c,1,60,0
2,117907263,Note_on_c,1,60,81
2,117998974,Note_on_c,1,67,81
2,117999448,Note_off_c,1,67,0
2,118317676,Note_off_c,1,60,0
2,118452468,Note_on_c,1,67,81
2,118454992,Note_off_c,1,67,0
2,118460771,Note_on_c,1,60,81
2,118501429,Note_on_c,1,67,81
2,118502906,Note_off_c,1,67,0
2,118548295,Note_on_c,1,60,81
2,118561716,Note_off_c,1,60,0
2,118565659,Note_on_c,1,64,81
2,118576840,Note_off_c,1,64,0
2,118589069,Note_on_c,1,67,81
2,118589634,Note_off_c,1,67,0
2,118710075,Note_off_c,1,60,0
2,118757517,Note_on_c,1,88,81
2,118783420,Note_off_c,1,88,0
2,118813441,Note_on_c,1,60,81
2,118894151,Note_on_c,1,60,81
2,118909171,Note_off_c,1,60,0
2,118934769,Note_on_c,1,64,81
2,118935162,Note_off_c,1,60,0
2,118959762,Note_on_c,1,60,81
2,119057879,Note_on_c,1,76,81
2,119057974,Note_off_c,1,76,0
2,119069046,Note_on_c,1,48,81
2,119069143,Note_off_c,1,48,0
2,119149387,Note_off_c,1,60,0
2,119159296,Note_on_c,1,67,81
2,119159476,Note_off_c,1,67,0
2,119177204,Note_on_c,1,60,81
2,119182745,Note_off_c,1,64,0
2,119269132,Note_on_c,1,67,81
2,119269714,Note_off_c,1,67,0
2,119327280,Note_on_c,1,72,81
2,119327385,Note_off_c,1,72,0
2,119349761,Note_off_c,1,60,0
2,119349908,Note_on_c,1,64,81
2,119608236,Note_off_c,1,64,0
2,120015178,Note_on_c,1,48,81
2,120015257,Note_off_c,1,48,0
2,120462510,Note_on_c,1,64,81
2,120526293,Note_on_c,1,72,81
2,120526400,Note_off_c,1,72,0
2,120686620,Note_on_c,1,91,81
2,120686742,Note_off_c,1,91,0
2,120706789,Note_off_c,1,64,0
2,120781219,Note_on_c,1,67,81
2,120781512,Note_off_c,1,67,0
2,120840732,Note_on_c,1,64,81
2,120845475,Note_off_c,1,64,0
2,121079493,Note_on_c,1,60,81
2,121334745,Note_off_c,1,60,0
2,121354353,Note_on_c,1,72,81
2,121354460,Note_off_c,1,72,0
2,121378796,Note_on_c,1,76,81
2,121378898,Note_off_c,1,76,0
2,121381471,Note_on_c,1,67,81
2,121381860,Note_off_c,1,67,0
2,121389323,Note_on_c,1,84,81
2,121390357,Note_off_c,1,84,0
2,121435594,Note_on_c,1,60,81
2,121449727,Note_off_c,1,60,0
2,121453980,Note_on_c,1,72,81
2,121454121,Note_off_c,1,72,0
2,121478272,Note_on_c,1,67,81
2,121479908,Note_off_c,1,67,0
2,121542485,Note_on_c,1,72,81
2,121542626,Note_off_c,1,72,0
2,121580331,Note_on_c,1,72,81
2,121580521,Note_off_c,1,72,0
2,121641008,Note_on_c,1,67,81
2,121641221,Note_off_c,1,67,0
2,121653794,Note_on_c,1,67,81
2,121654690,Note_off_c,1,67,0
2,121679971,Note_on_c,1,67,81
2,121680459,Note_off_c,1,67,0
2,121682924,Note_on_c,1,67,81
2,121684272,Note_off_c,1,67,0
2,121858178,Note_on_c,1,67,81
2,121858768,Note_off_c,1,67,0
2,122211647,Note_on_c,1,72,81
2,122211811,Note_off_c,1,72,0
2,122399550,Note_on_c,1,60,81
2,122433119,Note_off_c,1,60,0
2,122436788,Note_on_c,1,55,81
2,122439223,Note_off_c,1,55,0
2,122443350,Note_on_c,1,60,81
2,122454357,Note_on_c,1,67,81
2,122454612,Note_off_c,1,67,0
2,122471807,Note_off_c,1,60,0
2,122471916,Note_on_c,1,60,81
2,122471922,Note_on_c,1,55,81
2,122484161,Note_off_c,1,55,0
2,122531122,Note_on_c,1,67,81
2,122531436,Note_off_c,1,67,0
2,122562171,Note_on_c,1,64,81
2,122621014,Note_off_c,1,64,0
2,122643387,Note_on_c,1,64,81
2,122644771,Note_off_c,1,64,0
2,122711886,Note_on_c,1,64,81
2,122718814,Note_off_c,1,64,0
2,122726373,Note_off_c,1,60,0
2,122745279,Note_on_c,1,76,81
2,122745529,Note_off_c,1,76,0
2,122779715,Note_on_c,1,60,81
2,122784074,Note_off_c,1,60,0
2,122789048,Note_on_c,1,60,81
2,122809720,Note_off_c,1,60,0
2,122859677,Note_on_c,1,67,81
2,122859988,Note_off_c,1,67,0
2,122975197,Note_on_c,1,64,81
2,122996061,Note_off_c,1,64,0
2,122996234,Note_on_c,1,60,81
2,123072925,Note_off_c,1,60,0
2,123216338,Note_on_c,1,60,81
2,123389420,Note_on_c,1,64,81
2,123511509,Note_off_c,1,64,0
2,123519696,Note_on_c,1,64,81
2,123557670,Note_off_c,1,64,0
2,123589710,Note_on_c,1,64,81
2,123637093,Note_off_c,1,60,0
2,123685323,Note_off_c,1,64,0
2,123803864,Note_on_c,1,60,81
2,123823239,Note_on_c,1,64,81
2,123829285,Note_off_c,1,64,0
2,124644433,Note_on_c,1,64,81
2,124825640,Note_off_c,1,60,0
2,124962436,Note_on_c,1,60,81
2,124963165,Note_off_c,1,64,0
2,125092633,Note_off_c,1,60,0
2,125119048,Note_on_c,1,60,81
2,125219961,Note_on_c,1,60,81
2,125264407,Note_off_c,1,60,0
2,125268086,Note_on_c,1,64,81
2,125274828,Note_off_c,1,64,0
2,125302078,Note_off_c,1,60,0
2,125370033,Note_on_c,1,64,81
2,125445193,Note_off_c,1,64,0
2,125577544,Note_on_c,1,64,81
2,125674352,Note_on_c,1,64,81
2,125720218,Note_off_c,1,64,0
2,125747663,Note_on_c,1,60,81
2,125749190,Note_off_c,1,64,0
2,125761269,Note_off_c,1,60,0
2,125781160,Note_on_c,1,60,81
2,125797855,Note_on_c,1,64,81
2,125818858,Note_off_c,1,64,0
2,125875167,Note_on_c,1,76,81
2,125875498,Note_off_c,1,76,0
2,125932034,Note_off_c,1,60,0
2,125956769,Note_on_c,1,60,81
2,125979811,Note_on_c,1,91,81
2,125979934,Note_off_c,1,91,0
2,125980244,Note_off_c,1,60,0
2,125986478,Note_on_c,1,60,81
2,126203817,Note_off_c,1,60,0
2,126257920,Note_on_c,1,67,81
2,126258355,Note_off_c,1,67,0
2,126304222,Note_on_c,1,88,81
2,126340114,Note_on_c,1,60,81
2,126348875,Note_off_c,1,60,0
2,126484630,Note_on_c,1,48,81
2,126484713,Note_off_c,1,48,0
2,126590286,Note_on_c,1,72,81
2,126590393,Note_off_c,1,72,0
2,126627483,Note_on_c,1,67,81
2,126628570,Note_off_c,1,67,0
2,126643487,Note_on_c,1,88,81
2,126644390,Note_off_c,1,88,0
2,126683035,Note_on_c,1,67,81
2,126683847,Note_off_c,1,67,0
2,126719559,Note_on_c,1,64,81
2,126721778,Note_off_c,1,64,0
2,127118670,Note_on_c,1,60,81
2,127199481,Note_off_c,1,60,0
2,127213609,Note_off_c,1,88,0
2,127266725,Note_on_c,1,60,81
2,127288567,Note_off_c,1,60,0
2,127288711,Note_on_c,1,60,81
2,127317882,Note_on_c,1,91,81
2,127317973,Note_off_c,1,91,0
2,127343609,Note_off_c,1,60,0
2,127355755,Note_on_c,1,67,81
2,127356789,Note_off_c,1,67,0
2,127362512,Note_on_c,1,67,81
2,127363403,Note_off_c,1,67,0
2,127416534,Note_on_c,1,67,81
2,127416952,Note_off_c,1,67,0
2,127435635,Note_on_c,1,67,81
2,127436189,Note_off_c,1,67,0
2,127438405,Note_on_c,1,60,81
2,127438405,Note_on_c,1,60,81
2,127459389,Note_off_c,1,60,0
2,127472793,Note_on_c,1,60,81
2,127519001,Note_off_c,1,60,0
2,127519191,Note_off_c,1,60,0
2,127519454,Note_on_c,1,60,81
2,127591820,Note_off_c,1,60,0
2,127632957,Note_on_c,1,79,81
2,127635321,Note_off_c,1,79,0
2,127654859,Note_on_c,1,67,81
2,127655278,Note_off_c,1,67,0
2,127659423,Note_on_c,1,79,81
2,127659689,Note_on_c,1,79,81
2,127660338,Note_off_c,1,79,0
2,127660579,Note_off_c,1,79,0
2,127664553,Note_on_c,1,64,81
2,127681555,Note_off_c,1,64,0
2,127708071,Note_on_c,1,60,81
2,127909832,Note_on_c,1,67,81
2,127910052,Note_off_c,1,67,0
2,127918631,Note_off_c,1,60,0
2,127968784,Note_on_c,1,60,81
2,128027885,Note_on_c,1,64,81
2,128085248,Note_off_c,1,64,0
2,128500526,Note_on_c,1,64,81
2,128501176,Note_off_c,1,64,0
2,128520616,Note_off_c,1,60,0
2,128520746,Note_on_c,1,64,81
2,128521180,Note_off_c,1,64,0
2,128580112,Note_on_c,1,67,81
2,128580884,Note_off_c,1,67,0
2,128584389,Note_on_c,1,76,81
2,128584491,Note_off_c,1,76,0
2,128639187,Note_on_c,1,67,81
2,128639653,Note_off_c,1,67,0
2,128761716,Note_on_c,1,76,81
2,128761808,Note_off_c,1,76,0
2,128883137,Note_on_c,1,60,81
2,128928994,Note_on_c,1,67,81
2,128929988,Note_off_c,1,67,0
2,129157522,Note_on_c,1,67,81
2,129159120,Note_off_c,1,67,0
2,129436874,Note_on_c,1,72,81
2,129436980,Note_off_c,1,72,0
2,129439484,Note_on_c,1,64,81
2,129479614,Note_on_c,1,64,81
2,129481410,Note_off_c,1,64,0
2,129516566,Note_off_c,1,60,0
2,129576047,Note_off_c,1,64,0
2,129576131,Note_on_c,1,60,81
2,129710177,Note_off_c,1,60,0
2,129756297,Note_on_c,1,67,81
2,129757112,Note_off_c,1,67,0
2,129783768,Note_on_c,1,67,81
2,129784045,Note_off_c,1,67,0
2,129800907,Note_on_c,1,67,81
2,129802214,Note_off_c,1,67,0
2,129819636,Note_on_c,1,67,81
2,129820170,Note_off_c,1,67,0
2,129831243,Note_on_c,1,60,81
2,129861547,Note_off_c,1,60,0
2,130013698,Note_on_c,1,60,81
2,130133409,Note_on_c,1,64,81
2,130141449,Note_off_c,1,60,0
2,130144314,Note_on_c,1,60,81
2,130146179,Note_off_c,1,64,0
2,130365425,Note_off_c,1,60,0
2,130366016,Note_on_c,1,60,81
2,130443067,Note_off_c,1,60,0
2,130573995,Note_on_c,1,76,81
2,130574112,Note_off_c,1,76,0
2,130697311,Note_on_c,1,64,81
2,130697778,Note_off_c,1,64,0
2,130827405,Note_on_c,1,60,81
2,130837135,Note_off_c,1,60,0
2,130839346,Note_on_c,1,60,81
2,131063322,Note_off_c,1,60,0
2,131125624,Note_on_c,1,64,81
2,131125922,Note_off_c,1,64,0
2,131135466,Note_on_c,1,60,81
2,131184324,Note_on_c,1,67,81
2,131185486,Note_off_c,1,67,0
2,131283535,Note_off_c,1,60,0
2,131294416,Note_on_c,1,64,81
2,131295770,Note_off_c,1,64,0
2,131469058,Note_on_c,1,67,81
2,131469536,Note_off_c,1,67,0
2,131470831,Note_on_c,1,60,81
2,131573965,Note_on_c,1,60,81
2,131584332,Note_off_c,1,60,0
2,131628242,Note_off_c,1,60,0
2,131628441,Note_on_c,1,60,81
2,131642817,Note_on_c,1,72,81
2,131642966,Note_off_c,1,72,0
2,131699643,Note_on_c,1,60,81
2,131701401,Note_off_c,1,60,0
2,131708440,Note_on_c,1,60,81
2,131711017,Note_off_c,1,60,0
2,131747418,Note_off_c,1,60,0
2,131780720,Note_on_c,1,67,81
2,131781312,Note_off_c,1,67,0
2,131792171,Note_on_c,1,48,81
2,131792231,Note_off_c,1,48,0
2,131808015,Note_on_c,1,60,81
2,131819802,Note_on_c,1,67,81
2,131820091,Note_off_c,1,67,0
2,131820333,Note_on_c,1,76,81
2,131820653,Note_off_c,1,76,0
2,131825980,Note_on_c,1,67,81
2,131828413,Note_off_c,1,67,0
2,131895155,Note_off_c,1,60,0
2,131901962,Note_on_c,1,64,81
2,131910190,Note_on_c,1,55,81
2,131911527,Note_off_c,1,55,0
2,131920565,Note_off_c,1,64,0
2,131948175,Note_on_c,1,60,81
2,131950945,Note_on_c,1,64,81
2,131951372,Note_off_c,1,60,0
2,132077393,Note_off_c,1,64,0
2,132085083,Note_on_c,1,64,81
2,132099279,Note_off_c,1,64,0
2,132115191,Note_on_c,1,48,81
2,132115263,Note_off_c,1,48,0
2,132130251,Note_on_c,1,55,81
2,132131795,Note_off_c,1,55,0
2,132131887,Note_on_c,1,64,81
2,132169374,Note_off_c,1,64,0
2,132271981,Note_on_c,1,67,81
2,132273332,Note_off_c,1,67,0
2,132296054,Note_on_c,1,60,81
2,132401475,Note_off_c,1,60,0
2,132445866,Note_on_c,1,60,81
2,132513198,Note_off_c,1,60,0
2,132518829,Note_on_c,1,67,81
2,132519295,Note_off_c,1,67,0
2,132538289,Note_on_c,1,60,81
2,132539336,Note_off_c,1,60,0
2,132552692,Note_on_c,1,60,81
2,132553721,Note_off_c,1,60,0
2,132559023,Note_on_c,1,79,81
2,132559265,Note_off_c,1,79,0
2,132570321,Note_on_c,1,60,81
2,132571359,Note_off_c,1,60,0
2,132588591,Note_on_c,1,60,81
2,132589741,Note_off_c,1,60,0
2,132594397,Note_on_c,1,79,81
2,132595436,Note_off_c,1,79,0
2,132599971,Note_on_c,1,64,81
2,132602740,Note_off_c,1,64,0
2,132608224,Note_on_c,1,84,81
2,132609302,Note_off_c,1,84,0
2,132617021,Note_on_c,1,60,81
2,132624275,Note_off_c,1,60,0
2,132643311,Note_on_c,1,60,81
2,132659182,Note_off_c,1,60,0
2,132674884,Note_on_c,1,67,81
2,132675383,Note_off_c,1,67,0
2,132680848,Note_on_c,1,60,81
2,132698782,Note_on_c,1,67,81
2,132699667,Note_off_c,1,67,0
2,132714055,Note_off_c,1,60,0
2,132722786,Note_on_c,1,60,81
2,132736935,Note_off_c,1,60,0
2,132743869,Note_on_c,1,60,81
2,132752674,Note_on_c,1,64,81
2,132753951,Note_off_c,1,64,0
2,132763459,Note_off_c,1,60,0
2,132764659,Note_on_c,1,67,81
2,132765458,Note_off_c,1,67,0
2,132769369,Note_on_c,1,60,81
2,132813339,Note_off_c,1,60,0
2,132814568,Note_on_c,1,60,81
2,132815306,Note_on_c,1,52,81
2,132815379,Note_off_c,1,52,0
2,132816801,Note_on_c,1,52,81
2,132816877,Note_off_c,1,52,0
2,132817218,Note_on_c,1,52,81
2,132817348,Note_off_c,1,52,0
2,132817564,Note_off_c,1,60,0
2,132868217,Note_on_c,1,67,81
2,132868859,Note_off_c,1,67,0
2,132891923,Note_on_c,1,55,81
2,132893819,Note_off_c,1,55,0
2,132954256,Note_on_c,1,64,81
2,132997550,Note_on_c,1,67,81
2,132998040,Note_off_c,1,67,0
2,133061239,Note_on_c,1,64,81
2,133103128,Note_off_c,1,64,0
2,133107410,Note_off_c,1,64,0
2,133150567,Note_on_c,1,67,81
2,133150816,Note_off_c,1,67,0
2,133240513,Note_on_c,1,60,81
2,133435076,Note_on_c,1,64,81
2,133439464,Note_off_c,1,64,0
2,133452856,Note_on_c,1,64,81
2,133456605,Note_off_c,1,64,0
2,133502251,Note_on_c,1,64,81
2,133510385,Note_on_c,1,67,81
2,133510693,Note_off_c,1,67,0
2,133532128,Note_off_c,1,60,0
2,133540783,Note_on_c,1,64,81
2,133541174,Note_off_c,1,64,0
2,133676728,Note_on_c,1,67,81
2,133677429,Note_off_c,1,67,0
2,133821146,Note_on_c,1,64,81
2,133872922,Note_off_c,1,64,0
2,133889112,Note_on_c,1,60,81
2,133892802,Note_off_c,1,64,0
2,133895553,Note_off_c,1,60,0
2,133952169,Note_on_c,1,60,81
2,133953303,Note_on_c,1,60,81
2,133980088,Note_off_c,1,60,0
2,133987580,Note_on_c,1,60,81
2,133990432,Note_off_c,1,60,0
2,134009032,Note_on_c,1,67,81
2,134009218,Note_off_c,1,67,0
2,134052624,Note_off_c,1,60,0
2,134074122,Note_on_c,1,64,81
2,134115234,Note_on_c,1,67,81
2,134115736,Note_off_c,1,67,0
2,134121433,Note_off_c,1,64,0
2,134133572,Note_on_c,1,76,81
2,134133868,Note_off_c,1,76,0
2,134169247,Note_on_c,1,60,81
2,134211449,Note_on_c,1,67,81
2,134211527,Note_off_c,1,67,0
2,134257034,Note_on_c,1,91,81
2,134257143,Note_off_c,1,91,0
2,134283091,Note_on_c,1,76,81
2,134283193,Note_off_c,1,76,0
2,134296300,Note_on_c,1,64,81
2,134296996,Note_on_c,1,67,81
2,134298695,Note_off_c,1,67,0
2,134304297,Note_off_c,1,64,0
2,134318112,Note_off_c,1,60,0
2,134343306,Note_on_c,1,64,81
2,134345687,Note_on_c,1,64,81
2,134349337,Note_off_c,1,64,0
2,134393141,Note_on_c,1,67,81
2,134393900,Note_off_c,1,67,0
2,134428238,Note_on_c,1,64,81
2,134504581,Note_off_c,1,64,0
2,134520162,Note_on_c,1,64,81
2,134520585,Note_off_c,1,64,0
2,134603563,Note_on_c,1,67,81
2,134604698,Note_off_c,1,67,0
2,134606298,Note_on_c,1,64,81
2,134609437,Note_off_c,1,64,0
2,134636488,Note_on_c,1,64,81
2,134642495,Note_off_c,1,64,0
2,134689399,Note_off_c,1,64,0
2,134706059,Note_on_c,1,64,81
2,134707349,Note_off_c,1,64,0
2,134897873,Note_on_c,1,67,81
2,134898759,Note_off_c,1,67,0
2,134917392,Note_on_c,1,60,81
2,134941391,Note_on_c,1,64,81
2,134942450,Note_off_c,1,64,0
2,134950115,Note_off_c,1,60,0
2,134960377,Note_on_c,1,60,81
2,134979337,Note_on_c,1,48,81
2,134979432,Note_off_c,1,48,0
2,135055032,Note_on_c,1,64,81
2,135060550,Note_off_c,1,64,0
2,135103056,Note_off_c,1,60,0
2,135181307,Note_on_c,1,60,81
2,135195082,Note_on_c,1,64,81
2,135195995,Note_off_c,1,64,0
2,135219173,Note_off_c,1,60,0
2,135239159,Note_on_c,1,48,81
2,135239256,Note_off_c,1,48,0
2,135259995,Note_on_c,1,64,81
2,135260933,Note_off_c,1,64,0
2,135283406,Note_on_c,1,60,81
2,135301567,Note_on_c,1,64,81
2,135307158,Note_off_c,1,64,0
2,135323398,Note_on_c,1,64,81
2,135327965,Note_off_c,1,64,0
2,135474503,Note_on_c,1,76,81
2,135474609,Note_off_c,1,76,0
2,135497421,Note_on_c,1,64,81
2,135498434,Note_off_c,1,60,0
2,135619164,Note_on_c,1,67,81
2,135620171,Note_off_c,1,67,0
2,135628786,Note_on_c,1,64,81
2,135634681,Note_off_c,1,64,0
2,135636085,Note_on_c,1,67,81
2,135636713,Note_off_c,1,67,0
2,135807147,Note_on_c,1,64,81
2,135808466,Note_off_c,1,64,0
2,135813990,Note_off_c,1,64,0
2,135851700,Note_on_c,1,60,81
2,135854052,Note_on_c,1,64,81
2,135880942,Note_off_c,1,64,0
2,135882779,Note_on_c,1,64,81
2,135888133,Note_off_c,1,64,0
2,135991935,Note_on_c,1,64,81
2,136034552,Note_on_c,1,88,81
2,136034886,Note_off_c,1,88,0
2,136195574,Note_off_c,1,60,0
2,136206477,Note_on_c,1,67,81
2,136206860,Note_off_c,1,67,0
2,136225751,Note_off_c,1,64,0
2,136231023,Note_on_c,1,60,81
2,136250335,Note_off_c,1,60,0
2,136256626,Note_on_c,1,60,81
2,136289851,Note_off_c,1,60,0
2,136290013,Note_on_c,1,64,81
2,136292937,Note_off_c,1,64,0
2,136317960,Note_on_c,1,67,81
2,136318236,Note_off_c,1,67,0
2,136335713,Note_on_c,1,64,81
2,136336087,Note_off_c,1,64,0
2,136342280,Note_on_c,1,60,81
2,136364128,Note_on_c,1,88,81
2,136365079,Note_off_c,1,88,0
2,136419846,Note_on_c,1,67,81
2,136420425,Note_off_c,1,67,0
2,136475861,Note_on_c,1,67,81
2,136476150,Note_off_c,1,67,0
2,136545191,Note_on_c,1,76,81
2,136545492,Note_off_c,1,76,0
2,136550660,Note_on_c,1,64,81
2,136550819,Note_off_c,1,60,0
2,136552554,Note_off_c,1,64,0
2,136557045,Note_on_c,1,60,81
2,136629065,Note_on_c,1,64,81
2,136630242,Note_on_c,1,91,81
2,136630355,Note_off_c,1,91,0
2,136648198,Note_off_c,1,64,0
2,136784044,Note_on_c,1,64,81
2,136786280,Note_off_c,1,64,0
2,136792477,Note_off_c,1,60,0
2,136822563,Note_on_c,1,60,81
2,136855697,Note_on_c,1,52,81
2,136855831,Note_off_c,1,52,0
2,136900232,Note_on_c,1,88,81
2,136901529,Note_off_c,1,88,0
2,136913934,Note_off_c,1,60,0
2,136922300,Note_on_c,1,60,81
2,136925660,Note_off_c,1,60,0
2,136934764,Note_on_c,1,76,81
2,136934866,Note_off_c,1,76,0
2,136973929,Note_on_c,1,67,81
2,136974217,Note_off_c,1,67,0
2,136982164,Note_on_c,1,64,81
2,136993234,Note_off_c,1,64,0
2,136995169,Note_on_c,1,64,81
2,136999504,Note_off_c,1,64,0
2,136999970,Note_on_c,1,60,81
2,137045180,Note_off_c,1,60,0
2,137143819,Note_on_c,1,60,81
2,137173648,Note_off_c,1,60,0
2,137197484,Note_on_c,1,60,81
2,137219449,Note_off_c,1,60,0
2,137492198,Note_on_c,1,60,81
2,137494394,Note_off_c,1,60,0
2,137543896,Note_on_c,1,67,81
2,137544372,Note_off_c,1,67,0
2,137657997,Note_on_c,1,64,81
2,137693067,Note_on_c,1,64,81
2,137700415,Note_off_c,1,64,0
2,137705422,Note_on_c,1,67,81
2,137707201,Note_off_c,1,67,0
2,137730169,Note_on_c,1,64,81
2,137763984,Note_off_c,1,64,0
2,137784373,Note_on_c,1,76,81
2,137784486,Note_off_c,1,76,0
2,137792835,Note_off_c,1,64,0
2,137823672,Note_on_c,1,64,81
2,137867213,Note_on_c,1,60,81
2,137868233,Note_off_c,1,64,0
2,137883312,Note_off_c,1,60,0
2,137900584,Note_on_c,1,64,81
2,137903576,Note_off_c,1,64,0
2,137943078,Note_on_c,1,64,81
2,137945365,Note_on_c,1,64,81
2,137957657,Note_off_c,1,64,0
2,137972522,Note_off_c,1,64,0
2,137995269,Note_on_c,1,67,81
2,137996147,Note_off_c,1,67,0
2,138088504,Note_on_c,1,60,81
2,138107419,Note_off_c,1,60,0
2,138161938,Note_on_c,1,60,81
2,138215985,Note_on_c,1,60,81
2,138218491,Note_off_c,1,60,0
2,138344663,Note_off_c,1,60,0
2,138377904,Note_on_c,1,60,81
2,138383486,Note_off_c,1,60,0
2,138393372,Note_on_c,1,67,81
2,138393544,Note_off_c,1,67,0
2,138402584,Note_on_c,1,67,81
2,138403530,Note_on_c,1,60,81
2,138403560,Note_off_c,1,67,0
2,138422042,Note_on_c,1,60,81
2,138422197,Note_off_c,1,60,0
2,138435212,Note_on_c,1,48,81
2,138435294,Note_off_c,1,48,0
2,138464098,Note_on_c,1,67,81
2,138464383,Note_off_c,1,67,0
2,138650225,Note_on_c,1,67,81
2,138650973,Note_off_c,1,67,0
2,138692547,Note_on_c,1,64,81
2,138692571,Note_off_c,1,60,0
2,138697288,Note_off_c,1,64,0
2,138725210,Note_on_c,1,64,81
2,138773652,Note_off_c,1,64,0
2,138773768,Note_on_c,1,60,81
2,138793319,Note_off_c,1,60,0
2,138795910,Note_on_c,1,60,81
2,138822746,Note_on_c,1,67,81
2,138823799,Note_off_c,1,67,0
2,138878898,Note_on_c,1,88,81
2,138879407,Note_off_c,1,88,0
2,138903492,Note_on_c,1,60,81
2,138904070,Note_off_c,1,60,0
2,138988261,Note_off_c,1,60,0
2,139028744,Note_on_c,1,60,81
2,139043302,Note_off_c,1,60,0
2,139135079,Note_on_c,1,60,81
2,139144203,Note_on_c,1,64,81
2,139159156,Note_on_c,1,64,81
2,139180802,Note_off_c,1,60,0
2,139239653,Note_off_c,1,64,0
2,139240060,Note_on_c,1,60,81
2,139271361,Note_on_c,1,64,81
2,139277181,Note_off_c,1,64,0
2,139291998,Note_off_c,1,60,0
2,139338017,Note_on_c,1,67,81
2,139339580,Note_off_c,1,67,0
2,139371806,Note_on_c,1,60,81
2,139374648,Note_off_c,1,60,0
2,139435635,Note_on_c,1,64,81
2,139474658,Note_off_c,1,64,0
2,139614437,Note_on_c,1,67,81
2,139615204,Note_off_c,1,67,0
2,139659927,Note_on_c,1,67,81
2,139661513,Note_off_c,1,67,0
2,139667284,Note_off_c,1,64,0
2,139677638,Note_on_c,1,64,81
2,139856103,Note_on_c,1,64,81
2,139860476,Note_off_c,1,64,0
2,139877391,Note_off_c,1,64,0
2,139938863,Note_on_c,1,64,81
2,139976351,Note_on_c,1,64,81
2,139991094,Note_off_c,1,64,0
2,140093724,Note_off_c,1,64,0
2,140148489,Note_on_c,1,64,81
2,140158590,Note_on_c,1,91,81
2,140158694,Note_off_c,1,91,0
2,140205251,Note_on_c,1,48,81
2,140205326,Note_off_c,1,48,0
2,140575811,Note_on_c,1,64,81
2,140683813,Note_on_c,1,48,81
2,140683883,Note_off_c,1,48,0
2,140761528,Note_on_c,1,67,81
2,140762262,Note_off_c,1,67,0
2,140785421,Note_off_c,1,64,0
2,140898448,Note_off_c,1,64,0
2,140922456,Note_on_c,1,67,81
2,140922910,Note_off_c,1,67,0
2,141019787,Note_on_c,1,67,81
2,141020026,Note_off_c,1,67,0
2,141403239,Note_on_c,1,64,81
2,141404494,Note_off_c,1,64,0
2,141447010,Note_on_c,1,64,81
2,141451006,Note_off_c,1,64,0
2,141486140,Note_on_c,1,76,81
2,141486412,Note_off_c,1,76,0
2,141635649,Note_on_c,1,88,81
2,141636503,Note_off_c,1,88,0
2,142058329,Note_on_c,1,60,81
2,142062716,Note_on_c,1,67,81
2,142063053,Note_off_c,1,67,0
2,142088232,Note_on_c,1,64,81
2,142089219,Note_off_c,1,64,0
2,142133089,Note_on_c,1,60,81
2,142135151,Note_off_c,1,60,0
2,142147122,Note_off_c,1,60,0
2,142147161,Note_on_c,1,60,81
2,142224685,Note_off_c,1,60,0
2,142251846,Note_on_c,1,64,81
2,142259632,Note_off_c,1,64,0
2,142301853,Note_on_c,1,60,81
2,142446266,Note_off_c,1,60,0
2,142526454,Note_on_c,1,64,81
2,142637889,Note_off_c,1,64,0
2,142671979,Note_on_c,1,64,81
2,142681267,Note_off_c,1,64,0
2,142748442,Note_on_c,1,64,81
2,142751468,Note_on_c,1,60,81
2,142753759,Note_off_c,1,64,0
2,142788122,Note_on_c,1,64,81
2,142794086,Note_off_c,1,64,0
2,142946405,Note_on_c,1,64,81
2,142956698,Note_off_c,1,60,0
2,142957945,Note_off_c,1,64,0
2,142966292,Note_on_c,1,64,81
2,143039424,Note_on_c,1,64,81
2,143042324,Note_off_c,1,64,0
2,143059682,Note_off_c,1,64,0
2,143060495,Note_on_c,1,60,81
2,143094033,Note_on_c,1,64,81
2,143099645,Note_off_c,1,64,0
2,143298769,Note_on_c,1,67,81
2,143299554,Note_off_c,1,67,0
2,143327274,Note_on_c,1,67,81
2,143327655,Note_off_c,1,67,0
2,143341058,Note_off_c,1,60,0
2,143342245,Note_on_c,1,67,81
2,143343383,Note_off_c,1,67,0
2,143386580,Note_on_c,1,67,81
2,143387409,Note_off_c,1,67,0
2,143422831,Note_on_c,1,60,81
2,143436215,Note_on_c,1,67,81
2,143436710,Note_off_c,1,67,0
2,143449808,Note_on_c,1,91,81
2,143449911,Note_off_c,1,91,0
2,143450695,Note_off_c,1,60,0
2,143450804,Note_on_c,1,60,81
2,143484978,Note_on_c,1,64,81
2,143490423,Note_on_c,1,88,81
2,143490616,Note_off_c,1,60,0
2,143494811,Note_on_c,1,60,81
2,143506406,Note_off_c,1,88,0
2,143507327,Note_off_c,1,64,0
2,143511720,Note_off_c,1,60,0
2,143536844,Note_on_c,1,60,81
2,143554324,Note_on_c,1,64,81
2,143562031,Note_off_c,1,64,0
2,143807091,Note_on_c,1,60,81
2,143831185,Note_off_c,1,60,0
2,143843337,Note_on_c,1,60,81
2,143844617,Note_off_c,1,60,0
2,143857317,Note_on_c,1,60,81
2,143858061,Note_on_c,1,67,81
2,143858689,Note_off_c,1,67,0
2,143863812,Note_off_c,1,60,0
2,143864435,Note_on_c,1,60,81
2,143938343,Note_off_c,1,60,0
2,143938471,Note_off_c,1,60,0
2,143940299,Note_on_c,1,60,81
2,144004915,Note_on_c,1,64,81
2,144007226,Note_on_c,1,76,81
2,144007464,Note_off_c,1,76,0
2,144008262,Note_off_c,1,64,0
2,144036617,Note_on_c,1,67,81
2,144037704,Note_off_c,1,67,0
2,144064599,Note_off_c,1,60,0
2,144094883,Note_on_c,1,60,81
2,144095573,Note_off_c,1,60,0
2,144136449,Note_on_c,1,67,81
2,144136775,Note_off_c,1,67,0
2,144139976,Note_on_c,1,64,81
2,144141641,Note_off_c,1,64,0
2,144150516,Note_on_c,1,60,81
2,144191939,Note_off_c,1,60,0
2,144200446,Note_on_c,1,67,81
2,144200965,Note_off_c,1,67,0
2,144257033,Note_on_c,1,67,81
2,144257624,Note_off_c,1,67,0
2,144285334,Note_on_c,1,60,81
2,144311698,Note_on_c,1,64,81
2,144333301,Note_off_c,1,64,0
2,144397958,Note_on_c,1,67,81
2,144398752,Note_off_c,1,67,0
2,144706732,Note_on_c,1,67,81
2,144707047,Note_off_c,1,67,0
2,144708105,Note_on_c,1,67,81
2,144708497,Note_off_c,1,67,0
2,144853034,Note_off_c,1,60,0
2,145296544,Note_on_c,1,64,81
2,145311092,Note_off_c,1,64,0
2,145382534,Note_on_c,1,60,81
2,145463237,Note_on_c,1,72,81
2,145463399,Note_off_c,1,72,0
2,145489629,Note_on_c,1,67,81
2,145492092,Note_off_c,1,67,0
2,145735569,Note_on_c,1,64,81
2,145736023,Note_off_c,1,60,0
2,145736910,Note_on_c,1,64,81
2,145737173,Note_off_c,1,64,0
2,145737218,Note_off_c,1,64,0
2,145749916,Note_on_c,1,64,81
2,145751137,Note_off_c,1,64,0
2,145784405,Note_on_c,1,64,81
2,145786559,Note_off_c,1,64,0
2,145789269,Note_on_c,1,55,81
2,145791973,Note_off_c,1,55,0
2,145793501,Note_on_c,1,60,81
2,145799408,Note_on_c,1,64,81
2,145814795,Note_off_c,1,60,0
2,145864244,Note_on_c,1,60,81
2,145887430,Note_off_c,1,64,0
2,145964423,Note_off_c,1,60,0
2,146027645,Note_on_c,1,60,81
2,146171314,Note_on_c,1,67,81
2,146171847,Note_off_c,1,67,0
2,146340419,Note_on_c,1,91,81
2,146340524,Note_off_c,1,91,0
2,146364930,Note_on_c,1,67,81
2,146365494,Note_off_c,1,67,0
2,146437601,Note_off_c,1,60,0
2,146543832,Note_on_c,1,60,81
2,146554953,Note_off_c,1,60,0
2,146594515,Note_on_c,1,64,81
2,146598931,Note_off_c,1,64,0
2,146598966,Note_on_c,1,60,81
2,146638843,Note_on_c,1,67,81
2,146639261,Note_off_c,1,67,0
2,146639699,Note_on_c,1,72,81
2,146639769,Note_off_c,1,72,0
2,146802358,Note_on_c,1,88,81
2,146803824,Note_off_c,1,88,0
2,146815462,Note_off_c,1,60,0
2,146824538,Note_on_c,1,64,81
2,146854982,Note_on_c,1,64,81
2,146863460,Note_off_c,1,64,0
2,146948527,Note_on_c,1,64,81
2,146951159,Note_off_c,1,64,0
2,147158924,Note_on_c,1,64,81
2,147180992,Note_off_c,1,64,0
2,147204416,Note_on_c,1,60,81
2,147204614,Note_off_c,1,64,0
2,147390476,Note_off_c,1,60,0
2,147406530,Note_on_c,1,67,81
2,147406824,Note_off_c,1,67,0
2,147406888,Note_on_c,1,67,81
2,147408281,Note_off_c,1,67,0
2,147508689,Note_on_c,1,60,81
2,147660702,Note_on_c,1,64,81
2,147737547,Note_off_c,1,60,0
2,147741433,Note_on_c,1,64,81
2,147743324,Note_off_c,1,64,0
2,147953937,Note_off_c,1,64,0
2,148001715,Note_on_c,1,64,81
2,148017421,Note_on_c,1,64,81
2,148018985,Note_off_c,1,64,0
2,148020974,Note_off_c,1,64,0
2,148133808,Note_on_c,1,64,81
2,148137404,Note_off_c,1,64,0
2,148155119,Note_on_c,1,64,81
2,148157084,Note_off_c,1,64,0
2,148237584,Note_on_c,1,64,81
2,148272303,Note_on_c,1,60,81
2,148278671,Note_on_c,1,72,81
2,148278778,Note_off_c,1,72,0
2,148283408,Note_off_c,1,64,0
2,148478692,Note_on_c,1,67,81
2,148480763,Note_off_c,1,67,0
2,148552044,Note_off_c,1,60,0
2,148567377,Note_on_c,1,67,81
2,148567654,Note_off_c,1,67,0
2,148647706,Note_on_c,1,67,81
2,148648597,Note_off_c,1,67,0
2,148747029,Note_on_c,1,60,81
2,148955627,Note_on_c,1,64,81
2,148964684,Note_off_c,1,64,0
2,149027699,Note_on_c,1,64,81
2,149032573,Note_off_c,1,64,0
2,149076990,Note_off_c,1,60,0
2,149112008,Note_on_c,1,67,81
2,149112672,Note_off_c,1,67,0
2,149140234,Note_on_c,1,64,81
2,149161931,Note_off_c,1,64,0
2,149217925,Note_on_c,1,64,81
2,149218640,Note_on_c,1,60,81
2,149243298,Note_on_c,1,64,81
2,149245554,Note_off_c,1,64,0
2,149246094,Note_on_c,1,64,81
2,149255415,Note_off_c,1,64,0
2,149257551,Note_off_c,1,64,0
2,149291351,Note_on_c,1,76,81
2,149291646,Note_off_c,1,76,0
2,149304106,Note_on_c,1,67,81
2,149304428,Note_off_c,1,67,0
2,149400261,Note_on_c,1,60,81
2,149401278,Note_off_c,1,60,0
2,149411613,Note_off_c,1,60,0
2,149446794,Note_on_c,1,60,81
2,149485014,Note_off_c,1,60,0
2,149491566,Note_on_c,1,67,81
2,149492289,Note_off_c,1,67,0
2,149497714,Note_on_c,1,64,81
2,149498326,Note_off_c,1,64,0
2,149504494,Note_on_c,1,60,81
2,149516955,Note_on_c,1,72,81
2,149517017,Note_off_c,1,72,0
2,149546043,Note_off_c,1,60,0
2,149561151,Note_on_c,1,64,81
2,149563949,Note_off_c,1,64,0
2,149566293,Note_on_c,1,60,81
2,149576088,Note_on_c,1,64,81
2,149590864,Note_off_c,1,64,0
2,149591748,Note_off_c,1,60,0
2,149591754,Note_on_c,1,64,81
2,149592663,Note_off_c,1,64,0
2,149592686,Note_on_c,1,88,81
2,149594624,Note_on_c,1,52,81
2,149594759,Note_off_c,1,52,0
2,149594872,Note_on_c,1,60,81
2,149601878,Note_off_c,1,88,0
2,149631436,Note_on_c,1,76,81
2,149631549,Note_off_c,1,76,0
2,149648972,Note_off_c,1,60,0
2,149658152,Note_on_c,1,60,81
2,149717620,Note_on_c,1,64,81
2,149718105,Note_off_c,1,60,0
2,149718888,Note_off_c,1,64,0
2,149724314,Note_on_c,1,60,81
2,149749442,Note_on_c,1,60,81
2,149749665,Note_off_c,1,60,0
2,149794762,Note_on_c,1,67,81
2,149795746,Note_off_c,1,67,0
2,149796150,Note_on_c,1,64,81
2,149797316,Note_on_c,1,64,81
2,149799150,Note_off_c,1,64,0
2,149811420,Note_off_c,1,60,0
2,149817936,Note_on_c,1,60,81
2,149818756,Note_on_c,1,60,81
2,149826294,Note_off_c,1,64,0
2,149852461,Note_on_c,1,64,81
2,149853192,Note_off_c,1,64,0
2,149863493,Note_on_c,1,64,81
2,149864359,Note_off_c,1,60,0
2,149879961,Note_on_c,1,67,81
2,149881572,Note_off_c,1,67,0
2,149883178,Note_on_c,1,60,81
2,149884430,Note_on_c,1,64,81
2,149896011,Note_off_c,1,60,0
2,149898113,Note_off_c,1,60,0
2,149904242,Note_on_c,1,67,81
2,149906418,Note_off_c,1,67,0
2,149916877,Note_on_c,1,60,81
2,149919507,Note_off_c,1,64,0
2,149919508,Note_off_c,1,64,0
2,149923121,Note_off_c,1,60,0
2,149934526,Note_on_c,1,88,81
2,149936782,Note_off_c,1,88,0
2,149942013,Note_on_c,1,60,81
2,149949235,Note_off_c,1,60,0
2,149951832,Note_on_c,1,67,81
2,149952239,Note_off_c,1,67,0
2,149963942,Note_on_c,1,60,81
2,149973715,Note_off_c,1,60,0
2,149977470,Note_on_c,1,67,81
2,149977921,Note_on_c,1,67,81
2,149978416,Note_off_c,1,67,0
2,149979105,Note_off_c,1,67,0
2,149998018,Note_on_c,1,84,81
2,150005166,Note_off_c,1,84,0
2,150018333,Note_on_c,1,60,81
2,150025532,Note_off_c,1,60,0
2,150032768,Note_on_c,1,67,81
2,150033566,Note_off_c,1,67,0
2,150040546,Note_on_c,1,64,81
2,150042033,Note_off_c,1,64,0
2,150042545,Note_on_c,1,67,81
2,150043353,Note_off_c,1,67,0
2,150061052,Note_on_c,1,60,81
2,150069121,Note_off_c,1,60,0
2,150143043,Note_on_c,1,60,81
2,150164583,Note_on_c,1,52,81
2,150164686,Note_off_c,1,52,0
2,150250392,Note_off_c,1,60,0
2,150326622,Note_on_c,1,72,81
2,150326763,Note_off_c,1,72,0
2,150368891,Note_on_c,1,60,81
2,150384306,Note_on_c,1,67,81
2,150385120,Note_off_c,1,67,0
2,150405969,Note_off_c,1,60,0
2,150504810,Note_on_c,1,67,81
2,150510300,Note_off_c,1,67,0
2,150599882,Note_on_c,1,60,81
2,150600833,Note_on_c,1,64,81
2,150605850,Note_off_c,1,64,0
2,150624676,Note_on_c,1,64,81
2,150626086,Note_off_c,1,64,0
2,150650771,Note_on_c,1,64,81
2,150652025,Note_off_c,1,64,0
2,150827662,Note_on_c,1,67,81
2,150828384,Note_off_c,1,67,0
2,150843665,Note_off_c,1,60,0
2,150865678,Note_on_c,1,60,81
2,150934967,Note_on_c,1,67,81
2,150935566,Note_off_c,1,67,0
2,150939221,Note_on_c,1,72,81
2,150939328,Note_off_c,1,72,0
2,151054896,Note_on_c,1,64,81
2,151056057,Note_off_c,1,64,0
2,151088102,Note_on_c,1,64,81
2,151099528,Note_on_c,1,67,81
2,151099933,Note_off_c,1,67,0
2,151101887,Note_off_c,1,60,0
2,151196680,Note_on_c,1,64,81
2,151197638,Note_off_c,1,64,0
2,151201340,Note_on_c,1,72,81
2,151201444,Note_off_c,1,72,0
2,151225549,Note_on_c,1,67,81
2,151225947,Note_off_c,1,67,0
2,151228447,Note_off_c,1,64,0
2,151239966,Note_on_c,1,60,81
2,151280514,Note_on_c,1,72,81
2,151280612,Note_off_c,1,72,0
2,151298840,Note_on_c,1,76,81
2,151298933,Note_off_c,1,76,0
2,151319634,Note_on_c,1,76,81
2,151319950,Note_off_c,1,76,0
2,151358559,Note_off_c,1,60,0
2,151364114,Note_on_c,1,60,81
2,151377999,Note_on_c,1,76,81
2,151378099,Note_off_c,1,76,0
2,151391559,Note_off_c,1,60,0
2,151398897,Note_on_c,1,60,81
2,151411258,Note_on_c,1,67,81
2,151413945,Note_off_c,1,67,0
2,151452158,Note_off_c,1,60,0
2,151452257,Note_on_c,1,60,81
2,151470101,Note_off_c,1,60,0
2,151494016,Note_on_c,1,60,81
2,151615772,Note_on_c,1,72,81
2,151615879,Note_off_c,1,72,0
2,151621193,Note_off_c,1,60,0
2,151656690,Note_on_c,1,60,81
2,151813275,Note_on_c,1,64,81
2,151814179,Note_off_c,1,64,0
2,152091711,Note_on_c,1,64,81
2,152094009,Note_off_c,1,64,0
2,152112758,Note_on_c,1,64,81
2,152118397,Note_off_c,1,64,0
2,152121686,Note_on_c,1,60,81
2,152129619,Note_off_c,1,60,0
2,152380545,Note_on_c,1,64,81
2,152381564,Note_off_c,1,64,0
2,152402397,Note_on_c,1,64,81
2,152404966,Note_off_c,1,64,0
2,152410274,Note_on_c,1,91,81
2,152410394,Note_off_c,1,91,0
2,152545929,Note_on_c,1,64,81
2,152546984,Note_off_c,1,64,0
2,152637801,Note_off_c,1,60,0
2,152697896,Note_on_c,1,60,81
2,152705734,Note_on_c,1,67,81
2,152706128,Note_off_c,1,67,0
2,152724569,Note_off_c,1,60,0
2,152750796,Note_on_c,1,60,81
2,152754902,Note_on_c,1,64,81
2,152759765,Note_off_c,1,60,0
2,152875991,Note_off_c,1,64,0
2,152898046,Note_on_c,1,67,81
2,152899280,Note_off_c,1,67,0
2,152959358,Note_on_c,1,67,81
2,152959605,Note_off_c,1,67,0
2,152970518,Note_on_c,1,60,81
2,152983330,Note_on_c,1,64,81
2,152983579,Note_off_c,1,60,0
2,152987361,Note_on_c,1,60,81
2,152991322,Note_off_c,1,64,0
2,153002709,Note_off_c,1,60,0
2,153004458,Note_on_c,1,60,81
2,153131282,Note_off_c,1,60,0
2,153159219,Note_on_c,1,91,81
2,153159345,Note_off_c,1,91,0
2,153231319,Note_on_c,1,64,81
2,153282286,Note_on_c,1,67,81
2,153282733,Note_off_c,1,67,0
2,153304594,Note_on_c,1,64,81
2,153347488,Note_off_c,1,64,0
2,153420437,Note_on_c,1,91,81
2,153420572,Note_off_c,1,91,0
2,153427154,Note_off_c,1,64,0
2,153665706,Note_on_c,1,67,81
2,153666390,Note_off_c,1,67,0
2,153666465,Note_on_c,1,67,81
2,153666626,Note_on_c,1,67,81
2,153666666,Note_off_c,1,67,0
2,153667317,Note_on_c,1,67,81
2,153667318,Note_off_c,1,67,0
2,153668106,Note_off_c,1,67,0
2,153668176,Note_on_c,1,67,81
2,153668362,Note_off_c,1,67,0
2,153668588,Note_on_c,1,67,81
2,153668858,Note_off_c,1,67,0
2,153668878,Note_on_c,1,67,81
2,153669901,Note_off_c,1,67,0
2,153681446,Note_on_c,1,72,81
2,153681553,Note_off_c,1,72,0
2,153938432,Note_on_c,1,67,81
2,153938992,Note_off_c,1,67,0
2,154010495,Note_on_c,1,60,81
2,154154495,Note_on_c,1,60,81
2,154159827,Note_on_c,1,60,81
2,154216930,Note_on_c,1,67,81
2,154217489,Note_off_c,1,67,0
2,154246867,Note_off_c,1,60,0
2,154356803,Note_off_c,1,60,0
2,154387514,Note_on_c,1,60,81
2,154477981,Note_on_c,1,64,81
2,154479593,Note_off_c,1,64,0
2,154510114,Note_off_c,1,60,0
2,154510685,Note_off_c,1,60,0
2,154510790,Note_on_c,1,64,81
2,154522307,Note_off_c,1,64,0
2,154542551,Note_on_c,1,67,81
2,154542740,Note_off_c,1,67,0
2,154549516,Note_on_c,1,67,81
2,154550242,Note_off_c,1,67,0
2,154576308,Note_on_c,1,67,81
2,154577079,Note_off_c,1,67,0
2,154605615,Note_on_c,1,67,81
2,154605954,Note_off_c,1,67,0
2,154706642,Note_on_c,1,67,81
2,154707795,Note_off_c,1,67,0
2,154733377,Note_on_c,1,60,81
2,154825175,Note_on_c,1,72,81
2,154825279,Note_off_c,1,72,0
2,154832696,Note_on_c,1,60,81
2,154834244,Note_off_c,1,60,0
2,154845073,Note_on_c,1,67,81
2,154845620,Note_off_c,1,67,0
2,154853359,Note_on_c,1,48,81
2,154853436,Note_off_c,1,48,0
2,154905075,Note_on_c,1,52,81
2,154905206,Note_off_c,1,52,0
2,155004834,Note_on_c,1,79,81
2,155005318,Note_off_c,1,79,0
2,155253138,Note_on_c,1,64,81
2,155256133,Note_on_c,1,60,81
2,155256724,Note_off_c,1,64,0
2,155257723,Note_off_c,1,60,0
2,155264012,Note_on_c,1,60,81
2,155276548,Note_off_c,1,60,0
2,155314493,Note_off_c,1,60,0
2,155380510,Note_on_c,1,64,81
2,155381183,Note_off_c,1,64,0
2,155395367,Note_on_c,1,60,81
2,155455839,Note_off_c,1,60,0
2,155654962,Note_on_c,1,72,81
2,155655026,Note_off_c,1,72,0
2,155911194,Note_on_c,1,64,81
2,155946796,Note_on_c,1,48,81
2,155946879,Note_off_c,1,48,0
2,156350578,Note_on_c,1,64,81
2,156378749,Note_on_c,1,52,81
2,156378824,Note_off_c,1,52,0
2,156390246,Note_off_c,1,64,0
2,156397589,Note_off_c,1,64,0
2,156493225,Note_on_c,1,64,81
2,156505011,Note_off_c,1,64,0
2,156662049,Note_on_c,1,67,81
2,156662437,Note_off_c,1,67,0
2,156774216,Note_on_c,1,64,81
2,156774662,Note_off_c,1,64,0
2,156776019,Note_on_c,1,60,81
2,156776359,Note_on_c,1,64,81
2,156778422,Note_off_c,1,64,0
2,156779677,Note_on_c,1,48,81
2,156779731,Note_off_c,1,48,0
2,156780326,Note_on_c,1,64,81
2,156780455,Note_off_c,1,64,0
2,156976293,Note_on_c,1,67,81
2,156977072,Note_off_c,1,67,0
2,157060631,Note_on_c,1,64,81
2,157061587,Note_off_c,1,64,0
2,157107726,Note_on_c,1,64,81
2,157119706,Note_off_c,1,64,0
2,157210779,Note_off_c,1,60,0
2,157289024,Note_on_c,1,60,81
2,157299044,Note_on_c,1,67,81
2,157300126,Note_off_c,1,67,0
2,157323601,Note_off_c,1,60,0
2,157323963,Note_on_c,1,64,81
2,157324477,Note_off_c,1,64,0
2,157365989,Note_on_c,1,67,81
2,157366923,Note_off_c,1,67,0
2,157372555,Note_on_c,1,67,81
2,157373171,Note_off_c,1,67,0
2,157377061,Note_on_c,1,64,81
2,157380896,Note_off_c,1,64,0
2,157381132,Note_on_c,1,60,81
2,157529131,Note_on_c,1,48,81
2,157529200,Note_off_c,1,48,0
2,157678157,Note_off_c,1,60,0
2,157700386,Note_on_c,1,60,81
2,157829142,Note_on_c,1,64,81
2,157830573,Note_off_c,1,64,0
2,157872570,Note_on_c,1,64,81
2,157875210,Note_off_c,1,64,0
2,157885113,Note_on_c,1,64,81
2,157892786,Note_off_c,1,64,0
2,157924401,Note_on_c,1,67,81
2,157924676,Note_off_c,1,67,0
2,157934167,Note_on_c,1,72,81
2,157934257,Note_off_c,1,72,0
2,157945077,Note_off_c,1,60,0
2,157981862,Note_on_c,1,60,81
2,158000108,Note_on_c,1,64,81
2,158000749,Note_off_c,1,64,0
2,158001106,Note_on_c,1,64,81
2,158002383,Note_off_c,1,64,0
2,158099176,Note_off_c,1,60,0
2,158109518,Note_on_c,1,60,81
2,158168280,Note_off_c,1,60,0
2,158168349,Note_on_c,1,60,81
2,158199344,Note_off_c,1,60,0
2,158232235,Note_on_c,1,60,81
2,158237335,Note_on_c,1,67,81
2,158242797,Note_off_c,1,67,0
2,158282840,Note_on_c,1,64,81
2,158296670,Note_on_c,1,64,81
2,158303372,Note_off_c,1,64,0
2,158397884,Note_on_c,1,64,81
2,158398561,Note_off_c,1,64,0
2,158428379,Note_off_c,1,64,0
2,158437796,Note_on_c,1,76,81
2,158438088,Note_off_c,1,76,0
2,158511828,Note_off_c,1,60,0
2,158515604,Note_on_c,1,67,81
2,158516229,Note_off_c,1,67,0
2,158536435,Note_on_c,1,60,81
2,158609705,Note_on_c,1,67,81
2,158609706,Note_on_c,1,48,81
2,158609790,Note_off_c,1,48,0
2,158621636,Note_off_c,1,67,0
2,158635429,Note_off_c,1,60,0
2,158636473,Note_on_c,1,60,81
2,158644743,Note_off_c,1,60,0
2,158650013,Note_on_c,1,60,81
2,158725746,Note_on_c,1,67,81
2,158726803,Note_off_c,1,67,0
2,158764660,Note_on_c,1,48,81
2,158764753,Note_off_c,1,48,0
2,158764876,Note_off_c,1,60,0
2,158765740,Note_on_c,1,60,81
2,158817978,Note_on_c,1,64,81
2,158819368,Note_off_c,1,60,0
2,158822252,Note_off_c,1,64,0
2,158841116,Note_on_c,1,88,81
2,158853587,Note_on_c,1,64,81
2,158857632,Note_off_c,1,88,0
2,158864502,Note_off_c,1,64,0
2,158869847,Note_on_c,1,64,81
2,158919105,Note_off_c,1,64,0
2,158921270,Note_on_c,1,67,81
2,158922150,Note_off_c,1,67,0
2,158926465,Note_on_c,1,72,81
2,158926571,Note_off_c,1,72,0
2,158972870,Note_on_c,1,60,81
2,158988177,Note_on_c,1,64,81
2,159000202,Note_off_c,1,60,0
2,159034467,Note_on_c,1,60,81
2,159042191,Note_on_c,1,64,81
2,159045151,Note_on_c,1,64,81
2,159045152,Note_off_c,1,60,0
2,159046175,Note_off_c,1,64,0
2,159051673,Note_on_c,1,64,81
2,159088114,Note_off_c,1,64,0
2,159094092,Note_on_c,1,64,81
2,159095823,Note_off_c,1,64,0
2,159116254,Note_off_c,1,64,0
2,159121495,Note_off_c,1,64,0
2,159165898,Note_on_c,1,64,81
2,159169399,Note_on_c,1,60,81
2,159170007,Note_off_c,1,64,0
2,159240785,Note_on_c,1,64,81
2,159243329,Note_off_c,1,64,0
2,159272108,Note_off_c,1,60,0
2,159353921,Note_on_c,1,64,81
2,159383339,Note_off_c,1,64,0
2,159383421,Note_on_c,1,64,81
2,159401147,Note_off_c,1,64,0
2,159468600,Note_on_c,1,64,81
2,159526061,Note_on_c,1,67,81
2,159526527,Note_off_c,1,67,0
2,159555963,Note_on_c,1,67,81
2,159556174,Note_off_c,1,67,0
2,159586954,Note_on_c,1,64,81
2,159589169,Note_off_c,1,64,0
2,159662627,Note_off_c,1,64,0
2,159669068,Note_on_c,1,60,81
2,159712800,Note_on_c,1,67,81
2,159713985,Note_off_c,1,67,0
2,159720414,Note_on_c,1,72,81
2,159720540,Note_off_c,1,72,0
2,159725584,Note_on_c,1,60,81
2,159756319,Note_off_c,1,60,0
2,159760257,Note_on_c,1,64,81
2,159762044,Note_on_c,1,60,81
2,159762332,Note_off_c,1,64,0
2,159762529,Note_off_c,1,60,0
2,159778497,Note_on_c,1,60,81
2,159779112,Note_off_c,1,60,0
2,159780249,Note_on_c,1,52,81
2,159780381,Note_off_c,1,52,0
2,159785593,Note_on_c,1,52,81
2,159785733,Note_off_c,1,52,0
2,159789703,Note_off_c,1,60,0
2,159789811,Note_on_c,1,60,81
2,159798436,Note_off_c,1,60,0
2,159800248,Note_on_c,1,60,81
2,159820704,Note_off_c,1,60,0
2,159890987,Note_on_c,1,64,81
2,159890987,Note_on_c,1,60,81
2,159902510,Note_off_c,1,64,0
2,159917447,Note_off_c,1,60,0
2,159969081,Note_on_c,1,60,81
2,160003290,Note_on_c,1,64,81
2,160007664,Note_off_c,1,64,0
2,160093422,Note_on_c,1,88,81
2,160093993,Note_off_c,1,88,0
2,160113507,Note_off_c,1,60,0
2,160121814,Note_on_c,1,60,81
2,160158718,Note_off_c,1,60,0
2,160163538,Note_on_c,1,67,81
2,160163755,Note_off_c,1,67,0
2,160171060,Note_on_c,1,60,81
2,160272616,Note_on_c,1,64,81
2,160276130,Note_off_c,1,64,0
2,160277638,Note_off_c,1,60,0
2,160348377,Note_on_c,1,60,81
2,160369199,Note_on_c,1,64,81
2,160386934,Note_off_c,1,64,0
2,160452577,Note_off_c,1,60,0
2,160453427,Note_on_c,1,84,81
2,160520269,Note_off_c,1,84,0
2,160531481,Note_on_c,1,60,81
2,160664275,Note_off_c,1,60,0
2,160666227,Note_on_c,1,79,81
2,160676523,Note_off_c,1,79,0
2,160698287,Note_on_c,1,64,81
2,160700632,Note_off_c,1,64,0
2,160702237,Note_on_c,1,60,81
2,160742508,Note_on_c,1,64,81
2,160754097,Note_off_c,1,60,0
2,160755397,Note_on_c,1,79,81
2,160757518,Note_off_c,1,79,0
2,160767490,Note_off_c,1,64,0
2,160773987,Note_on_c,1,79,81
2,160783214,Note_off_c,1,79,0
2,160872887,Note_on_c,1,64,81
2,160905769,Note_on_c,1,79,81
2,160913638,Note_off_c,1,79,0
2,160926204,Note_off_c,1,64,0
2,160926268,Note_on_c,1,64,81
2,160931079,Note_on_c,1,64,81
2,160943110,Note_off_c,1,64,0
2,160985624,Note_off_c,1,64,0
2,160990317,Note_on_c,1,64,81
2,160991726,Note_on_c,1,60,81
2,160992342,Note_off_c,1,64,0
2,161117385,Note_off_c,1,60,0
2,161129966,Note_on_c,1,60,81
2,161274061,Note_off_c,1,60,0
2,161347416,Note_on_c,1,60,81
2,161353678,Note_on_c,1,64,81
2,161355350,Note_off_c,1,64,0
2,161435097,Note_on_c,1,64,81
2,161446016,Note_off_c,1,64,0
2,162568378,Note_on_c,1,67,81
2,162569728,Note_off_c,1,67,0
2,162727131,Note_on_c,1,60,81
2,162727775,Note_off_c,1,60,0
2,162957257,Note_on_c,1,67,81
2,162957548,Note_off_c,1,67,0
2,162969049,Note_on_c,1,64,81
2,162975007,Note_off_c,1,64,0
2,163042556,Note_on_c,1,64,81
2,163054161,Note_off_c,1,64,0
2,163115690,Note_on_c,1,64,81
2,163137775,Note_off_c,1,64,0
2,163163829,Note_on_c,1,64,81
2,163192038,Note_off_c,1,64,0
2,163306906,Note_on_c,1,64,81
2,163315500,Note_off_c,1,60,0
2,163324530,Note_off_c,1,64,0
2,163338362,Note_on_c,1,64,81
2,163346744,Note_off_c,1,64,0
2,163348018,Note_on_c,1,64,81
2,163353220,Note_off_c,1,64,0
2,163363209,Note_on_c,1,67,81
2,163363463,Note_off_c,1,67,0
2,163413064,Note_on_c,1,64,81
2,163413960,Note_off_c,1,64,0
2,163413999,Note_on_c,1,60,81
2,163578592,Note_off_c,1,60,0
2,163586582,Note_on_c,1,64,81
2,163588165,Note_off_c,1,64,0
2,163671576,Note_on_c,1,64,81
2,163705936,Note_on_c,1,64,81
2,163714306,Note_off_c,1,64,0
2,163798849,Note_off_c,1,64,0
2,163840560,Note_on_c,1,76,81
2,163840852,Note_off_c,1,76,0
2,163927059,Note_on_c,1,64,81
2,163956298,Note_on_c,1,64,81
2,163960187,Note_off_c,1,64,0
2,164009980,Note_off_c,1,64,0
2,164084022,Note_on_c,1,64,81
2,164085661,Note_off_c,1,64,0
2,164108619,Note_on_c,1,64,81
2,164109694,Note_off_c,1,64,0
2,164148021,Note_on_c,1,64,81
2,164152175,Note_off_c,1,64,0
2,164228330,Note_on_c,1,64,81
2,164231610,Note_off_c,1,64,0
2,164346488,Note_on_c,1,64,81
2,164348644,Note_off_c,1,64,0
2,164791287,Note_on_c,1,64,81
2,164827683,Note_off_c,1,64,0
2,164827731,Note_on_c,1,64,81
2,164832114,Note_off_c,1,64,0
2,164928190,Note_on_c,1,64,81
2,165077495,Note_off_c,1,64,0
2,165117194,Note_on_c,1,67,81
2,165117524,Note_off_c,1,67,0
2,165279663,Note_on_c,1,60,81
2,165309605,Note_off_c,1,60,0
2,165327286,Note_on_c,1,60,81
2,165409561,Note_on_c,1,91,81
2,165409676,Note_off_c,1,91,0
2,165718234,Note_on_c,1,72,81
2,165718338,Note_off_c,1,72,0
2,165754188,Note_on_c,1,64,81
2,165773055,Note_on_c,1,64,81
2,165775221,Note_off_c,1,64,0
2,165775780,Note_off_c,1,64,0
2,165987550,Note_on_c,1,64,81
2,165988117,Note_off_c,1,60,0
2,165989615,Note_off_c,1,64,0
2,166058504,Note_on_c,1,88,81
2,166066028,Note_off_c,1,88,0
2,166098110,Note_on_c,1,64,81
2,166099589,Note_off_c,1,64,0
2,166099664,Note_on_c,1,64,81
2,166099852,Note_on_c,1,52,81
2,166099924,Note_off_c,1,52,0
2,166113273,Note_off_c,1,64,0
2,166157655,Note_on_c,1,60,81
2,166167919,Note_on_c,1,64,81
2,166168700,Note_off_c,1,60,0
2,166171376,Note_off_c,1,64,0
2,166209402,Note_on_c,1,72,81
2,166209506,Note_off_c,1,72,0
2,166229333,Note_on_c,1,79,81
2,166229554,Note_off_c,1,79,0
2,166236968,Note_on_c,1,64,81
2,166240289,Note_on_c,1,67,81
2,166240493,Note_off_c,1,67,0
2,166256947,Note_off_c,1,64,0
2,166275461,Note_on_c,1,64,81
2,166277128,Note_off_c,1,64,0
2,166305299,Note_on_c,1,60,81
2,166308448,Note_off_c,1,60,0
2,166309503,Note_on_c,1,64,81
2,166317547,Note_off_c,1,64,0
2,166319727,Note_on_c,1,60,81
2,166334567,Note_on_c,1,67,81
2,166335471,Note_off_c,1,67,0
2,166342576,Note_off_c,1,60,0
2,166342625,Note_on_c,1,64,81
2,166351466,Note_off_c,1,64,0
2,166364918,Note_on_c,1,60,81
2,166383013,Note_off_c,1,60,0
2,166383188,Note_on_c,1,64,81
2,166384824,Note_off_c,1,64,0
2,166388135,Note_on_c,1,55,81
2,166389920,Note_off_c,1,55,0
2,166409363,Note_on_c,1,60,81
2,166460662,Note_on_c,1,64,81
2,166465383,Note_off_c,1,64,0
2,166509353,Note_on_c,1,48,81
2,166509433,Note_off_c,1,48,0
2,166585603,Note_on_c,1,60,81
2,166587594,Note_off_c,1,60,0
2,166651523,Note_on_c,1,64,81
2,166655610,Note_off_c,1,64,0
2,166701093,Note_on_c,1,67,81
2,166702839,Note_off_c,1,67,0
2,166858093,Note_on_c,1,60,81
2,166903697,Note_on_c,1,64,81
2,166904835,Note_off_c,1,64,0
2,166906451,Note_off_c,1,60,0
2,166922112,Note_on_c,1,60,81
2,166956124,Note_off_c,1,60,0
2,166957191,Note_off_c,1,60,0
2,166969625,Note_on_c,1,64,81
2,166995734,Note_on_c,1,64,81
2,166997806,Note_on_c,1,48,81
2,166997912,Note_off_c,1,48,0
2,166999065,Note_off_c,1,64,0
2,166999316,Note_on_c,1,60,81
2,166999404,Note_on_c,1,64,81
2,166999511,Note_off_c,1,64,0
2,167094789,Note_off_c,1,60,0
2,167111806,Note_on_c,1,60,81
2,167114956,Note_on_c,1,64,81
2,167121527,Note_off_c,1,64,0
2,167126222,Note_on_c,1,64,81
2,167131572,Note_off_c,1,64,0
2,167139141,Note_off_c,1,64,0
2,167139141,Note_off_c,1,60,0
2,167146413,Note_on_c,1,60,81
2,167155246,Note_on_c,1,60,81
2,167157980,Note_off_c,1,60,0
2,167164564,Note_on_c,1,64,81
2,167167233,Note_off_c,1,64,0
2,167196913,Note_off_c,1,60,0
2,167208630,Note_on_c,1,67,81
2,167208897,Note_off_c,1,67,0
2,167228199,Note_on_c,1,64,81
2,167237507,Note_on_c,1,64,81
2,167237517,Note_off_c,1,64,0
2,167240480,Note_off_c,1,64,0
2,167241890,Note_on_c,1,64,81
2,167245916,Note_off_c,1,64,0
2,167271168,Note_on_c,1,60,81
2,167316014,Note_off_c,1,60,0
2,167325070,Note_on_c,1,60,81
2,167347471,Note_on_c,1,67,81
2,167348053,Note_off_c,1,67,0
2,167357032,Note_on_c,1,84,81
2,167359503,Note_off_c,1,60,0
2,167384510,Note_off_c,1,84,0
2,167644478,Note_on_c,1,64,81
2,167658518,Note_off_c,1,64,0
2,167666839,Note_on_c,1,64,81
2,167678179,Note_on_c,1,64,81
2,167679270,Note_off_c,1,64,0
2,167679624,Note_off_c,1,64,0
2,167679625,Note_on_c,1,64,81
2,167696290,Note_off_c,1,64,0
2,167767082,Note_on_c,1,67,81
2,167768568,Note_off_c,1,67,0
2,167784536,Note_on_c,1,64,81
2,167795529,Note_on_c,1,64,81
2,167796646,Note_on_c,1,64,81
2,167796872,Note_off_c,1,64,0
2,167798248,Note_off_c,1,64,0
2,167822102,Note_on_c,1,64,81
2,167825146,Note_off_c,1,64,0
2,167826833,Note_off_c,1,64,0
2,167826910,Note_on_c,1,60,81
2,167972023,Note_off_c,1,60,0
2,167975923,Note_on_c,1,64,81
2,167979776,Note_off_c,1,64,0
2,167992821,Note_on_c,1,64,81
2,167996240,Note_on_c,1,60,81
2,167997110,Note_off_c,1,64,0
2,168045091,Note_off_c,1,60,0
2,168053094,Note_on_c,1,60,81
2,168101511,Note_off_c,1,60,0
2,168194357,Note_on_c,1,64,81
2,168204501,Note_off_c,1,64,0
2,168217031,Note_on_c,1,64,81
2,168220262,Note_off_c,1,64,0
2,168225278,Note_on_c,1,64,81
2,168226517,Note_off_c,1,64,0
2,168229731,Note_on_c,1,64,81
2,168240715,Note_off_c,1,64,0
2,168242937,Note_on_c,1,64,81
2,168262581,Note_off_c,1,64,0
2,168286904,Note_on_c,1,67,81
2,168289350,Note_off_c,1,67,0
2,168292829,Note_on_c,1,60,81
2,168298068,Note_on_c,1,64,81
2,168302114,Note_off_c,1,64,0
2,168319777,Note_off_c,1,60,0
2,168374696,Note_on_c,1,64,81
2,168375355,Note_off_c,1,64,0
2,168441150,Note_on_c,1,60,81
2,168673445,Note_off_c,1,60,0
2,168716605,Note_on_c,1,64,81
2,168723495,Note_off_c,1,64,0
2,168726134,Note_on_c,1,64,81
2,168740449,Note_off_c,1,64,0
2,168820422,Note_on_c,1,55,81
2,168820656,Note_off_c,1,55,0
2,168920393,Note_on_c,1,64,81
2,168964386,Note_off_c,1,64,0
2,168999400,Note_on_c,1,64,81
2,169000527,Note_off_c,1,64,0
2,169033380,Note_on_c,1,55,81
2,169034050,Note_off_c,1,55,0
2,169034196,Note_on_c,1,64,81
2,169035642,Note_off_c,1,64,0
2,169067763,Note_on_c,1,64,81
2,169069427,Note_off_c,1,64,0
2,169097798,Note_on_c,1,64,81
2,169102428,Note_off_c,1,64,0
2,169157161,Note_on_c,1,64,81
2,169163007,Note_off_c,1,64,0
2,169175276,Note_on_c,1,64,81
2,169182841,Note_off_c,1,64,0
2,169213253,Note_on_c,1,64,81
2,169215779,Note_on_c,1,60,81
2,169245773,Note_off_c,1,64,0
2,169254050,Note_off_c,1,60,0
2,169286533,Note_on_c,1,64,81
2,169289216,Note_off_c,1,64,0
2,169296470,Note_on_c,1,67,81
2,169297959,Note_off_c,1,67,0
2,169369997,Note_on_c,1,64,81
2,169388385,Note_off_c,1,64,0
2,169419003,Note_on_c,1,64,81
2,169419968,Note_on_c,1,60,81
2,169425156,Note_off_c,1,64,0
2,169426419,Note_on_c,1,64,81
2,169452475,Note_off_c,1,64,0
2,169457211,Note_on_c,1,60,81
2,169702047,Note_off_c,1,60,0
2,169702067,Note_off_c,1,60,0
2,169702189,Note_on_c,1,60,81
2,169703901,Note_on_c,1,60,81
2,169704856,Note_off_c,1,60,0
2,169724712,Note_on_c,1,64,81
2,169725090,Note_on_c,1,64,81
2,169725566,Note_off_c,1,60,0
2,169725854,Note_off_c,1,64,0
2,169738992,Note_off_c,1,64,0
2,169740108,Note_on_c,1,60,81
2,169751587,Note_off_c,1,60,0
2,169751621,Note_on_c,1,60,81
2,169770412,Note_on_c,1,64,81
2,169772042,Note_off_c,1,64,0
2,169781600,Note_off_c,1,60,0
2,169788789,Note_on_c,1,64,81
2,169790037,Note_on_c,1,64,81
2,169799549,Note_off_c,1,64,0
2,169802873,Note_off_c,1,64,0
2,169809317,Note_on_c,1,64,81
2,169810102,Note_off_c,1,64,0
2,170088021,Note_on_c,1,64,81
2,170097234,Note_off_c,1,64,0
2,170135373,Note_on_c,1,64,81
2,170142926,Note_off_c,1,64,0
2,170147194,Note_on_c,1,64,81
2,170150941,Note_off_c,1,64,0
2,170158727,Note_on_c,1,64,81
2,170160471,Note_off_c,1,64,0
2,170160605,Note_on_c,1,64,81
2,170163142,Note_off_c,1,64,0
2,170166242,Note_on_c,1,64,81
2,170167793,Note_on_c,1,64,81
2,170168725,Note_off_c,1,64,0
2,170178680,Note_on_c,1,64,81
2,170179660,Note_off_c,1,64,0
2,170199768,Note_on_c,1,67,81
2,170200258,Note_off_c,1,67,0
2,170262733,Note_off_c,1,64,0
2,170266668,Note_on_c,1,64,81
2,170272473,Note_on_c,1,64,81
2,170276762,Note_off_c,1,64,0
2,170279887,Note_off_c,1,64,0
2,170282205,Note_on_c,1,60,81
2,170290702,Note_on_c,1,60,81
2,170297875,Note_on_c,1,64,81
2,170298375,Note_off_c,1,64,0
2,170306565,Note_off_c,1,60,0
2,170330760,Note_on_c,1,48,81
2,170330844,Note_off_c,1,48,0
2,170407067,Note_off_c,1,60,0
2,170414138,Note_on_c,1,64,81
2,170419325,Note_off_c,1,64,0
2,170464594,Note_on_c,1,64,81
2,170474167,Note_off_c,1,64,0
2,170534543,Note_on_c,1,64,81
2,170535017,Note_off_c,1,64,0
2,170535119,Note_on_c,1,60,81
2,170553307,Note_off_c,1,60,0
2,170554301,Note_on_c,1,60,81
2,170572870,Note_off_c,1,60,0
2,170575294,Note_on_c,1,60,81
2,170584692,Note_off_c,1,60,0
2,170612621,Note_on_c,1,64,81
2,170615514,Note_on_c,1,64,81
2,170638715,Note_off_c,1,64,0
2,170639605,Note_on_c,1,79,81
2,170640536,Note_off_c,1,79,0
2,170651011,Note_on_c,1,67,81
2,170651338,Note_off_c,1,67,0
2,170695312,Note_on_c,1,64,81
2,170696950,Note_off_c,1,64,0
2,170736172,Note_on_c,1,64,81
2,170737777,Note_off_c,1,64,0
2,170738536,Note_off_c,1,64,0
2,170745517,Note_on_c,1,67,81
2,170745977,Note_off_c,1,67,0
2, 170745977, End_track
0, 0, End_of_file