0, 0, Header, 1, 2, 10000
2, 0, Start_track
2,11868,Note_on_c,1,60,81
2,14403,Note_on_c,1,60,81
2,14409,Note_off_c,1,60,0
2,17368,Note_on_c,1,60,81
2,17436,Note_off_c,1,60,0
2,29553,Note_on_c,1,60,81
2,29570,Note_off_c,1,60,0
2,30365,Note_on_c,1,60,81
2,30503,Note_off_c,1,60,0
2,31109,Note_off_c,1,60,0
2,34553,Note_on_c,1,60,81
2,36081,Note_off_c,1,60,0
2,52472,Note_on_c,1,60,81
2,53312,Note_off_c,1,60,0
2,57597,Note_on_c,1,60,81
2,64116,Note_off_c,1,60,0
2,65418,Note_on_c,1,60,81
2,71585,Note_off_c,1,60,0
2,89294,Note_on_c,1,60,81
2,89550,Note_on_c,1,60,81
2,91105,Note_off_c,1,60,0
2,131024,Note_on_c,1,60,81
2,133723,Note_off_c,1,60,0
2,134836,Note_off_c,1,60,0
2,135140,Note_on_c,1,60,81
2,135895,Note_off_c,1,60,0
2,137681,Note_on_c,1,60,81
2,137965,Note_off_c,1,60,0
2,139789,Note_on_c,1,60,81
2,140339,Note_off_c,1,60,0
2,141473,Note_on_c,1,60,81
2,157783,Note_on_c,1,60,81
2,157887,Note_off_c,1,60,0
2,160445,Note_on_c,1,60,81
2,161525,Note_off_c,1,60,0
2,173862,Note_off_c,1,60,0
2,182695,Note_on_c,1,60,81
2,184174,Note_off_c,1,60,0
2,185216,Note_on_c,1,60,81
2,187890,Note_on_c,1,60,81
2,187958,Note_off_c,1,60,0
2,195411,Note_off_c,1,60,0
2,257863,Note_on_c,1,60,81
2,266854,Note_on_c,1,60,81
2,268655,Note_off_c,1,60,0
2,347981,Note_on_c,1,60,81
2,348366,Note_off_c,1,60,0
2,358856,Note_on_c,1,60,81
2,359681,Note_off_c,1,60,0
2,365388,Note_on_c,1,60,81
2,366052,Note_off_c,1,60,0
2,439869,Note_on_c,1,60,81
2,440232,Note_off_c,1,60,0
2,450739,Note_on_c,1,60,81
2,451678,Note_off_c,1,60,0
2,487100,Note_on_c,1,60,81
2,489906,Note_off_c,1,60,0
2,491224,Note_on_c,1,60,81
2,493241,Note_off_c,1,60,0
2,516375,Note_on_c,1,60,81
2,516479,Note_off_c,1,60,0
2,522928,Note_off_c,1,60,0
2,586070,Note_on_c,1,60,81
2,587628,Note_on_c,1,60,81
2,594768,Note_off_c,1,60,0
2,629061,Note_on_c,1,60,81
2,629433,Note_off_c,1,60,0
2,629639,Note_on_c,1,60,81
2,630683,Note_off_c,1,60,0
2,631073,Note_on_c,1,60,81
2,632324,Note_on_c,1,60,81
2,632413,Note_off_c,1,60,0
2,632616,Note_off_c,1,60,0
2,632756,Note_on_c,1,60,81
2,633438,Note_off_c,1,60,0
2,633534,Note_on_c,1,60,81
2,633695,Note_on_c,1,60,81
2,633741,Note_off_c,1,60,0
2,634375,Note_on_c,1,60,81
2,634376,Note_off_c,1,60,0
2,634922,Note_off_c,1,60,0
2,674841,Note_on_c,1,60,81
2,675265,Note_off_c,1,60,0
2,685715,Note_on_c,1,60,81
2,686654,Note_off_c,1,60,0
2,722091,Note_on_c,1,60,81
2,724903,Note_off_c,1,60,0
2,725884,Note_on_c,1,60,81
2,758232,Note_on_c,1,60,81
2,758336,Note_off_c,1,60,0
2,760910,Note_on_c,1,60,81
2,761989,Note_off_c,1,60,0
2,778669,Note_off_c,1,60,0
2,778746,Note_on_c,1,60,81
2,781936,Note_on_c,1,60,81
2,782050,Note_off_c,1,60,0
2,800878,Note_on_c,1,60,81
2,810065,Note_off_c,1,60,0
2,817370,Note_on_c,1,60,81
2,817712,Note_off_c,1,60,0
2,819837,Note_off_c,1,60,0
2,825137,Note_on_c,1,60,81
2,826205,Note_on_c,1,60,81
2,827522,Note_off_c,1,60,0
2,827796,Note_off_c,1,60,0
2,859446,Note_off_c,1,60,0
2,860225,Note_on_c,1,60,81
2,868070,Note_on_c,1,60,81
2,868202,Note_off_c,1,60,0
2,873291,Note_on_c,1,60,81
2,874349,Note_off_c,1,60,0
2,874528,Note_on_c,1,60,81
2,876903,Note_off_c,1,60,0
2,877234,Note_off_c,1,60,0
2,904833,Note_on_c,1,60,81
2,911434,Note_on_c,1,60,81
2,914170,Note_on_c,1,60,81
2,914948,Note_off_c,1,60,0
2,914971,Note_off_c,1,60,0
2,915976,Note_off_c,1,60,0
2,916864,Note_on_c,1,60,81
2,921016,Note_off_c,1,60,0
2,923922,Note_on_c,1,60,81
2,944202,Note_on_c,1,60,81
2,944575,Note_off_c,1,60,0
2,959309,Note_off_c,1,60,0
2,960583,Note_on_c,1,60,81
2,965719,Note_off_c,1,60,0
2,966481,Note_on_c,1,60,81
2,975203,Note_on_c,1,60,81
2,975865,Note_off_c,1,60,0
2,982093,Note_off_c,1,60,0
2,995965,Note_on_c,1,60,81
2,998051,Note_off_c,1,60,0
2,998961,Note_on_c,1,60,81
2,1000172,Note_off_c,1,60,0
2,1001137,Note_on_c,1,60,81
2,1008075,Note_on_c,1,60,81
2,1008229,Note_off_c,1,60,0
2,1011996,Note_on_c,1,60,81
2,1013193,Note_off_c,1,60,0
2,1014540,Note_off_c,1,60,0
2,1020119,Note_on_c,1,60,81
2,1055032,Note_on_c,1,60,81
2,1056116,Note_off_c,1,60,0
2,1056118,Note_off_c,1,60,0
2,1059686,Note_on_c,1,60,81
2,1062207,Note_on_c,1,60,81
2,1063288,Note_off_c,1,60,0
2,1069355,Note_off_c,1,60,0
2,1070966,Note_on_c,1,60,81
2,1074306,Note_off_c,1,60,0
2,1081817,Note_on_c,1,60,81
2,1097584,Note_on_c,1,60,81
2,1104598,Note_off_c,1,60,0
2,1116361,Note_off_c,1,60,0
2,1137016,Note_on_c,1,60,81
2,1144056,Note_off_c,1,60,0
2,1167103,Note_on_c,1,60,81
2,1167198,Note_off_c,1,60,0
2,1167862,Note_on_c,1,60,81
2,1167952,Note_off_c,1,60,0
2,1169004,Note_on_c,1,60,81
2,1169087,Note_off_c,1,60,0
2,1169356,Note_on_c,1,60,81
2,1170343,Note_off_c,1,60,0
2,1173055,Note_on_c,1,60,81
2,1173879,Note_on_c,1,60,81
2,1179555,Note_off_c,1,60,0
2,1197936,Note_off_c,1,60,0
2,1203507,Note_on_c,1,60,81
2,1206592,Note_off_c,1,60,0
2,1211339,Note_on_c,1,60,81
2,1214153,Note_off_c,1,60,0
2,1216908,Note_on_c,1,60,81
2,1232067,Note_off_c,1,60,0
2,1232236,Note_on_c,1,60,81
2,1235041,Note_off_c,1,60,0
2,1242445,Note_on_c,1,60,81
2,1246722,Note_off_c,1,60,0
2,1249776,Note_on_c,1,60,81
2,1251334,Note_off_c,1,60,0
2,1253908,Note_on_c,1,60,81
2,1273864,Note_off_c,1,60,0
2,1275222,Note_on_c,1,60,81
2,1280420,Note_off_c,1,60,0
2,1280435,Note_on_c,1,60,81
2,1292029,Note_off_c,1,60,0
2,1292389,Note_on_c,1,60,81
2,1296109,Note_on_c,1,60,81
2,1296170,Note_off_c,1,60,0
2,1308596,Note_on_c,1,60,81
2,1309609,Note_off_c,1,60,0
2,1311584,Note_on_c,1,60,81
2,1311677,Note_off_c,1,60,0
2,1312501,Note_on_c,1,60,81
2,1312566,Note_off_c,1,60,0
2,1317580,Note_on_c,1,60,81
2,1318689,Note_off_c,1,60,0
2,1324687,Note_off_c,1,60,0
2,1324755,Note_on_c,1,60,81
2,1328896,Note_off_c,1,60,0
2,1331279,Note_on_c,1,60,81
2,1335275,Note_on_c,1,60,81
2,1335314,Note_off_c,1,60,0
2,1339649,Note_on_c,1,60,81
2,1339708,Note_off_c,1,60,0
2,1349418,Note_off_c,1,60,0
2,1352688,Note_on_c,1,60,81
2,1361777,Note_off_c,1,60,0
2,1373729,Note_on_c,1,60,81
2,1375207,Note_off_c,1,60,0
2,1378665,Note_on_c,1,60,81
2,1379032,Note_off_c,1,60,0
2,1385710,Note_on_c,1,60,81
2,1399335,Note_off_c,1,60,0
2,1399514,Note_on_c,1,60,81
2,1401908,Note_on_c,1,60,81
2,1402046,Note_off_c,1,60,0
2,1405459,Note_on_c,1,60,81
2,1405752,Note_off_c,1,60,0
2,1407293,Note_off_c,1,60,0
2,1409095,Note_on_c,1,60,81
2,1410618,Note_off_c,1,60,0
2,1418419,Note_on_c,1,60,81
2,1420244,Note_on_c,1,60,81
2,1421769,Note_off_c,1,60,0
2,1422691,Note_off_c,1,60,0
2,1425870,Note_on_c,1,60,81
2,1430255,Note_off_c,1,60,0
2,1430538,Note_on_c,1,60,81
2,1434573,Note_off_c,1,60,0
2,1434860,Note_on_c,1,60,81
2,1442882,Note_off_c,1,60,0
2,1449688,Note_on_c,1,60,81
2,1470163,Note_off_c,1,60,0
2,1471764,Note_on_c,1,60,81
2,1497848,Note_off_c,1,60,0
2,1503249,Note_on_c,1,60,81
2,1509466,Note_off_c,1,60,0
2,1512161,Note_on_c,1,60,81
2,1534685,Note_off_c,1,60,0
2,1534777,Note_on_c,1,60,81
2,1540624,Note_off_c,1,60,0
2,1541672,Note_on_c,1,60,81
2,1574101,Note_on_c,1,60,81
2,1574863,Note_off_c,1,60,0
2,1577075,Note_off_c,1,60,0
2,1583509,Note_on_c,1,60,81
2,1583909,Note_off_c,1,60,0
2,1598011,Note_on_c,1,60,81
2,1600135,Note_off_c,1,60,0
2,1600313,Note_on_c,1,60,81
2,1602703,Note_off_c,1,60,0
2,1613757,Note_on_c,1,60,81
2,1615453,Note_on_c,1,60,81
2,1615795,Note_off_c,1,60,0
2,1630605,Note_off_c,1,60,0
2,1632162,Note_on_c,1,60,81
2,1635224,Note_on_c,1,60,81
2,1635263,Note_off_c,1,60,0
2,1659012,Note_off_c,1,60,0
2,1659324,Note_on_c,1,60,81
2,1659528,Note_on_c,1,60,81
2,1662602,Note_off_c,1,60,0
2,1671989,Note_on_c,1,60,81
2,1674397,Note_off_c,1,60,0
2,1692795,Note_off_c,1,60,0
2,1699941,Note_on_c,1,60,81
2,1701782,Note_off_c,1,60,0
2,1702378,Note_on_c,1,60,81
2,1702735,Note_on_c,1,60,81
2,1724357,Note_off_c,1,60,0
2,1724511,Note_on_c,1,60,81
2,1724837,Note_on_c,1,60,81
2,1737251,Note_off_c,1,60,0
2,1737688,Note_off_c,1,60,0
2,1745992,Note_off_c,1,60,0
2,1751231,Note_on_c,1,60,81
2,1780457,Note_off_c,1,60,0
2,1785284,Note_on_c,1,60,81
2,1891117,Note_off_c,1,60,0
2,1891222,Note_on_c,1,60,81
2,1892726,Note_off_c,1,60,0
2,1915107,Note_on_c,1,60,81
2,1917296,Note_off_c,1,60,0
2,1917589,Note_on_c,1,60,81
2,1919279,Note_off_c,1,60,0
2,1921950,Note_on_c,1,60,81
2,2003837,Note_off_c,1,60,0
2,2013212,Note_on_c,1,60,81
2,2015639,Note_off_c,1,60,0
2,2019328,Note_on_c,1,60,81
2,2030758,Note_off_c,1,60,0
2,2049202,Note_on_c,1,60,81
2,2050070,Note_off_c,1,60,0
2,2050410,Note_on_c,1,60,81
2,2141083,Note_on_c,1,60,81
2,2145279,Note_off_c,1,60,0
2,2181793,Note_on_c,1,60,81
2,2184389,Note_off_c,1,60,0
2,2184460,Note_on_c,1,60,81
2,2185395,Note_off_c,1,60,0
2,2212522,Note_on_c,1,60,81
2,2212720,Note_off_c,1,60,0
2,2220738,Note_off_c,1,60,0
2,2228318,Note_on_c,1,60,81
2,2310213,Note_off_c,1,60,0
2,2315039,Note_on_c,1,60,81
2,2321252,Note_on_c,1,60,81
2,2323085,Note_off_c,1,60,0
2,2326200,Note_on_c,1,60,81
2,2326693,Note_off_c,1,60,0
2,2350413,Note_on_c,1,60,81
2,2352820,Note_off_c,1,60,0
2,2363060,Note_on_c,1,60,81
2,2363628,Note_off_c,1,60,0
2,2391707,Note_off_c,1,60,0
2,2391774,Note_on_c,1,60,81
2,2403963,Note_on_c,1,60,81
2,2405442,Note_off_c,1,60,0
2,2413797,Note_off_c,1,60,0
2,2425979,Note_on_c,1,60,81
2,2492299,Note_on_c,1,60,81
2,2493258,Note_off_c,1,60,0
2,2493436,Note_on_c,1,60,81
2,2494479,Note_off_c,1,60,0
2,2505532,Note_off_c,1,60,0
2,2508536,Note_on_c,1,60,81
2,2526597,Note_off_c,1,60,0
2,2528744,Note_on_c,1,60,81
2,2530063,Note_on_c,1,60,81
2,2530263,Note_off_c,1,60,0
2,2547460,Note_off_c,1,60,0
2,2549919,Note_on_c,1,60,81
2,2555638,Note_on_c,1,60,81
2,2557031,Note_off_c,1,60,0
2,2565382,Note_off_c,1,60,0
2,2566409,Note_on_c,1,60,81
2,2569888,Note_off_c,1,60,0
2,2581559,Note_on_c,1,60,81
2,2584533,Note_off_c,1,60,0
2,2585611,Note_on_c,1,60,81
2,2586060,Note_off_c,1,60,0
2,2586490,Note_on_c,1,60,81
2,2590638,Note_on_c,1,60,81
2,2591469,Note_off_c,1,60,0
2,2632567,Note_on_c,1,60,81
2,2633016,Note_off_c,1,60,0
2,2635975,Note_on_c,1,60,81
2,2636620,Note_off_c,1,60,0
2,2768090,Note_on_c,1,60,81
2,2773602,Note_on_c,1,60,81
2,2776473,Note_off_c,1,60,0
2,2784733,Note_off_c,1,60,0
2,2801717,Note_off_c,1,60,0
2,2811849,Note_on_c,1,60,81
2,2812692,Note_off_c,1,60,0
2,2814055,Note_on_c,1,60,81
2,2814431,Note_on_c,1,60,81
2,2814998,Note_off_c,1,60,0
2,2817767,Note_off_c,1,60,0
2,2960657,Note_on_c,1,60,81
2,2968707,Note_off_c,1,60,0
2,3021466,Note_on_c,1,60,81
2,3022903,Note_off_c,1,60,0
2,3059610,Note_on_c,1,60,81
2,3069088,Note_off_c,1,60,0
2,3069167,Note_on_c,1,60,81
2,3127974,Note_on_c,1,60,81
2,3128035,Note_off_c,1,60,0
2,3132926,Note_on_c,1,60,81
2,3133709,Note_off_c,1,60,0
2,3205987,Note_on_c,1,60,81
2,3208664,Note_off_c,1,60,0
2,3306635,Note_on_c,1,60,81
2,3310096,Note_off_c,1,60,0
2,3313051,Note_on_c,1,60,81
2,3323149,Note_off_c,1,60,0
2,3367814,Note_on_c,1,60,81
2,3373928,Note_off_c,1,60,0
2,3438621,Note_off_c,1,60,0
2,3454664,Note_on_c,1,60,81
2,3481113,Note_off_c,1,60,0
2,3487245,Note_on_c,1,60,81
2,3487627,Note_off_c,1,60,0
2,3487950,Note_on_c,1,60,81
2,3560694,Note_on_c,1,60,81
2,3560790,Note_off_c,1,60,0
2,3611508,Note_off_c,1,60,0
2,3622856,Note_on_c,1,60,81
2,3624786,Note_off_c,1,60,0
2,3625014,Note_on_c,1,60,81
2,3630127,Note_off_c,1,60,0
2,3630766,Note_on_c,1,60,81
2,3652515,Note_on_c,1,60,81
2,3652761,Note_off_c,1,60,0
2,3658937,Note_on_c,1,60,81
2,3668772,Note_off_c,1,60,0
2,3712199,Note_on_c,1,60,81
2,3714298,Note_off_c,1,60,0
2,3735510,Note_on_c,1,60,81
2,3736201,Note_off_c,1,60,0
2,3736942,Note_on_c,1,60,81
2,3737103,Note_off_c,1,60,0
2,3746459,Note_on_c,1,60,81
2,3747373,Note_off_c,1,60,0
2,3771645,Note_off_c,1,60,0
2,3772748,Note_on_c,1,60,81
2,3775982,Note_off_c,1,60,0
2,3778558,Note_on_c,1,60,81
2,3782814,Note_on_c,1,60,81
2,3783111,Note_off_c,1,60,0
2,3785007,Note_on_c,1,60,81
2,3785538,Note_off_c,1,60,0
2,3796498,Note_off_c,1,60,0
2,3812085,Note_on_c,1,60,81
2,3857266,Note_on_c,1,60,81
2,3857396,Note_off_c,1,60,0
2,3885429,Note_off_c,1,60,0
2,3889124,Note_on_c,1,60,81
2,3900293,Note_off_c,1,60,0
2,3900351,Note_on_c,1,60,81
2,3917225,Note_off_c,1,60,0
2,3940485,Note_on_c,1,60,81
2,3944546,Note_on_c,1,60,81
2,3949024,Note_off_c,1,60,0
2,3955262,Note_off_c,1,60,0
2,3976132,Note_on_c,1,60,81
2,4012704,Note_off_c,1,60,0
2,4012920,Note_on_c,1,60,81
2,4019508,Note_off_c,1,60,0
2,4175527,Note_on_c,1,60,81
2,4175899,Note_off_c,1,60,0
2,4412026,Note_on_c,1,60,81
2,4424689,Note_off_c,1,60,0
2,4479130,Note_on_c,1,60,81
2,4484375,Note_off_c,1,60,0
2,4551734,Note_on_c,1,60,81
2,4552145,Note_off_c,1,60,0
2,4571480,Note_on_c,1,60,81
2,4594016,Note_off_c,1,60,0
2,4654608,Note_on_c,1,60,81
2,4730210,Note_on_c,1,60,81
2,4734992,Note_off_c,1,60,0
2,4792534,Note_off_c,1,60,0
2,4963953,Note_on_c,1,60,81
2,4973298,Note_off_c,1,60,0
2,4973380,Note_on_c,1,60,81
2,4981568,Note_off_c,1,60,0
2,5086458,Note_on_c,1,60,81
2,5090899,Note_off_c,1,60,0
2,5301927,Note_on_c,1,60,81
2,5307394,Note_off_c,1,60,0
2,5478735,Note_on_c,1,60,81
2,5480786,Note_on_c,1,60,81
2,5482028,Note_off_c,1,60,0
2,5492977,Note_on_c,1,60,81
2,5493057,Note_off_c,1,60,0
2,5494674,Note_off_c,1,60,0
2,5554746,Note_on_c,1,60,81
2,5554881,Note_off_c,1,60,0
2,5561708,Note_on_c,1,60,81
2,5564070,Note_on_c,1,60,81
2,5564143,Note_off_c,1,60,0
2,5668295,Note_off_c,1,60,0
2,5862671,Note_on_c,1,60,81
2,5862741,Note_off_c,1,60,0
2,5862810,Note_on_c,1,60,81
2,5990926,Note_on_c,1,60,81
2,5992473,Note_off_c,1,60,0
2,6101193,Note_off_c,1,60,0
2,6101786,Note_on_c,1,60,81
2,6159429,Note_on_c,1,60,81
2,6180321,Note_off_c,1,60,0
2,6185019,Note_on_c,1,60,81
2,6197757,Note_off_c,1,60,0
2,6204839,Note_on_c,1,60,81
2,6205474,Note_on_c,1,60,81
2,6205780,Note_off_c,1,60,0
2,6209389,Note_off_c,1,60,0
2,6221192,Note_on_c,1,60,81
2,6221299,Note_off_c,1,60,0
2,6234691,Note_on_c,1,60,81
2,6235972,Note_off_c,1,60,0
2,6239444,Note_off_c,1,60,0
2,6244178,Note_on_c,1,60,81
2,6245578,Note_off_c,1,60,0
2,6247352,Note_on_c,1,60,81
2,6261098,Note_off_c,1,60,0
2,6264268,Note_on_c,1,60,81
2,6393554,Note_on_c,1,60,81
2,6393767,Note_off_c,1,60,0
2,6394391,Note_off_c,1,60,0
2,6412417,Note_on_c,1,60,81
2,6424670,Note_off_c,1,60,0
2,6424775,Note_on_c,1,60,81
2,6429833,Note_on_c,1,60,81
2,6429896,Note_off_c,1,60,0
2,6443033,Note_on_c,1,60,81
2,6447006,Note_off_c,1,60,0
2,6460785,Note_on_c,1,60,81
2,6461367,Note_off_c,1,60,0
2,6466175,Note_off_c,1,60,0
2,6467121,Note_on_c,1,60,81
2,6520074,Note_off_c,1,60,0
2,6521346,Note_on_c,1,60,81
2,6540853,Note_on_c,1,60,81
2,6540964,Note_off_c,1,60,0
2,6547904,Note_on_c,1,60,81
2,6548619,Note_off_c,1,60,0
2,6554513,Note_off_c,1,60,0
2,6555306,Note_on_c,1,60,81
2,6579755,Note_off_c,1,60,0
2,6579993,Note_on_c,1,60,81
2,6589280,Note_off_c,1,60,0
2,6590723,Note_on_c,1,60,81
2,6613730,Note_on_c,1,60,81
2,6614607,Note_off_c,1,60,0
2,6624030,Note_off_c,1,60,0
2,6624867,Note_on_c,1,60,81
2,6634167,Note_on_c,1,60,81
2,6635586,Note_off_c,1,60,0
2,6701924,Note_off_c,1,60,0
2,6724636,Note_on_c,1,60,81
2,6730012,Note_off_c,1,60,0
2,6767953,Note_on_c,1,60,81
2,6770038,Note_off_c,1,60,0
2,6783891,Note_on_c,1,60,81
2,6784843,Note_off_c,1,60,0
2,6785453,Note_on_c,1,60,81
2,6834332,Note_on_c,1,60,81
2,6834618,Note_off_c,1,60,0
2,7008375,Note_on_c,1,60,81
2,7014279,Note_off_c,1,60,0
2,7219359,Note_on_c,1,60,81
2,7219524,Note_off_c,1,60,0
2,7368941,Note_on_c,1,60,81
2,7370270,Note_off_c,1,60,0
2,7382486,Note_on_c,1,60,81
2,7389754,Note_off_c,1,60,0
2,7441095,Note_on_c,1,60,81
2,7441554,Note_off_c,1,60,0
2,7693123,Note_on_c,1,60,81
2,7694844,Note_off_c,1,60,0
2,7698302,Note_on_c,1,60,81
2,7698872,Note_off_c,1,60,0
2,7700703,Note_on_c,1,60,81
2,7700970,Note_off_c,1,60,0
2,7769706,Note_off_c,1,60,0
2,7771295,Note_on_c,1,60,81
2,7776382,Note_on_c,1,60,81
2,7776775,Note_off_c,1,60,0
2,7781432,Note_off_c,1,60,0
2,7784290,Note_on_c,1,60,81
2,7810241,Note_on_c,1,60,81
2,7827342,Note_off_c,1,60,0
2,7843082,Note_on_c,1,60,81
2,7845177,Note_off_c,1,60,0
2,7853512,Note_off_c,1,60,0
2,7915870,Note_on_c,1,60,81
2,7942371,Note_on_c,1,60,81
2,7942726,Note_off_c,1,60,0
2,7943165,Note_off_c,1,60,0
2,7954290,Note_on_c,1,60,81
2,7982880,Note_on_c,1,60,81
2,7982983,Note_off_c,1,60,0
2,7985505,Note_off_c,1,60,0
2,7991133,Note_on_c,1,60,81
2,7998186,Note_on_c,1,60,81
2,7999934,Note_off_c,1,60,0
2,8004403,Note_on_c,1,60,81
2,8005312,Note_off_c,1,60,0
2,8026309,Note_off_c,1,60,0
2,8026737,Note_on_c,1,60,81
2,8057244,Note_on_c,1,60,81
2,8058463,Note_off_c,1,60,0
2,8122702,Note_off_c,1,60,0
2,8189823,Note_on_c,1,60,81
2,8191691,Note_on_c,1,60,81
2,8192770,Note_off_c,1,60,0
2,8194926,Note_off_c,1,60,0
2,8201517,Note_on_c,1,60,81
2,8206433,Note_on_c,1,60,81
2,8206597,Note_off_c,1,60,0
2,8215210,Note_off_c,1,60,0
2,8218189,Note_on_c,1,60,81
2,8220529,Note_off_c,1,60,0
2,8292156,Note_on_c,1,60,81
2,8292263,Note_off_c,1,60,0
2,8318113,Note_on_c,1,60,81
2,8328066,Note_on_c,1,60,81
2,8328179,Note_off_c,1,60,0
2,8344167,Note_off_c,1,60,0
2,8352396,Note_on_c,1,60,81
2,8424644,Note_on_c,1,60,81
2,8435013,Note_off_c,1,60,0
2,8511794,Note_on_c,1,60,81
2,8511919,Note_off_c,1,60,0
2,8512652,Note_on_c,1,60,81
2,8513021,Note_off_c,1,60,0
2,8750429,Note_on_c,1,60,81
2,8751087,Note_off_c,1,60,0
2,8786210,Note_on_c,1,60,81
2,8786913,Note_off_c,1,60,0
2,8796570,Note_on_c,1,60,81
2,8796673,Note_off_c,1,60,0
2,8798474,Note_on_c,1,60,81
2,8799506,Note_off_c,1,60,0
2,8805859,Note_on_c,1,60,81
2,8807051,Note_off_c,1,60,0
2,8831006,Note_on_c,1,60,81
2,8831375,Note_off_c,1,60,0
2,8848921,Note_off_c,1,60,0
2,8860999,Note_on_c,1,60,81
2,8866501,Note_on_c,1,60,81
2,8866590,Note_off_c,1,60,0
2,8878834,Note_on_c,1,60,81
2,8879190,Note_off_c,1,60,0
2,8879894,Note_off_c,1,60,0
2,8883426,Note_on_c,1,60,81
2,8883533,Note_off_c,1,60,0
2,8893408,Note_on_c,1,60,81
2,8894151,Note_off_c,1,60,0
2,8907392,Note_on_c,1,60,81
2,8907744,Note_off_c,1,60,0
2,8909741,Note_on_c,1,60,81
2,8909904,Note_off_c,1,60,0
2,8945866,Note_on_c,1,60,81
2,8975092,Note_off_c,1,60,0
2,8979575,Note_on_c,1,60,81
2,8979874,Note_off_c,1,60,0
2,9002972,Note_on_c,1,60,81
2,9026423,Note_off_c,1,60,0
2,9035105,Note_on_c,1,60,81
2,9082695,Note_on_c,1,60,81
2,9082879,Note_off_c,1,60,0
2,9088478,Note_off_c,1,60,0
2,9100304,Note_on_c,1,60,81
2,9129102,Note_off_c,1,60,0
2,9148010,Note_on_c,1,60,81
2,9151667,Note_on_c,1,60,81
2,9151777,Note_off_c,1,60,0
2,9182003,Note_on_c,1,60,81
2,9196284,Note_off_c,1,60,0
2,9198906,Note_off_c,1,60,0
2,9234773,Note_on_c,1,60,81
2,9271337,Note_off_c,1,60,0
2,9292893,Note_on_c,1,60,81
2,9369532,Note_off_c,1,60,0
2,9421097,Note_on_c,1,60,81
2,9422862,Note_off_c,1,60,0
2,9425093,Note_on_c,1,60,81
2,9437668,Note_on_c,1,60,81
2,9437778,Note_off_c,1,60,0
2,9440564,Note_off_c,1,60,0
2,9501091,Note_on_c,1,60,81
2,9503471,Note_off_c,1,60,0
2,9539464,Note_on_c,1,60,81
2,9576426,Note_on_c,1,60,81
2,9576985,Note_off_c,1,60,0
2,9585173,Note_off_c,1,60,0
2,9588910,Note_on_c,1,60,81
2,9614877,Note_off_c,1,60,0
2,9651730,Note_on_c,1,60,81
2,9652609,Note_on_c,1,60,81
2,9654586,Note_off_c,1,60,0
2,9660827,Note_on_c,1,60,81
2,9662626,Note_off_c,1,60,0
2,9672404,Note_on_c,1,60,81
2,9687573,Note_off_c,1,60,0
2,9728925,Note_on_c,1,60,81
2,9729114,Note_off_c,1,60,0
2,9780821,Note_on_c,1,60,81
2,9781240,Note_off_c,1,60,0
2,9823984,Note_off_c,1,60,0
2,9826288,Note_on_c,1,60,81
2,9828271,Note_off_c,1,60,0
2,9848275,Note_on_c,1,60,81
2,9848317,Note_on_c,1,60,81
2,9850154,Note_off_c,1,60,0
2,9900613,Note_on_c,1,60,81
2,9908034,Note_off_c,1,60,0
2,9910336,Note_off_c,1,60,0
2,9922112,Note_on_c,1,60,81
2,9942922,Note_on_c,1,60,81
2,9943407,Note_off_c,1,60,0
2,9943427,Note_on_c,1,60,81
2,9947317,Note_on_c,1,60,81
2,9947636,Note_off_c,1,60,0
2,9949974,Note_off_c,1,60,0
2,9950571,Note_on_c,1,60,81
2,9960787,Note_off_c,1,60,0
2,9967380,Note_on_c,1,60,81
2,9967458,Note_off_c,1,60,0
2,9983140,Note_on_c,1,60,81
2,9984568,Note_off_c,1,60,0
2,9985501,Note_off_c,1,60,0
2,9997205,Note_on_c,1,60,81
2,10016021,Note_off_c,1,60,0
2,10032831,Note_on_c,1,60,81
2,10054444,Note_on_c,1,60,81
2,10054781,Note_off_c,1,60,0
2,10058670,Note_on_c,1,60,81
2,10059648,Note_off_c,1,60,0
2,10163267,Note_on_c,1,60,81
2,10163374,Note_off_c,1,60,0
2,10181239,Note_off_c,1,60,0
2,10210569,Note_on_c,1,60,81
2,10227717,Note_on_c,1,60,81
2,10227803,Note_off_c,1,60,0
2,10298965,Note_on_c,1,60,81
2,10299072,Note_off_c,1,60,0
2,10306464,Note_on_c,1,60,81
2,10306757,Note_off_c,1,60,0
2,10381603,Note_off_c,1,60,0
2,10381905,Note_on_c,1,60,81
2,10387150,Note_off_c,1,60,0
2,10395415,Note_on_c,1,60,81
2,10397432,Note_off_c,1,60,0
2,10398591,Note_on_c,1,60,81
2,10420511,Note_off_c,1,60,0
2,10429880,Note_on_c,1,60,81
2,10430101,Note_on_c,1,60,81
2,10430432,Note_on_c,1,60,81
2,10430677,Note_off_c,1,60,0
2,10442808,Note_off_c,1,60,0
2,10450030,Note_on_c,1,60,81
2,10451998,Note_off_c,1,60,0
2,10452153,Note_off_c,1,60,0
2,10456521,Note_on_c,1,60,81
2,10458554,Note_on_c,1,60,81
2,10459338,Note_off_c,1,60,0
2,10472287,Note_on_c,1,60,81
2,10472529,Note_off_c,1,60,0
2,10612221,Note_on_c,1,60,81
2,10616452,Note_off_c,1,60,0
2,10616835,Note_on_c,1,60,81
2,10617115,Note_off_c,1,60,0
2,10630758,Note_off_c,1,60,0
2,10636603,Note_on_c,1,60,81
2,10639240,Note_on_c,1,60,81
2,10654333,Note_off_c,1,60,0
2,10796650,Note_off_c,1,60,0
2,10895760,Note_on_c,1,60,81
2,10895998,Note_off_c,1,60,0
2,10946470,Note_on_c,1,60,81
2,10982037,Note_off_c,1,60,0
2,10990977,Note_on_c,1,60,81
2,10991797,Note_off_c,1,60,0
2,11012343,Note_on_c,1,60,81
2,11026522,Note_on_c,1,60,81
2,11030528,Note_off_c,1,60,0
2,11047239,Note_off_c,1,60,0
2,11054583,Note_on_c,1,60,81
2,11060020,Note_off_c,1,60,0
2,11066617,Note_on_c,1,60,81
2,11068470,Note_on_c,1,60,81
2,11073097,Note_off_c,1,60,0
2,11099429,Note_on_c,1,60,81
2,11099869,Note_off_c,1,60,0
2,11102100,Note_off_c,1,60,0
2,11106534,Note_on_c,1,60,81
2,11143897,Note_on_c,1,60,81
2,11149537,Note_off_c,1,60,0
2,11152349,Note_on_c,1,60,81
2,11152452,Note_off_c,1,60,0
2,11189354,Note_on_c,1,60,81
2,11195981,Note_off_c,1,60,0
2,11226253,Note_on_c,1,60,81
2,11226360,Note_off_c,1,60,0
2,11232962,Note_on_c,1,60,81
2,11233112,Note_off_c,1,60,0
2,11262551,Note_off_c,1,60,0
2,11273197,Note_on_c,1,60,81
2,11278615,Note_on_c,1,60,81
2,11279351,Note_off_c,1,60,0
2,11296049,Note_off_c,1,60,0
2,11311733,Note_on_c,1,60,81
2,11319093,Note_off_c,1,60,0
2,11425256,Note_on_c,1,60,81
2,11425821,Note_off_c,1,60,0
2,11479154,Note_on_c,1,60,81
2,11500802,Note_on_c,1,60,81
2,11502016,Note_off_c,1,60,0
2,11537551,Note_off_c,1,60,0
2,11609467,Note_on_c,1,60,81
2,11613358,Note_off_c,1,60,0
2,11623557,Note_on_c,1,60,81
2,11637017,Note_on_c,1,60,81
2,11643416,Note_off_c,1,60,0
2,11654374,Note_on_c,1,60,81
2,11655785,Note_off_c,1,60,0
2,11663327,Note_off_c,1,60,0
2,11664199,Note_on_c,1,60,81
2,11674354,Note_off_c,1,60,0
2,11674479,Note_on_c,1,60,81
2,11691650,Note_off_c,1,60,0
2,11691709,Note_on_c,1,60,81
2,11725857,Note_off_c,1,60,0
2,11736083,Note_on_c,1,60,81
2,11754802,Note_off_c,1,60,0
2,11761786,Note_on_c,1,60,81
2,11777076,Note_on_c,1,60,81
2,11779619,Note_off_c,1,60,0
2,11785722,Note_on_c,1,60,81
2,11789585,Note_off_c,1,60,0
2,11806095,Note_on_c,1,60,81
2,11806455,Note_off_c,1,60,0
2,11843811,Note_on_c,1,60,81
2,11843984,Note_off_c,1,60,0
2,11845548,Note_on_c,1,60,81
2,11845697,Note_off_c,1,60,0
2,11845708,Note_on_c,1,60,81
2,11847441,Note_on_c,1,60,81
2,11847549,Note_off_c,1,60,0
2,11848079,Note_off_c,1,60,0
2,11848345,Note_off_c,1,60,0
2,11857463,Note_on_c,1,60,81
2,11858945,Note_off_c,1,60,0
2,11877769,Note_on_c,1,60,81
2,11880406,Note_off_c,1,60,0
2,11907939,Note_on_c,1,60,81
2,11908151,Note_on_c,1,60,81
2,11908271,Note_off_c,1,60,0
2,11909807,Note_on_c,1,60,81
2,11909927,Note_off_c,1,60,0
2,11914298,Note_off_c,1,60,0
2,11919590,Note_on_c,1,60,81
2,11926428,Note_off_c,1,60,0
2,11934204,Note_on_c,1,60,81
2,11975538,Note_off_c,1,60,0
2,11979532,Note_on_c,1,60,81
2,11980127,Note_off_c,1,60,0
2,11980180,Note_on_c,1,60,81
2,12015211,Note_off_c,1,60,0
2,12017215,Note_on_c,1,60,81
2,12017308,Note_off_c,1,60,0
2,12019465,Note_on_c,1,60,81
2,12024011,Note_on_c,1,60,81
2,12024124,Note_off_c,1,60,0
2,12029157,Note_on_c,1,60,81
2,12029222,Note_off_c,1,60,0
2,12032045,Note_off_c,1,60,0
2,12036739,Note_on_c,1,60,81
2,12037014,Note_off_c,1,60,0
2,12063302,Note_on_c,1,60,81
2,12077880,Note_on_c,1,60,81
2,12077984,Note_off_c,1,60,0
2,12080292,Note_on_c,1,60,81
2,12080547,Note_off_c,1,60,0
2,12088440,Note_on_c,1,60,81
2,12092264,Note_off_c,1,60,0
2,12144207,Note_off_c,1,60,0
2,12166942,Note_on_c,1,60,81
2,12166990,Note_on_c,1,60,81
2,12167038,Note_off_c,1,60,0
2,12191712,Note_on_c,1,60,81
2,12191773,Note_off_c,1,60,0
2,12209228,Note_off_c,1,60,0
2,12220793,Note_on_c,1,60,81
2,12221109,Note_off_c,1,60,0
2,12221147,Note_on_c,1,60,81
2,12221271,Note_off_c,1,60,0
2,12230029,Note_on_c,1,60,81
2,12507245,Note_on_c,1,60,81
2,12507397,Note_off_c,1,60,0
2,12512047,Note_off_c,1,60,0
2,12525737,Note_on_c,1,60,81
2,12530462,Note_off_c,1,60,0
2,12567909,Note_on_c,1,60,81
2,12569971,Note_on_c,1,60,81
2,12570072,Note_off_c,1,60,0
2,12578956,Note_on_c,1,60,81
2,12579023,Note_off_c,1,60,0
2,12618210,Note_off_c,1,60,0
2,12618388,Note_on_c,1,60,81
2,12618899,Note_on_c,1,60,81
2,12618987,Note_off_c,1,60,0
2,12619244,Note_off_c,1,60,0
2,12644084,Note_on_c,1,60,81
2,12667076,Note_off_c,1,60,0
2,12692908,Note_on_c,1,60,81
2,12693020,Note_off_c,1,60,0
2,12716109,Note_on_c,1,60,81
2,12728760,Note_off_c,1,60,0
2,12746199,Note_on_c,1,60,81
2,12763699,Note_off_c,1,60,0
2,12773737,Note_on_c,1,60,81
2,12777906,Note_off_c,1,60,0
2,12791396,Note_on_c,1,60,81
2,12796628,Note_off_c,1,60,0
2,12822685,Note_on_c,1,60,81
2,12823159,Note_off_c,1,60,0
2,12824604,Note_on_c,1,60,81
2,12831410,Note_off_c,1,60,0
2,12838124,Note_on_c,1,60,81
2,12841357,Note_off_c,1,60,0
2,12847376,Note_on_c,1,60,81
2,12848720,Note_off_c,1,60,0
2,12857085,Note_on_c,1,60,81
2,12861909,Note_off_c,1,60,0
2,12879211,Note_on_c,1,60,81
2,12886201,Note_off_c,1,60,0
2,12892895,Note_on_c,1,60,81
2,12898270,Note_off_c,1,60,0
2,12916609,Note_on_c,1,60,81
2,12920482,Note_off_c,1,60,0
2,12922553,Note_on_c,1,60,81
2,12922660,Note_off_c,1,60,0
2,12926161,Note_on_c,1,60,81
2,12928253,Note_off_c,1,60,0
2,12938471,Note_on_c,1,60,81
2,12947580,Note_off_c,1,60,0
2,13029338,Note_on_c,1,60,81
2,13032130,Note_off_c,1,60,0
2,13049475,Note_on_c,1,60,81
2,13056575,Note_off_c,1,60,0
2,13060768,Note_on_c,1,60,81
2,13062878,Note_off_c,1,60,0
2,13068676,Note_on_c,1,60,81
2,13077884,Note_off_c,1,60,0
2,13095178,Note_on_c,1,60,81
2,13097971,Note_off_c,1,60,0
2,13104402,Note_on_c,1,60,81
2,13105689,Note_off_c,1,60,0
2,13115487,Note_on_c,1,60,81
2,13116854,Note_off_c,1,60,0
2,13128817,Note_on_c,1,60,81
2,13131615,Note_off_c,1,60,0
2,13146980,Note_on_c,1,60,81
2,13147460,Note_off_c,1,60,0
2,13148906,Note_on_c,1,60,81
2,13156009,Note_off_c,1,60,0
2,13163913,Note_on_c,1,60,81
2,13165631,Note_off_c,1,60,0
2,13171847,Note_on_c,1,60,81
2,13179459,Note_off_c,1,60,0
2,13196187,Note_on_c,1,60,81
2,13201409,Note_off_c,1,60,0
2,13222704,Note_on_c,1,60,81
2,13226106,Note_off_c,1,60,0
2,13245862,Note_on_c,1,60,81
2,13248652,Note_off_c,1,60,0
2,13254211,Note_on_c,1,60,81
2,13263314,Note_off_c,1,60,0
2,13273538,Note_on_c,1,60,81
2,13275627,Note_off_c,1,60,0
2,13279124,Note_on_c,1,60,81
2,13279231,Note_off_c,1,60,0
2,13281034,Note_on_c,1,60,81
2,13285174,Note_off_c,1,60,0
2,13303538,Note_on_c,1,60,81
2,13308907,Note_off_c,1,60,0
2,13315580,Note_on_c,1,60,81
2,13322598,Note_off_c,1,60,0
2,13324038,Note_on_c,1,60,81
2,13324518,Note_off_c,1,60,0
2,13341891,Note_on_c,1,60,81
2,13347134,Note_off_c,1,60,0
2,13369066,Note_on_c,1,60,81
2,13371900,Note_off_c,1,60,0
2,13389631,Note_on_c,1,60,81
2,13392629,Note_off_c,1,60,0
2,13416350,Note_on_c,1,60,81
2,13421328,Note_off_c,1,60,0
2,13474972,Note_on_c,1,60,81
2,13513219,Note_on_c,1,60,81
2,13514003,Note_off_c,1,60,0
2,13516270,Note_off_c,1,60,0
2,13555000,Note_on_c,1,60,81
2,13555694,Note_off_c,1,60,0
2,13583464,Note_on_c,1,60,81
2,13617957,Note_off_c,1,60,0
2,13623183,Note_on_c,1,60,81
2,13623284,Note_off_c,1,60,0
2,13657310,Note_on_c,1,60,81
2,13659910,Note_off_c,1,60,0
2,13696069,Note_on_c,1,60,81
2,13696199,Note_off_c,1,60,0
2,13700187,Note_on_c,1,60,81
2,13757777,Note_on_c,1,60,81
2,13758465,Note_off_c,1,60,0
2,13825079,Note_off_c,1,60,0
2,13892791,Note_on_c,1,60,81
2,14124232,Note_on_c,1,60,81
2,14124335,Note_off_c,1,60,0
2,14221886,Note_on_c,1,60,81
2,14304445,Note_off_c,1,60,0
2,14338824,Note_on_c,1,60,81
2,14419973,Note_off_c,1,60,0
2,14692128,Note_on_c,1,60,81
2,14692613,Note_off_c,1,60,0
2,14774468,Note_on_c,1,60,81
2,14777727,Note_off_c,1,60,0
2,15111814,Note_on_c,1,60,81
2,15118043,Note_off_c,1,60,0
2,15152531,Note_on_c,1,60,81
2,15153618,Note_off_c,1,60,0
2,15164343,Note_on_c,1,60,81
2,15171317,Note_off_c,1,60,0
2,15191827,Note_on_c,1,60,81
2,15192845,Note_off_c,1,60,0
2,15220478,Note_off_c,1,60,0
2,15226372,Note_on_c,1,60,81
2,15227549,Note_off_c,1,60,0
2,15236520,Note_on_c,1,60,81
2,15326679,Note_on_c,1,60,81
2,15334165,Note_on_c,1,60,81
2,15335464,Note_off_c,1,60,0
2,15343876,Note_off_c,1,60,0
2,15400283,Note_off_c,1,60,0
2,15402978,Note_on_c,1,60,81
2,15409433,Note_off_c,1,60,0
2,15409887,Note_on_c,1,60,81
2,15430339,Note_off_c,1,60,0
2,15438441,Note_on_c,1,60,81
2,15449242,Note_off_c,1,60,0
2,15456727,Note_on_c,1,60,81
2,15465908,Note_on_c,1,60,81
2,15472091,Note_off_c,1,60,0
2,15490831,Note_on_c,1,60,81
2,15491395,Note_off_c,1,60,0
2,15526534,Note_off_c,1,60,0
2,15526812,Note_on_c,1,60,81
2,15542164,Note_on_c,1,60,81
2,15542304,Note_off_c,1,60,0
2,15565610,Note_on_c,1,60,81
2,15565956,Note_off_c,1,60,0
2,15571698,Note_on_c,1,60,81
2,15585051,Note_off_c,1,60,0
2,15586135,Note_on_c,1,60,81
2,15592379,Note_off_c,1,60,0
2,15603626,Note_off_c,1,60,0
2,15604596,Note_on_c,1,60,81
2,15605043,Note_off_c,1,60,0
2,15608077,Note_on_c,1,60,81
2,15608145,Note_off_c,1,60,0
2,15614642,Note_on_c,1,60,81
2,15614867,Note_off_c,1,60,0
2,15617457,Note_on_c,1,60,81
2,15659712,Note_on_c,1,60,81
2,15662033,Note_off_c,1,60,0
2,15669044,Note_off_c,1,60,0
2,15682872,Note_on_c,1,60,81
2,15683128,Note_off_c,1,60,0
2,15684319,Note_on_c,1,60,81
2,15720311,Note_on_c,1,60,81
2,15734769,Note_off_c,1,60,0
2,15736257,Note_on_c,1,60,81
2,15736896,Note_off_c,1,60,0
2,15740047,Note_on_c,1,60,81
2,15741392,Note_off_c,1,60,0
2,15742498,Note_on_c,1,60,81
2,15747982,Note_off_c,1,60,0
2,15749896,Note_off_c,1,60,0
2,15756606,Note_on_c,1,60,81
2,15786594,Note_off_c,1,60,0
2,15792795,Note_on_c,1,60,81
2,15793285,Note_off_c,1,60,0
2,15807168,Note_on_c,1,60,81
2,15809348,Note_off_c,1,60,0
2,15828231,Note_on_c,1,60,81
2,15828669,Note_off_c,1,60,0
2,15834473,Note_on_c,1,60,81
2,15836094,Note_on_c,1,60,81
2,15848147,Note_off_c,1,60,0
2,15917697,Note_on_c,1,60,81
2,15917908,Note_off_c,1,60,0
2,15940456,Note_off_c,1,60,0
2,15941868,Note_on_c,1,60,81
2,15969631,Note_on_c,1,60,81
2,15970194,Note_off_c,1,60,0
2,15976132,Note_off_c,1,60,0
2,15988181,Note_on_c,1,60,81
2,15988441,Note_off_c,1,60,0
2,15989139,Note_on_c,1,60,81
2,15989375,Note_off_c,1,60,0
2,15989870,Note_on_c,1,60,81
2,15994751,Note_off_c,1,60,0
2,16004235,Note_on_c,1,60,81
2,16006159,Note_on_c,1,60,81
2,16006671,Note_off_c,1,60,0
2,16008807,Note_off_c,1,60,0
2,16014027,Note_on_c,1,60,81
2,16018874,Note_on_c,1,60,81
2,16019594,Note_off_c,1,60,0
2,16034050,Note_off_c,1,60,0
2,16035177,Note_on_c,1,60,81
2,16040029,Note_off_c,1,60,0
2,16040251,Note_on_c,1,60,81
2,16057311,Note_off_c,1,60,0
2,16057768,Note_on_c,1,60,81
2,16073651,Note_off_c,1,60,0
2,16124336,Note_on_c,1,60,81
2,16155175,Note_on_c,1,60,81
2,16156069,Note_off_c,1,60,0
2,16158148,Note_off_c,1,60,0
2,16159265,Note_on_c,1,60,81
2,16161883,Note_off_c,1,60,0
2,16197853,Note_on_c,1,60,81
2,16197853,Note_on_c,1,60,81
2,16198357,Note_off_c,1,60,0
2,16212652,Note_off_c,1,60,0
2,16215906,Note_on_c,1,60,81
2,16228027,Note_off_c,1,60,0
2,16228673,Note_on_c,1,60,81
2,16231335,Note_off_c,1,60,0
2,16231691,Note_on_c,1,60,81
2,16237183,Note_off_c,1,60,0
2,16241212,Note_on_c,1,60,81
2,16241398,Note_off_c,1,60,0
2,16246839,Note_on_c,1,60,81
2,16352480,Note_off_c,1,60,0
2,16352574,Note_on_c,1,60,81
2,16369149,Note_on_c,1,60,81
2,16369530,Note_off_c,1,60,0
2,16387116,Note_on_c,1,60,81
2,16398145,Note_off_c,1,60,0
2,16437424,Note_off_c,1,60,0
2,16440720,Note_on_c,1,60,81
2,16460078,Note_off_c,1,60,0
2,16460947,Note_on_c,1,60,81
2,16467435,Note_on_c,1,60,81
2,16468481,Note_off_c,1,60,0
2,16499257,Note_off_c,1,60,0
2,16514121,Note_on_c,1,60,81
2,16514285,Note_off_c,1,60,0
2,16514644,Note_on_c,1,60,81
2,16515033,Note_on_c,1,60,81
2,16515754,Note_off_c,1,60,0
2,16520693,Note_on_c,1,60,81
2,16521788,Note_off_c,1,60,0
2,16521796,Note_off_c,1,60,0
2,16533885,Note_on_c,1,60,81
2,16534080,Note_on_c,1,60,81
2,16534224,Note_off_c,1,60,0
2,16535649,Note_off_c,1,60,0
2,16548650,Note_on_c,1,60,81
2,16552531,Note_off_c,1,60,0
2,16562318,Note_on_c,1,60,81
2,16613562,Note_off_c,1,60,0
2,16617390,Note_on_c,1,60,81
2,16617729,Note_off_c,1,60,0
2,16618252,Note_on_c,1,60,81
2,16642766,Note_on_c,1,60,81
2,16643109,Note_off_c,1,60,0
2,16645621,Note_on_c,1,60,81
2,16650289,Note_off_c,1,60,0
2,16656878,Note_on_c,1,60,81
2,16657232,Note_off_c,1,60,0
2,16666784,Note_on_c,1,60,81
2,16666948,Note_off_c,1,60,0
2,16667524,Note_off_c,1,60,0
2,16681096,Note_on_c,1,60,81
2,16685620,Note_on_c,1,60,81
2,16686055,Note_off_c,1,60,0
2,16687338,Note_on_c,1,60,81
2,16688749,Note_off_c,1,60,0
2,16701545,Note_on_c,1,60,81
2,16705594,Note_off_c,1,60,0
2,16720157,Note_off_c,1,60,0
2,16739937,Note_on_c,1,60,81
2,16740272,Note_on_c,1,60,81
2,16740279,Note_on_c,1,60,81
2,16740515,Note_on_c,1,60,81
2,16740679,Note_off_c,1,60,0
2,16750589,Note_off_c,1,60,0
2,16750968,Note_off_c,1,60,0
2,16754909,Note_on_c,1,60,81
2,16770237,Note_off_c,1,60,0
2,16851256,Note_on_c,1,60,81
2,16853129,Note_off_c,1,60,0
2,16855406,Note_on_c,1,60,81
2,16858948,Note_on_c,1,60,81
2,16859021,Note_off_c,1,60,0
2,16859284,Note_off_c,1,60,0
2,16870944,Note_on_c,1,60,81
2,16873707,Note_on_c,1,60,81
2,16873851,Note_off_c,1,60,0
2,16883659,Note_off_c,1,60,0
2,16887576,Note_on_c,1,60,81
2,16889094,Note_on_c,1,60,81
2,16889602,Note_off_c,1,60,0
2,16889725,Note_off_c,1,60,0
2,16895979,Note_on_c,1,60,81
2,16896143,Note_off_c,1,60,0
2,16904338,Note_on_c,1,60,81
2,16904776,Note_off_c,1,60,0
2,16972964,Note_off_c,1,60,0
2,16974501,Note_on_c,1,60,81
2,16976301,Note_on_c,1,60,81
2,16977792,Note_off_c,1,60,0
2,16978925,Note_on_c,1,60,81
2,16980632,Note_off_c,1,60,0
2,16985957,Note_on_c,1,60,81
2,17005067,Note_on_c,1,60,81
2,17005091,Note_off_c,1,60,0
2,17011757,Note_off_c,1,60,0
2,17011928,Note_off_c,1,60,0
2,17018721,Note_on_c,1,60,81
2,17054032,Note_off_c,1,60,0
2,17066760,Note_on_c,1,60,81
2,17119451,Note_off_c,1,60,0
2,17189782,Note_on_c,1,60,81
2,17193231,Note_on_c,1,60,81
2,17197617,Note_off_c,1,60,0
2,17201733,Note_off_c,1,60,0
2,17205127,Note_on_c,1,60,81
2,17246007,Note_off_c,1,60,0
2,17249097,Note_on_c,1,60,81
2,17277888,Note_on_c,1,60,81
2,17277975,Note_off_c,1,60,0
2,17284233,Note_off_c,1,60,0
2,17308194,Note_on_c,1,60,81
2,17364004,Note_off_c,1,60,0
2,17372195,Note_on_c,1,60,81
2,17401699,Note_off_c,1,60,0
2,17406759,Note_on_c,1,60,81
2,17406759,Note_on_c,1,60,81
2,17407382,Note_off_c,1,60,0
2,17439677,Note_off_c,1,60,0
2,17539697,Note_on_c,1,60,81
2,17697874,Note_off_c,1,60,0
2,17717624,Note_on_c,1,60,81
2,17749978,Note_off_c,1,60,0
2,17755332,Note_on_c,1,60,81
2,17827063,Note_off_c,1,60,0
2,18015711,Note_on_c,1,60,81
2,18045612,Note_off_c,1,60,0
2,18065656,Note_on_c,1,60,81
2,18074412,Note_off_c,1,60,0
2,18107797,Note_on_c,1,60,81
2,18109388,Note_on_c,1,60,81
2,18115861,Note_off_c,1,60,0
2,18166928,Note_on_c,1,60,81
2,18179346,Note_off_c,1,60,0
2,18378483,Note_off_c,1,60,0
2,18385828,Note_on_c,1,60,81
2,18388514,Note_off_c,1,60,0
2,18480929,Note_on_c,1,60,81
2,18485974,Note_off_c,1,60,0
2,18513117,Note_on_c,1,60,81
2,18513383,Note_off_c,1,60,0
2,18595413,Note_on_c,1,60,81
2,18595636,Note_off_c,1,60,0
2,18630845,Note_on_c,1,60,81
2,18748866,Note_off_c,1,60,0
2,18839598,Note_on_c,1,60,81
2,18859682,Note_off_c,1,60,0
2,18871429,Note_on_c,1,60,81
2,18883201,Note_on_c,1,60,81
2,18883275,Note_off_c,1,60,0
2,18897070,Note_on_c,1,60,81
2,18897148,Note_off_c,1,60,0
2,18902724,Note_off_c,1,60,0
2,18904279,Note_on_c,1,60,81
2,18956676,Note_off_c,1,60,0
2,19072109,Note_on_c,1,60,81
2,19074509,Note_on_c,1,60,81
2,19075511,Note_off_c,1,60,0
2,19210266,Note_off_c,1,60,0
2,19210354,Note_on_c,1,60,81
2,19215659,Note_on_c,1,60,81
2,19240704,Note_off_c,1,60,0
2,19251552,Note_off_c,1,60,0
2,19251804,Note_on_c,1,60,81
2,19260128,Note_off_c,1,60,0
2,19260520,Note_on_c,1,60,81
2,19262307,Note_off_c,1,60,0
2,19265981,Note_on_c,1,60,81
2,19274194,Note_off_c,1,60,0
2,19282572,Note_on_c,1,60,81
2,19288770,Note_off_c,1,60,0
2,19297079,Note_on_c,1,60,81
2,19297903,Note_off_c,1,60,0
2,19303964,Note_on_c,1,60,81
2,19305075,Note_on_c,1,60,81
2,19305182,Note_off_c,1,60,0
2,19312144,Note_off_c,1,60,0
2,19312325,Note_on_c,1,60,81
2,19329300,Note_off_c,1,60,0
2,19338774,Note_on_c,1,60,81
2,19424383,Note_on_c,1,60,81
2,19424671,Note_off_c,1,60,0
2,19484402,Note_on_c,1,60,81
2,19485539,Note_off_c,1,60,0
2,19510592,Note_on_c,1,60,81
2,19510733,Note_off_c,1,60,0
2,19591801,Note_on_c,1,60,81
2,19596832,Note_off_c,1,60,0
2,19596978,Note_on_c,1,60,81
2,19597066,Note_on_c,1,60,81
2,19608113,Note_on_c,1,60,81
2,19608568,Note_off_c,1,60,0
2,19629821,Note_off_c,1,60,0
2,19656927,Note_off_c,1,60,0
2,19658456,Note_off_c,1,60,0
2,19664874,Note_on_c,1,60,81
2,19680966,Note_off_c,1,60,0
2,19682239,Note_on_c,1,60,81
2,19799945,Note_off_c,1,60,0
2,19814028,Note_on_c,1,60,81
2,19814366,Note_on_c,1,60,81
2,19815283,Note_off_c,1,60,0
2,19819502,Note_off_c,1,60,0
2,19882394,Note_on_c,1,60,81
2,19912945,Note_off_c,1,60,0
2,19920008,Note_on_c,1,60,81
2,19923617,Note_off_c,1,60,0
2,19970968,Note_on_c,1,60,81
2,19971269,Note_off_c,1,60,0
2,19975430,Note_on_c,1,60,81
2,19980416,Note_off_c,1,60,0
2,20028178,Note_on_c,1,60,81
2,20091911,Note_off_c,1,60,0
2,20111938,Note_on_c,1,60,81
2,20119566,Note_off_c,1,60,0
2,20139322,Note_on_c,1,60,81
2,20150381,Note_off_c,1,60,0
2,20154170,Note_on_c,1,60,81
2,20160568,Note_off_c,1,60,0
2,20161252,Note_on_c,1,60,81
2,20186095,Note_on_c,1,60,81
2,20186518,Note_off_c,1,60,0
2,20196050,Note_off_c,1,60,0
2,20243094,Note_on_c,1,60,81
2,20244664,Note_off_c,1,60,0
2,20272017,Note_on_c,1,60,81
2,20275005,Note_off_c,1,60,0
2,20290874,Note_on_c,1,60,81
2,20294210,Note_on_c,1,60,81
2,20323187,Note_off_c,1,60,0
2,20359518,Note_off_c,1,60,0
2,20360578,Note_on_c,1,60,81
2,20412303,Note_on_c,1,60,81
2,20413253,Note_off_c,1,60,0
2,20431234,Note_off_c,1,60,0
2,20476221,Note_on_c,1,60,81
2,20478778,Note_on_c,1,60,81
2,20478937,Note_off_c,1,60,0
2,20480397,Note_off_c,1,60,0
2,20482390,Note_on_c,1,60,81
2,20486210,Note_off_c,1,60,0
2,20486357,Note_on_c,1,60,81
2,20487374,Note_off_c,1,60,0
2,20499447,Note_on_c,1,60,81
2,20508151,Note_off_c,1,60,0
2,20525988,Note_on_c,1,60,81
2,20526751,Note_off_c,1,60,0
2,20552572,Note_on_c,1,60,81
2,20555020,Note_off_c,1,60,0
2,20589085,Note_on_c,1,60,81
2,20618903,Note_off_c,1,60,0
2,20633457,Note_on_c,1,60,81
2,20633678,Note_on_c,1,60,81
2,20633788,Note_off_c,1,60,0
2,20642656,Note_on_c,1,60,81
2,20651511,Note_off_c,1,60,0
2,20651766,Note_on_c,1,60,81
2,20652193,Note_off_c,1,60,0
2,20661544,Note_off_c,1,60,0
2,20664013,Note_on_c,1,60,81
2,20692733,Note_on_c,1,60,81
2,20694013,Note_off_c,1,60,0
2,20718017,Note_off_c,1,60,0
2,20719730,Note_on_c,1,60,81
2,20732837,Note_off_c,1,60,0
2,20732879,Note_on_c,1,60,81
2,20733952,Note_off_c,1,60,0
2,20740265,Note_on_c,1,60,81
2,20787323,Note_off_c,1,60,0
2,20806291,Note_on_c,1,60,81
2,20841240,Note_on_c,1,60,81
2,20841302,Note_off_c,1,60,0
2,20988313,Note_on_c,1,60,81
2,20988432,Note_off_c,1,60,0
2,21003549,Note_on_c,1,60,81
2,21003934,Note_off_c,1,60,0
2,21073638,Note_on_c,1,60,81
2,21073753,Note_off_c,1,60,0
2,21161474,Note_on_c,1,60,81
2,21162081,Note_off_c,1,60,0
2,21177053,Note_on_c,1,60,81
2,21177285,Note_off_c,1,60,0
2,21178164,Note_off_c,1,60,0
2,21217246,Note_on_c,1,60,81
2,21266081,Note_on_c,1,60,81
2,21267251,Note_off_c,1,60,0
2,21293289,Note_on_c,1,60,81
2,21299874,Note_off_c,1,60,0
2,21345572,Note_off_c,1,60,0
2,21397986,Note_on_c,1,60,81
2,21398362,Note_off_c,1,60,0
2,21411459,Note_on_c,1,60,81
2,21413293,Note_off_c,1,60,0
2,21415897,Note_on_c,1,60,81
2,21417492,Note_off_c,1,60,0
2,21424624,Note_on_c,1,60,81
2,21427967,Note_off_c,1,60,0
2,21428302,Note_on_c,1,60,81
2,21429536,Note_off_c,1,60,0
2,21434317,Note_on_c,1,60,81
2,21437558,Note_off_c,1,60,0
2,21440127,Note_on_c,1,60,81
2,21459755,Note_on_c,1,60,81
2,21460082,Note_off_c,1,60,0
2,21485005,Note_off_c,1,60,0
2,21509396,Note_on_c,1,60,81
2,21578410,Note_off_c,1,60,0
2,21586471,Note_on_c,1,60,81
2,21591187,Note_off_c,1,60,0
2,21596220,Note_on_c,1,60,81
2,21669357,Note_off_c,1,60,0
2,21678297,Note_on_c,1,60,81
2,21768268,Note_on_c,1,60,81
2,21768575,Note_off_c,1,60,0
2,21783606,Note_off_c,1,60,0
2,21812264,Note_on_c,1,60,81
2,21822243,Note_on_c,1,60,81
2,21825225,Note_off_c,1,60,0
2,21908097,Note_on_c,1,60,81
2,21908580,Note_off_c,1,60,0
2,21937310,Note_off_c,1,60,0
2,21950678,Note_on_c,1,60,81
2,21956871,Note_off_c,1,60,0
2,21977021,Note_on_c,1,60,81
2,21983605,Note_on_c,1,60,81
2,21987480,Note_on_c,1,60,81
2,21987777,Note_off_c,1,60,0
2,21987815,Note_on_c,1,60,81
2,21987919,Note_off_c,1,60,0
2,21998642,Note_off_c,1,60,0
2,22001656,Note_on_c,1,60,81
2,22010649,Note_on_c,1,60,81
2,22010946,Note_off_c,1,60,0
2,22010984,Note_on_c,1,60,81
2,22011088,Note_off_c,1,60,0
2,22012542,Note_off_c,1,60,0
2,22023989,Note_on_c,1,60,81
2,22024557,Note_on_c,1,60,81
2,22025510,Note_on_c,1,60,81
2,22026048,Note_off_c,1,60,0
2,22028316,Note_on_c,1,60,81
2,22030526,Note_on_c,1,60,81
2,22030617,Note_off_c,1,60,0
2,22030748,Note_off_c,1,60,0
2,22031223,Note_off_c,1,60,0
2,22052927,Note_off_c,1,60,0
2,22059196,Note_on_c,1,60,81
2,22064199,Note_off_c,1,60,0
2,22068339,Note_on_c,1,60,81
2,22068827,Note_off_c,1,60,0
2,22101360,Note_off_c,1,60,0
2,22117312,Note_on_c,1,60,81
2,22142849,Note_on_c,1,60,81
2,22143969,Note_off_c,1,60,0
2,22157401,Note_off_c,1,60,0
2,22266238,Note_on_c,1,60,81
2,22266300,Note_off_c,1,60,0
2,22322839,Note_on_c,1,60,81
2,22323331,Note_off_c,1,60,0
2,22364629,Note_on_c,1,60,81
2,22366482,Note_off_c,1,60,0
2,22428837,Note_on_c,1,60,81
2,22517473,Note_on_c,1,60,81
2,22519708,Note_off_c,1,60,0
2,22531157,Note_off_c,1,60,0
2,22563488,Note_on_c,1,60,81
2,22603595,Note_off_c,1,60,0
2,22633257,Note_on_c,1,60,81
2,22633366,Note_off_c,1,60,0
2,22636627,Note_on_c,1,60,81
2,22639678,Note_off_c,1,60,0
2,22643632,Note_on_c,1,60,81
2,22648110,Note_off_c,1,60,0
2,22652761,Note_on_c,1,60,81
2,22661637,Note_off_c,1,60,0
2,22710838,Note_on_c,1,60,81
2,22719516,Note_on_c,1,60,81
2,22719598,Note_off_c,1,60,0
2,22835712,Note_on_c,1,60,81
2,22836849,Note_off_c,1,60,0
2,22863158,Note_on_c,1,60,81
2,22863226,Note_off_c,1,60,0
2,22921500,Note_off_c,1,60,0
2,22953042,Note_on_c,1,60,81
2,22965338,Note_off_c,1,60,0
2,23010833,Note_on_c,1,60,81
2,23019100,Note_off_c,1,60,0
2,23019442,Note_on_c,1,60,81
2,23020146,Note_on_c,1,60,81
2,23044304,Note_on_c,1,60,81
2,23044372,Note_off_c,1,60,0
2,23057857,Note_on_c,1,60,81
2,23057934,Note_off_c,1,60,0
2,23083689,Note_off_c,1,60,0
2,23084029,Note_on_c,1,60,81
2,23088058,Note_off_c,1,60,0
2,23140324,Note_on_c,1,60,81
2,23141142,Note_off_c,1,60,0
2,23162703,Note_on_c,1,60,81
2,23162810,Note_off_c,1,60,0
2,23163952,Note_on_c,1,60,81
2,23164053,Note_off_c,1,60,0
2,23167097,Note_on_c,1,60,81
2,23167889,Note_off_c,1,60,0
2,23177808,Note_off_c,1,60,0
2,23191894,Note_on_c,1,60,81
2,23217502,Note_off_c,1,60,0
2,23244764,Note_on_c,1,60,81
2,23245224,Note_off_c,1,60,0
2,23281306,Note_on_c,1,60,81
2,23287488,Note_off_c,1,60,0
2,23297796,Note_on_c,1,60,81
2,23302866,Note_off_c,1,60,0
2,23303770,Note_on_c,1,60,81
2,23344336,Note_off_c,1,60,0
2,23359447,Note_on_c,1,60,81
2,23368948,Note_on_c,1,60,81
2,23369836,Note_off_c,1,60,0
2,23370253,Note_on_c,1,60,81
2,23370346,Note_off_c,1,60,0
2,23371839,Note_off_c,1,60,0
2,23378379,Note_on_c,1,60,81
2,23379029,Note_off_c,1,60,0
2,23380908,Note_on_c,1,60,81
2,23410831,Note_on_c,1,60,81
2,23412146,Note_off_c,1,60,0
2,23424748,Note_off_c,1,60,0
2,23428562,Note_on_c,1,60,81
2,23484568,Note_off_c,1,60,0
2,23506437,Note_on_c,1,60,81
2,23531233,Note_off_c,1,60,0
2,23549138,Note_on_c,1,60,81
2,23550915,Note_off_c,1,60,0
2,23557925,Note_on_c,1,60,81
2,23559501,Note_off_c,1,60,0
2,23576435,Note_on_c,1,60,81
2,23581494,Note_on_c,1,60,81
2,23593621,Note_off_c,1,60,0
2,23640568,Note_off_c,1,60,0
2,23670293,Note_on_c,1,60,81
2,23680259,Note_off_c,1,60,0
2,23691741,Note_on_c,1,60,81
2,23696835,Note_off_c,1,60,0
2,23706900,Note_on_c,1,60,81
2,23743447,Note_on_c,1,60,81
2,23762059,Note_off_c,1,60,0
2,23778325,Note_off_c,1,60,0
2,23778417,Note_on_c,1,60,81
2,23788232,Note_off_c,1,60,0
2,23791144,Note_on_c,1,60,81
2,23795539,Note_off_c,1,60,0
2,23795598,Note_on_c,1,60,81
2,23800781,Note_off_c,1,60,0
2,23801884,Note_on_c,1,60,81
2,23838620,Note_off_c,1,60,0
2,23845076,Note_on_c,1,60,81
2,23868290,Note_off_c,1,60,0
2,23870514,Note_on_c,1,60,81
2,23901470,Note_on_c,1,60,81
2,23902737,Note_off_c,1,60,0
2,23907110,Note_on_c,1,60,81
2,23907885,Note_off_c,1,60,0
2,23913362,Note_off_c,1,60,0
2,23929069,Note_on_c,1,60,81
2,23929147,Note_off_c,1,60,0
2,23949015,Note_on_c,1,60,81
2,23949383,Note_off_c,1,60,0
2,23956838,Note_on_c,1,60,81
2,23963462,Note_off_c,1,60,0
2,23964346,Note_on_c,1,60,81
2,23980927,Note_off_c,1,60,0
2,24007880,Note_on_c,1,60,81
2,24008519,Note_off_c,1,60,0
2,24040834,Note_on_c,1,60,81
2,24056034,Note_on_c,1,60,81
2,24066773,Note_on_c,1,60,81
2,24083565,Note_off_c,1,60,0
2,24086799,Note_off_c,1,60,0
2,24112135,Note_off_c,1,60,0
2,24119770,Note_on_c,1,60,81
2,24143140,Note_off_c,1,60,0
2,24154167,Note_on_c,1,60,81
2,24187959,Note_off_c,1,60,0
2,24199557,Note_on_c,1,60,81
2,24200239,Note_on_c,1,60,81
2,24211693,Note_off_c,1,60,0
2,24307555,Note_on_c,1,60,81
2,24321901,Note_off_c,1,60,0
2,24356998,Note_on_c,1,60,81
2,24364482,Note_off_c,1,60,0
2,24415801,Note_on_c,1,60,81
2,24416934,Note_off_c,1,60,0
2,24472976,Note_off_c,1,60,0
2,24476361,Note_on_c,1,60,81
2,24476739,Note_off_c,1,60,0
2,24496253,Note_on_c,1,60,81
2,24502350,Note_on_c,1,60,81
2,24535400,Note_off_c,1,60,0
2,24538801,Note_on_c,1,60,81
2,24541040,Note_off_c,1,60,0
2,24556024,Note_off_c,1,60,0
2,24556086,Note_on_c,1,60,81
2,24563626,Note_on_c,1,60,81
2,24563974,Note_off_c,1,60,0
2,24609328,Note_off_c,1,60,0
2,24625410,Note_on_c,1,60,81
2,24625513,Note_off_c,1,60,0
2,24631715,Note_on_c,1,60,81
2,24673281,Note_off_c,1,60,0
2,24704893,Note_on_c,1,60,81
2,24717596,Note_off_c,1,60,0
2,24745381,Note_on_c,1,60,81
2,24777872,Note_on_c,1,60,81
2,24777979,Note_off_c,1,60,0
2,24844321,Note_off_c,1,60,0
2,24899510,Note_on_c,1,60,81
2,24919344,Note_on_c,1,60,81
2,24919416,Note_off_c,1,60,0
2,24961344,Note_on_c,1,60,81
2,24963097,Note_off_c,1,60,0
2,24965121,Note_off_c,1,60,0
2,24968422,Note_on_c,1,60,81
2,24970865,Note_off_c,1,60,0
2,25023502,Note_on_c,1,60,81
2,25023586,Note_off_c,1,60,0
2,25041135,Note_on_c,1,60,81
2,25043706,Note_on_c,1,60,81
2,25047404,Note_off_c,1,60,0
2,25113120,Note_off_c,1,60,0
2,25125052,Note_on_c,1,60,81
2,25125454,Note_off_c,1,60,0
2,25208138,Note_on_c,1,60,81
2,25209437,Note_off_c,1,60,0
2,25222275,Note_on_c,1,60,81
2,25232502,Note_off_c,1,60,0
2,25232585,Note_on_c,1,60,81
2,25234775,Note_off_c,1,60,0
2,25239493,Note_on_c,1,60,81
2,25240253,Note_off_c,1,60,0
2,25242248,Note_on_c,1,60,81
2,25247836,Note_on_c,1,60,81
2,25248321,Note_off_c,1,60,0
2,25266101,Note_on_c,1,60,81
2,25267136,Note_off_c,1,60,0
2,25272392,Note_on_c,1,60,81
2,25294163,Note_on_c,1,60,81
2,25294643,Note_off_c,1,60,0
2,25330445,Note_off_c,1,60,0
2,25336428,Note_on_c,1,60,81
2,25337465,Note_off_c,1,60,0
2,25338213,Note_off_c,1,60,0
2,25338316,Note_on_c,1,60,81
2,25362248,Note_on_c,1,60,81
2,25362361,Note_off_c,1,60,0
2,25398720,Note_on_c,1,60,81
2,25399198,Note_off_c,1,60,0
2,25430192,Note_off_c,1,60,0
2,25430857,Note_on_c,1,60,81
2,25500209,Note_off_c,1,60,0
2,25543605,Note_on_c,1,60,81
2,25568886,Note_off_c,1,60,0
2,25581477,Note_on_c,1,60,81
2,25590356,Note_off_c,1,60,0
2,25616790,Note_on_c,1,60,81
2,25644543,Note_on_c,1,60,81
2,25659111,Note_off_c,1,60,0
2,25786206,Note_off_c,1,60,0
2,25800192,Note_on_c,1,60,81
2,25811469,Note_on_c,1,60,81
2,25816748,Note_on_c,1,60,81
2,25818221,Note_off_c,1,60,0
2,25818639,Note_on_c,1,60,81
2,25820797,Note_off_c,1,60,0
2,25823744,Note_off_c,1,60,0
2,25831912,Note_on_c,1,60,81
2,25831912,Note_on_c,1,60,81
2,25832134,Note_off_c,1,60,0
2,25832942,Note_off_c,1,60,0
2,25859458,Note_off_c,1,60,0
2,25859579,Note_on_c,1,60,81
2,25861483,Note_on_c,1,60,81
2,25863420,Note_off_c,1,60,0
2,25875708,Note_off_c,1,60,0
2,25877495,Note_on_c,1,60,81
2,25877605,Note_off_c,1,60,0
2,25884180,Note_on_c,1,60,81
2,25887359,Note_on_c,1,60,81
2,25887610,Note_off_c,1,60,0
2,25888969,Note_on_c,1,60,81
2,25889109,Note_off_c,1,60,0
2,25906361,Note_on_c,1,60,81
2,25906454,Note_off_c,1,60,0
2,25906991,Note_off_c,1,60,0
2,25959766,Note_on_c,1,60,81
2,25964196,Note_on_c,1,60,81
2,25964300,Note_off_c,1,60,0
2,25998117,Note_off_c,1,60,0
2,26006005,Note_on_c,1,60,81
2,26006130,Note_off_c,1,60,0
2,26006215,Note_on_c,1,60,81
2,26006299,Note_off_c,1,60,0
2,26019883,Note_on_c,1,60,81
2,26036464,Note_off_c,1,60,0
2,26037251,Note_on_c,1,60,81
2,26046118,Note_off_c,1,60,0
2,26046664,Note_on_c,1,60,81
2,26049099,Note_off_c,1,60,0
2,26051300,Note_on_c,1,60,81
2,26068436,Note_off_c,1,60,0
2,26111164,Note_on_c,1,60,81
2,26125555,Note_off_c,1,60,0
2,26159078,Note_on_c,1,60,81
2,26163962,Note_off_c,1,60,0
2,26164100,Note_on_c,1,60,81
2,26168963,Note_off_c,1,60,0
2,26169515,Note_on_c,1,60,81
2,26169907,Note_on_c,1,60,81
2,26170873,Note_off_c,1,60,0
2,26171831,Note_off_c,1,60,0
2,26177483,Note_on_c,1,60,81
2,26189884,Note_off_c,1,60,0
2,26190560,Note_on_c,1,60,81
2,26202968,Note_off_c,1,60,0
2,26209740,Note_on_c,1,60,81
2,26218580,Note_on_c,1,60,81
2,26220476,Note_off_c,1,60,0
2,26229844,Note_off_c,1,60,0
2,26234199,Note_on_c,1,60,81
2,26263040,Note_on_c,1,60,81
2,26263398,Note_off_c,1,60,0
2,26278808,Note_off_c,1,60,0
2,26280085,Note_on_c,1,60,81
2,26281327,Note_on_c,1,60,81
2,26281522,Note_off_c,1,60,0
2,26317957,Note_on_c,1,60,81
2,26318363,Note_off_c,1,60,0
2,26320523,Note_off_c,1,60,0
2,26321697,Note_on_c,1,60,81
2,26326687,Note_on_c,1,60,81
2,26327033,Note_off_c,1,60,0
2,26360080,Note_off_c,1,60,0
2,26361633,Note_on_c,1,60,81
2,26374522,Note_off_c,1,60,0
2,26410816,Note_on_c,1,60,81
2,26429728,Note_off_c,1,60,0
2,26432281,Note_on_c,1,60,81
2,26454652,Note_on_c,1,60,81
2,26455187,Note_off_c,1,60,0
2,26462755,Note_on_c,1,60,81
2,26468014,Note_off_c,1,60,0
2,26471306,Note_off_c,1,60,0
2,26472439,Note_on_c,1,60,81
2,26476642,Note_off_c,1,60,0
2,26519353,Note_on_c,1,60,81
2,26520250,Note_off_c,1,60,0
2,26529760,Note_on_c,1,60,81
2,26554541,Note_on_c,1,60,81
2,26554593,Note_off_c,1,60,0
2,26575030,Note_off_c,1,60,0
2,26593242,Note_on_c,1,60,81
2,26593546,Note_off_c,1,60,0
2,26593939,Note_on_c,1,60,81
2,26594041,Note_off_c,1,60,0
2,26602368,Note_on_c,1,60,81
2,26602432,Note_off_c,1,60,0
2,26620706,Note_on_c,1,60,81
2,26620910,Note_off_c,1,60,0
2,26640376,Note_on_c,1,60,81
2,26640614,Note_off_c,1,60,0
2,26642285,Note_on_c,1,60,81
2,26642389,Note_off_c,1,60,0
2,26647446,Note_on_c,1,60,81
2,26647681,Note_off_c,1,60,0
2,26692131,Note_on_c,1,60,81
2,26693235,Note_on_c,1,60,81
2,26694131,Note_off_c,1,60,0
2,26782104,Note_off_c,1,60,0
2,26787053,Note_on_c,1,60,81
2,26800659,Note_off_c,1,60,0
2,26814821,Note_on_c,1,60,81
2,26815112,Note_off_c,1,60,0
2,26817299,Note_on_c,1,60,81
2,26817476,Note_off_c,1,60,0
2,26826687,Note_on_c,1,60,81
2,26857604,Note_off_c,1,60,0
2,26863148,Note_on_c,1,60,81
2,26864456,Note_off_c,1,60,0
2,26876131,Note_on_c,1,60,81
2,26876132,Note_on_c,1,60,81
2,26878245,Note_off_c,1,60,0
2,26881108,Note_on_c,1,60,81
2,26882235,Note_off_c,1,60,0
2,26890283,Note_off_c,1,60,0
2,26890487,Note_on_c,1,60,81
2,26900237,Note_on_c,1,60,81
2,26900467,Note_off_c,1,60,0
2,26911488,Note_on_c,1,60,81
2,26913975,Note_off_c,1,60,0
2,26946871,Note_off_c,1,60,0
2,26949561,Note_on_c,1,60,81
2,26960468,Note_off_c,1,60,0
2,26980164,Note_on_c,1,60,81
2,26980975,Note_off_c,1,60,0
2,26983627,Note_on_c,1,60,81
2,26984024,Note_off_c,1,60,0
2,26985896,Note_on_c,1,60,81
2,26986340,Note_off_c,1,60,0
2,26993691,Note_on_c,1,60,81
2,27000886,Note_off_c,1,60,0
2,27005019,Note_on_c,1,60,81
2,27012850,Note_off_c,1,60,0
2,27098808,Note_on_c,1,60,81
2,27166981,Note_off_c,1,60,0
2,27176750,Note_on_c,1,60,81
2,27177277,Note_off_c,1,60,0
2,27200833,Note_on_c,1,60,81
2,27201473,Note_off_c,1,60,0
2,27206929,Note_on_c,1,60,81
2,27207796,Note_off_c,1,60,0
2,27211264,Note_on_c,1,60,81
2,27211484,Note_off_c,1,60,0
2,27229105,Note_on_c,1,60,81
2,27234352,Note_off_c,1,60,0
2,27234631,Note_on_c,1,60,81
2,27255463,Note_on_c,1,60,81
2,27255567,Note_off_c,1,60,0
2,27308636,Note_off_c,1,60,0
2,27311239,Note_on_c,1,60,81
2,27311838,Note_off_c,1,60,0
2,27322144,Note_on_c,1,60,81
2,27325218,Note_on_c,1,60,81
2,27325325,Note_off_c,1,60,0
2,27325328,Note_on_c,1,60,81
2,27325796,Note_off_c,1,60,0
2,27336400,Note_off_c,1,60,0
2,27342019,Note_on_c,1,60,81
2,27353937,Note_off_c,1,60,0
2,27354066,Note_on_c,1,60,81
2,27366961,Note_off_c,1,60,0
2,27369109,Note_on_c,1,60,81
2,27374824,Note_off_c,1,60,0
2,27379175,Note_on_c,1,60,81
2,27383333,Note_off_c,1,60,0
2,27389467,Note_on_c,1,60,81
2,27390145,Note_off_c,1,60,0
2,27392621,Note_on_c,1,60,81
2,27395814,Note_off_c,1,60,0
2,27404229,Note_on_c,1,60,81
2,27457197,Note_on_c,1,60,81
2,27459582,Note_off_c,1,60,0
2,27490167,Note_off_c,1,60,0
2,27525804,Note_on_c,1,60,81
2,27530561,Note_off_c,1,60,0
2,27534034,Note_on_c,1,60,81
2,27604431,Note_off_c,1,60,0
2,27612063,Note_on_c,1,60,81
2,27635185,Note_off_c,1,60,0
2,27649418,Note_on_c,1,60,81
2,27649610,Note_off_c,1,60,0
2,27660327,Note_on_c,1,60,81
2,27666063,Note_on_c,1,60,81
2,27666279,Note_off_c,1,60,0
2,27669467,Note_on_c,1,60,81
2,27672212,Note_off_c,1,60,0
2,27675602,Note_on_c,1,60,81
2,27675709,Note_off_c,1,60,0
2,27686809,Note_on_c,1,60,81
2,27687471,Note_off_c,1,60,0
2,27693730,Note_on_c,1,60,81
2,27693835,Note_off_c,1,60,0
2,27703063,Note_off_c,1,60,0
2,27724821,Note_on_c,1,60,81
2,27725756,Note_off_c,1,60,0
2,27725960,Note_on_c,1,60,81
2,27739090,Note_on_c,1,60,81
2,27739439,Note_off_c,1,60,0
2,27739953,Note_on_c,1,60,81
2,27740629,Note_off_c,1,60,0
2,27763116,Note_off_c,1,60,0
2,27773218,Note_on_c,1,60,81
2,27773857,Note_on_c,1,60,81
2,27774041,Note_off_c,1,60,0
2,27819982,Note_on_c,1,60,81
2,27820341,Note_off_c,1,60,0
2,27824443,Note_off_c,1,60,0
2,27824537,Note_on_c,1,60,81
2,27824643,Note_off_c,1,60,0
2,27827811,Note_on_c,1,60,81
2,27830781,Note_on_c,1,60,81
2,27831209,Note_off_c,1,60,0
2,27834400,Note_on_c,1,60,81
2,27834566,Note_off_c,1,60,0
2,27851676,Note_off_c,1,60,0
2,27872542,Note_on_c,1,60,81
2,27886685,Note_off_c,1,60,0
2,27891523,Note_on_c,1,60,81
2,27914746,Note_off_c,1,60,0
2,27934999,Note_on_c,1,60,81
2,27938874,Note_on_c,1,60,81
2,27959157,Note_off_c,1,60,0
2,27959587,Note_on_c,1,60,81
2,27960193,Note_off_c,1,60,0
2,27968093,Note_off_c,1,60,0
2,27970343,Note_on_c,1,60,81
2,27990157,Note_on_c,1,60,81
2,27990524,Note_off_c,1,60,0
2,28031883,Note_on_c,1,60,81
2,28032180,Note_off_c,1,60,0
2,28088637,Note_off_c,1,60,0
2,28095741,Note_on_c,1,60,81
2,28096422,Note_off_c,1,60,0
2,28109738,Note_on_c,1,60,81
2,28110298,Note_off_c,1,60,0
2,28116811,Note_on_c,1,60,81
2,28120448,Note_on_c,1,60,81
2,28121321,Note_off_c,1,60,0
2,28126939,Note_off_c,1,60,0
2,28142736,Note_on_c,1,60,81
2,28142841,Note_off_c,1,60,0
2,28147165,Note_on_c,1,60,81
2,28193936,Note_off_c,1,60,0
2,28199455,Note_on_c,1,60,81
2,28233029,Note_off_c,1,60,0
2,28236108,Note_on_c,1,60,81
2,28239508,Note_on_c,1,60,81
2,28241453,Note_off_c,1,60,0
2,28246906,Note_off_c,1,60,0
2,28247143,Note_on_c,1,60,81
2,28247568,Note_off_c,1,60,0
2,28259517,Note_on_c,1,60,81
2,28282491,Note_off_c,1,60,0
2,28329001,Note_on_c,1,60,81
2,28335965,Note_off_c,1,60,0
2,28369581,Note_on_c,1,60,81
2,28422554,Note_on_c,1,60,81
2,28422655,Note_off_c,1,60,0
2,28453540,Note_on_c,1,60,81
2,28453934,Note_off_c,1,60,0
2,28481361,Note_on_c,1,60,81
2,28481480,Note_off_c,1,60,0
2,28500364,Note_off_c,1,60,0
2,28505942,Note_on_c,1,60,81
2,28505979,Note_on_c,1,60,81
2,28507365,Note_on_c,1,60,81
2,28507571,Note_off_c,1,60,0
2,28508558,Note_on_c,1,60,81
2,28508762,Note_off_c,1,60,0
2,28510892,Note_off_c,1,60,0
2,28526317,Note_on_c,1,60,81
2,28527227,Note_off_c,1,60,0
2,28539300,Note_off_c,1,60,0
2,28544459,Note_on_c,1,60,81
2,28546542,Note_off_c,1,60,0
2,28553084,Note_on_c,1,60,81
2,28578537,Note_on_c,1,60,81
2,28578545,Note_off_c,1,60,0
2,28578748,Note_on_c,1,60,81
2,28578822,Note_off_c,1,60,0
2,28579763,Note_on_c,1,60,81
2,28579893,Note_off_c,1,60,0
2,28580380,Note_on_c,1,60,81
2,28580512,Note_off_c,1,60,0
2,28580919,Note_on_c,1,60,81
2,28580919,Note_on_c,1,60,81
2,28581054,Note_off_c,1,60,0
2,28581056,Note_off_c,1,60,0
2,28583132,Note_off_c,1,60,0
2,28587828,Note_on_c,1,60,81
2,28592199,Note_on_c,1,60,81
2,28595449,Note_off_c,1,60,0
2,28643227,Note_on_c,1,60,81
2,28648291,Note_off_c,1,60,0
2,28648581,Note_off_c,1,60,0
2,28648599,Note_on_c,1,60,81
2,28648599,Note_on_c,1,60,81
2,28648730,Note_off_c,1,60,0
2,28648733,Note_off_c,1,60,0
2,28668777,Note_on_c,1,60,81
2,28689664,Note_on_c,1,60,81
2,28689794,Note_off_c,1,60,0
2,28719353,Note_off_c,1,60,0
2,28736043,Note_on_c,1,60,81
2,28736620,Note_on_c,1,60,81
2,28737670,Note_off_c,1,60,0
2,28769775,Note_off_c,1,60,0
2,28812169,Note_on_c,1,60,81
2,28870482,Note_on_c,1,60,81
2,28871267,Note_off_c,1,60,0
2,28877336,Note_off_c,1,60,0
2,28881725,Note_on_c,1,60,81
2,28881835,Note_off_c,1,60,0
2,28887090,Note_on_c,1,60,81
2,28982277,Note_on_c,1,60,81
2,28982608,Note_off_c,1,60,0
2,28985709,Note_on_c,1,60,81
2,28985810,Note_off_c,1,60,0
2,29041198,Note_on_c,1,60,81
2,29041480,Note_off_c,1,60,0
2,29119428,Note_on_c,1,60,81
2,29120046,Note_off_c,1,60,0
2,29123903,Note_off_c,1,60,0
2,29144493,Note_on_c,1,60,81
2,29146994,Note_off_c,1,60,0
2,29147742,Note_on_c,1,60,81
2,29171284,Note_on_c,1,60,81
2,29171453,Note_off_c,1,60,0
2,29181900,Note_off_c,1,60,0
2,29192656,Note_on_c,1,60,81
2,29223932,Note_on_c,1,60,81
2,29224816,Note_off_c,1,60,0
2,29230942,Note_off_c,1,60,0
2,29236515,Note_on_c,1,60,81
2,29326813,Note_off_c,1,60,0
2,29329619,Note_on_c,1,60,81
2,29350114,Note_off_c,1,60,0
2,29488192,Note_on_c,1,60,81
2,29496893,Note_off_c,1,60,0
2,29708850,Note_on_c,1,60,81
2,29709547,Note_off_c,1,60,0
2,29755174,Note_on_c,1,60,81
2,29790597,Note_off_c,1,60,0
2,29904864,Note_on_c,1,60,81
2,29905357,Note_off_c,1,60,0
2,30013951,Note_on_c,1,60,81
2,30037612,Note_off_c,1,60,0
2,30140262,Note_on_c,1,60,81
2,30141607,Note_off_c,1,60,0
2,30226522,Note_on_c,1,60,81
2,30226615,Note_off_c,1,60,0
2,30409559,Note_on_c,1,60,81
2,30411638,Note_off_c,1,60,0
2,30415824,Note_on_c,1,60,81
2,30421108,Note_off_c,1,60,0
2,30711276,Note_on_c,1,60,81
2,30718503,Note_on_c,1,60,81
2,30723585,Note_off_c,1,60,0
2,30726827,Note_off_c,1,60,0
2,30731692,Note_on_c,1,60,81
2,30732468,Note_on_c,1,60,81
2,30733427,Note_off_c,1,60,0
2,30739155,Note_on_c,1,60,81
2,30739232,Note_off_c,1,60,0
2,30757774,Note_off_c,1,60,0
2,30810377,Note_on_c,1,60,81
2,30815553,Note_off_c,1,60,0
2,30824216,Note_on_c,1,60,81
2,30834864,Note_off_c,1,60,0
2,30843822,Note_on_c,1,60,81
2,30844110,Note_off_c,1,60,0
2,30858157,Note_on_c,1,60,81
2,30860254,Note_off_c,1,60,0
2,30869465,Note_on_c,1,60,81
2,30908758,Note_off_c,1,60,0
2,30918468,Note_on_c,1,60,81
2,30918735,Note_off_c,1,60,0
2,30931505,Note_on_c,1,60,81
2,31036733,Note_on_c,1,60,81
2,31037240,Note_off_c,1,60,0
2,31050871,Note_on_c,1,60,81
2,31051034,Note_off_c,1,60,0
2,31065991,Note_off_c,1,60,0
2,31094986,Note_on_c,1,60,81
2,31095558,Note_off_c,1,60,0
2,31108187,Note_on_c,1,60,81
2,31108623,Note_off_c,1,60,0
2,31179744,Note_on_c,1,60,81
2,31239887,Note_off_c,1,60,0
2,31259567,Note_on_c,1,60,81
2,31263244,Note_on_c,1,60,81
2,31263681,Note_off_c,1,60,0
2,31296788,Note_off_c,1,60,0
2,31296981,Note_on_c,1,60,81
2,31333066,Note_on_c,1,60,81
2,31346799,Note_off_c,1,60,0
2,31364953,Note_off_c,1,60,0
2,31365252,Note_on_c,1,60,81
2,31376850,Note_off_c,1,60,0
2,31409564,Note_on_c,1,60,81
2,31434680,Note_off_c,1,60,0
2,31487588,Note_on_c,1,60,81
2,31488930,Note_off_c,1,60,0
2,31497576,Note_on_c,1,60,81
2,31497683,Note_off_c,1,60,0
2,31500084,Note_on_c,1,60,81
2,31503630,Note_on_c,1,60,81
2,31503744,Note_off_c,1,60,0
2,31506225,Note_on_c,1,60,81
2,31509648,Note_off_c,1,60,0
2,31571584,Note_on_c,1,60,81
2,31576484,Note_on_c,1,60,81
2,31577898,Note_off_c,1,60,0
2,31583306,Note_off_c,1,60,0
2,31587686,Note_off_c,1,60,0
2,31617685,Note_on_c,1,60,81
2,31629865,Note_on_c,1,60,81
2,31632518,Note_off_c,1,60,0
2,31644048,Note_on_c,1,60,81
2,31644693,Note_on_c,1,60,81
2,31644896,Note_off_c,1,60,0
2,31649371,Note_off_c,1,60,0
2,31652262,Note_on_c,1,60,81
2,31660162,Note_off_c,1,60,0
2,31704319,Note_off_c,1,60,0
2,31727116,Note_on_c,1,60,81
2,31758659,Note_on_c,1,60,81
2,31758735,Note_off_c,1,60,0
2,31764893,Note_off_c,1,60,0
2,31789129,Note_on_c,1,60,81
2,31790421,Note_on_c,1,60,81
2,31791322,Note_off_c,1,60,0
2,31816022,Note_off_c,1,60,0
2,31842018,Note_on_c,1,60,81
2,31851912,Note_on_c,1,60,81
2,31855568,Note_off_c,1,60,0
2,31906420,Note_on_c,1,60,81
2,31919562,Note_on_c,1,60,81
2,31919628,Note_off_c,1,60,0
2,31921841,Note_off_c,1,60,0
2,31933019,Note_on_c,1,60,81
2,31933975,Note_off_c,1,60,0
2,31944856,Note_off_c,1,60,0
2,31972188,Note_on_c,1,60,81
2,31987034,Note_off_c,1,60,0
2,32013867,Note_on_c,1,60,81
2,32052290,Note_on_c,1,60,81
2,32060850,Note_off_c,1,60,0
2,32072030,Note_on_c,1,60,81
2,32073474,Note_off_c,1,60,0
2,32086948,Note_on_c,1,60,81
2,32087007,Note_off_c,1,60,0
2,32087522,Note_on_c,1,60,81
2,32087813,Note_off_c,1,60,0
2,32102866,Note_off_c,1,60,0
2,32108055,Note_on_c,1,60,81
2,32170732,Note_on_c,1,60,81
2,32176563,Note_off_c,1,60,0
2,32176568,Note_off_c,1,60,0
2,32179674,Note_on_c,1,60,81
2,32198285,Note_off_c,1,60,0
2,32200594,Note_on_c,1,60,81
2,32204768,Note_on_c,1,60,81
2,32205453,Note_off_c,1,60,0
2,32205670,Note_on_c,1,60,81
2,32206814,Note_off_c,1,60,0
2,32208682,Note_off_c,1,60,0
2,32209088,Note_on_c,1,60,81
2,32214471,Note_on_c,1,60,81
2,32216192,Note_off_c,1,60,0
2,32221076,Note_on_c,1,60,81
2,32222359,Note_off_c,1,60,0
2,32231655,Note_on_c,1,60,81
2,32241710,Note_off_c,1,60,0
2,32245397,Note_off_c,1,60,0
2,32247221,Note_on_c,1,60,81
2,32248856,Note_off_c,1,60,0
2,32251238,Note_on_c,1,60,81
2,32269337,Note_on_c,1,60,81
2,32269597,Note_off_c,1,60,0
2,32286165,Note_off_c,1,60,0
2,32286451,Note_on_c,1,60,81
2,32286561,Note_off_c,1,60,0
2,32292082,Note_on_c,1,60,81
2,32333635,Note_off_c,1,60,0
2,32333838,Note_on_c,1,60,81
2,32336233,Note_off_c,1,60,0
2,32349193,Note_on_c,1,60,81
2,32350663,Note_off_c,1,60,0
2,32351520,Note_on_c,1,60,81
2,32361269,Note_on_c,1,60,81
2,32364278,Note_off_c,1,60,0
2,32364312,Note_off_c,1,60,0
2,32364632,Note_on_c,1,60,81
2,32394731,Note_off_c,1,60,0
2,32402108,Note_on_c,1,60,81
2,32403115,Note_off_c,1,60,0
2,32421978,Note_on_c,1,60,81
2,32422319,Note_off_c,1,60,0
2,32423213,Note_on_c,1,60,81
2,32426789,Note_off_c,1,60,0
2,32457834,Note_on_c,1,60,81
2,32458135,Note_off_c,1,60,0
2,32465056,Note_on_c,1,60,81
2,32465071,Note_on_c,1,60,81
2,32496686,Note_off_c,1,60,0
2,32539426,Note_on_c,1,60,81
2,32600171,Note_on_c,1,60,81
2,32600792,Note_off_c,1,60,0
2,32605941,Note_off_c,1,60,0
2,32639950,Note_on_c,1,60,81
2,32640052,Note_off_c,1,60,0
2,32650903,Note_off_c,1,60,0
2,32651141,Note_on_c,1,60,81
2,32679905,Note_on_c,1,60,81
2,32686211,Note_off_c,1,60,0
2,32703596,Note_off_c,1,60,0
2,32717733,Note_on_c,1,60,81
2,32725237,Note_off_c,1,60,0
2,32741829,Note_on_c,1,60,81
2,32774970,Note_off_c,1,60,0
2,32775236,Note_on_c,1,60,81
2,32816766,Note_on_c,1,60,81
2,32817380,Note_off_c,1,60,0
2,32858875,Note_off_c,1,60,0
2,32862267,Note_on_c,1,60,81
2,32872482,Note_off_c,1,60,0
2,32885993,Note_on_c,1,60,81
2,32894593,Note_on_c,1,60,81
2,32898441,Note_off_c,1,60,0
2,32901438,Note_off_c,1,60,0
2,32925453,Note_on_c,1,60,81
2,32936444,Note_on_c,1,60,81
2,32951638,Note_off_c,1,60,0
2,32964809,Note_off_c,1,60,0
2,32973552,Note_on_c,1,60,81
2,32974463,Note_off_c,1,60,0
2,32979946,Note_on_c,1,60,81
2,32980472,Note_off_c,1,60,0
2,32986951,Note_on_c,1,60,81
2,32987074,Note_on_c,1,60,81
2,32988233,Note_off_c,1,60,0
2,33007939,Note_on_c,1,60,81
2,33029231,Note_on_c,1,60,81
2,33029576,Note_off_c,1,60,0
2,33032469,Note_off_c,1,60,0
2,33080996,Note_off_c,1,60,0
2,33081103,Note_on_c,1,60,81
2,33123492,Note_off_c,1,60,0
2,33141870,Note_on_c,1,60,81
2,33143230,Note_off_c,1,60,0
2,33145398,Note_on_c,1,60,81
2,33162850,Note_on_c,1,60,81
2,33166298,Note_off_c,1,60,0
2,33182059,Note_off_c,1,60,0
2,33194787,Note_on_c,1,60,81
2,33200353,Note_off_c,1,60,0
2,33256491,Note_on_c,1,60,81
2,33261211,Note_on_c,1,60,81
2,33261680,Note_off_c,1,60,0
2,33300719,Note_off_c,1,60,0
2,33306765,Note_on_c,1,60,81
2,33307347,Note_on_c,1,60,81
2,33321098,Note_off_c,1,60,0
2,33323622,Note_on_c,1,60,81
2,33332392,Note_on_c,1,60,81
2,33332492,Note_off_c,1,60,0
2,33336565,Note_on_c,1,60,81
2,33336864,Note_off_c,1,60,0
2,33349245,Note_off_c,1,60,0
2,33350351,Note_on_c,1,60,81
2,33363245,Note_off_c,1,60,0
2,33431095,Note_off_c,1,60,0
2,33466248,Note_on_c,1,60,81
2,33468954,Note_off_c,1,60,0
2,33472644,Note_on_c,1,60,81
2,33501643,Note_off_c,1,60,0
2,33512007,Note_on_c,1,60,81
2,33512743,Note_off_c,1,60,0
2,33513997,Note_on_c,1,60,81
2,33838522,Note_on_c,1,60,81
2,33840140,Note_off_c,1,60,0
2,33860474,Note_on_c,1,60,81
2,33864791,Note_off_c,1,60,0
2,33868952,Note_on_c,1,60,81
2,33893726,Note_off_c,1,60,0
2,34112948,Note_on_c,1,60,81
2,34113063,Note_off_c,1,60,0
2,34165842,Note_off_c,1,60,0
2,34166882,Note_on_c,1,60,81
2,34219131,Note_off_c,1,60,0
2,34276858,Note_on_c,1,60,81
2,34277292,Note_off_c,1,60,0
2,34640156,Note_on_c,1,60,81
2,34669598,Note_on_c,1,60,81
2,34669694,Note_off_c,1,60,0
2,34685732,Note_off_c,1,60,0
2,34712736,Note_on_c,1,60,81
2,34755046,Note_on_c,1,60,81
2,34758512,Note_off_c,1,60,0
2,34759739,Note_on_c,1,60,81
2,34761425,Note_on_c,1,60,81
2,34762327,Note_off_c,1,60,0
2,34781213,Note_on_c,1,60,81
2,34786369,Note_off_c,1,60,0
2,34788097,Note_off_c,1,60,0
2,34792998,Note_on_c,1,60,81
2,34795747,Note_off_c,1,60,0
2,34850693,Note_on_c,1,60,81
2,34851555,Note_off_c,1,60,0
2,34859755,Note_off_c,1,60,0
2,34865435,Note_on_c,1,60,81
2,34929650,Note_off_c,1,60,0
2,34974355,Note_on_c,1,60,81
2,34975698,Note_on_c,1,60,81
2,34978706,Note_off_c,1,60,0
2,34981532,Note_on_c,1,60,81
2,34981534,Note_on_c,1,60,81
2,34985313,Note_off_c,1,60,0
2,34985353,Note_off_c,1,60,0
2,34986164,Note_on_c,1,60,81
2,35031741,Note_off_c,1,60,0
2,35031945,Note_off_c,1,60,0
2,35032171,Note_on_c,1,60,81
2,35053467,Note_on_c,1,60,81
2,35059271,Note_off_c,1,60,0
2,35115859,Note_off_c,1,60,0
2,35122021,Note_on_c,1,60,81
2,35122484,Note_off_c,1,60,0
2,35141514,Note_on_c,1,60,81
2,35146435,Note_off_c,1,60,0
2,35176377,Note_on_c,1,60,81
2,35193145,Note_off_c,1,60,0
2,35195968,Note_on_c,1,60,81
2,35196062,Note_off_c,1,60,0
2,35268708,Note_on_c,1,60,81
2,35292195,Note_on_c,1,60,81
2,35292498,Note_off_c,1,60,0
2,35310273,Note_on_c,1,60,81
2,35310425,Note_off_c,1,60,0
2,35350721,Note_on_c,1,60,81
2,35351607,Note_off_c,1,60,0
2,35358821,Note_on_c,1,60,81
2,35366077,Note_off_c,1,60,0
2,35399996,Note_on_c,1,60,81
2,35400319,Note_off_c,1,60,0
2,35422058,Note_off_c,1,60,0
2,35433491,Note_on_c,1,60,81
2,35509741,Note_on_c,1,60,81
2,35511438,Note_off_c,1,60,0
2,35557472,Note_on_c,1,60,81
2,35557950,Note_off_c,1,60,0
2,35567274,Note_off_c,1,60,0
2,35569806,Note_on_c,1,60,81
2,35573313,Note_on_c,1,60,81
2,35577771,Note_off_c,1,60,0
2,35595328,Note_off_c,1,60,0
2,35599540,Note_on_c,1,60,81
2,35641526,Note_off_c,1,60,0
2,35713876,Note_on_c,1,60,81
2,35718894,Note_off_c,1,60,0
2,35720217,Note_on_c,1,60,81
2,35739388,Note_on_c,1,60,81
2,35743576,Note_off_c,1,60,0
2,35769978,Note_off_c,1,60,0
2,35808015,Note_on_c,1,60,81
2,35857890,Note_off_c,1,60,0
2,35869807,Note_on_c,1,60,81
2,35873269,Note_on_c,1,60,81
2,35873752,Note_off_c,1,60,0
2,35908979,Note_on_c,1,60,81
2,35910872,Note_off_c,1,60,0
2,35929719,Note_on_c,1,60,81
2,35930115,Note_off_c,1,60,0
2,35930532,Note_off_c,1,60,0
2,35930717,Note_on_c,1,60,81
2,35992108,Note_on_c,1,60,81
2,36013630,Note_off_c,1,60,0
2,36072500,Note_off_c,1,60,0
2,36080065,Note_on_c,1,60,81
2,36084026,Note_off_c,1,60,0
2,36084093,Note_on_c,1,60,81
2,36088275,Note_off_c,1,60,0
2,36088891,Note_on_c,1,60,81
2,36093932,Note_off_c,1,60,0
2,36095238,Note_on_c,1,60,81
2,36125222,Note_off_c,1,60,0
2,36136569,Note_on_c,1,60,81
2,36155578,Note_on_c,1,60,81
2,36156053,Note_off_c,1,60,0
2,36180849,Note_off_c,1,60,0
2,36191914,Note_on_c,1,60,81
2,36192170,Note_off_c,1,60,0
2,36224431,Note_on_c,1,60,81
2,36241897,Note_on_c,1,60,81
2,36242156,Note_off_c,1,60,0
2,36305357,Note_off_c,1,60,0
2,36306367,Note_on_c,1,60,81
2,36322029,Note_on_c,1,60,81
2,36324154,Note_off_c,1,60,0
2,36329340,Note_off_c,1,60,0
2,36329629,Note_on_c,1,60,81
2,36335406,Note_off_c,1,60,0
2,36339623,Note_on_c,1,60,81
2,36385924,Note_off_c,1,60,0
2,36391237,Note_on_c,1,60,81
2,36397908,Note_off_c,1,60,0
2,36402720,Note_on_c,1,60,81
2,36402859,Note_off_c,1,60,0
2,36415826,Note_on_c,1,60,81
2,36418449,Note_on_c,1,60,81
2,36418578,Note_off_c,1,60,0
2,36450451,Note_off_c,1,60,0
2,36455717,Note_on_c,1,60,81
2,36464384,Note_off_c,1,60,0
2,36466042,Note_on_c,1,60,81
2,36483278,Note_off_c,1,60,0
2,36630334,Note_on_c,1,60,81
2,36630857,Note_off_c,1,60,0
2,36703952,Note_on_c,1,60,81
2,36710582,Note_off_c,1,60,0
2,36768121,Note_on_c,1,60,81
2,36769725,Note_off_c,1,60,0
2,36769811,Note_on_c,1,60,81
2,36775768,Note_off_c,1,60,0
2,36795526,Note_on_c,1,60,81
2,37034515,Note_off_c,1,60,0
2,37133488,Note_on_c,1,60,81
2,37136146,Note_off_c,1,60,0
2,37154760,Note_on_c,1,60,81
2,37161562,Note_on_c,1,60,81
2,37161634,Note_off_c,1,60,0
2,37203609,Note_on_c,1,60,81
2,37203716,Note_off_c,1,60,0
2,37264676,Note_on_c,1,60,81
2,37264786,Note_off_c,1,60,0
2,37325100,Note_off_c,1,60,0
2,37330851,Note_on_c,1,60,81
2,37330996,Note_off_c,1,60,0
2,37350933,Note_on_c,1,60,81
2,37474432,Note_off_c,1,60,0
2,37474579,Note_on_c,1,60,81
2,37480229,Note_on_c,1,60,81
2,37480289,Note_off_c,1,60,0
2,37484377,Note_off_c,1,60,0
2,37489992,Note_on_c,1,60,81
2,37500934,Note_on_c,1,60,81
2,37500994,Note_off_c,1,60,0
2,37514766,Note_off_c,1,60,0
2,37534448,Note_on_c,1,60,81
2,37544762,Note_on_c,1,60,81
2,37545294,Note_off_c,1,60,0
2,37554293,Note_off_c,1,60,0
2,37556246,Note_on_c,1,60,81
2,37556499,Note_off_c,1,60,0
2,37556918,Note_on_c,1,60,81
2,37566815,Note_on_c,1,60,81
2,37566857,Note_off_c,1,60,0
2,37595937,Note_off_c,1,60,0
2,37596125,Note_on_c,1,60,81
2,37607336,Note_off_c,1,60,0
2,37611349,Note_on_c,1,60,81
2,37634892,Note_off_c,1,60,0
2,37681569,Note_on_c,1,60,81
2,37692249,Note_off_c,1,60,0
2,37692480,Note_on_c,1,60,81
2,37709719,Note_off_c,1,60,0
2,37713879,Note_on_c,1,60,81
2,37737954,Note_on_c,1,60,81
2,37738054,Note_off_c,1,60,0
2,37765133,Note_off_c,1,60,0
2,37776669,Note_on_c,1,60,81
2,37779418,Note_off_c,1,60,0
2,37782456,Note_on_c,1,60,81
2,37782885,Note_off_c,1,60,0
2,37793846,Note_on_c,1,60,81
2,37799719,Note_on_c,1,60,81
2,37800879,Note_off_c,1,60,0
2,37801137,Note_off_c,1,60,0
2,37802944,Note_on_c,1,60,81
2,37806978,Note_on_c,1,60,81
2,37808208,Note_off_c,1,60,0
2,37809454,Note_off_c,1,60,0
2,37809573,Note_on_c,1,60,81
2,37840985,Note_on_c,1,60,81
2,37841676,Note_off_c,1,60,0
2,37859592,Note_off_c,1,60,0
2,37860696,Note_on_c,1,60,81
2,37860696,Note_on_c,1,60,81
2,37861580,Note_off_c,1,60,0
2,37884236,Note_on_c,1,60,81
2,37884317,Note_off_c,1,60,0
2,37885022,Note_on_c,1,60,81
2,37885117,Note_off_c,1,60,0
2,37947057,Note_off_c,1,60,0
2,37953507,Note_on_c,1,60,81
2,37953780,Note_off_c,1,60,0
2,37956974,Note_on_c,1,60,81
2,37990075,Note_off_c,1,60,0
2,37991461,Note_on_c,1,60,81
2,37991569,Note_off_c,1,60,0
2,37996769,Note_on_c,1,60,81
2,38005606,Note_off_c,1,60,0
2,38009257,Note_on_c,1,60,81
2,38024820,Note_off_c,1,60,0
2,38043828,Note_on_c,1,60,81
2,38046793,Note_off_c,1,60,0
2,38047313,Note_on_c,1,60,81
2,38080571,Note_on_c,1,60,81
2,38080911,Note_off_c,1,60,0
2,38089230,Note_on_c,1,60,81
2,38089329,Note_off_c,1,60,0
2,38119025,Note_off_c,1,60,0
2,38129463,Note_on_c,1,60,81
2,38140593,Note_off_c,1,60,0
2,38149543,Note_on_c,1,60,81
2,38162545,Note_off_c,1,60,0
2,38193618,Note_on_c,1,60,81
2,38209033,Note_on_c,1,60,81
2,38210340,Note_off_c,1,60,0
2,38214806,Note_off_c,1,60,0
2,38383837,Note_on_c,1,60,81
2,38384422,Note_off_c,1,60,0
2,38396658,Note_on_c,1,60,81
2,38396765,Note_off_c,1,60,0
2,38474824,Note_on_c,1,60,81
2,38516520,Note_off_c,1,60,0
2,38708930,Note_on_c,1,60,81
2,38710890,Note_off_c,1,60,0
2,38754215,Note_on_c,1,60,81
2,38815979,Note_off_c,1,60,0
2,38838197,Note_on_c,1,60,81
2,38839332,Note_on_c,1,60,81
2,38859772,Note_off_c,1,60,0
2,38859911,Note_on_c,1,60,81
2,38862492,Note_on_c,1,60,81
2,38864500,Note_on_c,1,60,81
2,38873368,Note_off_c,1,60,0
2,38874068,Note_on_c,1,60,81
2,38874494,Note_off_c,1,60,0
2,38881587,Note_off_c,1,60,0
2,38881617,Note_off_c,1,60,0
2,38885806,Note_on_c,1,60,81
2,38926869,Note_on_c,1,60,81
2,38926977,Note_off_c,1,60,0
2,38941830,Note_off_c,1,60,0
2,38950824,Note_on_c,1,60,81
2,38950925,Note_off_c,1,60,0
2,38958274,Note_on_c,1,60,81
2,38958925,Note_off_c,1,60,0
2,38965038,Note_off_c,1,60,0
2,38991275,Note_on_c,1,60,81
2,39006059,Note_off_c,1,60,0
2,39026317,Note_on_c,1,60,81
2,39034636,Note_off_c,1,60,0
2,39081315,Note_on_c,1,60,81
2,39120939,Note_on_c,1,60,81
2,39121043,Note_off_c,1,60,0
2,39154163,Note_on_c,1,60,81
2,39154296,Note_off_c,1,60,0
2,39226669,Note_on_c,1,60,81
2,39238620,Note_off_c,1,60,0
2,39249837,Note_on_c,1,60,81
2,39257649,Note_off_c,1,60,0
2,39304293,Note_on_c,1,60,81
2,39304898,Note_off_c,1,60,0
2,39487177,Note_off_c,1,60,0
2,39491635,Note_on_c,1,60,81
2,39514955,Note_on_c,1,60,81
2,39516490,Note_off_c,1,60,0
2,39522279,Note_on_c,1,60,81
2,39529869,Note_off_c,1,60,0
2,39559698,Note_off_c,1,60,0
2,39560708,Note_on_c,1,60,81
2,39565051,Note_on_c,1,60,81
2,39567373,Note_on_c,1,60,81
2,39567508,Note_off_c,1,60,0
2,39573860,Note_off_c,1,60,0
2,39576790,Note_off_c,1,60,0
2,39623434,Note_on_c,1,60,81
2,39633415,Note_on_c,1,60,81
2,39633903,Note_off_c,1,60,0
2,39639643,Note_off_c,1,60,0
2,39651228,Note_on_c,1,60,81
2,39672107,Note_off_c,1,60,0
2,39678647,Note_on_c,1,60,81
2,39691485,Note_off_c,1,60,0
2,39692181,Note_on_c,1,60,81
2,39718027,Note_on_c,1,60,81
2,39718595,Note_off_c,1,60,0
2,39723565,Note_on_c,1,60,81
2,39723627,Note_off_c,1,60,0
2,39757181,Note_on_c,1,60,81
2,39763914,Note_off_c,1,60,0
2,39769522,Note_on_c,1,60,81
2,39771348,Note_off_c,1,60,0
2,39779968,Note_on_c,1,60,81
2,39781418,Note_off_c,1,60,0
2,39788865,Note_off_c,1,60,0
2,39788975,Note_on_c,1,60,81
2,39790171,Note_off_c,1,60,0
2,39795842,Note_on_c,1,60,81
2,39795996,Note_off_c,1,60,0
2,39799418,Note_on_c,1,60,81
2,39801413,Note_on_c,1,60,81
2,39809450,Note_off_c,1,60,0
2,39817460,Note_off_c,1,60,0
2,39838109,Note_on_c,1,60,81
2,39881565,Note_on_c,1,60,81
2,39881678,Note_off_c,1,60,0
2,39883511,Note_off_c,1,60,0
2,39895425,Note_on_c,1,60,81
2,39897744,Note_on_c,1,60,81
2,39899098,Note_off_c,1,60,0
2,39902256,Note_off_c,1,60,0
2,39944889,Note_on_c,1,60,81
2,39944998,Note_off_c,1,60,0
2,39955111,Note_on_c,1,60,81
2,39962679,Note_on_c,1,60,81
2,39963404,Note_off_c,1,60,0
2,39969968,Note_off_c,1,60,0
2,40040232,Note_on_c,1,60,81
2,40072649,Note_off_c,1,60,0
2,40072709,Note_on_c,1,60,81
2,40097260,Note_off_c,1,60,0
2,40132763,Note_on_c,1,60,81
2,40133448,Note_off_c,1,60,0
2,40161386,Note_on_c,1,60,81
2,40177842,Note_on_c,1,60,81
2,40177949,Note_off_c,1,60,0
2,40240921,Note_off_c,1,60,0
2,40245946,Note_on_c,1,60,81
2,40251684,Note_off_c,1,60,0
2,40256426,Note_on_c,1,60,81
2,40257967,Note_off_c,1,60,0
2,40258040,Note_on_c,1,60,81
2,40262671,Note_on_c,1,60,81
2,40262984,Note_off_c,1,60,0
2,40294180,Note_off_c,1,60,0
2,40300488,Note_on_c,1,60,81
2,40317813,Note_off_c,1,60,0
2,40333077,Note_on_c,1,60,81
2,40333557,Note_off_c,1,60,0
2,40344849,Note_on_c,1,60,81
2,40364765,Note_on_c,1,60,81
2,40365183,Note_off_c,1,60,0
2,40423326,Note_off_c,1,60,0
2,40436198,Note_on_c,1,60,81
2,40450039,Note_off_c,1,60,0
2,40450101,Note_on_c,1,60,81
2,40463718,Note_off_c,1,60,0
2,40464318,Note_on_c,1,60,81
2,40466767,Note_off_c,1,60,0
2,40473054,Note_on_c,1,60,81
2,40474059,Note_off_c,1,60,0
2,40477289,Note_on_c,1,60,81
2,40493156,Note_on_c,1,60,81
2,40496343,Note_off_c,1,60,0
2,40508661,Note_off_c,1,60,0
2,40508740,Note_on_c,1,60,81
2,40514460,Note_on_c,1,60,81
2,40515057,Note_off_c,1,60,0
2,40515753,Note_on_c,1,60,81
2,40516038,Note_off_c,1,60,0
2,40517174,Note_off_c,1,60,0
2,40531572,Note_on_c,1,60,81
2,40548167,Note_off_c,1,60,0
2,40559665,Note_on_c,1,60,81
2,40563533,Note_on_c,1,60,81
2,40563659,Note_off_c,1,60,0
2,40584335,Note_off_c,1,60,0
2,40593632,Note_on_c,1,60,81
2,40594353,Note_off_c,1,60,0
2,40620679,Note_on_c,1,60,81
2,40659847,Note_on_c,1,60,81
2,40665682,Note_off_c,1,60,0
2,40667480,Note_off_c,1,60,0
2,40669088,Note_on_c,1,60,81
2,40687588,Note_off_c,1,60,0
2,40690379,Note_on_c,1,60,81
2,40691647,Note_on_c,1,60,81
2,40692066,Note_off_c,1,60,0
2,40754354,Note_on_c,1,60,81
2,40754446,Note_off_c,1,60,0
2,40757283,Note_on_c,1,60,81
2,40757372,Note_off_c,1,60,0
2,40771603,Note_off_c,1,60,0
2,40783786,Note_on_c,1,60,81
2,40804845,Note_on_c,1,60,81
2,40805141,Note_off_c,1,60,0
2,40840452,Note_off_c,1,60,0
2,40861053,Note_on_c,1,60,81
2,40862363,Note_off_c,1,60,0
2,40863913,Note_on_c,1,60,81
2,40876670,Note_off_c,1,60,0
2,40938103,Note_on_c,1,60,81
2,40939293,Note_on_c,1,60,81
2,40939763,Note_off_c,1,60,0
2,40942250,Note_on_c,1,60,81
2,40942515,Note_off_c,1,60,0
2,40945524,Note_off_c,1,60,0
2,40979687,Note_on_c,1,60,81
2,41012565,Note_off_c,1,60,0
2,41014589,Note_on_c,1,60,81
2,41015588,Note_on_c,1,60,81
2,41023237,Note_off_c,1,60,0
2,41027199,Note_on_c,1,60,81
2,41043890,Note_off_c,1,60,0
2,41098637,Note_on_c,1,60,81
2,41099136,Note_off_c,1,60,0
2,41241771,Note_on_c,1,60,81
2,41242154,Note_off_c,1,60,0
2,41242372,Note_on_c,1,60,81
2,41264549,Note_on_c,1,60,81
2,41264862,Note_off_c,1,60,0
2,41284861,Note_off_c,1,60,0
2,41302910,Note_on_c,1,60,81
2,41306148,Note_off_c,1,60,0
2,41338644,Note_off_c,1,60,0
2,41361921,Note_on_c,1,60,81
2,41375003,Note_on_c,1,60,81
2,41375669,Note_off_c,1,60,0
2,41383590,Note_off_c,1,60,0
2,41466936,Note_on_c,1,60,81
2,41467028,Note_off_c,1,60,0
2,41478774,Note_on_c,1,60,81
2,41484683,Note_off_c,1,60,0
2,41506364,Note_on_c,1,60,81
2,41535442,Note_on_c,1,60,81
2,41535868,Note_off_c,1,60,0
2,41542068,Note_on_c,1,60,81
2,41544310,Note_off_c,1,60,0
2,41585305,Note_on_c,1,60,81
2,41628816,Note_off_c,1,60,0
2,42035925,Note_off_c,1,60,0
2,42036142,Note_on_c,1,60,81
2,42040596,Note_on_c,1,60,81
2,42041729,Note_off_c,1,60,0
2,42051784,Note_off_c,1,60,0
2,42140634,Note_on_c,1,60,81
2,42141391,Note_off_c,1,60,0
2,42153409,Note_on_c,1,60,81
2,42155820,Note_off_c,1,60,0
2,42162689,Note_on_c,1,60,81
2,42164745,Note_off_c,1,60,0
2,42176538,Note_on_c,1,60,81
2,42335385,Note_on_c,1,60,81
2,42335877,Note_off_c,1,60,0
2,42338376,Note_off_c,1,60,0
2,42380791,Note_on_c,1,60,81
2,42412397,Note_on_c,1,60,81
2,42412794,Note_off_c,1,60,0
2,42424232,Note_off_c,1,60,0
2,42430328,Note_on_c,1,60,81
2,42456116,Note_on_c,1,60,81
2,42456253,Note_off_c,1,60,0
2,42463220,Note_on_c,1,60,81
2,42473385,Note_off_c,1,60,0
2,42491738,Note_on_c,1,60,81
2,42492493,Note_off_c,1,60,0
2,42500204,Note_on_c,1,60,81
2,42500339,Note_off_c,1,60,0
2,42569032,Note_on_c,1,60,81
2,42569139,Note_off_c,1,60,0
2,42570969,Note_on_c,1,60,81
2,42571390,Note_off_c,1,60,0
2,42657190,Note_off_c,1,60,0
2,42658334,Note_on_c,1,60,81
2,42658686,Note_on_c,1,60,81
2,42676758,Note_off_c,1,60,0
2,42678734,Note_on_c,1,60,81
2,42681659,Note_off_c,1,60,0
2,42682160,Note_off_c,1,60,0
2,42682417,Note_on_c,1,60,81
2,42703805,Note_off_c,1,60,0
2,42733092,Note_on_c,1,60,81
2,42740254,Note_off_c,1,60,0
2,42746334,Note_on_c,1,60,81
2,42767084,Note_off_c,1,60,0
2,42767244,Note_on_c,1,60,81
2,42767291,Note_on_c,1,60,81
2,42775812,Note_on_c,1,60,81
2,42776790,Note_off_c,1,60,0
2,42779491,Note_off_c,1,60,0
2,42784990,Note_on_c,1,60,81
2,42794493,Note_off_c,1,60,0
2,42807051,Note_on_c,1,60,81
2,42816619,Note_off_c,1,60,0
2,42817121,Note_on_c,1,60,81
2,42817397,Note_off_c,1,60,0
2,42832521,Note_on_c,1,60,81
2,42844991,Note_off_c,1,60,0
2,42846422,Note_off_c,1,60,0
2,42846572,Note_on_c,1,60,81
2,42852477,Note_off_c,1,60,0
2,42886596,Note_on_c,1,60,81
2,42888767,Note_off_c,1,60,0
2,42891093,Note_on_c,1,60,81
2,42892430,Note_off_c,1,60,0
2,42903231,Note_on_c,1,60,81
2,42903912,Note_off_c,1,60,0
2,42924459,Note_on_c,1,60,81
2,42925352,Note_on_c,1,60,81
2,42925849,Note_off_c,1,60,0
2,42952201,Note_on_c,1,60,81
2,42952641,Note_off_c,1,60,0
2,42958893,Note_off_c,1,60,0
2,42959048,Note_on_c,1,60,81
2,42959064,Note_on_c,1,60,81
2,42961864,Note_off_c,1,60,0
2,42991437,Note_on_c,1,60,81
2,42991544,Note_off_c,1,60,0
2,42996814,Note_off_c,1,60,0
2,43023548,Note_on_c,1,60,81
2,43023637,Note_off_c,1,60,0
2,43104085,Note_on_c,1,60,81
2,43104497,Note_off_c,1,60,0
2,43145152,Note_on_c,1,60,81
2,43156396,Note_off_c,1,60,0
2,43164174,Note_on_c,1,60,81
2,43171651,Note_on_c,1,60,81
2,43171712,Note_off_c,1,60,0
2,43172329,Note_on_c,1,60,81
2,43196416,Note_on_c,1,60,81
2,43196536,Note_off_c,1,60,0
2,43254358,Note_off_c,1,60,0
2,43269982,Note_on_c,1,60,81
2,43270936,Note_off_c,1,60,0
2,43274002,Note_off_c,1,60,0
2,43281876,Note_on_c,1,60,81
2,43285617,Note_off_c,1,60,0
2,43300981,Note_on_c,1,60,81
2,43323108,Note_off_c,1,60,0
2,43337817,Note_on_c,1,60,81
2,43348287,Note_on_c,1,60,81
2,43348844,Note_off_c,1,60,0
2,43354466,Note_off_c,1,60,0
2,43354683,Note_on_c,1,60,81
2,43358676,Note_off_c,1,60,0
2,43358980,Note_on_c,1,60,81
2,43363203,Note_off_c,1,60,0
2,43363397,Note_on_c,1,60,81
2,43364647,Note_on_c,1,60,81
2,43364715,Note_off_c,1,60,0
2,43368074,Note_off_c,1,60,0
2,43368207,Note_on_c,1,60,81
2,43368608,Note_off_c,1,60,0
2,43383916,Note_on_c,1,60,81
2,43385112,Note_on_c,1,60,81
2,43389155,Note_off_c,1,60,0
2,43389808,Note_off_c,1,60,0
2,43389881,Note_on_c,1,60,81
2,43447775,Note_on_c,1,60,81
2,43448538,Note_on_c,1,60,81
2,43448611,Note_off_c,1,60,0
2,43448644,Note_off_c,1,60,0
2,43450988,Note_on_c,1,60,81
2,43453926,Note_on_c,1,60,81
2,43453989,Note_off_c,1,60,0
2,43454247,Note_off_c,1,60,0
2,43456995,Note_off_c,1,60,0
2,43525186,Note_on_c,1,60,81
2,43623666,Note_off_c,1,60,0
2,43650148,Note_on_c,1,60,81
2,43650148,Note_on_c,1,60,81
2,43685122,Note_on_c,1,60,81
2,43705518,Note_off_c,1,60,0
2,43705823,Note_on_c,1,60,81
2,43708138,Note_off_c,1,60,0
2,43709391,Note_on_c,1,60,81
2,43716466,Note_on_c,1,60,81
2,43716556,Note_off_c,1,60,0
2,43727343,Note_off_c,1,60,0
2,43743470,Note_on_c,1,60,81
2,43743741,Note_off_c,1,60,0
2,43838621,Note_on_c,1,60,81
2,43838683,Note_off_c,1,60,0
2,43850299,Note_on_c,1,60,81
2,43851611,Note_off_c,1,60,0
2,43931014,Note_off_c,1,60,0
2,43931165,Note_off_c,1,60,0
2,43933319,Note_on_c,1,60,81
2,43937240,Note_off_c,1,60,0
2,43937917,Note_on_c,1,60,81
2,43940781,Note_off_c,1,60,0
2,43944354,Note_on_c,1,60,81
2,43946601,Note_off_c,1,60,0
2,43946949,Note_on_c,1,60,81
2,43968022,Note_off_c,1,60,0
2,43968350,Note_on_c,1,60,81
2,43969999,Note_on_c,1,60,81
2,43973369,Note_off_c,1,60,0
2,43974486,Note_on_c,1,60,81
2,43974821,Note_off_c,1,60,0
2,43978295,Note_off_c,1,60,0
2,43978942,Note_on_c,1,60,81
2,43991170,Note_off_c,1,60,0
2,43991358,Note_on_c,1,60,81
2,43991499,Note_on_c,1,60,81
2,43996528,Note_off_c,1,60,0
2,44030413,Note_on_c,1,60,81
2,44031467,Note_off_c,1,60,0
2,44087957,Note_on_c,1,60,81
2,44088477,Note_off_c,1,60,0
2,44103305,Note_on_c,1,60,81
2,44104703,Note_off_c,1,60,0
2,44115913,Note_off_c,1,60,0
2,44117097,Note_on_c,1,60,81
2,44117397,Note_off_c,1,60,0
2,44118820,Note_on_c,1,60,81
2,44122152,Note_on_c,1,60,81
2,44122512,Note_off_c,1,60,0
2,44135140,Note_off_c,1,60,0
2,44137820,Note_on_c,1,60,81
2,44141631,Note_off_c,1,60,0
2,44150593,Note_on_c,1,60,81
2,44151753,Note_off_c,1,60,0
2,44153384,Note_on_c,1,60,81
2,44153480,Note_off_c,1,60,0
2,44155027,Note_on_c,1,60,81
2,44155301,Note_off_c,1,60,0
2,44172505,Note_on_c,1,60,81
2,44172719,Note_off_c,1,60,0
2,44187942,Note_on_c,1,60,81
2,44189049,Note_off_c,1,60,0
2,44213454,Note_on_c,1,60,81
2,44220681,Note_off_c,1,60,0
2,44221069,Note_on_c,1,60,81
2,44243407,Note_on_c,1,60,81
2,44244273,Note_off_c,1,60,0
2,44355260,Note_off_c,1,60,0
2,44390721,Note_on_c,1,60,81
2,44390823,Note_off_c,1,60,0
2,44405193,Note_on_c,1,60,81
2,44545492,Note_on_c,1,60,81
2,44545552,Note_off_c,1,60,0
2,44635237,Note_on_c,1,60,81
2,44651724,Note_off_c,1,60,0
2,44674481,Note_off_c,1,60,0
2,44674691,Note_on_c,1,60,81
2,44721785,Note_on_c,1,60,81
2,44721902,Note_off_c,1,60,0
2,44725591,Note_off_c,1,60,0
2,44731054,Note_on_c,1,60,81
2,44731170,Note_off_c,1,60,0
2,44739817,Note_on_c,1,60,81
2,44759036,Note_on_c,1,60,81
2,44767767,Note_off_c,1,60,0
2,44775250,Note_on_c,1,60,81
2,44775810,Note_off_c,1,60,0
2,44775863,Note_on_c,1,60,81
2,44775943,Note_off_c,1,60,0
2,44776489,Note_on_c,1,60,81
2,44776593,Note_off_c,1,60,0
2,44777842,Note_on_c,1,60,81
2,44777912,Note_off_c,1,60,0
2,44778389,Note_on_c,1,60,81
2,44778389,Note_on_c,1,60,81
2,44778456,Note_off_c,1,60,0
2,44778458,Note_off_c,1,60,0
2,44778779,Note_off_c,1,60,0
2,44780330,Note_on_c,1,60,81
2,44780715,Note_off_c,1,60,0
2,44783584,Note_on_c,1,60,81
2,44788170,Note_off_c,1,60,0
2,44800376,Note_on_c,1,60,81
2,44805892,Note_on_c,1,60,81
2,44805990,Note_off_c,1,60,0
2,44807351,Note_off_c,1,60,0
2,44808481,Note_on_c,1,60,81
2,44815585,Note_off_c,1,60,0
2,44819843,Note_on_c,1,60,81
2,44819882,Note_on_c,1,60,81
2,44819997,Note_off_c,1,60,0
2,44843253,Note_off_c,1,60,0
2,44843920,Note_on_c,1,60,81
2,44844082,Note_off_c,1,60,0
2,44850521,Note_on_c,1,60,81
2,44932322,Note_on_c,1,60,81
2,44932431,Note_off_c,1,60,0
2,44958556,Note_on_c,1,60,81
2,44959395,Note_off_c,1,60,0
2,44986722,Note_off_c,1,60,0
2,44988233,Note_on_c,1,60,81
2,44988704,Note_on_c,1,60,81
2,44988725,Note_off_c,1,60,0
2,44991834,Note_off_c,1,60,0
2,45002539,Note_on_c,1,60,81
2,45010949,Note_on_c,1,60,81
2,45011324,Note_off_c,1,60,0
2,45015575,Note_off_c,1,60,0
2,45016398,Note_on_c,1,60,81
2,45069976,Note_on_c,1,60,81
2,45070429,Note_off_c,1,60,0
2,45303909,Note_on_c,1,60,81
2,45305619,Note_off_c,1,60,0
2,45306209,Note_off_c,1,60,0
2,45326894,Note_on_c,1,60,81
2,45328710,Note_off_c,1,60,0
2,45329162,Note_on_c,1,60,81
2,45329261,Note_on_c,1,60,81
2,45340051,Note_on_c,1,60,81
2,45340893,Note_off_c,1,60,0
2,45343882,Note_on_c,1,60,81
2,45343973,Note_off_c,1,60,0
2,45415019,Note_on_c,1,60,81
2,45415344,Note_off_c,1,60,0
2,45491155,Note_off_c,1,60,0
2,45491163,Note_off_c,1,60,0
2,45493865,Note_on_c,1,60,81
2,45500079,Note_off_c,1,60,0
2,45500299,Note_on_c,1,60,81
2,45510913,Note_on_c,1,60,81
2,45513382,Note_off_c,1,60,0
2,45530926,Note_on_c,1,60,81
2,45532139,Note_off_c,1,60,0
2,45542732,Note_off_c,1,60,0
2,45550542,Note_on_c,1,60,81
2,45570049,Note_off_c,1,60,0
2,45580891,Note_on_c,1,60,81
2,45580996,Note_off_c,1,60,0
2,45581218,Note_on_c,1,60,81
2,45581321,Note_off_c,1,60,0
2,45583237,Note_on_c,1,60,81
2,45583845,Note_on_c,1,60,81
2,45583933,Note_off_c,1,60,0
2,45592721,Note_on_c,1,60,81
2,45592814,Note_off_c,1,60,0
2,45605656,Note_on_c,1,60,81
2,45605730,Note_off_c,1,60,0
2,45618904,Note_off_c,1,60,0
2,45620043,Note_on_c,1,60,81
2,45624057,Note_off_c,1,60,0
2,45627303,Note_on_c,1,60,81
2,45645815,Note_on_c,1,60,81
2,45646197,Note_off_c,1,60,0
2,45651038,Note_on_c,1,60,81
2,45651826,Note_off_c,1,60,0
2,45688113,Note_off_c,1,60,0
2,45688180,Note_on_c,1,60,81
2,45694323,Note_on_c,1,60,81
2,45694436,Note_off_c,1,60,0
2,45694683,Note_on_c,1,60,81
2,45697075,Note_off_c,1,60,0
2,45750653,Note_off_c,1,60,0
2,45781276,Note_on_c,1,60,81
2,45781957,Note_off_c,1,60,0
2,45786986,Note_on_c,1,60,81
2,45846993,Note_on_c,1,60,81
2,45847594,Note_off_c,1,60,0
2,46036122,Note_off_c,1,60,0
2,46040139,Note_on_c,1,60,81
2,46043660,Note_on_c,1,60,81
2,46046817,Note_on_c,1,60,81
2,46048368,Note_off_c,1,60,0
2,46104949,Note_on_c,1,60,81
2,46105175,Note_off_c,1,60,0
2,46133036,Note_off_c,1,60,0
2,46134530,Note_on_c,1,60,81
2,46139081,Note_off_c,1,60,0
2,46175072,Note_on_c,1,60,81
2,46175485,Note_on_c,1,60,81
2,46176488,Note_off_c,1,60,0
2,46176488,Note_off_c,1,60,0
2,46185962,Note_off_c,1,60,0
2,46188682,Note_on_c,1,60,81
2,46203333,Note_on_c,1,60,81
2,46220305,Note_off_c,1,60,0
2,46221256,Note_off_c,1,60,0
2,46246460,Note_on_c,1,60,81
2,46261195,Note_on_c,1,60,81
2,46278480,Note_off_c,1,60,0
2,46303616,Note_off_c,1,60,0
2,46303697,Note_on_c,1,60,81
2,46316776,Note_off_c,1,60,0
2,46340788,Note_on_c,1,60,81
2,46365152,Note_off_c,1,60,0
2,46370585,Note_on_c,1,60,81
2,46370955,Note_off_c,1,60,0
2,46394316,Note_on_c,1,60,81
2,46413848,Note_off_c,1,60,0
2,46432128,Note_on_c,1,60,81
2,46446599,Note_on_c,1,60,81
2,46451317,Note_off_c,1,60,0
2,46482493,Note_off_c,1,60,0
2,46489835,Note_on_c,1,60,81
2,46516216,Note_off_c,1,60,0
2,46532165,Note_on_c,1,60,81
2,46538610,Note_on_c,1,60,81
2,46543969,Note_off_c,1,60,0
2,46545640,Note_on_c,1,60,81
2,46551647,Note_off_c,1,60,0
2,46557406,Note_on_c,1,60,81
2,46570255,Note_off_c,1,60,0
2,46607718,Note_on_c,1,60,81
2,46616811,Note_off_c,1,60,0
2,46616843,Note_off_c,1,60,0
2,46632736,Note_on_c,1,60,81
2,46665909,Note_on_c,1,60,81
2,46666375,Note_off_c,1,60,0
2,46668854,Note_on_c,1,60,81
2,46673594,Note_off_c,1,60,0
2,46673867,Note_off_c,1,60,0
2,46674035,Note_on_c,1,60,81
2,46674658,Note_on_c,1,60,81
2,46692098,Note_off_c,1,60,0
2,46719146,Note_off_c,1,60,0
2,46742328,Note_on_c,1,60,81
2,46743133,Note_off_c,1,60,0
2,46757837,Note_on_c,1,60,81
2,46819413,Note_off_c,1,60,0
2,46843094,Note_on_c,1,60,81
2,46891638,Note_on_c,1,60,81
2,46892830,Note_off_c,1,60,0
2,46900437,Note_off_c,1,60,0
2,46929176,Note_on_c,1,60,81
2,46941484,Note_off_c,1,60,0
2,46967678,Note_on_c,1,60,81
2,46967874,Note_off_c,1,60,0
2,46994381,Note_on_c,1,60,81
2,46994502,Note_off_c,1,60,0
2,47000897,Note_on_c,1,60,81
2,47001087,Note_off_c,1,60,0
2,47002994,Note_on_c,1,60,81
2,47003148,Note_off_c,1,60,0
2,47023668,Note_on_c,1,60,81
2,47050751,Note_off_c,1,60,0
2,47067230,Note_on_c,1,60,81
2,47074777,Note_on_c,1,60,81
2,47075979,Note_off_c,1,60,0
2,47096652,Note_on_c,1,60,81
2,47118318,Note_off_c,1,60,0
2,47137434,Note_on_c,1,60,81
2,47149727,Note_off_c,1,60,0
2,47164509,Note_on_c,1,60,81
2,47165920,Note_off_c,1,60,0
2,47179249,Note_on_c,1,60,81
2,47179271,Note_off_c,1,60,0
2,47180339,Note_off_c,1,60,0
2,47183581,Note_on_c,1,60,81
2,47191044,Note_off_c,1,60,0
2,47216289,Note_on_c,1,60,81
2,47225796,Note_on_c,1,60,81
2,47230750,Note_off_c,1,60,0
2,47232225,Note_off_c,1,60,0
2,47250138,Note_on_c,1,60,81
2,47314892,Note_off_c,1,60,0
2,47333789,Note_on_c,1,60,81
2,47378839,Note_off_c,1,60,0
2,47380927,Note_on_c,1,60,81
2,47408477,Note_off_c,1,60,0
2,47416284,Note_on_c,1,60,81
2,47418052,Note_off_c,1,60,0
2,47432132,Note_on_c,1,60,81
2,47434641,Note_off_c,1,60,0
2,47438043,Note_on_c,1,60,81
2,47440691,Note_off_c,1,60,0
2,47483697,Note_on_c,1,60,81
2,47484162,Note_off_c,1,60,0
2,47497893,Note_on_c,1,60,81
2,47498341,Note_off_c,1,60,0
2,47550195,Note_on_c,1,60,81
2,47550753,Note_off_c,1,60,0
2,47688462,Note_on_c,1,60,81
2,47704029,Note_off_c,1,60,0
2,47760527,Note_on_c,1,60,81
2,47761131,Note_on_c,1,60,81
2,47765547,Note_off_c,1,60,0
2,47818065,Note_on_c,1,60,81
2,47820237,Note_off_c,1,60,0
2,47997385,Note_off_c,1,60,0
2,48050658,Note_on_c,1,60,81
2,48078786,Note_on_c,1,60,81
2,48082196,Note_off_c,1,60,0
2,48089367,Note_on_c,1,60,81
2,48089634,Note_off_c,1,60,0
2,48091736,Note_off_c,1,60,0
2,48096091,Note_on_c,1,60,81
2,48102067,Note_on_c,1,60,81
2,48104736,Note_off_c,1,60,0
2,48172971,Note_on_c,1,60,81
2,48182428,Note_off_c,1,60,0
2,48206857,Note_off_c,1,60,0
2,48222684,Note_on_c,1,60,81
2,48227887,Note_on_c,1,60,81
2,48229561,Note_off_c,1,60,0
2,48248644,Note_off_c,1,60,0
2,48262229,Note_on_c,1,60,81
2,48263179,Note_off_c,1,60,0
2,48295372,Note_on_c,1,60,81
2,48325079,Note_on_c,1,60,81
2,48326123,Note_off_c,1,60,0
2,48344208,Note_on_c,1,60,81
2,48344315,Note_off_c,1,60,0
2,48435966,Note_on_c,1,60,81
2,48437223,Note_off_c,1,60,0
2,48447935,Note_on_c,1,60,81
2,48448042,Note_off_c,1,60,0
2,48472208,Note_off_c,1,60,0
2,48497262,Note_on_c,1,60,81
2,48497736,Note_off_c,1,60,0
2,48532853,Note_on_c,1,60,81
2,48552990,Note_on_c,1,60,81
2,48558106,Note_off_c,1,60,0
2,48727518,Note_on_c,1,60,81
2,48776969,Note_off_c,1,60,0
2,48926020,Note_on_c,1,60,81
2,48936734,Note_off_c,1,60,0
2,49025594,Note_on_c,1,60,81
2,49187585,Note_off_c,1,60,0
2,49257410,Note_on_c,1,60,81
2,49269285,Note_off_c,1,60,0
2,49374200,Note_on_c,1,60,81
2,49472085,Note_off_c,1,60,0
2,49691261,Note_on_c,1,60,81
2,49691523,Note_off_c,1,60,0
2,49841820,Note_on_c,1,60,81
2,49846400,Note_off_c,1,60,0
2,49994317,Note_on_c,1,60,81
2,49996218,Note_off_c,1,60,0
2,50017091,Note_on_c,1,60,81
2,50017503,Note_off_c,1,60,0
2,50023954,Note_off_c,1,60,0
2,50024028,Note_on_c,1,60,81
2,50114936,Note_on_c,1,60,81
2,50115282,Note_off_c,1,60,0
2,50174305,Note_on_c,1,60,81
2,50175868,Note_off_c,1,60,0
2,50203772,Note_off_c,1,60,0
2,50206083,Note_on_c,1,60,81
2,50223127,Note_off_c,1,60,0
2,50229661,Note_on_c,1,60,81
2,50252568,Note_on_c,1,60,81
2,50258994,Note_off_c,1,60,0
2,50321192,Note_off_c,1,60,0
2,50326130,Note_on_c,1,60,81
2,50327007,Note_off_c,1,60,0
2,50398824,Note_on_c,1,60,81
2,50399773,Note_off_c,1,60,0
2,50405429,Note_on_c,1,60,81
2,50406024,Note_off_c,1,60,0
2,50417549,Note_on_c,1,60,81
2,50423443,Note_off_c,1,60,0
2,50423608,Note_on_c,1,60,81
2,50425316,Note_off_c,1,60,0
2,50437027,Note_on_c,1,60,81
2,50461468,Note_on_c,1,60,81
2,50471150,Note_off_c,1,60,0
2,50582403,Note_on_c,1,60,81
2,50582511,Note_off_c,1,60,0
2,50780339,Note_on_c,1,60,81
2,50781150,Note_off_c,1,60,0
2,50846467,Note_on_c,1,60,81
2,50846837,Note_off_c,1,60,0
2,50960267,Note_off_c,1,60,0
2,50960744,Note_on_c,1,60,81
2,50974634,Note_off_c,1,60,0
2,51059836,Note_on_c,1,60,81
2,51059905,Note_off_c,1,60,0
2,51060017,Note_on_c,1,60,81
2,51060103,Note_off_c,1,60,0
2,51102220,Note_on_c,1,60,81
2,51107221,Note_on_c,1,60,81
2,51107331,Note_off_c,1,60,0
2,51148086,Note_off_c,1,60,0
2,51157787,Note_on_c,1,60,81
2,51158471,Note_off_c,1,60,0
2,51195094,Note_on_c,1,60,81
2,51235096,Note_off_c,1,60,0
2,51236272,Note_on_c,1,60,81
2,51250602,Note_on_c,1,60,81
2,51251472,Note_off_c,1,60,0
2,51264915,Note_on_c,1,60,81
2,51266074,Note_off_c,1,60,0
2,51273447,Note_off_c,1,60,0
2,51287257,Note_on_c,1,60,81
2,51329653,Note_on_c,1,60,81
2,51335324,Note_off_c,1,60,0
2,51345116,Note_off_c,1,60,0
2,51354262,Note_on_c,1,60,81
2,51372269,Note_on_c,1,60,81
2,51373224,Note_off_c,1,60,0
2,51382307,Note_on_c,1,60,81
2,51382414,Note_off_c,1,60,0
2,51461720,Note_on_c,1,60,81
2,51463416,Note_off_c,1,60,0
2,51518308,Note_on_c,1,60,81
2,51519266,Note_off_c,1,60,0
2,51538624,Note_on_c,1,60,81
2,51538729,Note_off_c,1,60,0
2,51561629,Note_off_c,1,60,0
2,51561865,Note_on_c,1,60,81
2,51577178,Note_on_c,1,60,81
2,51594897,Note_off_c,1,60,0
2,51707137,Note_on_c,1,60,81
2,51708137,Note_off_c,1,60,0
2,51709061,Note_on_c,1,60,81
2,51709940,Note_off_c,1,60,0
2,51724774,Note_on_c,1,60,81
2,51724896,Note_off_c,1,60,0
2,51789190,Note_on_c,1,60,81
2,51793933,Note_on_c,1,60,81
2,51798427,Note_off_c,1,60,0
2,51799154,Note_off_c,1,60,0
2,51801027,Note_on_c,1,60,81
2,51801307,Note_off_c,1,60,0
2,51836343,Note_on_c,1,60,81
2,51836402,Note_off_c,1,60,0
2,51859777,Note_on_c,1,60,81
2,51860135,Note_off_c,1,60,0
2,51878805,Note_off_c,1,60,0
2,51907955,Note_on_c,1,60,81
2,51973409,Note_on_c,1,60,81
2,51973535,Note_off_c,1,60,0
2,51980472,Note_on_c,1,60,81
2,51980814,Note_off_c,1,60,0
2,51990700,Note_off_c,1,60,0
2,51995739,Note_on_c,1,60,81
2,51996039,Note_off_c,1,60,0
2,52020130,Note_on_c,1,60,81
2,52020152,Note_on_c,1,60,81
2,52032102,Note_on_c,1,60,81
2,52033350,Note_off_c,1,60,0
2,52033390,Note_on_c,1,60,81
2,52033810,Note_off_c,1,60,0
2,52044279,Note_off_c,1,60,0
2,52050917,Note_on_c,1,60,81
2,52052683,Note_off_c,1,60,0
2,52055191,Note_off_c,1,60,0
2,52056198,Note_on_c,1,60,81
2,52090716,Note_off_c,1,60,0
2,52142088,Note_on_c,1,60,81
2,52150103,Note_on_c,1,60,81
2,52150419,Note_off_c,1,60,0
2,52160260,Note_on_c,1,60,81
2,52160600,Note_off_c,1,60,0
2,52162185,Note_on_c,1,60,81
2,52163026,Note_off_c,1,60,0
2,52179847,Note_on_c,1,60,81
2,52180553,Note_off_c,1,60,0
2,52189915,Note_on_c,1,60,81
2,52190309,Note_off_c,1,60,0
2,52252061,Note_on_c,1,60,81
2,52252773,Note_off_c,1,60,0
2,52253620,Note_on_c,1,60,81
2,52254176,Note_off_c,1,60,0
2,52345722,Note_on_c,1,60,81
2,52348671,Note_off_c,1,60,0
2,52353486,Note_on_c,1,60,81
2,52353877,Note_off_c,1,60,0
2,52365442,Note_on_c,1,60,81
2,52366205,Note_off_c,1,60,0
2,52367865,Note_off_c,1,60,0
2,52368676,Note_on_c,1,60,81
2,52369244,Note_off_c,1,60,0
2,52372828,Note_on_c,1,60,81
2,52404423,Note_off_c,1,60,0
2,52404601,Note_on_c,1,60,81
2,52408281,Note_on_c,1,60,81
2,52420836,Note_off_c,1,60,0
2,52553487,Note_off_c,1,60,0
2,52554817,Note_on_c,1,60,81
2,52555273,Note_off_c,1,60,0
2,52573113,Note_on_c,1,60,81
2,52573816,Note_off_c,1,60,0
2,52602370,Note_on_c,1,60,81
2,52609051,Note_off_c,1,60,0
2,52633167,Note_on_c,1,60,81
2,52669683,Note_off_c,1,60,0
2,52684448,Note_on_c,1,60,81
2,52698347,Note_off_c,1,60,0
2,52709121,Note_on_c,1,60,81
2,52709442,Note_off_c,1,60,0
2,52714398,Note_on_c,1,60,81
2,52714695,Note_off_c,1,60,0
2,52726452,Note_on_c,1,60,81
2,52754321,Note_on_c,1,60,81
2,52754462,Note_off_c,1,60,0
2,52772193,Note_on_c,1,60,81
2,52772648,Note_off_c,1,60,0
2,52805107,Note_on_c,1,60,81
2,52805212,Note_off_c,1,60,0
2,52827336,Note_off_c,1,60,0
2,52842510,Note_on_c,1,60,81
2,52881215,Note_on_c,1,60,81
2,52881730,Note_off_c,1,60,0
2,52894998,Note_off_c,1,60,0
2,52895909,Note_on_c,1,60,81
2,52920421,Note_on_c,1,60,81
2,52920596,Note_off_c,1,60,0
2,52925248,Note_on_c,1,60,81
2,52925423,Note_off_c,1,60,0
2,52927212,Note_off_c,1,60,0
2,52927275,Note_on_c,1,60,81
2,52928673,Note_on_c,1,60,81
2,52928772,Note_off_c,1,60,0
2,52934929,Note_on_c,1,60,81
2,52935017,Note_off_c,1,60,0
2,52940313,Note_on_c,1,60,81
2,52940413,Note_off_c,1,60,0
2,52943535,Note_on_c,1,60,81
2,52943930,Note_off_c,1,60,0
2,52993200,Note_on_c,1,60,81
2,52993702,Note_off_c,1,60,0
2,52994725,Note_on_c,1,60,81
2,52996026,Note_off_c,1,60,0
2,53051698,Note_off_c,1,60,0
2,53062051,Note_on_c,1,60,81
2,53069937,Note_on_c,1,60,81
2,53073109,Note_on_c,1,60,81
2,53073389,Note_off_c,1,60,0
2,53085501,Note_off_c,1,60,0
2,53085502,Note_off_c,1,60,0
2,53087178,Note_on_c,1,60,81
2,53114575,Note_on_c,1,60,81
2,53118609,Note_off_c,1,60,0
2,53142638,Note_off_c,1,60,0
2,53180920,Note_on_c,1,60,81
2,53186900,Note_off_c,1,60,0
2,53196791,Note_on_c,1,60,81
2,53209782,Note_on_c,1,60,81
2,53213775,Note_off_c,1,60,0
2,53214098,Note_on_c,1,60,81
2,53214197,Note_off_c,1,60,0
2,53220634,Note_off_c,1,60,0
2,53220662,Note_on_c,1,60,81
2,53224253,Note_off_c,1,60,0
2,53226899,Note_on_c,1,60,81
2,53238518,Note_off_c,1,60,0
2,53238549,Note_on_c,1,60,81
2,53242363,Note_on_c,1,60,81
2,53246482,Note_off_c,1,60,0
2,53267934,Note_on_c,1,60,81
2,53268601,Note_off_c,1,60,0
2,53288023,Note_on_c,1,60,81
2,53289706,Note_off_c,1,60,0
2,53304535,Note_on_c,1,60,81
2,53307462,Note_off_c,1,60,0
2,53328232,Note_on_c,1,60,81
2,53328469,Note_off_c,1,60,0
2,53336509,Note_off_c,1,60,0
2,53344030,Note_on_c,1,60,81
2,53348487,Note_on_c,1,60,81
2,53349233,Note_off_c,1,60,0
2,53365473,Note_off_c,1,60,0
2,53366655,Note_on_c,1,60,81
2,53368245,Note_off_c,1,60,0
2,53413148,Note_on_c,1,60,81
2,53440020,Note_off_c,1,60,0
2,53441267,Note_on_c,1,60,81
2,53441346,Note_off_c,1,60,0
2,53459398,Note_on_c,1,60,81
2,53467488,Note_off_c,1,60,0
2,53506236,Note_on_c,1,60,81
2,53688748,Note_on_c,1,60,81
2,53688812,Note_off_c,1,60,0
2,53739164,Note_off_c,1,60,0
2,53765477,Note_on_c,1,60,81
2,53771017,Note_on_c,1,60,81
2,53771153,Note_off_c,1,60,0
2,53838463,Note_off_c,1,60,0
2,53841546,Note_on_c,1,60,81
2,53841832,Note_off_c,1,60,0
2,53851718,Note_on_c,1,60,81
2,53889798,Note_off_c,1,60,0
2,53891238,Note_on_c,1,60,81
2,53911086,Note_off_c,1,60,0
2,53916573,Note_on_c,1,60,81
2,53945699,Note_off_c,1,60,0
2,53946084,Note_on_c,1,60,81
2,53968168,Note_off_c,1,60,0
2,53974968,Note_on_c,1,60,81
2,53976031,Note_off_c,1,60,0
2,54007297,Note_on_c,1,60,81
2,54018186,Note_off_c,1,60,0
2,54026680,Note_on_c,1,60,81
2,54033125,Note_on_c,1,60,81
2,54034880,Note_off_c,1,60,0
2,54053504,Note_off_c,1,60,0
2,54053583,Note_on_c,1,60,81
2,54054078,Note_on_c,1,60,81
2,54054154,Note_off_c,1,60,0
2,54089855,Note_on_c,1,60,81
2,54090093,Note_off_c,1,60,0
2,54099967,Note_on_c,1,60,81
2,54100224,Note_off_c,1,60,0
2,54112519,Note_off_c,1,60,0
2,54132685,Note_on_c,1,60,81
2,54132967,Note_on_c,1,60,81
2,54137745,Note_on_c,1,60,81
2,54142980,Note_off_c,1,60,0
2,54153770,Note_off_c,1,60,0
2,54169650,Note_on_c,1,60,81
2,54184040,Note_on_c,1,60,81
2,54200036,Note_off_c,1,60,0
2,54200073,Note_off_c,1,60,0
2,54225432,Note_on_c,1,60,81
2,54225464,Note_off_c,1,60,0
2,54236439,Note_on_c,1,60,81
2,54239063,Note_off_c,1,60,0
2,54285404,Note_on_c,1,60,81
2,54287371,Note_off_c,1,60,0
2,54413479,Note_off_c,1,60,0
2,54416255,Note_on_c,1,60,81
2,54420860,Note_off_c,1,60,0
2,54514416,Note_on_c,1,60,81
2,54516411,Note_on_c,1,60,81
2,54517259,Note_off_c,1,60,0
2,54517383,Note_off_c,1,60,0
2,54524823,Note_on_c,1,60,81
2,54524931,Note_off_c,1,60,0
2,54536795,Note_on_c,1,60,81
2,54537758,Note_off_c,1,60,0
2,54542256,Note_on_c,1,60,81
2,54609180,Note_on_c,1,60,81
2,54621476,Note_on_c,1,60,81
2,54623556,Note_off_c,1,60,0
2,54628438,Note_off_c,1,60,0
2,54639192,Note_off_c,1,60,0
2,54641753,Note_on_c,1,60,81
2,54641785,Note_on_c,1,60,81
2,54710266,Note_off_c,1,60,0
2,54715860,Note_on_c,1,60,81
2,54742308,Note_off_c,1,60,0
2,54742657,Note_off_c,1,60,0
2,54756897,Note_on_c,1,60,81
2,54764523,Note_off_c,1,60,0
2,54779711,Note_on_c,1,60,81
2,54792884,Note_on_c,1,60,81
2,54794905,Note_off_c,1,60,0
2,54801323,Note_off_c,1,60,0
2,54806062,Note_on_c,1,60,81
2,54842252,Note_off_c,1,60,0
2,54849626,Note_on_c,1,60,81
2,54874671,Note_on_c,1,60,81
2,54883664,Note_off_c,1,60,0
2,54886811,Note_on_c,1,60,81
2,54887195,Note_off_c,1,60,0
2,54887562,Note_on_c,1,60,81
2,54888850,Note_off_c,1,60,0
2,54974458,Note_off_c,1,60,0
2,54974899,Note_on_c,1,60,81
2,54980464,Note_off_c,1,60,0
2,54980627,Note_on_c,1,60,81
2,54980949,Note_on_c,1,60,81
2,54992274,Note_off_c,1,60,0
2,54992288,Note_off_c,1,60,0
2,54998932,Note_on_c,1,60,81
2,55017172,Note_off_c,1,60,0
2,55039446,Note_on_c,1,60,81
2,55064852,Note_off_c,1,60,0
2,55066358,Note_on_c,1,60,81
2,55215364,Note_off_c,1,60,0
2,55217644,Note_on_c,1,60,81
2,55222378,Note_on_c,1,60,81
2,55223372,Note_off_c,1,60,0
2,55225640,Note_on_c,1,60,81
2,55225723,Note_off_c,1,60,0
2,55324691,Note_off_c,1,60,0
2,55329287,Note_on_c,1,60,81
2,55367465,Note_on_c,1,60,81
2,55368774,Note_off_c,1,60,0
2,55372709,Note_on_c,1,60,81
2,55373316,Note_off_c,1,60,0
2,55376525,Note_on_c,1,60,81
2,55376852,Note_off_c,1,60,0
2,55398513,Note_on_c,1,60,81
2,55398620,Note_off_c,1,60,0
2,55484870,Note_on_c,1,60,81
2,55484972,Note_off_c,1,60,0
2,55868253,Note_on_c,1,60,81
2,55915602,Note_on_c,1,60,81
2,55938713,Note_on_c,1,60,81
2,55939280,Note_off_c,1,60,0
2,55944980,Note_off_c,1,60,0
2,55950119,Note_off_c,1,60,0
2,56070513,Note_off_c,1,60,0
2,56145720,Note_on_c,1,60,81
2,56154544,Note_on_c,1,60,81
2,56155224,Note_off_c,1,60,0
2,56173432,Note_on_c,1,60,81
2,56207566,Note_on_c,1,60,81
2,56208456,Note_off_c,1,60,0
2,56414934,Note_on_c,1,60,81
2,56417137,Note_off_c,1,60,0
2,56477687,Note_off_c,1,60,0
2,56494760,Note_on_c,1,60,81
2,56524495,Note_off_c,1,60,0
2,56538451,Note_on_c,1,60,81
2,56538911,Note_off_c,1,60,0
2,56585611,Note_on_c,1,60,81
2,56586242,Note_off_c,1,60,0
2,56619408,Note_on_c,1,60,81
2,56619549,Note_off_c,1,60,0
2,56645301,Note_off_c,1,60,0
2,56645313,Note_on_c,1,60,81
2,56715335,Note_off_c,1,60,0
2,56718788,Note_on_c,1,60,81
2,56819696,Note_off_c,1,60,0
2,56823678,Note_on_c,1,60,81
2,56826920,Note_off_c,1,60,0
2,56854796,Note_on_c,1,60,81
2,56918223,Note_off_c,1,60,0
2,56929206,Note_on_c,1,60,81
2,56963885,Note_on_c,1,60,81
2,56966140,Note_off_c,1,60,0
2,56994777,Note_on_c,1,60,81
2,56996757,Note_off_c,1,60,0
2,57386575,Note_on_c,1,60,81
2,57387450,Note_off_c,1,60,0
2,57605846,Note_on_c,1,60,81
2,57606206,Note_off_c,1,60,0
2,57860531,Note_on_c,1,60,81
2,57880905,Note_off_c,1,60,0
2,58047888,Note_on_c,1,60,81
2,58049335,Note_off_c,1,60,0
2,58056132,Note_on_c,1,60,81
2,58056480,Note_off_c,1,60,0
2,58060138,Note_on_c,1,60,81
2,58080274,Note_off_c,1,60,0
2,58084418,Note_on_c,1,60,81
2,58084559,Note_off_c,1,60,0
2,58228681,Note_on_c,1,60,81
2,58229003,Note_off_c,1,60,0
2,58415383,Note_on_c,1,60,81
2,58546167,Note_on_c,1,60,81
2,58546734,Note_off_c,1,60,0
2,58546802,Note_off_c,1,60,0
2,58552912,Note_on_c,1,60,81
2,58553333,Note_off_c,1,60,0
2,58563897,Note_off_c,1,60,0
2,58565630,Note_on_c,1,60,81
2,58565932,Note_off_c,1,60,0
2,58575432,Note_on_c,1,60,81
2,58577252,Note_off_c,1,60,0
2,58630840,Note_on_c,1,60,81
2,58631530,Note_off_c,1,60,0
2,58643439,Note_on_c,1,60,81
2,58700077,Note_off_c,1,60,0
2,58715608,Note_on_c,1,60,81
2,58771295,Note_off_c,1,60,0
2,58776844,Note_on_c,1,60,81
2,58784048,Note_off_c,1,60,0
2,58784383,Note_on_c,1,60,81
2,58812807,Note_on_c,1,60,81
2,58813342,Note_off_c,1,60,0
2,58838447,Note_on_c,1,60,81
2,58851254,Note_off_c,1,60,0
2,58882867,Note_on_c,1,60,81
2,58901109,Note_off_c,1,60,0
2,58931897,Note_off_c,1,60,0
2,58933642,Note_on_c,1,60,81
2,58999675,Note_on_c,1,60,81
2,59000494,Note_off_c,1,60,0
2,59054396,Note_on_c,1,60,81
2,59055998,Note_on_c,1,60,81
2,59056049,Note_off_c,1,60,0
2,59078116,Note_off_c,1,60,0
2,59131931,Note_on_c,1,60,81
2,59240555,Note_off_c,1,60,0
2,59289302,Note_on_c,1,60,81
2,59289640,Note_off_c,1,60,0
2,59296491,Note_off_c,1,60,0
2,59296637,Note_on_c,1,60,81
2,59733226,Note_on_c,1,60,81
2,59733296,Note_off_c,1,60,0
2,59754746,Note_on_c,1,60,81
2,59789182,Note_off_c,1,60,0
2,59810647,Note_off_c,1,60,0
2,59814785,Note_on_c,1,60,81
2,59876322,Note_off_c,1,60,0
2,59893307,Note_on_c,1,60,81
2,59926773,Note_off_c,1,60,0
2,59974756,Note_on_c,1,60,81
2,59975054,Note_off_c,1,60,0
2,59987268,Note_on_c,1,60,81
2,60073770,Note_off_c,1,60,0
2,60097414,Note_on_c,1,60,81
2,60097976,Note_off_c,1,60,0
2,60114874,Note_on_c,1,60,81
2,60149784,Note_off_c,1,60,0
2,60515715,Note_on_c,1,60,81
2,60640507,Note_off_c,1,60,0
2,60659630,Note_on_c,1,60,81
2,60865258,Note_on_c,1,60,81
2,60868009,Note_off_c,1,60,0
2,60912674,Note_on_c,1,60,81
2,61056885,Note_off_c,1,60,0
2,61248944,Note_on_c,1,60,81
2,61253510,Note_off_c,1,60,0
2,61462788,Note_off_c,1,60,0
2,61481086,Note_on_c,1,60,81
2,61533271,Note_off_c,1,60,0
2,61588048,Note_on_c,1,60,81
2,61589904,Note_off_c,1,60,0
2,61654193,Note_on_c,1,60,81
2,61654908,Note_off_c,1,60,0
2,61681045,Note_on_c,1,60,81
2,61725423,Note_off_c,1,60,0
2,61741997,Note_on_c,1,60,81
2,61742424,Note_off_c,1,60,0
2,61742476,Note_on_c,1,60,81
2,61816418,Note_on_c,1,60,81
2,61816522,Note_off_c,1,60,0
2,61852498,Note_on_c,1,60,81
2,61852602,Note_off_c,1,60,0
2,62038841,Note_on_c,1,60,81
2,62039111,Note_off_c,1,60,0
2,62072447,Note_on_c,1,60,81
2,62072741,Note_off_c,1,60,0
2,62078785,Note_on_c,1,60,81
2,62078788,Note_on_c,1,60,81
2,62078856,Note_off_c,1,60,0
2,62078859,Note_off_c,1,60,0
2,62178675,Note_off_c,1,60,0
2,62189130,Note_on_c,1,60,81
2,62189953,Note_off_c,1,60,0
2,62190521,Note_on_c,1,60,81
2,62190926,Note_off_c,1,60,0
2,62194848,Note_on_c,1,60,81
2,62208135,Note_on_c,1,60,81
2,62208442,Note_off_c,1,60,0
2,62211556,Note_on_c,1,60,81
2,62211666,Note_off_c,1,60,0
2,62212328,Note_off_c,1,60,0
2,62236164,Note_on_c,1,60,81
2,62298148,Note_on_c,1,60,81
2,62298256,Note_off_c,1,60,0
2,62319434,Note_off_c,1,60,0
2,62436296,Note_on_c,1,60,81
2,62451804,Note_off_c,1,60,0
2,62454297,Note_on_c,1,60,81
2,62530635,Note_on_c,1,60,81
2,62530873,Note_off_c,1,60,0
2,62597519,Note_on_c,1,60,81
2,62606313,Note_off_c,1,60,0
2,62607765,Note_on_c,1,60,81
2,62609584,Note_off_c,1,60,0
2,62641121,Note_on_c,1,60,81
2,62641667,Note_off_c,1,60,0
2,62688386,Note_off_c,1,60,0
2,62688481,Note_on_c,1,60,81
2,62710694,Note_off_c,1,60,0
2,62784131,Note_on_c,1,60,81
2,62865516,Note_off_c,1,60,0
2,62896008,Note_on_c,1,60,81
2,62901639,Note_off_c,1,60,0
2,62905179,Note_on_c,1,60,81
2,62905482,Note_off_c,1,60,0
2,62975750,Note_on_c,1,60,81
2,63011196,Note_on_c,1,60,81
2,63018614,Note_off_c,1,60,0
2,63022504,Note_off_c,1,60,0
2,63024206,Note_on_c,1,60,81
2,63025658,Note_off_c,1,60,0
2,63078080,Note_on_c,1,60,81
2,63079031,Note_off_c,1,60,0
2,63139249,Note_on_c,1,60,81
2,63159082,Note_on_c,1,60,81
2,63163153,Note_off_c,1,60,0
2,63186335,Note_on_c,1,60,81
2,63186450,Note_off_c,1,60,0
2,63249919,Note_on_c,1,60,81
2,63251771,Note_off_c,1,60,0
2,63262112,Note_on_c,1,60,81
2,63262707,Note_off_c,1,60,0
2,63317274,Note_off_c,1,60,0
2,63320877,Note_on_c,1,60,81
2,63322566,Note_on_c,1,60,81
2,63324441,Note_off_c,1,60,0
2,63325128,Note_off_c,1,60,0
2,63326924,Note_on_c,1,60,81
2,63326984,Note_off_c,1,60,0
2,63338262,Note_on_c,1,60,81
2,63338372,Note_off_c,1,60,0
2,63359822,Note_on_c,1,60,81
2,63361179,Note_off_c,1,60,0
2,63367574,Note_on_c,1,60,81
2,63438553,Note_off_c,1,60,0
2,63440769,Note_on_c,1,60,81
2,63487956,Note_on_c,1,60,81
2,63508204,Note_off_c,1,60,0
2,63523371,Note_on_c,1,60,81
2,63529612,Note_on_c,1,60,81
2,63529898,Note_off_c,1,60,0
2,63536710,Note_on_c,1,60,81
2,63536770,Note_off_c,1,60,0
2,63547081,Note_on_c,1,60,81
2,63548976,Note_on_c,1,60,81
2,63549112,Note_off_c,1,60,0
2,63549132,Note_on_c,1,60,81
2,63549216,Note_off_c,1,60,0
2,63549226,Note_on_c,1,60,81
2,63549284,Note_off_c,1,60,0
2,63549293,Note_on_c,1,60,81
2,63549366,Note_off_c,1,60,0
2,63549373,Note_on_c,1,60,81
2,63549463,Note_off_c,1,60,0
2,63549488,Note_on_c,1,60,81
2,63549608,Note_off_c,1,60,0
2,63550636,Note_off_c,1,60,0
2,63572693,Note_off_c,1,60,0
2,63593410,Note_on_c,1,60,81
2,63593721,Note_off_c,1,60,0
2,63655742,Note_on_c,1,60,81
2,63656047,Note_off_c,1,60,0
2,63660245,Note_off_c,1,60,0
2,63774016,Note_on_c,1,60,81
2,63788720,Note_on_c,1,60,81
2,63789304,Note_off_c,1,60,0
2,63843195,Note_on_c,1,60,81
2,63843685,Note_off_c,1,60,0
2,64028893,Note_on_c,1,60,81
2,64029000,Note_off_c,1,60,0
2,64066639,Note_on_c,1,60,81
2,64066741,Note_off_c,1,60,0
2,64094378,Note_on_c,1,60,81
2,64171342,Note_off_c,1,60,0
2,64181498,Note_off_c,1,60,0
2,64186790,Note_on_c,1,60,81
2,64192685,Note_off_c,1,60,0
2,64203622,Note_on_c,1,60,81
2,64267368,Note_off_c,1,60,0
2,64384397,Note_on_c,1,60,81
2,64384459,Note_off_c,1,60,0
2,64470128,Note_on_c,1,60,81
2,64579846,Note_on_c,1,60,81
2,64579923,Note_off_c,1,60,0
2,64693058,Note_off_c,1,60,0
2,64745094,Note_on_c,1,60,81
2,64833228,Note_on_c,1,60,81
2,64833232,Note_off_c,1,60,0
2,64918442,Note_on_c,1,60,81
2,64918683,Note_off_c,1,60,0
2,64941978,Note_on_c,1,60,81
2,64942365,Note_off_c,1,60,0
2,64972224,Note_on_c,1,60,81
2,64984607,Note_on_c,1,60,81
2,64986087,Note_off_c,1,60,0
2,65002489,Note_off_c,1,60,0
2,65003469,Note_on_c,1,60,81
2,65004087,Note_off_c,1,60,0
2,65022967,Note_on_c,1,60,81
2,65023074,Note_off_c,1,60,0
2,65057754,Note_on_c,1,60,81
2,65057842,Note_off_c,1,60,0
2,65058433,Note_on_c,1,60,81
2,65058508,Note_off_c,1,60,0
2,65067754,Note_off_c,1,60,0
2,65067807,Note_on_c,1,60,81
2,65069453,Note_off_c,1,60,0
2,65077412,Note_on_c,1,60,81
2,65078131,Note_off_c,1,60,0
2,65092391,Note_on_c,1,60,81
2,65092614,Note_off_c,1,60,0
2,65147548,Note_on_c,1,60,81
2,65154479,Note_on_c,1,60,81
2,65154650,Note_off_c,1,60,0
2,65232145,Note_off_c,1,60,0
2,65248218,Note_on_c,1,60,81
2,65279455,Note_on_c,1,60,81
2,65298754,Note_on_c,1,60,81
2,65298980,Note_off_c,1,60,0
2,65306521,Note_off_c,1,60,0
2,65415815,Note_on_c,1,60,81
2,65415871,Note_off_c,1,60,0
2,65416006,Note_off_c,1,60,0
2,65420586,Note_on_c,1,60,81
2,65420651,Note_on_c,1,60,81
2,65436007,Note_off_c,1,60,0
2,65486405,Note_on_c,1,60,81
2,65494188,Note_off_c,1,60,0
2,65576128,Note_on_c,1,60,81
2,65578380,Note_off_c,1,60,0
2,65641559,Note_off_c,1,60,0
2,65703961,Note_on_c,1,60,81
2,65714847,Note_off_c,1,60,0
2,65761057,Note_on_c,1,60,81
2,65761352,Note_off_c,1,60,0
2,65792513,Note_on_c,1,60,81
2,66042499,Note_on_c,1,60,81
2,66050718,Note_off_c,1,60,0
2,66094460,Note_on_c,1,60,81
2,66094546,Note_off_c,1,60,0
2,66374579,Note_off_c,1,60,0
2,66533266,Note_on_c,1,60,81
2,66628439,Note_on_c,1,60,81
2,66628517,Note_off_c,1,60,0
2,66665863,Note_on_c,1,60,81
2,66677027,Note_off_c,1,60,0
2,66751139,Note_off_c,1,60,0
2,66752458,Note_on_c,1,60,81
2,66779047,Note_off_c,1,60,0
2,66797739,Note_on_c,1,60,81
2,66801276,Note_off_c,1,60,0
2,66812884,Note_on_c,1,60,81
2,66826941,Note_on_c,1,60,81
2,66828558,Note_off_c,1,60,0
2,66924856,Note_off_c,1,60,0
2,66924894,Note_on_c,1,60,81
2,66925326,Note_on_c,1,60,81
2,66926027,Note_off_c,1,60,0
2,66988619,Note_off_c,1,60,0
2,66999349,Note_on_c,1,60,81
2,67054148,Note_off_c,1,60,0
2,67092164,Note_on_c,1,60,81
2,67102644,Note_on_c,1,60,81
2,67102779,Note_off_c,1,60,0
2,67121604,Note_on_c,1,60,81
2,67123956,Note_off_c,1,60,0
2,67138906,Note_on_c,1,60,81
2,67196139,Note_on_c,1,60,81
2,67196243,Note_off_c,1,60,0
2,67231853,Note_off_c,1,60,0
2,67259979,Note_off_c,1,60,0
2,67267600,Note_on_c,1,60,81
2,67267726,Note_off_c,1,60,0
2,67278051,Note_on_c,1,60,81
2,67278779,Note_off_c,1,60,0
2,67307363,Note_on_c,1,60,81
2,67398724,Note_off_c,1,60,0
2,67407809,Note_on_c,1,60,81
2,67417213,Note_on_c,1,60,81
2,67417318,Note_off_c,1,60,0
2,67430415,Note_off_c,1,60,0
2,67522298,Note_on_c,1,60,81
2,67532612,Note_off_c,1,60,0
2,67541126,Note_on_c,1,60,81
2,67541233,Note_off_c,1,60,0
2,67561072,Note_on_c,1,60,81
2,67561446,Note_off_c,1,60,0
2,67656830,Note_on_c,1,60,81
2,67657129,Note_off_c,1,60,0
2,67660154,Note_on_c,1,60,81
2,67661013,Note_off_c,1,60,0
2,67685200,Note_on_c,1,60,81
2,67688334,Note_off_c,1,60,0
2,67701474,Note_on_c,1,60,81
2,67772592,Note_on_c,1,60,81
2,67772653,Note_off_c,1,60,0
2,67832296,Note_on_c,1,60,81
2,67833467,Note_off_c,1,60,0
2,68043329,Note_on_c,1,60,81
2,68044233,Note_off_c,1,60,0
2,68045885,Note_on_c,1,60,81
2,68049359,Note_on_c,1,60,81
2,68049745,Note_off_c,1,60,0
2,68051717,Note_off_c,1,60,0
2,68098472,Note_on_c,1,60,81
2,68161760,Note_on_c,1,60,81
2,68163090,Note_off_c,1,60,0
2,68183517,Note_on_c,1,60,81
2,68183610,Note_off_c,1,60,0
2,68202987,Note_off_c,1,60,0
2,68233120,Note_off_c,1,60,0
2,68242473,Note_on_c,1,60,81
2,68243055,Note_off_c,1,60,0
2,68282387,Note_on_c,1,60,81
2,68282622,Note_off_c,1,60,0
2,68375326,Note_on_c,1,60,81
2,68375663,Note_off_c,1,60,0
2,68381440,Note_on_c,1,60,81
2,68381657,Note_off_c,1,60,0
2,68428821,Note_on_c,1,60,81
2,68449954,Note_off_c,1,60,0
2,68474151,Note_on_c,1,60,81
2,68479128,Note_on_c,1,60,81
2,68483539,Note_off_c,1,60,0
2,68496675,Note_on_c,1,60,81
2,68497221,Note_off_c,1,60,0
2,68514374,Note_on_c,1,60,81
2,68514669,Note_off_c,1,60,0
2,68538627,Note_off_c,1,60,0
2,68633700,Note_on_c,1,60,81
2,68640425,Note_off_c,1,60,0
2,68679201,Note_on_c,1,60,81
2,68943452,Note_off_c,1,60,0
2,68974009,Note_on_c,1,60,81
2,69023558,Note_off_c,1,60,0
2,69055837,Note_on_c,1,60,81
2,69215834,Note_on_c,1,60,81
2,69229607,Note_off_c,1,60,0
2,69249477,Note_off_c,1,60,0
2,69433254,Note_on_c,1,60,81
2,69435409,Note_off_c,1,60,0
2,69551847,Note_on_c,1,60,81
2,69563715,Note_off_c,1,60,0
2,69567921,Note_on_c,1,60,81
2,69606854,Note_on_c,1,60,81
2,69608301,Note_off_c,1,60,0
2,69706949,Note_on_c,1,60,81
2,69710274,Note_off_c,1,60,0
2,69879591,Note_on_c,1,60,81
2,69879895,Note_off_c,1,60,0
2,69919321,Note_on_c,1,60,81
2,69920317,Note_off_c,1,60,0
2,70013981,Note_on_c,1,60,81
2,70031222,Note_off_c,1,60,0
2,70144804,Note_on_c,1,60,81
2,70151945,Note_off_c,1,60,0
2,70180143,Note_on_c,1,60,81
2,70180440,Note_off_c,1,60,0
2,70205579,Note_off_c,1,60,0
2,70205681,Note_on_c,1,60,81
2,70218588,Note_on_c,1,60,81
2,70221023,Note_off_c,1,60,0
2,70253052,Note_off_c,1,60,0
2,70258998,Note_on_c,1,60,81
2,70354734,Note_off_c,1,60,0
2,70354785,Note_on_c,1,60,81
2,70359561,Note_on_c,1,60,81
2,70360437,Note_off_c,1,60,0
2,70385339,Note_off_c,1,60,0
2,70411217,Note_on_c,1,60,81
2,70430895,Note_on_c,1,60,81
2,70431178,Note_off_c,1,60,0
2,70439851,Note_off_c,1,60,0
2,70445070,Note_on_c,1,60,81
2,70445536,Note_off_c,1,60,0
2,70530525,Note_on_c,1,60,81
2,70531492,Note_off_c,1,60,0
2,70660656,Note_on_c,1,60,81
2,70661265,Note_off_c,1,60,0
2,70706440,Note_on_c,1,60,81
2,70715932,Note_on_c,1,60,81
2,70720289,Note_off_c,1,60,0
2,70786468,Note_off_c,1,60,0
2,70852352,Note_on_c,1,60,81
2,70947378,Note_on_c,1,60,81
2,70951493,Note_off_c,1,60,0
2,71005853,Note_on_c,1,60,81
2,71006502,Note_off_c,1,60,0
2,71047816,Note_off_c,1,60,0
2,71048854,Note_on_c,1,60,81
2,71063290,Note_on_c,1,60,81
2,71067184,Note_off_c,1,60,0
2,71067630,Note_on_c,1,60,81
2,71067716,Note_off_c,1,60,0
2,71081289,Note_off_c,1,60,0
2,71081323,Note_on_c,1,60,81
2,71367053,Note_on_c,1,60,81
2,71367303,Note_off_c,1,60,0
2,71395942,Note_on_c,1,60,81
2,71489976,Note_off_c,1,60,0
2,71570955,Note_on_c,1,60,81
2,71573558,Note_off_c,1,60,0
2,71738172,Note_on_c,1,60,81
2,71738354,Note_off_c,1,60,0
2,71794231,Note_on_c,1,60,81
2,71837012,Note_off_c,1,60,0
2,72274551,Note_on_c,1,60,81
2,72275159,Note_off_c,1,60,0
2,72282539,Note_off_c,1,60,0
2,72283169,Note_on_c,1,60,81
2,72301471,Note_on_c,1,60,81
2,72301829,Note_off_c,1,60,0
2,72636546,Note_on_c,1,60,81
2,72717662,Note_on_c,1,60,81
2,72717769,Note_off_c,1,60,0
2,72753772,Note_off_c,1,60,0
2,72765030,Note_on_c,1,60,81
2,72791282,Note_off_c,1,60,0
2,72793103,Note_on_c,1,60,81
2,72854475,Note_off_c,1,60,0
2,72899240,Note_off_c,1,60,0
2,72979013,Note_on_c,1,60,81
2,72979314,Note_off_c,1,60,0
2,73104791,Note_on_c,1,60,81
2,73106282,Note_off_c,1,60,0
2,73191603,Note_on_c,1,60,81
2,73191855,Note_off_c,1,60,0
2,73305608,Note_on_c,1,60,81
2,73355253,Note_off_c,1,60,0
2,73635215,Note_on_c,1,60,81
2,73715214,Note_off_c,1,60,0
2,73749516,Note_on_c,1,60,81
2,73749623,Note_off_c,1,60,0
2,73787369,Note_on_c,1,60,81
2,73883713,Note_on_c,1,60,81
2,73883822,Note_off_c,1,60,0
2,73915340,Note_off_c,1,60,0
2,74026014,Note_on_c,1,60,81
2,74198187,Note_off_c,1,60,0
2,74198234,Note_on_c,1,60,81
2,74198237,Note_on_c,1,60,81
2,74234086,Note_off_c,1,60,0
2,74235386,Note_on_c,1,60,81
2,74341578,Note_on_c,1,60,81
2,74378802,Note_off_c,1,60,0
2,74468194,Note_on_c,1,60,81
2,74469375,Note_on_c,1,60,81
2,74469543,Note_off_c,1,60,0
2,74512611,Note_off_c,1,60,0
2,74544393,Note_off_c,1,60,0
2,74544428,Note_off_c,1,60,0
2,74568116,Note_on_c,1,60,81
2,74577429,Note_on_c,1,60,81
2,74626098,Note_off_c,1,60,0
2,74673792,Note_off_c,1,60,0
2,74698768,Note_on_c,1,60,81
2,74699333,Note_off_c,1,60,0
2,74705481,Note_on_c,1,60,81
2,74733151,Note_on_c,1,60,81
2,74733408,Note_off_c,1,60,0
2,74766678,Note_off_c,1,60,0
2,74963313,Note_on_c,1,60,81
2,74965118,Note_off_c,1,60,0
2,75122517,Note_on_c,1,60,81
2,75123927,Note_off_c,1,60,0
2,75127829,Note_on_c,1,60,81
2,75128433,Note_on_c,1,60,81
2,75129973,Note_on_c,1,60,81
2,75132576,Note_off_c,1,60,0
2,75133058,Note_off_c,1,60,0
2,75161533,Note_off_c,1,60,0
2,75183044,Note_on_c,1,60,81
2,75183147,Note_off_c,1,60,0
2,75202128,Note_on_c,1,60,81
2,75521561,Note_on_c,1,60,81
2,75522231,Note_off_c,1,60,0
2,75538014,Note_on_c,1,60,81
2,75538119,Note_off_c,1,60,0
2,75582098,Note_on_c,1,60,81
2,75582555,Note_off_c,1,60,0
2,75611114,Note_off_c,1,60,0
2,75641177,Note_on_c,1,60,81
2,75724049,Note_off_c,1,60,0
2,75724430,Note_on_c,1,60,81
2,75743422,Note_on_c,1,60,81
2,75744776,Note_off_c,1,60,0
2,75786196,Note_on_c,1,60,81
2,75787071,Note_on_c,1,60,81
2,75787150,Note_off_c,1,60,0
2,75787575,Note_off_c,1,60,0
2,75787888,Note_on_c,1,60,81
2,75787972,Note_off_c,1,60,0
2,75789476,Note_on_c,1,60,81
2,75789548,Note_off_c,1,60,0
2,75795086,Note_off_c,1,60,0
2,75796881,Note_on_c,1,60,81
2,75913242,Note_off_c,1,60,0
2,75918872,Note_on_c,1,60,81
2,75926453,Note_on_c,1,60,81
2,75932404,Note_off_c,1,60,0
2,76019356,Note_off_c,1,60,0
2,76041690,Note_on_c,1,60,81
2,76066349,Note_off_c,1,60,0
2,76074745,Note_on_c,1,60,81
2,76353582,Note_on_c,1,60,81
2,76354246,Note_off_c,1,60,0
2,76634603,Note_off_c,1,60,0
2,76636876,Note_on_c,1,60,81
2,76637339,Note_off_c,1,60,0
2,76699788,Note_on_c,1,60,81
2,76700538,Note_off_c,1,60,0
2,76753134,Note_on_c,1,60,81
2,76753240,Note_off_c,1,60,0
2,76758123,Note_on_c,1,60,81
2,76779267,Note_off_c,1,60,0
2,76867479,Note_on_c,1,60,81
2,77060142,Note_on_c,1,60,81
2,77060202,Note_off_c,1,60,0
2,77067546,Note_off_c,1,60,0
2,77067919,Note_on_c,1,60,81
2,77078482,Note_off_c,1,60,0
2,77081983,Note_on_c,1,60,81
2,77086402,Note_off_c,1,60,0
2,77088988,Note_on_c,1,60,81
2,77129113,Note_on_c,1,60,81
2,77129668,Note_off_c,1,60,0
2,77194824,Note_on_c,1,60,81
2,77195395,Note_off_c,1,60,0
2,77219430,Note_off_c,1,60,0
2,77219519,Note_on_c,1,60,81
2,77221651,Note_off_c,1,60,0
2,77248632,Note_on_c,1,60,81
2,77250826,Note_off_c,1,60,0
2,77282018,Note_on_c,1,60,81
2,77346045,Note_on_c,1,60,81
2,77349585,Note_off_c,1,60,0
2,77420324,Note_on_c,1,60,81
2,77420386,Note_off_c,1,60,0
2,77431313,Note_on_c,1,60,81
2,77437604,Note_off_c,1,60,0
2,77559966,Note_off_c,1,60,0
2,77562415,Note_on_c,1,60,81
2,77614868,Note_on_c,1,60,81
2,77614952,Note_off_c,1,60,0
2,77645323,Note_on_c,1,60,81
2,77645618,Note_off_c,1,60,0
2,77683419,Note_off_c,1,60,0
2,77695986,Note_on_c,1,60,81
2,77759852,Note_off_c,1,60,0
2,77773864,Note_on_c,1,60,81
2,77774864,Note_off_c,1,60,0
2,77779623,Note_on_c,1,60,81
2,77779903,Note_on_c,1,60,81
2,77779999,Note_off_c,1,60,0
2,77810860,Note_on_c,1,60,81
2,77811781,Note_off_c,1,60,0
2,77847109,Note_on_c,1,60,81
2,77848802,Note_off_c,1,60,0
2,77853354,Note_on_c,1,60,81
2,77853893,Note_off_c,1,60,0
2,77879540,Note_off_c,1,60,0
2,77881347,Note_on_c,1,60,81
2,77888512,Note_on_c,1,60,81
2,77889539,Note_off_c,1,60,0
2,77943895,Note_off_c,1,60,0
2,77944054,Note_on_c,1,60,81
2,77979110,Note_off_c,1,60,0
2,77979174,Note_on_c,1,60,81
2,77979541,Note_on_c,1,60,81
2,78004345,Note_on_c,1,60,81
2,78004554,Note_off_c,1,60,0
2,78017964,Note_off_c,1,60,0
2,78022564,Note_on_c,1,60,81
2,78024861,Note_off_c,1,60,0
2,78043382,Note_on_c,1,60,81
2,78044148,Note_off_c,1,60,0
2,78088987,Note_on_c,1,60,81
2,78089083,Note_off_c,1,60,0
2,78091498,Note_on_c,1,60,81
2,78092054,Note_off_c,1,60,0
2,78094806,Note_on_c,1,60,81
2,78094915,Note_off_c,1,60,0
2,78138444,Note_off_c,1,60,0
2,78170480,Note_on_c,1,60,81
2,78171237,Note_off_c,1,60,0
2,78229598,Note_on_c,1,60,81
2,78303883,Note_on_c,1,60,81
2,78317156,Note_on_c,1,60,81
2,78317263,Note_off_c,1,60,0
2,78369464,Note_off_c,1,60,0
2,78375163,Note_on_c,1,60,81
2,78375268,Note_off_c,1,60,0
2,78540701,Note_off_c,1,60,0
2,78619901,Note_on_c,1,60,81
2,78646145,Note_off_c,1,60,0
2,78649795,Note_on_c,1,60,81
2,78664078,Note_off_c,1,60,0
2,78666271,Note_on_c,1,60,81
2,78666695,Note_off_c,1,60,0
2,78749072,Note_on_c,1,60,81
2,78750659,Note_off_c,1,60,0
2,78889763,Note_on_c,1,60,81
2,79054944,Note_on_c,1,60,81
2,79056055,Note_off_c,1,60,0
2,79282124,Note_off_c,1,60,0
2,79323768,Note_on_c,1,60,81
2,79323768,Note_on_c,1,60,81
2,79324852,Note_off_c,1,60,0
2,79324863,Note_off_c,1,60,0
2,79325007,Note_on_c,1,60,81
2,79346445,Note_off_c,1,60,0
2,79488643,Note_on_c,1,60,81
2,79493813,Note_off_c,1,60,0
2,79521079,Note_on_c,1,60,81
2,79522203,Note_off_c,1,60,0
2,79967732,Note_on_c,1,60,81
2,80051404,Note_off_c,1,60,0
2,80092102,Note_on_c,1,60,81
2,80093237,Note_off_c,1,60,0
2,80114942,Note_on_c,1,60,81
2,80116918,Note_off_c,1,60,0
2,80124003,Note_on_c,1,60,81
2,80124361,Note_off_c,1,60,0
2,80283351,Note_on_c,1,60,81
2,80283970,Note_off_c,1,60,0
2,80373363,Note_on_c,1,60,81
2,80374621,Note_off_c,1,60,0
2,80451082,Note_on_c,1,60,81
2,80452004,Note_off_c,1,60,0
2,80464300,Note_on_c,1,60,81
2,80464718,Note_off_c,1,60,0
2,80495902,Note_on_c,1,60,81
2,80496233,Note_off_c,1,60,0
2,80534977,Note_on_c,1,60,81
2,80535754,Note_on_c,1,60,81
2,80584363,Note_off_c,1,60,0
2,80646801,Note_off_c,1,60,0
2,81080789,Note_on_c,1,60,81
2,81081171,Note_off_c,1,60,0
2,81098266,Note_on_c,1,60,81
2,81099005,Note_off_c,1,60,0
2,81208567,Note_on_c,1,60,81
2,81209210,Note_off_c,1,60,0
2,81209833,Note_on_c,1,60,81
2,81222076,Note_off_c,1,60,0
2,81251788,Note_on_c,1,60,81
2,81252096,Note_off_c,1,60,0
2,81306146,Note_on_c,1,60,81
2,81426455,Note_on_c,1,60,81
2,81427605,Note_off_c,1,60,0
2,81501793,Note_on_c,1,60,81
2,81503468,Note_off_c,1,60,0
2,81505098,Note_on_c,1,60,81
2,81506296,Note_off_c,1,60,0
2,81513879,Note_on_c,1,60,81
2,81557120,Note_on_c,1,60,81
2,81557702,Note_off_c,1,60,0
2,81557832,Note_off_c,1,60,0
2,81585940,Note_on_c,1,60,81
2,81596156,Note_on_c,1,60,81
2,81596506,Note_off_c,1,60,0
2,81625713,Note_off_c,1,60,0
2,81721692,Note_on_c,1,60,81
2,81723068,Note_off_c,1,60,0
2,81993932,Note_off_c,1,60,0
2,82212412,Note_on_c,1,60,81
2,82848205,Note_off_c,1,60,0
2,82903182,Note_on_c,1,60,81
2,82970819,Note_on_c,1,60,81
2,82986208,Note_off_c,1,60,0
2,83166815,Note_off_c,1,60,0
2,83397554,Note_on_c,1,60,81
2,83425353,Note_off_c,1,60,0
2,83445966,Note_on_c,1,60,81
2,83480024,Note_off_c,1,60,0
2,83575775,Note_on_c,1,60,81
2,83790279,Note_on_c,1,60,81
2,83801465,Note_off_c,1,60,0
2,83861038,Note_off_c,1,60,0
2,83865023,Note_on_c,1,60,81
2,83979117,Note_on_c,1,60,81
2,83984300,Note_off_c,1,60,0
2,83999150,Note_off_c,1,60,0
2,84015864,Note_on_c,1,60,81
2,84018371,Note_off_c,1,60,0
2,84038528,Note_on_c,1,60,81
2,84065031,Note_off_c,1,60,0
2,84076330,Note_on_c,1,60,81
2,84077931,Note_off_c,1,60,0
2,84078061,Note_on_c,1,60,81
2,84085740,Note_on_c,1,60,81
2,84086233,Note_off_c,1,60,0
2,84238498,Note_off_c,1,60,0
2,84244333,Note_on_c,1,60,81
2,84244577,Note_off_c,1,60,0
2,84277320,Note_on_c,1,60,81
2,84277457,Note_off_c,1,60,0
2,84298365,Note_on_c,1,60,81
2,84344677,Note_on_c,1,60,81
2,84349939,Note_off_c,1,60,0
2,84363705,Note_on_c,1,60,81
2,84389957,Note_off_c,1,60,0
2,84397831,Note_off_c,1,60,0
2,84398483,Note_on_c,1,60,81
2,84415018,Note_off_c,1,60,0
2,84477038,Note_on_c,1,60,81
2,84479157,Note_off_c,1,60,0
2,84479258,Note_on_c,1,60,81
2,84498322,Note_on_c,1,60,81
2,84498349,Note_on_c,1,60,81
2,84498352,Note_off_c,1,60,0
2,84506299,Note_on_c,1,60,81
2,84506581,Note_off_c,1,60,0
2,84549610,Note_on_c,1,60,81
2,84556688,Note_off_c,1,60,0
2,84566194,Note_off_c,1,60,0
2,84574128,Note_on_c,1,60,81
2,84574480,Note_off_c,1,60,0
2,84583620,Note_off_c,1,60,0
2,84607098,Note_on_c,1,60,81
2,84610697,Note_off_c,1,60,0
2,84628229,Note_on_c,1,60,81
2,84635020,Note_off_c,1,60,0
2,84636157,Note_on_c,1,60,81
2,84637106,Note_off_c,1,60,0
2,84643705,Note_on_c,1,60,81
2,84690803,Note_off_c,1,60,0
2,84785426,Note_on_c,1,60,81
2,84786714,Note_off_c,1,60,0
2,84811601,Note_on_c,1,60,81
2,84893206,Note_off_c,1,60,0
2,84925582,Note_on_c,1,60,81
2,84997113,Note_off_c,1,60,0
2,84999146,Note_on_c,1,60,81
2,85018081,Note_on_c,1,60,81
2,85048500,Note_off_c,1,60,0
2,85133138,Note_off_c,1,60,0
2,85133793,Note_on_c,1,60,81
2,85133873,Note_off_c,1,60,0
2,85152486,Note_on_c,1,60,81
2,85154203,Note_off_c,1,60,0
2,85156888,Note_on_c,1,60,81
2,85201016,Note_off_c,1,60,0
2,85249952,Note_on_c,1,60,81
2,85259672,Note_off_c,1,60,0
2,85264295,Note_on_c,1,60,81
2,85264402,Note_off_c,1,60,0
2,85265775,Note_on_c,1,60,81
2,85276387,Note_on_c,1,60,81
2,85276632,Note_off_c,1,60,0
2,85318480,Note_on_c,1,60,81
2,85435174,Note_on_c,1,60,81
2,85435284,Note_off_c,1,60,0
2,85448124,Note_off_c,1,60,0
2,85467294,Note_on_c,1,60,81
2,85467660,Note_off_c,1,60,0
2,85482280,Note_on_c,1,60,81
2,85578250,Note_off_c,1,60,0
2,85578363,Note_off_c,1,60,0
2,85578499,Note_on_c,1,60,81
2,85578742,Note_off_c,1,60,0
2,85580760,Note_on_c,1,60,81
2,85584589,Note_off_c,1,60,0
2,85592279,Note_on_c,1,60,81
2,85592356,Note_off_c,1,60,0
2,85599130,Note_on_c,1,60,81
2,85600734,Note_off_c,1,60,0
2,85649416,Note_on_c,1,60,81
2,85708433,Note_off_c,1,60,0
2,85729232,Note_on_c,1,60,81
2,85883679,Note_on_c,1,60,81
2,85883798,Note_off_c,1,60,0
2,86029853,Note_on_c,1,60,81
2,86030589,Note_off_c,1,60,0
2,86156943,Note_off_c,1,60,0
2,86288703,Note_on_c,1,60,81
2,86320711,Note_off_c,1,60,0
2,86346823,Note_on_c,1,60,81
2,86357631,Note_on_c,1,60,81
2,86357687,Note_off_c,1,60,0
2,86396342,Note_off_c,1,60,0
2,86404175,Note_on_c,1,60,81
2,86404866,Note_off_c,1,60,0
2,86424170,Note_on_c,1,60,81
2,86456553,Note_off_c,1,60,0
2,86468367,Note_on_c,1,60,81
2,86500259,Note_off_c,1,60,0
2,86547077,Note_on_c,1,60,81
2,86552624,Note_on_c,1,60,81
2,86553342,Note_off_c,1,60,0
2,86571180,Note_on_c,1,60,81
2,86580754,Note_off_c,1,60,0
2,86634272,Note_on_c,1,60,81
2,86655376,Note_off_c,1,60,0
2,86696311,Note_off_c,1,60,0
2,86703501,Note_on_c,1,60,81
2,86704462,Note_off_c,1,60,0
2,86704569,Note_on_c,1,60,81
2,86748184,Note_off_c,1,60,0
2,86784912,Note_on_c,1,60,81
2,86785467,Note_off_c,1,60,0
2,86821557,Note_on_c,1,60,81
2,86834169,Note_off_c,1,60,0
2,86862444,Note_on_c,1,60,81
2,86914424,Note_off_c,1,60,0
2,86914634,Note_on_c,1,60,81
2,86932198,Note_on_c,1,60,81
2,86934891,Note_off_c,1,60,0
2,86993008,Note_on_c,1,60,81
2,87044934,Note_on_c,1,60,81
2,87045871,Note_off_c,1,60,0
2,87045874,Note_on_c,1,60,81
2,87046700,Note_off_c,1,60,0
2,87109982,Note_off_c,1,60,0
2,87129764,Note_on_c,1,60,81
2,87169198,Note_off_c,1,60,0
2,87169204,Note_off_c,1,60,0
2,87212668,Note_on_c,1,60,81
2,87264741,Note_off_c,1,60,0
2,87328879,Note_on_c,1,60,81
2,87348923,Note_off_c,1,60,0
2,87353520,Note_on_c,1,60,81
2,87371683,Note_off_c,1,60,0
2,87453239,Note_on_c,1,60,81
2,87453373,Note_off_c,1,60,0
2,87620802,Note_on_c,1,60,81
2,87805285,Note_on_c,1,60,81
2,87808372,Note_off_c,1,60,0
2,88313152,Note_on_c,1,60,81
2,88313302,Note_off_c,1,60,0
2,88462935,Note_on_c,1,60,81
2,88464079,Note_off_c,1,60,0
2,88477827,Note_on_c,1,60,81
2,88478114,Note_off_c,1,60,0
2,88498308,Note_on_c,1,60,81
2,88498676,Note_off_c,1,60,0
2,88519999,Note_on_c,1,60,81
2,88520170,Note_off_c,1,60,0
2,88577879,Note_on_c,1,60,81
2,88578201,Note_off_c,1,60,0
2,88684221,Note_on_c,1,60,81
2,88685204,Note_off_c,1,60,0
2,88816778,Note_on_c,1,60,81
2,88816885,Note_off_c,1,60,0
2,88829101,Note_on_c,1,60,81
2,88829419,Note_off_c,1,60,0
2,88836255,Note_off_c,1,60,0
2,88852632,Note_on_c,1,60,81
2,88891944,Note_off_c,1,60,0
2,88923369,Note_on_c,1,60,81
2,88923844,Note_off_c,1,60,0
2,88935772,Note_on_c,1,60,81
2,88979455,Note_on_c,1,60,81
2,88992953,Note_off_c,1,60,0
2,88992960,Note_off_c,1,60,0
2,89006678,Note_on_c,1,60,81
2,89020245,Note_on_c,1,60,81
2,89020365,Note_off_c,1,60,0
2,89022894,Note_off_c,1,60,0
2,89051881,Note_on_c,1,60,81
2,89065360,Note_off_c,1,60,0
2,89104284,Note_on_c,1,60,81
2,89104767,Note_off_c,1,60,0
2,89106131,Note_on_c,1,60,81
2,89127159,Note_on_c,1,60,81
2,89127432,Note_off_c,1,60,0
2,89128431,Note_on_c,1,60,81
2,89131741,Note_on_c,1,60,81
2,89144695,Note_off_c,1,60,0
2,89150456,Note_off_c,1,60,0
2,89176009,Note_off_c,1,60,0
2,89181143,Note_on_c,1,60,81
2,89198713,Note_on_c,1,60,81
2,89198942,Note_off_c,1,60,0
2,89203279,Note_on_c,1,60,81
2,89203464,Note_off_c,1,60,0
2,89207040,Note_off_c,1,60,0
2,89256188,Note_on_c,1,60,81
2,89260581,Note_on_c,1,60,81
2,89269754,Note_off_c,1,60,0
2,89272860,Note_off_c,1,60,0
2,89289675,Note_on_c,1,60,81
2,89290337,Note_off_c,1,60,0
2,89324521,Note_on_c,1,60,81
2,89334880,Note_off_c,1,60,0
2,89364058,Note_on_c,1,60,81
2,89388160,Note_off_c,1,60,0
2,89394032,Note_on_c,1,60,81
2,89394665,Note_off_c,1,60,0
2,89407678,Note_on_c,1,60,81
2,89426243,Note_off_c,1,60,0
2,89427532,Note_on_c,1,60,81
2,89524828,Note_on_c,1,60,81
2,89525472,Note_off_c,1,60,0
2,89579591,Note_on_c,1,60,81
2,89579654,Note_off_c,1,60,0
2,89581290,Note_on_c,1,60,81
2,89597861,Note_off_c,1,60,0
2,89629724,Note_on_c,1,60,81
2,89633003,Note_off_c,1,60,0
2,89633071,Note_on_c,1,60,81
2,89633139,Note_on_c,1,60,81
2,89661211,Note_on_c,1,60,81
2,89661353,Note_off_c,1,60,0
2,89676386,Note_off_c,1,60,0
2,89769903,Note_off_c,1,60,0
2,89788913,Note_on_c,1,60,81
2,89790492,Note_off_c,1,60,0
2,89820173,Note_on_c,1,60,81
2,89820868,Note_off_c,1,60,0
2,89821013,Note_on_c,1,60,81
2,89933250,Note_off_c,1,60,0
2,89936611,Note_off_c,1,60,0
2,89939600,Note_on_c,1,60,81
2,89940147,Note_off_c,1,60,0
2,89987712,Note_on_c,1,60,81
2,89987944,Note_off_c,1,60,0
2,89993592,Note_on_c,1,60,81
2,89994321,Note_off_c,1,60,0
2,89995109,Note_on_c,1,60,81
2,90035533,Note_off_c,1,60,0
2,90045997,Note_on_c,1,60,81
2,90047109,Note_off_c,1,60,0
2,90242087,Note_on_c,1,60,81
2,90253455,Note_on_c,1,60,81
2,90253559,Note_off_c,1,60,0
2,90284188,Note_off_c,1,60,0
2,90388192,Note_on_c,1,60,81
2,90420396,Note_off_c,1,60,0
2,90510909,Note_on_c,1,60,81
2,90533472,Note_off_c,1,60,0
2,90657749,Note_on_c,1,60,81
2,90657964,Note_off_c,1,60,0
2,90711538,Note_on_c,1,60,81
2,90717302,Note_off_c,1,60,0
2,90719575,Note_on_c,1,60,81
2,90725620,Note_off_c,1,60,0
2,90769085,Note_on_c,1,60,81
2,90835659,Note_on_c,1,60,81
2,90849472,Note_off_c,1,60,0
2,90851121,Note_on_c,1,60,81
2,90851669,Note_off_c,1,60,0
2,90855253,Note_off_c,1,60,0
2,90860549,Note_on_c,1,60,81
2,90862920,Note_off_c,1,60,0
2,90892991,Note_on_c,1,60,81
2,90893612,Note_off_c,1,60,0
2,90915297,Note_on_c,1,60,81
2,91022272,Note_off_c,1,60,0
2,91023918,Note_on_c,1,60,81
2,91024804,Note_off_c,1,60,0
2,91260765,Note_on_c,1,60,81
2,91261624,Note_on_c,1,60,81
2,91261724,Note_off_c,1,60,0
2,91328368,Note_on_c,1,60,81
2,91329513,Note_off_c,1,60,0
2,91404856,Note_off_c,1,60,0
2,91500850,Note_on_c,1,60,81
2,91525764,Note_off_c,1,60,0
2,91534665,Note_on_c,1,60,81
2,91535593,Note_off_c,1,60,0
2,91600170,Note_on_c,1,60,81
2,91600321,Note_off_c,1,60,0
2,91642515,Note_on_c,1,60,81
2,91644082,Note_off_c,1,60,0
2,91680342,Note_on_c,1,60,81
2,91829773,Note_on_c,1,60,81
2,91830066,Note_off_c,1,60,0
2,91906335,Note_off_c,1,60,0
2,91949342,Note_on_c,1,60,81
2,92014426,Note_off_c,1,60,0
2,92028937,Note_on_c,1,60,81
2,92029903,Note_off_c,1,60,0
2,92029984,Note_on_c,1,60,81
2,92063538,Note_off_c,1,60,0
2,92066305,Note_on_c,1,60,81
2,92067839,Note_off_c,1,60,0
2,92074532,Note_on_c,1,60,81
2,92075411,Note_off_c,1,60,0
2,92080304,Note_on_c,1,60,81
2,92114802,Note_on_c,1,60,81
2,92115796,Note_off_c,1,60,0
2,92125300,Note_on_c,1,60,81
2,92126462,Note_off_c,1,60,0
2,92184725,Note_off_c,1,60,0
2,92189236,Note_on_c,1,60,81
2,92190707,Note_off_c,1,60,0
2,92203147,Note_on_c,1,60,81
2,92203991,Note_off_c,1,60,0
2,92217914,Note_on_c,1,60,81
2,92229017,Note_on_c,1,60,81
2,92229435,Note_off_c,1,60,0
2,92245813,Note_off_c,1,60,0
2,92246401,Note_on_c,1,60,81
2,92298987,Note_off_c,1,60,0
2,92299058,Note_on_c,1,60,81
2,92402056,Note_off_c,1,60,0
2,92402388,Note_on_c,1,60,81
2,92402685,Note_off_c,1,60,0
2,92473042,Note_on_c,1,60,81
2,92486925,Note_off_c,1,60,0
2,92508695,Note_on_c,1,60,81
2,92580475,Note_on_c,1,60,81
2,92580821,Note_off_c,1,60,0
2,92647047,Note_on_c,1,60,81
2,92647630,Note_off_c,1,60,0
2,92700818,Note_on_c,1,60,81
2,92700934,Note_off_c,1,60,0
2,92731999,Note_on_c,1,60,81
2,92733257,Note_off_c,1,60,0
2,92749174,Note_on_c,1,60,81
2,92749330,Note_off_c,1,60,0
2,92755793,Note_on_c,1,60,81
2,92756956,Note_off_c,1,60,0
2,92792404,Note_off_c,1,60,0
2,92832012,Note_on_c,1,60,81
2,92832736,Note_on_c,1,60,81
2,92837288,Note_on_c,1,60,81
2,92837383,Note_off_c,1,60,0
2,92840718,Note_on_c,1,60,81
2,92840851,Note_off_c,1,60,0
2,92841924,Note_off_c,1,60,0
2,92846058,Note_on_c,1,60,81
2,92846182,Note_off_c,1,60,0
2,92930695,Note_on_c,1,60,81
2,92934098,Note_off_c,1,60,0
2,92961522,Note_off_c,1,60,0
2,92961857,Note_on_c,1,60,81
2,92962441,Note_off_c,1,60,0
2,92969603,Note_on_c,1,60,81
2,92969710,Note_off_c,1,60,0
2,92974826,Note_on_c,1,60,81
2,92975114,Note_off_c,1,60,0
2,92978264,Note_on_c,1,60,81
2,92987367,Note_off_c,1,60,0
2,93010256,Note_on_c,1,60,81
2,93010351,Note_off_c,1,60,0
2,93026251,Note_on_c,1,60,81
2,93026542,Note_off_c,1,60,0
2,93027409,Note_on_c,1,60,81
2,93027506,Note_off_c,1,60,0
2,93079234,Note_on_c,1,60,81
2,93139079,Note_off_c,1,60,0
2,93149741,Note_on_c,1,60,81
2,93179918,Note_on_c,1,60,81
2,93180516,Note_off_c,1,60,0
2,93190739,Note_on_c,1,60,81
2,93191060,Note_off_c,1,60,0
2,93199754,Note_on_c,1,60,81
2,93199939,Note_off_c,1,60,0
2,93262185,Note_on_c,1,60,81
2,93278730,Note_off_c,1,60,0
2,93278960,Note_on_c,1,60,81
2,93279129,Note_off_c,1,60,0
2,93345906,Note_on_c,1,60,81
2,93346025,Note_off_c,1,60,0
2,93369493,Note_off_c,1,60,0
2,93384486,Note_on_c,1,60,81
2,93384998,Note_off_c,1,60,0
2,93385710,Note_on_c,1,60,81
2,93385817,Note_off_c,1,60,0
2,93448117,Note_on_c,1,60,81
2,93488332,Note_on_c,1,60,81
2,93488452,Note_off_c,1,60,0
2,93554661,Note_off_c,1,60,0
2,93561740,Note_on_c,1,60,81
2,93591971,Note_on_c,1,60,81
2,93605573,Note_off_c,1,60,0
2,93846831,Note_on_c,1,60,81
2,93846911,Note_off_c,1,60,0
2,93847150,Note_off_c,1,60,0
2,93847173,Note_on_c,1,60,81
2,93848939,Note_off_c,1,60,0
2,93866283,Note_on_c,1,60,81
2,93879918,Note_off_c,1,60,0
2,93885198,Note_on_c,1,60,81
2,93909456,Note_off_c,1,60,0
2,93921267,Note_on_c,1,60,81
2,93921667,Note_off_c,1,60,0
2,93922573,Note_on_c,1,60,81
2,93923945,Note_off_c,1,60,0
2,93924385,Note_on_c,1,60,81
2,93924716,Note_off_c,1,60,0
2,93924742,Note_on_c,1,60,81
2,93925385,Note_off_c,1,60,0
2,93925405,Note_on_c,1,60,81
2,93926031,Note_on_c,1,60,81
2,93926072,Note_off_c,1,60,0
2,93926188,Note_off_c,1,60,0
2,93926614,Note_on_c,1,60,81
2,93927569,Note_off_c,1,60,0
2,93927713,Note_on_c,1,60,81
2,93928302,Note_off_c,1,60,0
2,93934478,Note_on_c,1,60,81
2,93935244,Note_off_c,1,60,0
2,93992833,Note_on_c,1,60,81
2,94121148,Note_off_c,1,60,0
2,94145110,Note_on_c,1,60,81
2,94145619,Note_off_c,1,60,0
2,94148987,Note_on_c,1,60,81
2,94150737,Note_on_c,1,60,81
2,94151080,Note_off_c,1,60,0
2,94247818,Note_on_c,1,60,81
2,94275068,Note_off_c,1,60,0
2,94302037,Note_on_c,1,60,81
2,94303022,Note_off_c,1,60,0
2,94318478,Note_on_c,1,60,81
2,94324569,Note_off_c,1,60,0
2,94406394,Note_on_c,1,60,81
2,94406882,Note_off_c,1,60,0
2,94411036,Note_off_c,1,60,0
2,94417742,Note_on_c,1,60,81
2,94418228,Note_off_c,1,60,0
2,94418388,Note_on_c,1,60,81
2,94518666,Note_off_c,1,60,0
2,94529172,Note_on_c,1,60,81
2,94541759,Note_off_c,1,60,0
2,94541936,Note_on_c,1,60,81
2,94543654,Note_off_c,1,60,0
2,94585555,Note_on_c,1,60,81
2,94592297,Note_off_c,1,60,0
2,94613813,Note_on_c,1,60,81
2,94650543,Note_on_c,1,60,81
2,94651378,Note_off_c,1,60,0
2,94745859,Note_on_c,1,60,81
2,94745900,Note_off_c,1,60,0
2,94820341,Note_on_c,1,60,81
2,94855426,Note_off_c,1,60,0
2,94895246,Note_off_c,1,60,0
2,94896948,Note_on_c,1,60,81
2,94927223,Note_off_c,1,60,0
2,94927360,Note_on_c,1,60,81
2,94963616,Note_off_c,1,60,0
2,94974404,Note_on_c,1,60,81
2,95061595,Note_on_c,1,60,81
2,95067545,Note_off_c,1,60,0
2,95072951,Note_off_c,1,60,0
2,95117354,Note_on_c,1,60,81
2,95117922,Note_on_c,1,60,81
2,95120146,Note_on_c,1,60,81
2,95125510,Note_on_c,1,60,81
2,95125609,Note_off_c,1,60,0
2,95138554,Note_off_c,1,60,0
2,95161675,Note_on_c,1,60,81
2,95197607,Note_off_c,1,60,0
2,95234000,Note_off_c,1,60,0
2,95234209,Note_on_c,1,60,81
2,95243166,Note_on_c,1,60,81
2,95247225,Note_off_c,1,60,0
2,95247225,Note_off_c,1,60,0
2,95278940,Note_off_c,1,60,0
2,95282232,Note_on_c,1,60,81
2,95287702,Note_off_c,1,60,0
2,95310927,Note_on_c,1,60,81
2,95318263,Note_off_c,1,60,0
2,95351250,Note_on_c,1,60,81
2,95352676,Note_off_c,1,60,0
2,95356228,Note_on_c,1,60,81
2,95381000,Note_off_c,1,60,0
2,95474736,Note_on_c,1,60,81
2,95479356,Note_off_c,1,60,0
2,95510058,Note_on_c,1,60,81
2,95743095,Note_on_c,1,60,81
2,95759470,Note_off_c,1,60,0
2,95782342,Note_off_c,1,60,0
2,95937900,Note_on_c,1,60,81
2,96022890,Note_off_c,1,60,0
2,96225900,Note_on_c,1,60,81
2,96226060,Note_off_c,1,60,0
2,96254068,Note_on_c,1,60,81
2,96374125,Note_off_c,1,60,0
2,96390651,Note_on_c,1,60,81
2,96391393,Note_off_c,1,60,0
2,96418593,Note_on_c,1,60,81
2,96418933,Note_off_c,1,60,0
2,96446929,Note_on_c,1,60,81
2,96448318,Note_off_c,1,60,0
2,96583208,Note_on_c,1,60,81
2,96583527,Note_off_c,1,60,0
2,96584421,Note_on_c,1,60,81
2,96584727,Note_off_c,1,60,0
2,96678873,Note_on_c,1,60,81
2,96679620,Note_off_c,1,60,0
2,96695855,Note_on_c,1,60,81
2,96696167,Note_off_c,1,60,0
2,96721664,Note_on_c,1,60,81
2,96823738,Note_off_c,1,60,0
2,97077742,Note_on_c,1,60,81
2,97095922,Note_on_c,1,60,81
2,97322955,Note_off_c,1,60,0
2,97394153,Note_on_c,1,60,81
2,97420141,Note_off_c,1,60,0
2,97545700,Note_on_c,1,60,81
2,97546958,Note_off_c,1,60,0
2,97585861,Note_on_c,1,60,81
2,97586294,Note_off_c,1,60,0
2,97774668,Note_on_c,1,60,81
2,97775026,Note_off_c,1,60,0
2,97796920,Note_on_c,1,60,81
2,97798066,Note_off_c,1,60,0
2,97855574,Note_on_c,1,60,81
2,97856825,Note_off_c,1,60,0
2,97933473,Note_on_c,1,60,81
2,97967004,Note_on_c,1,60,81
2,97968814,Note_off_c,1,60,0
2,97995000,Note_off_c,1,60,0
2,98045241,Note_on_c,1,60,81
2,98045351,Note_off_c,1,60,0
2,98046069,Note_on_c,1,60,81
2,98046171,Note_off_c,1,60,0
2,98047172,Note_on_c,1,60,81
2,98048541,Note_off_c,1,60,0
2,98049863,Note_off_c,1,60,0
2,98052076,Note_on_c,1,60,81
2,98054592,Note_off_c,1,60,0
2,98076999,Note_on_c,1,60,81
2,98077468,Note_off_c,1,60,0
2,98210746,Note_on_c,1,60,81
2,98272658,Note_off_c,1,60,0
2,98660387,Note_on_c,1,60,81
2,98661059,Note_off_c,1,60,0
2,98661700,Note_on_c,1,60,81
2,98760500,Note_off_c,1,60,0
2,98890244,Note_on_c,1,60,81
2,99004275,Note_on_c,1,60,81
2,99005032,Note_off_c,1,60,0
2,99008217,Note_on_c,1,60,81
2,99008474,Note_off_c,1,60,0
2,99244794,Note_off_c,1,60,0
2,99264291,Note_on_c,1,60,81
2,99309590,Note_off_c,1,60,0
2,99464377,Note_on_c,1,60,81
2,99464776,Note_off_c,1,60,0
2,99472331,Note_on_c,1,60,81
2,99600995,Note_off_c,1,60,0
2,99646112,Note_on_c,1,60,81
2,99694541,Note_off_c,1,60,0
2,99698241,Note_on_c,1,60,81
2,99699178,Note_off_c,1,60,0
2,99703969,Note_on_c,1,60,81
2,99766635,Note_off_c,1,60,0
2,99784739,Note_on_c,1,60,81
2,99784885,Note_off_c,1,60,0
2,99791661,Note_on_c,1,60,81
2,99791753,Note_off_c,1,60,0
2,99842609,Note_on_c,1,60,81
2,99842761,Note_off_c,1,60,0
2,99850360,Note_on_c,1,60,81
2,99924023,Note_off_c,1,60,0
2,99968382,Note_on_c,1,60,81
2,99969350,Note_on_c,1,60,81
2,99969935,Note_off_c,1,60,0
2,99970010,Note_on_c,1,60,81
2,99978938,Note_on_c,1,60,81
2,99979045,Note_off_c,1,60,0
2,100000636,Note_on_c,1,60,81
2,100000739,Note_off_c,1,60,0
2,100035634,Note_off_c,1,60,0
2,100036631,Note_on_c,1,60,81
2,100038042,Note_off_c,1,60,0
2,100038094,Note_on_c,1,60,81
2,100057989,Note_on_c,1,60,81
2,100083321,Note_off_c,1,60,0
2,100083377,Note_off_c,1,60,0
2,100083562,Note_on_c,1,60,81
2,100084471,Note_off_c,1,60,0
2,100099238,Note_on_c,1,60,81
2,100099490,Note_off_c,1,60,0
2,100132955,Note_off_c,1,60,0
2,100133149,Note_on_c,1,60,81
2,100148447,Note_on_c,1,60,81
2,100150496,Note_off_c,1,60,0
2,100178273,Note_off_c,1,60,0
2,100186918,Note_on_c,1,60,81
2,100196815,Note_on_c,1,60,81
2,100197051,Note_off_c,1,60,0
2,100213292,Note_on_c,1,60,81
2,100213670,Note_off_c,1,60,0
2,100220487,Note_on_c,1,60,81
2,100249089,Note_on_c,1,60,81
2,100249311,Note_off_c,1,60,0
2,100249834,Note_off_c,1,60,0
2,100251527,Note_on_c,1,60,81
2,100253414,Note_off_c,1,60,0
2,100266179,Note_off_c,1,60,0
2,100266215,Note_on_c,1,60,81
2,100281240,Note_on_c,1,60,81
2,100281308,Note_off_c,1,60,0
2,100292769,Note_off_c,1,60,0
2,100331803,Note_on_c,1,60,81
2,100332617,Note_off_c,1,60,0
2,100344476,Note_on_c,1,60,81
2,100345000,Note_on_c,1,60,81
2,100345242,Note_off_c,1,60,0
2,100393032,Note_on_c,1,60,81
2,100394026,Note_off_c,1,60,0
2,100462398,Note_on_c,1,60,81
2,100485997,Note_off_c,1,60,0
2,100520277,Note_off_c,1,60,0
2,100538138,Note_on_c,1,60,81
2,100542021,Note_off_c,1,60,0
2,100586648,Note_on_c,1,60,81
2,100587431,Note_off_c,1,60,0
2,100627048,Note_on_c,1,60,81
2,100628229,Note_on_c,1,60,81
2,100640613,Note_off_c,1,60,0
2,100641723,Note_off_c,1,60,0
2,100651946,Note_on_c,1,60,81
2,100652267,Note_off_c,1,60,0
2,100719741,Note_on_c,1,60,81
2,100739045,Note_off_c,1,60,0
2,100872371,Note_on_c,1,60,81
2,100894927,Note_on_c,1,60,81
2,100895179,Note_off_c,1,60,0
2,100895356,Note_off_c,1,60,0
2,100896075,Note_on_c,1,60,81
2,100941016,Note_on_c,1,60,81
2,100941995,Note_off_c,1,60,0
2,100981757,Note_off_c,1,60,0
2,100989622,Note_on_c,1,60,81
2,100995472,Note_on_c,1,60,81
2,100996260,Note_off_c,1,60,0
2,101025843,Note_on_c,1,60,81
2,101026088,Note_off_c,1,60,0
2,101090513,Note_off_c,1,60,0
2,101133152,Note_on_c,1,60,81
2,101133339,Note_off_c,1,60,0
2,101150598,Note_on_c,1,60,81
2,101164764,Note_off_c,1,60,0
2,101190519,Note_on_c,1,60,81
2,101190994,Note_off_c,1,60,0
2,101234554,Note_on_c,1,60,81
2,101236624,Note_off_c,1,60,0
2,101236864,Note_on_c,1,60,81
2,101243713,Note_off_c,1,60,0
2,101256273,Note_on_c,1,60,81
2,101256616,Note_off_c,1,60,0
2,101270874,Note_on_c,1,60,81
2,101271363,Note_off_c,1,60,0
2,101323336,Note_on_c,1,60,81
2,101390303,Note_off_c,1,60,0
2,101639508,Note_on_c,1,60,81
2,101728641,Note_on_c,1,60,81
2,101728737,Note_off_c,1,60,0
2,101786339,Note_on_c,1,60,81
2,101787219,Note_off_c,1,60,0
2,101787572,Note_off_c,1,60,0
2,101802559,Note_on_c,1,60,81
2,101859850,Note_on_c,1,60,81
2,101859957,Note_off_c,1,60,0
2,101882515,Note_on_c,1,60,81
2,101882894,Note_off_c,1,60,0
2,101893104,Note_on_c,1,60,81
2,101894047,Note_off_c,1,60,0
2,101964792,Note_on_c,1,60,81
2,101967614,Note_off_c,1,60,0
2,101996926,Note_off_c,1,60,0
2,102199738,Note_on_c,1,60,81
2,102389630,Note_off_c,1,60,0
2,102763321,Note_on_c,1,60,81
2,102853842,Note_off_c,1,60,0
2,102876466,Note_on_c,1,60,81
2,103100142,Note_on_c,1,60,81
2,103100704,Note_off_c,1,60,0
2,103108872,Note_off_c,1,60,0
2,103414878,Note_on_c,1,60,81
2,103415979,Note_on_c,1,60,81
2,103425465,Note_off_c,1,60,0
2,103523561,Note_on_c,1,60,81
2,103523879,Note_off_c,1,60,0
2,103525511,Note_off_c,1,60,0
2,103525690,Note_on_c,1,60,81
2,103553814,Note_on_c,1,60,81
2,103555239,Note_off_c,1,60,0
2,103569552,Note_on_c,1,60,81
2,103570674,Note_off_c,1,60,0
2,103579534,Note_off_c,1,60,0
2,103617426,Note_on_c,1,60,81
2,103625780,Note_off_c,1,60,0
2,103655759,Note_on_c,1,60,81
2,103664554,Note_off_c,1,60,0
2,103668070,Note_on_c,1,60,81
2,103668268,Note_off_c,1,60,0
2,103687414,Note_on_c,1,60,81
2,103696454,Note_off_c,1,60,0
2,103713722,Note_on_c,1,60,81
2,103719871,Note_off_c,1,60,0
2,103745322,Note_on_c,1,60,81
2,103758726,Note_off_c,1,60,0
2,103926566,Note_on_c,1,60,81
2,103927806,Note_off_c,1,60,0
2,104072982,Note_on_c,1,60,81
2,104153305,Note_on_c,1,60,81
2,104153830,Note_off_c,1,60,0
2,104226678,Note_off_c,1,60,0
2,104998405,Note_on_c,1,60,81
2,105032365,Note_off_c,1,60,0
2,105433993,Note_on_c,1,60,81
2,105434821,Note_off_c,1,60,0
2,105587574,Note_on_c,1,60,81
2,105618991,Note_off_c,1,60,0
2,105698038,Note_on_c,1,60,81
2,105698218,Note_off_c,1,60,0
2,105890692,Note_on_c,1,60,81
2,105891430,Note_off_c,1,60,0
2,105891738,Note_on_c,1,60,81
2,105893517,Note_off_c,1,60,0
2,105927619,Note_on_c,1,60,81
2,105956693,Note_on_c,1,60,81
2,106028277,Note_off_c,1,60,0
2,106080800,Note_on_c,1,60,81
2,106081379,Note_off_c,1,60,0
2,106124564,Note_off_c,1,60,0
2,106544341,Note_on_c,1,60,81
2,106544744,Note_off_c,1,60,0
2,106780222,Note_on_c,1,60,81
2,106780435,Note_off_c,1,60,0
2,106802754,Note_on_c,1,60,81
2,106803427,Note_off_c,1,60,0
2,106804473,Note_on_c,1,60,81
2,106806032,Note_off_c,1,60,0
2,106818223,Note_on_c,1,60,81
2,106865316,Note_off_c,1,60,0
2,107056673,Note_on_c,1,60,81
2,107067636,Note_off_c,1,60,0
2,107140006,Note_on_c,1,60,81
2,107140234,Note_on_c,1,60,81
2,107140802,Note_off_c,1,60,0
2,107484923,Note_off_c,1,60,0
2,107505202,Note_on_c,1,60,81
2,107505448,Note_off_c,1,60,0
2,107571160,Note_on_c,1,60,81
2,107897222,Note_on_c,1,60,81
2,107897304,Note_off_c,1,60,0
2,107964442,Note_on_c,1,60,81
2,107965180,Note_off_c,1,60,0
2,107994607,Note_off_c,1,60,0
2,108040262,Note_on_c,1,60,81
2,108076020,Note_off_c,1,60,0
2,108134042,Note_on_c,1,60,81
2,108199925,Note_on_c,1,60,81
2,108200412,Note_on_c,1,60,81
2,108200849,Note_off_c,1,60,0
2,108201491,Note_off_c,1,60,0
2,108202743,Note_off_c,1,60,0
2,108222463,Note_on_c,1,60,81
2,108244081,Note_off_c,1,60,0
2,108261195,Note_on_c,1,60,81
2,108272942,Note_on_c,1,60,81
2,108273689,Note_off_c,1,60,0
2,108337853,Note_off_c,1,60,0
2,108375837,Note_on_c,1,60,81
2,108383735,Note_on_c,1,60,81
2,108410814,Note_off_c,1,60,0
2,108420688,Note_on_c,1,60,81
2,108421295,Note_off_c,1,60,0
2,108433184,Note_off_c,1,60,0
2,108450281,Note_on_c,1,60,81
2,108471920,Note_off_c,1,60,0
2,108495474,Note_on_c,1,60,81
2,108501144,Note_off_c,1,60,0
2,108502357,Note_on_c,1,60,81
2,108503455,Note_off_c,1,60,0
2,108508573,Note_on_c,1,60,81
2,108509243,Note_off_c,1,60,0
2,108560088,Note_on_c,1,60,81
2,108644900,Note_off_c,1,60,0
2,108648289,Note_on_c,1,60,81
2,108661526,Note_off_c,1,60,0
2,108661532,Note_on_c,1,60,81
2,108666246,Note_off_c,1,60,0
2,108692309,Note_on_c,1,60,81
2,108702928,Note_off_c,1,60,0
2,108712907,Note_on_c,1,60,81
2,108734255,Note_on_c,1,60,81
2,108734725,Note_off_c,1,60,0
2,108742749,Note_off_c,1,60,0
2,108746673,Note_on_c,1,60,81
2,108766840,Note_on_c,1,60,81
2,108767584,Note_off_c,1,60,0
2,108809523,Note_off_c,1,60,0
2,108815897,Note_on_c,1,60,81
2,108857216,Note_on_c,1,60,81
2,108858524,Note_off_c,1,60,0
2,108875349,Note_on_c,1,60,81
2,108881884,Note_on_c,1,60,81
2,108934545,Note_off_c,1,60,0
2,108963484,Note_off_c,1,60,0
2,108963527,Note_off_c,1,60,0
2,108970213,Note_on_c,1,60,81
2,108986962,Note_on_c,1,60,81
2,108987245,Note_off_c,1,60,0
2,108992281,Note_on_c,1,60,81
2,108992836,Note_off_c,1,60,0
2,109030066,Note_on_c,1,60,81
2,109030319,Note_off_c,1,60,0
2,109042113,Note_off_c,1,60,0
2,109046827,Note_on_c,1,60,81
2,109047482,Note_off_c,1,60,0
2,109062495,Note_on_c,1,60,81
2,109076012,Note_off_c,1,60,0
2,109087970,Note_on_c,1,60,81
2,109090763,Note_on_c,1,60,81
2,109090858,Note_off_c,1,60,0
2,109096934,Note_off_c,1,60,0
2,109100192,Note_on_c,1,60,81
2,109100192,Note_on_c,1,60,81
2,109100612,Note_off_c,1,60,0
2,109100619,Note_off_c,1,60,0
2,109103534,Note_on_c,1,60,81
2,109104766,Note_off_c,1,60,0
2,109105950,Note_on_c,1,60,81
2,109113678,Note_on_c,1,60,81
2,109113857,Note_off_c,1,60,0
2,109206781,Note_off_c,1,60,0
2,109213917,Note_on_c,1,60,81
2,109238182,Note_off_c,1,60,0
2,109249538,Note_on_c,1,60,81
2,109275751,Note_off_c,1,60,0
2,109279555,Note_on_c,1,60,81
2,109283186,Note_off_c,1,60,0
2,109292364,Note_on_c,1,60,81
2,109307011,Note_off_c,1,60,0
2,109309567,Note_on_c,1,60,81
2,109397918,Note_off_c,1,60,0
2,109399041,Note_on_c,1,60,81
2,109426448,Note_off_c,1,60,0
2,109466545,Note_on_c,1,60,81
2,109482134,Note_off_c,1,60,0
2,109483478,Note_on_c,1,60,81
2,109492804,Note_off_c,1,60,0
2,109494051,Note_on_c,1,60,81
2,109502932,Note_off_c,1,60,0
2,109504177,Note_on_c,1,60,81
2,109509738,Note_off_c,1,60,0
2,109539871,Note_on_c,1,60,81
2,109539905,Note_on_c,1,60,81
2,109543837,Note_off_c,1,60,0
2,109548406,Note_off_c,1,60,0
2,109548614,Note_on_c,1,60,81
2,109591533,Note_on_c,1,60,81
2,109591640,Note_off_c,1,60,0
2,109596224,Note_on_c,1,60,81
2,109597781,Note_off_c,1,60,0
2,109598892,Note_on_c,1,60,81
2,109598967,Note_off_c,1,60,0
2,109600195,Note_off_c,1,60,0
2,109603090,Note_on_c,1,60,81
2,109616103,Note_on_c,1,60,81
2,109619929,Note_off_c,1,60,0
2,109628416,Note_on_c,1,60,81
2,109630305,Note_off_c,1,60,0
2,109632051,Note_off_c,1,60,0
2,109651369,Note_on_c,1,60,81
2,109652099,Note_off_c,1,60,0
2,109656098,Note_on_c,1,60,81
2,109668021,Note_on_c,1,60,81
2,109674836,Note_off_c,1,60,0
2,109687813,Note_on_c,1,60,81
2,109693116,Note_on_c,1,60,81
2,109693742,Note_off_c,1,60,0
2,109709039,Note_off_c,1,60,0
2,109709551,Note_off_c,1,60,0
2,109711779,Note_on_c,1,60,81
2,109725819,Note_on_c,1,60,81
2,109733931,Note_on_c,1,60,81
2,109741038,Note_off_c,1,60,0
2,109750079,Note_on_c,1,60,81
2,109764027,Note_off_c,1,60,0
2,109775252,Note_off_c,1,60,0
2,109775428,Note_off_c,1,60,0
2,109810641,Note_on_c,1,60,81
2,109810998,Note_off_c,1,60,0
2,109828354,Note_on_c,1,60,81
2,109871436,Note_off_c,1,60,0
2,109884175,Note_on_c,1,60,81
2,109886264,Note_off_c,1,60,0
2,109895972,Note_on_c,1,60,81
2,109897861,Note_off_c,1,60,0
2,109910241,Note_on_c,1,60,81
2,109930992,Note_off_c,1,60,0
2,109984764,Note_on_c,1,60,81
2,110023742,Note_off_c,1,60,0
2,110031576,Note_on_c,1,60,81
2,110058339,Note_on_c,1,60,81
2,110059869,Note_on_c,1,60,81
2,110062555,Note_off_c,1,60,0
2,110070672,Note_off_c,1,60,0
2,110074641,Note_off_c,1,60,0
2,110082687,Note_on_c,1,60,81
2,110109719,Note_off_c,1,60,0
2,110112442,Note_on_c,1,60,81
2,110113947,Note_off_c,1,60,0
2,110150493,Note_on_c,1,60,81
2,110165947,Note_on_c,1,60,81
2,110172489,Note_off_c,1,60,0
2,110177642,Note_on_c,1,60,81
2,110178719,Note_off_c,1,60,0
2,110202202,Note_off_c,1,60,0
2,110208833,Note_on_c,1,60,81
2,110209987,Note_off_c,1,60,0
2,110210313,Note_on_c,1,60,81
2,110256753,Note_on_c,1,60,81
2,110256930,Note_off_c,1,60,0
2,110272483,Note_on_c,1,60,81
2,110272607,Note_off_c,1,60,0
2,110283100,Note_off_c,1,60,0
2,110286374,Note_on_c,1,60,81
2,110338505,Note_on_c,1,60,81
2,110339171,Note_off_c,1,60,0
2,110346681,Note_off_c,1,60,0
2,110347115,Note_on_c,1,60,81
2,110362850,Note_on_c,1,60,81
2,110370153,Note_on_c,1,60,81
2,110373003,Note_off_c,1,60,0
2,110391082,Note_off_c,1,60,0
2,110401248,Note_on_c,1,60,81
2,110407942,Note_off_c,1,60,0
2,110443817,Note_off_c,1,60,0
2,110451148,Note_on_c,1,60,81
2,110456504,Note_on_c,1,60,81
2,110457354,Note_off_c,1,60,0
2,110457358,Note_off_c,1,60,0
2,110472542,Note_on_c,1,60,81
2,110473755,Note_on_c,1,60,81
2,110474980,Note_off_c,1,60,0
2,110480751,Note_on_c,1,60,81
2,110487679,Note_on_c,1,60,81
2,110488663,Note_off_c,1,60,0
2,110490258,Note_off_c,1,60,0
2,110491277,Note_off_c,1,60,0
2,110517216,Note_on_c,1,60,81
2,110519175,Note_off_c,1,60,0
2,110519836,Note_on_c,1,60,81
2,110631474,Note_off_c,1,60,0
2,110653559,Note_on_c,1,60,81
2,110657040,Note_off_c,1,60,0
2,110657966,Note_on_c,1,60,81
2,110671641,Note_off_c,1,60,0
2,110672464,Note_on_c,1,60,81
2,110674940,Note_off_c,1,60,0
2,110680507,Note_on_c,1,60,81
2,110682674,Note_off_c,1,60,0
2,110764407,Note_on_c,1,60,81
2,110764506,Note_off_c,1,60,0
2,110848076,Note_on_c,1,60,81
2,110848941,Note_off_c,1,60,0
2,110853938,Note_on_c,1,60,81
2,110854892,Note_off_c,1,60,0
2,110871187,Note_on_c,1,60,81
2,110899922,Note_off_c,1,60,0
2,110936368,Note_on_c,1,60,81
2,110942353,Note_off_c,1,60,0
2,110943466,Note_on_c,1,60,81
2,110947189,Note_on_c,1,60,81
2,110952848,Note_off_c,1,60,0
2,110963301,Note_on_c,1,60,81
2,110963965,Note_off_c,1,60,0
2,110964649,Note_off_c,1,60,0
2,111007699,Note_on_c,1,60,81
2,111015530,Note_off_c,1,60,0
2,111041833,Note_on_c,1,60,81
2,111041925,Note_off_c,1,60,0
2,111117162,Note_on_c,1,60,81
2,111139626,Note_on_c,1,60,81
2,111140203,Note_off_c,1,60,0
2,111181373,Note_on_c,1,60,81
2,111181491,Note_off_c,1,60,0
2,111184414,Note_on_c,1,60,81
2,111185061,Note_off_c,1,60,0
2,111185104,Note_off_c,1,60,0
2,111185968,Note_on_c,1,60,81
2,111200770,Note_on_c,1,60,81
2,111204535,Note_off_c,1,60,0
2,111243440,Note_off_c,1,60,0
2,111250253,Note_on_c,1,60,81
2,111256715,Note_off_c,1,60,0
2,111280058,Note_on_c,1,60,81
2,111286116,Note_off_c,1,60,0
2,111290850,Note_on_c,1,60,81
2,111317599,Note_on_c,1,60,81
2,111320566,Note_off_c,1,60,0
2,111323832,Note_on_c,1,60,81
2,111323981,Note_off_c,1,60,0
2,111324075,Note_off_c,1,60,0
2,111346599,Note_on_c,1,60,81
2,111353013,Note_off_c,1,60,0
2,111353274,Note_on_c,1,60,81
2,111367409,Note_off_c,1,60,0
2,111380290,Note_on_c,1,60,81
2,111380571,Note_off_c,1,60,0
2,111382859,Note_on_c,1,60,81
2,111391819,Note_off_c,1,60,0
2,111414318,Note_on_c,1,60,81
2,111427735,Note_off_c,1,60,0
2,111431045,Note_on_c,1,60,81
2,111433068,Note_off_c,1,60,0
2,111437513,Note_on_c,1,60,81
2,111438037,Note_off_c,1,60,0
2,111438637,Note_on_c,1,60,81
2,111439889,Note_on_c,1,60,81
2,111441364,Note_off_c,1,60,0
2,111446797,Note_on_c,1,60,81
2,111446908,Note_off_c,1,60,0
2,111448863,Note_on_c,1,60,81
2,111449256,Note_off_c,1,60,0
2,111462773,Note_off_c,1,60,0
2,111473791,Note_on_c,1,60,81
2,111478512,Note_off_c,1,60,0
2,111483347,Note_on_c,1,60,81
2,111490316,Note_on_c,1,60,81
2,111490423,Note_off_c,1,60,0
2,111499428,Note_on_c,1,60,81
2,111503633,Note_off_c,1,60,0
2,111542217,Note_on_c,1,60,81
2,111563962,Note_off_c,1,60,0
2,111599654,Note_on_c,1,60,81
2,111608723,Note_off_c,1,60,0
2,111648290,Note_on_c,1,60,81
2,111649544,Note_off_c,1,60,0
2,111650430,Note_on_c,1,60,81
2,111650537,Note_off_c,1,60,0
2,111680629,Note_on_c,1,60,81
2,111716691,Note_off_c,1,60,0
2,111739578,Note_on_c,1,60,81
2,111745298,Note_on_c,1,60,81
2,111747798,Note_off_c,1,60,0
2,111754831,Note_on_c,1,60,81
2,111755537,Note_off_c,1,60,0
2,111755824,Note_off_c,1,60,0
2,111770661,Note_on_c,1,60,81
2,111775602,Note_off_c,1,60,0
2,111853761,Note_on_c,1,60,81
2,111856905,Note_off_c,1,60,0
2,111909335,Note_on_c,1,60,81
2,111910931,Note_off_c,1,60,0
2,111989668,Note_off_c,1,60,0
2,111989769,Note_on_c,1,60,81
2,111998842,Note_off_c,1,60,0
2,112176835,Note_on_c,1,60,81
2,112360625,Note_off_c,1,60,0
2,112363280,Note_on_c,1,60,81
2,112363581,Note_off_c,1,60,0
2,112371003,Note_on_c,1,60,81
2,112371107,Note_off_c,1,60,0
2,112396213,Note_on_c,1,60,81
2,112461769,Note_on_c,1,60,81
2,112461833,Note_off_c,1,60,0
2,112463456,Note_off_c,1,60,0
2,112466540,Note_on_c,1,60,81
2,112517798,Note_on_c,1,60,81
2,112518441,Note_off_c,1,60,0
2,112523513,Note_on_c,1,60,81
2,112530165,Note_off_c,1,60,0
2,112619804,Note_on_c,1,60,81
2,112620825,Note_off_c,1,60,0
2,112625905,Note_on_c,1,60,81
2,112626224,Note_off_c,1,60,0
2,112634718,Note_on_c,1,60,81
2,112634784,Note_off_c,1,60,0
2,112671616,Note_off_c,1,60,0
2,112673140,Note_on_c,1,60,81
2,112693687,Note_on_c,1,60,81
2,112696621,Note_off_c,1,60,0
2,112700756,Note_off_c,1,60,0
2,112701126,Note_on_c,1,60,81
2,112702613,Note_on_c,1,60,81
2,112707434,Note_off_c,1,60,0
2,112709993,Note_on_c,1,60,81
2,112711433,Note_off_c,1,60,0
2,112715332,Note_off_c,1,60,0
2,112715671,Note_on_c,1,60,81
2,112717796,Note_off_c,1,60,0
2,112718904,Note_on_c,1,60,81
2,112727235,Note_off_c,1,60,0
2,112748094,Note_on_c,1,60,81
2,112748475,Note_off_c,1,60,0
2,112820169,Note_on_c,1,60,81
2,112849820,Note_on_c,1,60,81
2,112850643,Note_off_c,1,60,0
2,112877878,Note_off_c,1,60,0
2,112890766,Note_on_c,1,60,81
2,112890922,Note_off_c,1,60,0
2,112911846,Note_on_c,1,60,81
2,112923422,Note_on_c,1,60,81
2,112924337,Note_off_c,1,60,0
2,112956414,Note_on_c,1,60,81
2,112957593,Note_off_c,1,60,0
2,112978609,Note_on_c,1,60,81
2,112999636,Note_off_c,1,60,0
2,113011686,Note_on_c,1,60,81
2,113047055,Note_off_c,1,60,0
2,113073113,Note_off_c,1,60,0
2,113073197,Note_on_c,1,60,81
2,113125320,Note_on_c,1,60,81
2,113126883,Note_off_c,1,60,0
2,113132260,Note_off_c,1,60,0
2,113168993,Note_on_c,1,60,81
2,113169403,Note_off_c,1,60,0
2,113198824,Note_on_c,1,60,81
2,113199258,Note_off_c,1,60,0
2,113390514,Note_on_c,1,60,81
2,113449699,Note_on_c,1,60,81
2,113450728,Note_off_c,1,60,0
2,113576756,Note_on_c,1,60,81
2,113576899,Note_off_c,1,60,0
2,113685923,Note_off_c,1,60,0
2,113696830,Note_on_c,1,60,81
2,113698883,Note_on_c,1,60,81
2,113699631,Note_off_c,1,60,0
2,113759489,Note_off_c,1,60,0
2,113761831,Note_on_c,1,60,81
2,113812378,Note_on_c,1,60,81
2,113812476,Note_off_c,1,60,0
2,113813810,Note_on_c,1,60,81
2,113856634,Note_on_c,1,60,81
2,113870159,Note_off_c,1,60,0
2,113871753,Note_off_c,1,60,0
2,113876815,Note_on_c,1,60,81
2,113887581,Note_off_c,1,60,0
2,113894193,Note_on_c,1,60,81
2,113901237,Note_off_c,1,60,0
2,113905201,Note_off_c,1,60,0
2,113905212,Note_on_c,1,60,81
2,113914086,Note_off_c,1,60,0
2,113923999,Note_on_c,1,60,81
2,113929323,Note_on_c,1,60,81
2,113929495,Note_off_c,1,60,0
2,113977869,Note_off_c,1,60,0
2,113979390,Note_on_c,1,60,81
2,114001432,Note_on_c,1,60,81
2,114002235,Note_off_c,1,60,0
2,114032392,Note_on_c,1,60,81
2,114034511,Note_off_c,1,60,0
2,114035572,Note_off_c,1,60,0
2,114089290,Note_on_c,1,60,81
2,114153880,Note_off_c,1,60,0
2,114206426,Note_on_c,1,60,81
2,114262278,Note_off_c,1,60,0
2,114279010,Note_on_c,1,60,81
2,114279275,Note_off_c,1,60,0
2,114353985,Note_on_c,1,60,81
2,114355178,Note_off_c,1,60,0
2,114392789,Note_on_c,1,60,81
2,114459933,Note_on_c,1,60,81
2,114460360,Note_off_c,1,60,0
2,114468314,Note_on_c,1,60,81
2,114469282,Note_off_c,1,60,0
2,114490723,Note_on_c,1,60,81
2,114490832,Note_off_c,1,60,0
2,114511203,Note_off_c,1,60,0
2,114535994,Note_on_c,1,60,81
2,114537840,Note_off_c,1,60,0
2,114567556,Note_on_c,1,60,81
2,114581629,Note_off_c,1,60,0
2,114582847,Note_on_c,1,60,81
2,114670422,Note_off_c,1,60,0
2,114673089,Note_on_c,1,60,81
2,114695618,Note_off_c,1,60,0
2,114697626,Note_on_c,1,60,81
2,114697924,Note_off_c,1,60,0
2,114704468,Note_on_c,1,60,81
2,114716771,Note_off_c,1,60,0
2,114716912,Note_on_c,1,60,81
2,114727719,Note_on_c,1,60,81
2,114727824,Note_off_c,1,60,0
2,114758676,Note_off_c,1,60,0
2,114769478,Note_on_c,1,60,81
2,114780685,Note_off_c,1,60,0
2,114837226,Note_on_c,1,60,81
2,114851453,Note_off_c,1,60,0
2,114854862,Note_on_c,1,60,81
2,114995370,Note_off_c,1,60,0
2,115029825,Note_on_c,1,60,81
2,115034302,Note_off_c,1,60,0
2,115048010,Note_on_c,1,60,81
2,115089503,Note_off_c,1,60,0
2,115099579,Note_on_c,1,60,81
2,115102686,Note_off_c,1,60,0
2,115270766,Note_on_c,1,60,81
2,115283033,Note_on_c,1,60,81
2,115283763,Note_off_c,1,60,0
2,115285903,Note_on_c,1,60,81
2,115338770,Note_off_c,1,60,0
2,115356663,Note_on_c,1,60,81
2,115364897,Note_off_c,1,60,0
2,115368072,Note_off_c,1,60,0
2,115471940,Note_on_c,1,60,81
2,115476027,Note_off_c,1,60,0
2,115479427,Note_on_c,1,60,81
2,115481572,Note_off_c,1,60,0
2,115556825,Note_on_c,1,60,81
2,115557475,Note_off_c,1,60,0
2,115564600,Note_on_c,1,60,81
2,115565432,Note_off_c,1,60,0
2,115577228,Note_on_c,1,60,81
2,115577786,Note_off_c,1,60,0
2,115606470,Note_on_c,1,60,81
2,115606768,Note_off_c,1,60,0
2,115621871,Note_on_c,1,60,81
2,115622005,Note_off_c,1,60,0
2,115641969,Note_on_c,1,60,81
2,115698224,Note_off_c,1,60,0
2,115700020,Note_on_c,1,60,81
2,115768714,Note_off_c,1,60,0
2,115836376,Note_on_c,1,60,81
2,115843917,Note_off_c,1,60,0
2,115856909,Note_on_c,1,60,81
2,115857819,Note_off_c,1,60,0
2,115904854,Note_on_c,1,60,81
2,115916496,Note_on_c,1,60,81
2,115916699,Note_off_c,1,60,0
2,115931616,Note_off_c,1,60,0
2,115976512,Note_on_c,1,60,81
2,116013812,Note_on_c,1,60,81
2,116017705,Note_off_c,1,60,0
2,116070054,Note_off_c,1,60,0
2,116111398,Note_on_c,1,60,81
2,116138149,Note_off_c,1,60,0
2,116164208,Note_on_c,1,60,81
2,116167494,Note_off_c,1,60,0
2,116278605,Note_on_c,1,60,81
2,116278821,Note_off_c,1,60,0
2,116289236,Note_on_c,1,60,81
2,116297621,Note_off_c,1,60,0
2,116372667,Note_on_c,1,60,81
2,116378436,Note_on_c,1,60,81
2,116410261,Note_off_c,1,60,0
2,116413765,Note_on_c,1,60,81
2,116413869,Note_off_c,1,60,0
2,116421301,Note_off_c,1,60,0
2,116423723,Note_on_c,1,60,81
2,116429048,Note_on_c,1,60,81
2,116433368,Note_off_c,1,60,0
2,116452535,Note_on_c,1,60,81
2,116452627,Note_off_c,1,60,0
2,116478842,Note_off_c,1,60,0
2,116493015,Note_on_c,1,60,81
2,116493349,Note_on_c,1,60,81
2,116499212,Note_off_c,1,60,0
2,116502634,Note_off_c,1,60,0
2,116514533,Note_on_c,1,60,81
2,116532935,Note_on_c,1,60,81
2,116534092,Note_off_c,1,60,0
2,116560023,Note_on_c,1,60,81
2,116560111,Note_off_c,1,60,0
2,116571039,Note_off_c,1,60,0
2,116574398,Note_on_c,1,60,81
2,116667755,Note_off_c,1,60,0
2,116671748,Note_on_c,1,60,81
2,116671827,Note_off_c,1,60,0
2,116694111,Note_on_c,1,60,81
2,116706603,Note_off_c,1,60,0
2,116713832,Note_on_c,1,60,81
2,116714835,Note_off_c,1,60,0
2,116739980,Note_on_c,1,60,81
2,116742609,Note_off_c,1,60,0
2,116754429,Note_on_c,1,60,81
2,116769229,Note_off_c,1,60,0
2,116775103,Note_on_c,1,60,81
2,116775623,Note_off_c,1,60,0
2,116909148,Note_on_c,1,60,81
2,116909531,Note_off_c,1,60,0
2,116909915,Note_on_c,1,60,81
2,116962346,Note_on_c,1,60,81
2,116962471,Note_off_c,1,60,0
2,116990353,Note_off_c,1,60,0
2,117001749,Note_on_c,1,60,81
2,117025481,Note_on_c,1,60,81
2,117036552,Note_off_c,1,60,0
2,117059490,Note_off_c,1,60,0
2,117060325,Note_on_c,1,60,81
2,117094642,Note_on_c,1,60,81
2,117094728,Note_off_c,1,60,0
2,117107453,Note_off_c,1,60,0
2,117111059,Note_on_c,1,60,81
2,117122587,Note_off_c,1,60,0
2,117138228,Note_on_c,1,60,81
2,117138609,Note_off_c,1,60,0
2,117143586,Note_on_c,1,60,81
2,117210960,Note_off_c,1,60,0
2,117243211,Note_on_c,1,60,81
2,117243508,Note_off_c,1,60,0
2,117272181,Note_on_c,1,60,81
2,117321336,Note_off_c,1,60,0
2,117364898,Note_on_c,1,60,81
2,117365473,Note_off_c,1,60,0
2,117367448,Note_on_c,1,60,81
2,117493514,Note_on_c,1,60,81
2,117495006,Note_off_c,1,60,0
2,117528872,Note_off_c,1,60,0
2,117549414,Note_on_c,1,60,81
2,117549922,Note_off_c,1,60,0
2,117596831,Note_on_c,1,60,81
2,117605770,Note_off_c,1,60,0
2,117606047,Note_on_c,1,60,81
2,117628389,Note_off_c,1,60,0
2,117640811,Note_on_c,1,60,81
2,117641639,Note_off_c,1,60,0
2,117688620,Note_on_c,1,60,81
2,117688742,Note_off_c,1,60,0
2,117700028,Note_on_c,1,60,81
2,117700242,Note_off_c,1,60,0
2,117778086,Note_on_c,1,60,81
2,117778506,Note_off_c,1,60,0
2,117863484,Note_on_c,1,60,81
2,117929621,Note_off_c,1,60,0
2,117929719,Note_on_c,1,60,81
2,117953589,Note_on_c,1,60,81
2,117966543,Note_off_c,1,60,0
2,118185228,Note_off_c,1,60,0
2,118185348,Note_on_c,1,60,81
2,118207051,Note_off_c,1,60,0
2,118264371,Note_on_c,1,60,81
2,118264489,Note_off_c,1,60,0
2,118614332,Note_on_c,1,60,81
2,118615646,Note_off_c,1,60,0
2,118712998,Note_on_c,1,60,81
2,118713678,Note_off_c,1,60,0
2,118883045,Note_on_c,1,60,81
2,118989556,Note_off_c,1,60,0
2,119000343,Note_on_c,1,60,81
2,119000617,Note_on_c,1,60,81
2,119001392,Note_off_c,1,60,0
2,119001405,Note_off_c,1,60,0
2,119031215,Note_on_c,1,60,81
2,119047404,Note_on_c,1,60,81
2,119064785,Note_off_c,1,60,0
2,119084997,Note_on_c,1,60,81
2,119085954,Note_off_c,1,60,0
2,119126538,Note_on_c,1,60,81
2,119127291,Note_off_c,1,60,0
2,119140390,Note_on_c,1,60,81
2,119140654,Note_off_c,1,60,0
2,119219313,Note_on_c,1,60,81
2,119220096,Note_off_c,1,60,0
2,119230312,Note_on_c,1,60,81
2,119275973,Note_off_c,1,60,0
2,119327398,Note_on_c,1,60,81
2,119327915,Note_off_c,1,60,0
2,119331396,Note_on_c,1,60,81
2,119331525,Note_off_c,1,60,0
2,119356182,Note_off_c,1,60,0
2,119368778,Note_on_c,1,60,81
2,119368945,Note_on_c,1,60,81
2,119370331,Note_off_c,1,60,0
2,119394130,Note_off_c,1,60,0
2,119414930,Note_on_c,1,60,81
2,119423035,Note_off_c,1,60,0
2,119434165,Note_on_c,1,60,81
2,119435080,Note_off_c,1,60,0
2,119439000,Note_on_c,1,60,81
2,119446086,Note_off_c,1,60,0
2,119462028,Note_on_c,1,60,81
2,119463021,Note_off_c,1,60,0
2,119467220,Note_on_c,1,60,81
2,119473803,Note_off_c,1,60,0
2,119495835,Note_on_c,1,60,81
2,119496841,Note_off_c,1,60,0
2,119507197,Note_on_c,1,60,81
2,119515054,Note_off_c,1,60,0
2,119533748,Note_on_c,1,60,81
2,119534746,Note_off_c,1,60,0
2,119538508,Note_on_c,1,60,81
2,119545913,Note_off_c,1,60,0
2,119558754,Note_on_c,1,60,81
2,119559774,Note_off_c,1,60,0
2,119564065,Note_on_c,1,60,81
2,119572067,Note_off_c,1,60,0
2,119596166,Note_on_c,1,60,81
2,119597179,Note_off_c,1,60,0
2,119597701,Note_on_c,1,60,81
2,119599271,Note_off_c,1,60,0
2,119601339,Note_on_c,1,60,81
2,119609250,Note_off_c,1,60,0
2,119619376,Note_on_c,1,60,81
2,119648266,Note_off_c,1,60,0
2,119648410,Note_on_c,1,60,81
2,119744218,Note_off_c,1,60,0
2,119748001,Note_on_c,1,60,81
2,119768905,Note_off_c,1,60,0
2,119794016,Note_on_c,1,60,81
2,119811580,Note_off_c,1,60,0
2,119834869,Note_on_c,1,60,81
2,119844514,Note_off_c,1,60,0
2,119853315,Note_on_c,1,60,81
2,119853748,Note_off_c,1,60,0
2,119886303,Note_on_c,1,60,81
2,119886927,Note_off_c,1,60,0
2,119893532,Note_on_c,1,60,81
2,119896515,Note_off_c,1,60,0
2,119911552,Note_on_c,1,60,81
2,120076615,Note_on_c,1,60,81
2,120077091,Note_off_c,1,60,0
2,120100779,Note_off_c,1,60,0
2,120126973,Note_on_c,1,60,81
2,120127074,Note_off_c,1,60,0
2,120150897,Note_on_c,1,60,81
2,120176520,Note_off_c,1,60,0
2,120197084,Note_on_c,1,60,81
2,120228045,Note_on_c,1,60,81
2,120228295,Note_off_c,1,60,0
2,120267333,Note_on_c,1,60,81
2,120319680,Note_off_c,1,60,0
2,120341871,Note_off_c,1,60,0
2,120354986,Note_on_c,1,60,81
2,120355148,Note_off_c,1,60,0
2,120419849,Note_on_c,1,60,81
2,120432203,Note_on_c,1,60,81
2,120434052,Note_off_c,1,60,0
2,120467739,Note_off_c,1,60,0
2,120489859,Note_on_c,1,60,81
2,120571119,Note_on_c,1,60,81
2,120571264,Note_off_c,1,60,0
2,120670126,Note_on_c,1,60,81
2,120670376,Note_off_c,1,60,0
2,120701289,Note_off_c,1,60,0
2,120723911,Note_on_c,1,60,81
2,120723948,Note_on_c,1,60,81
2,120793882,Note_off_c,1,60,0
2,120842110,Note_off_c,1,60,0
2,120849673,Note_on_c,1,60,81
2,120850818,Note_on_c,1,60,81
2,120850985,Note_off_c,1,60,0
2,120850985,Note_off_c,1,60,0
2,120889770,Note_on_c,1,60,81
2,120890530,Note_off_c,1,60,0
2,120913150,Note_on_c,1,60,81
2,120913183,Note_on_c,1,60,81
2,120914238,Note_off_c,1,60,0
2,120942599,Note_on_c,1,60,81
2,120942763,Note_off_c,1,60,0
2,120963644,Note_on_c,1,60,81
2,120977585,Note_off_c,1,60,0
2,120985691,Note_on_c,1,60,81
2,121008361,Note_on_c,1,60,81
2,121008507,Note_off_c,1,60,0
2,121009291,Note_off_c,1,60,0
2,121052167,Note_off_c,1,60,0
2,121058947,Note_on_c,1,60,81
2,121059353,Note_off_c,1,60,0
2,121087344,Note_on_c,1,60,81
2,121087527,Note_on_c,1,60,81
2,121090288,Note_on_c,1,60,81
2,121097161,Note_off_c,1,60,0
2,121097655,Note_off_c,1,60,0
2,121107174,Note_on_c,1,60,81
2,121116676,Note_off_c,1,60,0
2,121117294,Note_off_c,1,60,0
2,121118125,Note_on_c,1,60,81
2,121118194,Note_on_c,1,60,81
2,121118610,Note_off_c,1,60,0
2,121142050,Note_on_c,1,60,81
2,121142438,Note_off_c,1,60,0
2,121146826,Note_off_c,1,60,0
2,121167645,Note_on_c,1,60,81
2,121184810,Note_on_c,1,60,81
2,121185539,Note_off_c,1,60,0
2,121314946,Note_on_c,1,60,81
2,121315055,Note_off_c,1,60,0
2,121360155,Note_on_c,1,60,81
2,121392874,Note_off_c,1,60,0
2,121396753,Note_on_c,1,60,81
2,121398806,Note_off_c,1,60,0
2,121463508,Note_off_c,1,60,0
2,121494328,Note_on_c,1,60,81
2,121502343,Note_on_c,1,60,81
2,121503891,Note_off_c,1,60,0
2,121511588,Note_off_c,1,60,0
2,121518365,Note_on_c,1,60,81
2,121518829,Note_off_c,1,60,0
2,121519111,Note_on_c,1,60,81
2,121573945,Note_on_c,1,60,81
2,121575702,Note_off_c,1,60,0
2,121580524,Note_off_c,1,60,0
2,143343179,Note_on_c,1,60,81
2,143343275,Note_off_c,1,60,0
2,143354190,Note_on_c,1,60,81
2,143386122,Note_off_c,1,60,0
2,143419624,Note_on_c,1,60,81
2,143420207,Note_off_c,1,60,0
2,143439604,Note_on_c,1,60,81
2,143439714,Note_off_c,1,60,0
2,143449570,Note_on_c,1,60,81
2,143450245,Note_off_c,1,60,0
2,143461220,Note_on_c,1,60,81
2,143487771,Note_on_c,1,60,81
2,143488353,Note_off_c,1,60,0
2,143498767,Note_off_c,1,60,0
2,143498784,Note_on_c,1,60,81
2,143499102,Note_off_c,1,60,0
2,143499186,Note_on_c,1,60,81
2,143500512,Note_off_c,1,60,0
2,143541767,Note_on_c,1,60,81
2,143572834,Note_off_c,1,60,0
2,143595215,Note_on_c,1,60,81
2,143619993,Note_on_c,1,60,81
2,143620527,Note_off_c,1,60,0
2,143635641,Note_off_c,1,60,0
2,143652049,Note_on_c,1,60,81
2,143652215,Note_off_c,1,60,0
2,143699455,Note_on_c,1,60,81
2,143699619,Note_off_c,1,60,0
2,143720509,Note_on_c,1,60,81
2,143720644,Note_off_c,1,60,0
2,143729406,Note_on_c,1,60,81
2,143729570,Note_off_c,1,60,0
2,143735982,Note_on_c,1,60,81
2,143739506,Note_off_c,1,60,0
2,143745248,Note_on_c,1,60,81
2,143760669,Note_off_c,1,60,0
2,143766539,Note_on_c,1,60,81
2,143769083,Note_off_c,1,60,0
2,143784375,Note_on_c,1,60,81
2,143784671,Note_off_c,1,60,0
2,143790009,Note_on_c,1,60,81
2,143791541,Note_on_c,1,60,81
2,143791687,Note_off_c,1,60,0
2,143797108,Note_off_c,1,60,0
2,143811358,Note_on_c,1,60,81
2,143825837,Note_off_c,1,60,0
2,143846096,Note_on_c,1,60,81
2,143846504,Note_off_c,1,60,0
2,143874792,Note_on_c,1,60,81
2,143875170,Note_on_c,1,60,81
2,143883575,Note_off_c,1,60,0
2,143894543,Note_on_c,1,60,81
2,143904650,Note_off_c,1,60,0
2,143905486,Note_on_c,1,60,81
2,143905977,Note_off_c,1,60,0
2,143929993,Note_on_c,1,60,81
2,143930382,Note_off_c,1,60,0
2,143934776,Note_off_c,1,60,0
2,143955286,Note_on_c,1,60,81
2,143971986,Note_off_c,1,60,0
2,143972668,Note_on_c,1,60,81
2,143975076,Note_off_c,1,60,0
2,143975086,Note_on_c,1,60,81
2,144068350,Note_off_c,1,60,0
2,144085627,Note_on_c,1,60,81
2,144086098,Note_off_c,1,60,0
2,144168751,Note_on_c,1,60,81
2,144168850,Note_off_c,1,60,0
2,144179776,Note_on_c,1,60,81
2,144211729,Note_off_c,1,60,0
2,144227028,Note_on_c,1,60,81
2,144250326,Note_off_c,1,60,0
2,144265216,Note_on_c,1,60,81
2,144265326,Note_off_c,1,60,0
2,144274891,Note_on_c,1,60,81
2,144276483,Note_on_c,1,60,81
2,144277993,Note_off_c,1,60,0
2,144305180,Note_off_c,1,60,0
2,144372874,Note_on_c,1,60,81
2,144373634,Note_off_c,1,60,0
2,144401068,Note_on_c,1,60,81
2,144401355,Note_off_c,1,60,0
2,144412575,Note_on_c,1,60,81
2,144412740,Note_off_c,1,60,0
2,144418112,Note_on_c,1,60,81
2,144418677,Note_on_c,1,60,81
2,144419190,Note_off_c,1,60,0
2,144419192,Note_off_c,1,60,0
2,144421389,Note_on_c,1,60,81
2,144442605,Note_on_c,1,60,81
2,144443004,Note_off_c,1,60,0
2,144461676,Note_off_c,1,60,0
2,144472534,Note_on_c,1,60,81
2,144474790,Note_off_c,1,60,0
2,144523859,Note_on_c,1,60,81
2,144524021,Note_off_c,1,60,0
2,144551778,Note_on_c,1,60,81
2,144551943,Note_off_c,1,60,0
2,144560665,Note_on_c,1,60,81
2,144560829,Note_off_c,1,60,0
2,144592892,Note_on_c,1,60,81
2,144593652,Note_off_c,1,60,0
2,144627191,Note_on_c,1,60,81
2,144641370,Note_on_c,1,60,81
2,144642372,Note_off_c,1,60,0
2,144661199,Note_on_c,1,60,81
2,144679513,Note_off_c,1,60,0
2,144701049,Note_on_c,1,60,81
2,144701159,Note_off_c,1,60,0
2,144716061,Note_on_c,1,60,81
2,144754571,Note_on_c,1,60,81
2,144758298,Note_off_c,1,60,0
2,144786606,Note_off_c,1,60,0
2,144797533,Note_on_c,1,60,81
2,144797632,Note_off_c,1,60,0
2,144887264,Note_on_c,1,60,81
2,144919902,Note_off_c,1,60,0
2,144965024,Note_on_c,1,60,81
2,144965135,Note_off_c,1,60,0
2,145095528,Note_off_c,1,60,0
2,145095973,Note_on_c,1,60,81
2,145112696,Note_off_c,1,60,0
2,145139985,Note_on_c,1,60,81
2,145148375,Note_off_c,1,60,0
2,145164098,Note_on_c,1,60,81
2,145169518,Note_on_c,1,60,81
2,145169664,Note_off_c,1,60,0
2,145214850,Note_on_c,1,60,81
2,145215938,Note_off_c,1,60,0
2,145216058,Note_off_c,1,60,0
2,145233000,Note_on_c,1,60,81
2,145233519,Note_off_c,1,60,0
2,145241414,Note_on_c,1,60,81
2,145242174,Note_off_c,1,60,0
2,145269603,Note_on_c,1,60,81
2,145269890,Note_off_c,1,60,0
2,145281115,Note_on_c,1,60,81
2,145281115,Note_on_c,1,60,81
2,145281279,Note_off_c,1,60,0
2,145281462,Note_off_c,1,60,0
2,145286609,Note_on_c,1,60,81
2,145287755,Note_off_c,1,60,0
2,145289899,Note_on_c,1,60,81
2,145405567,Note_off_c,1,60,0
2,145407771,Note_on_c,1,60,81
2,145408173,Note_off_c,1,60,0
2,145431526,Note_on_c,1,60,81
2,145431693,Note_off_c,1,60,0
2,145459797,Note_on_c,1,60,81
2,145462007,Note_off_c,1,60,0
2,145465616,Note_on_c,1,60,81
2,145465780,Note_off_c,1,60,0
2,145475605,Note_on_c,1,60,81
2,145480999,Note_off_c,1,60,0
2,145507443,Note_on_c,1,60,81
2,145508607,Note_off_c,1,60,0
2,145509046,Note_on_c,1,60,81
2,145520594,Note_off_c,1,60,0
2,145572344,Note_on_c,1,60,81
2,145607858,Note_off_c,1,60,0
2,145607987,Note_on_c,1,60,81
2,145670650,Note_off_c,1,60,0
2,145670851,Note_on_c,1,60,81
2,145708148,Note_off_c,1,60,0
2,145719470,Note_on_c,1,60,81
2,145738867,Note_on_c,1,60,81
2,145739288,Note_off_c,1,60,0
2,145824087,Note_on_c,1,60,81
2,145824095,Note_off_c,1,60,0
2,145844402,Note_off_c,1,60,0
2,145845629,Note_on_c,1,60,81
2,145848521,Note_on_c,1,60,81
2,145848954,Note_off_c,1,60,0
2,145850586,Note_on_c,1,60,81
2,145850645,Note_off_c,1,60,0
2,145859836,Note_off_c,1,60,0
2,145866559,Note_on_c,1,60,81
2,145885866,Note_off_c,1,60,0
2,145891207,Note_on_c,1,60,81
2,145892846,Note_on_c,1,60,81
2,145893483,Note_off_c,1,60,0
2,145910111,Note_off_c,1,60,0
2,145911349,Note_on_c,1,60,81
2,145917713,Note_on_c,1,60,81
2,145918717,Note_off_c,1,60,0
2,145919012,Note_on_c,1,60,81
2,145921555,Note_on_c,1,60,81
2,145925341,Note_off_c,1,60,0
2,145926589,Note_on_c,1,60,81
2,145926741,Note_off_c,1,60,0
2,145927257,Note_on_c,1,60,81
2,145927678,Note_off_c,1,60,0
2,145933422,Note_on_c,1,60,81
2,145958017,Note_off_c,1,60,0
2,145959179,Note_off_c,1,60,0
2,145959440,Note_on_c,1,60,81
2,145961387,Note_on_c,1,60,81
2,145964422,Note_off_c,1,60,0
2,145964575,Note_off_c,1,60,0
2,145964689,Note_on_c,1,60,81
2,145977811,Note_off_c,1,60,0
2,145978848,Note_off_c,1,60,0
2,145992434,Note_on_c,1,60,81
2,145996579,Note_off_c,1,60,0
2,146017467,Note_on_c,1,60,81
2,146036746,Note_off_c,1,60,0
2,146050440,Note_on_c,1,60,81
2,146052080,Note_on_c,1,60,81
2,146052244,Note_off_c,1,60,0
2,146052244,Note_off_c,1,60,0
2,146052565,Note_on_c,1,60,81
2,146061952,Note_off_c,1,60,0
2,146064710,Note_on_c,1,60,81
2,146146202,Note_on_c,1,60,81
2,146229000,Note_off_c,1,60,0
2,146229041,Note_off_c,1,60,0
2,146235805,Note_on_c,1,60,81
2,146237807,Note_off_c,1,60,0
2,146288595,Note_on_c,1,60,81
2,146288696,Note_off_c,1,60,0
2,146298169,Note_on_c,1,60,81
2,146298715,Note_off_c,1,60,0
2,146321213,Note_on_c,1,60,81
2,146344005,Note_on_c,1,60,81
2,146344765,Note_off_c,1,60,0
2,146376806,Note_on_c,1,60,81
2,146376970,Note_off_c,1,60,0
2,146387201,Note_on_c,1,60,81
2,146388092,Note_off_c,1,60,0
2,146401647,Note_off_c,1,60,0
2,146409902,Note_on_c,1,60,81
2,146410062,Note_off_c,1,60,0
2,146459448,Note_on_c,1,60,81
2,146461859,Note_off_c,1,60,0
2,146472565,Note_on_c,1,60,81
2,146486649,Note_on_c,1,60,81
2,146487965,Note_off_c,1,60,0
2,146539540,Note_on_c,1,60,81
2,146539663,Note_off_c,1,60,0
2,146862728,Note_on_c,1,60,81
2,146862845,Note_off_c,1,60,0
2,146914294,Note_off_c,1,60,0
2,146938743,Note_on_c,1,60,81
2,146957116,Note_on_c,1,60,81
2,146957659,Note_off_c,1,60,0
2,146996202,Note_off_c,1,60,0
2,147001930,Note_on_c,1,60,81
2,147003618,Note_off_c,1,60,0
2,147019655,Note_on_c,1,60,81
2,147050816,Note_on_c,1,60,81
2,147052481,Note_off_c,1,60,0
2,147056593,Note_off_c,1,60,0
2,147079745,Note_on_c,1,60,81
2,147079870,Note_off_c,1,60,0
2,147082337,Note_on_c,1,60,81
2,147083578,Note_off_c,1,60,0
2,147084615,Note_on_c,1,60,81
2,147084756,Note_off_c,1,60,0
2,147099481,Note_on_c,1,60,81
2,147124285,Note_off_c,1,60,0
2,147155105,Note_on_c,1,60,81
2,147172550,Note_off_c,1,60,0
2,147172743,Note_on_c,1,60,81
2,147172754,Note_on_c,1,60,81
2,147175350,Note_on_c,1,60,81
2,147179622,Note_off_c,1,60,0
2,147203275,Note_on_c,1,60,81
2,147204932,Note_off_c,1,60,0
2,147223553,Note_on_c,1,60,81
2,147224348,Note_off_c,1,60,0
2,147242653,Note_on_c,1,60,81
2,147243050,Note_off_c,1,60,0
2,147258884,Note_on_c,1,60,81
2,147295734,Note_off_c,1,60,0
2,147295765,Note_off_c,1,60,0
2,147319109,Note_on_c,1,60,81
2,147320224,Note_off_c,1,60,0
2,147419052,Note_on_c,1,60,81
2,147419900,Note_off_c,1,60,0
2,147420198,Note_on_c,1,60,81
2,147420300,Note_off_c,1,60,0
2,147445578,Note_on_c,1,60,81
2,147446133,Note_off_c,1,60,0
2,147482237,Note_on_c,1,60,81
2,147482628,Note_off_c,1,60,0
2,147517875,Note_off_c,1,60,0
2,147541500,Note_on_c,1,60,81
2,147608330,Note_on_c,1,60,81
2,147610187,Note_off_c,1,60,0
2,147611589,Note_on_c,1,60,81
2,147611796,Note_off_c,1,60,0
2,147626216,Note_off_c,1,60,0
2,147629651,Note_on_c,1,60,81
2,147670524,Note_off_c,1,60,0
2,147689255,Note_on_c,1,60,81
2,147689537,Note_off_c,1,60,0
2,147697793,Note_on_c,1,60,81
2,147699335,Note_off_c,1,60,0
2,147756198,Note_on_c,1,60,81
2,147757184,Note_on_c,1,60,81
2,147758434,Note_off_c,1,60,0
2,147773362,Note_off_c,1,60,0
2,147777589,Note_on_c,1,60,81
2,147788953,Note_off_c,1,60,0
2,147840961,Note_on_c,1,60,81
2,147842359,Note_off_c,1,60,0
2,147902794,Note_on_c,1,60,81
2,147909269,Note_off_c,1,60,0
2,147928392,Note_on_c,1,60,81
2,147993592,Note_off_c,1,60,0
2,147993861,Note_on_c,1,60,81
2,148011798,Note_on_c,1,60,81
2,148012228,Note_off_c,1,60,0
2,148013202,Note_on_c,1,60,81
2,148014416,Note_on_c,1,60,81
2,148014583,Note_off_c,1,60,0
2,148014956,Note_off_c,1,60,0
2,148025934,Note_off_c,1,60,0
2,148038752,Note_on_c,1,60,81
2,148038916,Note_off_c,1,60,0
2,148080597,Note_on_c,1,60,81
2,148093883,Note_off_c,1,60,0
2,148102046,Note_on_c,1,60,81
2,148129496,Note_on_c,1,60,81
2,148129898,Note_off_c,1,60,0
2,148146394,Note_on_c,1,60,81
2,148149566,Note_off_c,1,60,0
2,148152322,Note_off_c,1,60,0
2,148156138,Note_on_c,1,60,81
2,148159212,Note_on_c,1,60,81
2,148186980,Note_off_c,1,60,0
2,148193715,Note_on_c,1,60,81
2,148193838,Note_off_c,1,60,0
2,148234272,Note_on_c,1,60,81
2,148234489,Note_off_c,1,60,0
2,148246168,Note_on_c,1,60,81
2,148246685,Note_off_c,1,60,0
2,148255012,Note_off_c,1,60,0
2,148263475,Note_on_c,1,60,81
2,148263632,Note_off_c,1,60,0
2,148271883,Note_on_c,1,60,81
2,148280749,Note_off_c,1,60,0
2,148288000,Note_on_c,1,60,81
2,148288951,Note_off_c,1,60,0
2,148290888,Note_on_c,1,60,81
2,148295179,Note_on_c,1,60,81
2,148295894,Note_on_c,1,60,81
2,148297556,Note_off_c,1,60,0
2,148317682,Note_on_c,1,60,81
2,148318013,Note_off_c,1,60,0
2,148330270,Note_on_c,1,60,81
2,148330394,Note_off_c,1,60,0
2,148334478,Note_on_c,1,60,81
2,148334554,Note_off_c,1,60,0
2,148334611,Note_on_c,1,60,81
2,148334767,Note_off_c,1,60,0
2,148344638,Note_off_c,1,60,0
2,148358244,Note_on_c,1,60,81
2,148358686,Note_off_c,1,60,0
2,148362369,Note_on_c,1,60,81
2,148362533,Note_off_c,1,60,0
2,148385828,Note_on_c,1,60,81
2,148385963,Note_off_c,1,60,0
2,148388281,Note_on_c,1,60,81
2,148388363,Note_off_c,1,60,0
2,148388489,Note_on_c,1,60,81
2,148388651,Note_off_c,1,60,0
2,148402515,Note_on_c,1,60,81
2,148402714,Note_on_c,1,60,81
2,148402875,Note_off_c,1,60,0
2,148432545,Note_off_c,1,60,0
2,148435104,Note_on_c,1,60,81
2,148436926,Note_off_c,1,60,0
2,148458642,Note_on_c,1,60,81
2,148458813,Note_on_c,1,60,81
2,148459689,Note_off_c,1,60,0
2,148459871,Note_off_c,1,60,0
2,148482547,Note_on_c,1,60,81
2,148483302,Note_off_c,1,60,0
2,148519604,Note_off_c,1,60,0
2,148522600,Note_on_c,1,60,81
2,148522765,Note_off_c,1,60,0
2,148531384,Note_on_c,1,60,81
2,148607039,Note_on_c,1,60,81
2,148679742,Note_off_c,1,60,0
2,148679779,Note_off_c,1,60,0
2,148739378,Note_on_c,1,60,81
2,148739479,Note_off_c,1,60,0
2,148748773,Note_on_c,1,60,81
2,148752415,Note_off_c,1,60,0
2,148772639,Note_on_c,1,60,81
2,148784594,Note_off_c,1,60,0
2,148795796,Note_on_c,1,60,81
2,148796325,Note_off_c,1,60,0
2,148808180,Note_on_c,1,60,81
2,148839482,Note_on_c,1,60,81
2,148839732,Note_off_c,1,60,0
2,148939738,Note_on_c,1,60,81
2,148939817,Note_off_c,1,60,0
2,149006308,Note_on_c,1,60,81
2,149009527,Note_off_c,1,60,0
2,149013781,Note_on_c,1,60,81
2,149014961,Note_off_c,1,60,0
2,149018670,Note_on_c,1,60,81
2,149026269,Note_off_c,1,60,0
2,149048286,Note_off_c,1,60,0
2,149048575,Note_on_c,1,60,81
2,149051273,Note_off_c,1,60,0
2,149054026,Note_on_c,1,60,81
2,149103561,Note_off_c,1,60,0
2,149111303,Note_on_c,1,60,81
2,149121866,Note_off_c,1,60,0
2,149162782,Note_on_c,1,60,81
2,149162944,Note_off_c,1,60,0
2,149175747,Note_on_c,1,60,81
2,149176140,Note_on_c,1,60,81
2,149176910,Note_off_c,1,60,0
2,149197557,Note_on_c,1,60,81
2,149259987,Note_off_c,1,60,0
2,149264251,Note_on_c,1,60,81
2,149264816,Note_off_c,1,60,0
2,149290512,Note_on_c,1,60,81
2,149290762,Note_off_c,1,60,0
2,149321732,Note_off_c,1,60,0
2,149345660,Note_on_c,1,60,81
2,149357612,Note_off_c,1,60,0
2,149390620,Note_on_c,1,60,81
2,149390622,Note_on_c,1,60,81
2,149471833,Note_off_c,1,60,0
2,149475044,Note_on_c,1,60,81
2,149556361,Note_off_c,1,60,0
2,149556361,Note_off_c,1,60,0
2,149583847,Note_on_c,1,60,81
2,149584607,Note_off_c,1,60,0
2,149606208,Note_on_c,1,60,81
2,149607466,Note_on_c,1,60,81
2,149607764,Note_on_c,1,60,81
2,149608516,Note_off_c,1,60,0
2,149612402,Note_off_c,1,60,0
2,149636765,Note_on_c,1,60,81
2,149636929,Note_off_c,1,60,0
2,149675204,Note_on_c,1,60,81
2,149676850,Note_on_c,1,60,81
2,149677740,Note_off_c,1,60,0
2,149700150,Note_on_c,1,60,81
2,149700296,Note_off_c,1,60,0
2,149705716,Note_off_c,1,60,0
2,149747818,Note_off_c,1,60,0
2,149754300,Note_on_c,1,60,81
2,149754710,Note_off_c,1,60,0
2,149782670,Note_on_c,1,60,81
2,149782688,Note_on_c,1,60,81
2,149785658,Note_on_c,1,60,81
2,149791675,Note_off_c,1,60,0
2,149793020,Note_off_c,1,60,0
2,149812373,Note_off_c,1,60,0
2,149813224,Note_on_c,1,60,81
2,149813693,Note_off_c,1,60,0
2,149832656,Note_on_c,1,60,81
2,149839767,Note_off_c,1,60,0
2,149840686,Note_on_c,1,60,81
2,149841208,Note_off_c,1,60,0
2,149842217,Note_on_c,1,60,81
2,149842750,Note_off_c,1,60,0
2,149842874,Note_on_c,1,60,81
2,149844497,Note_on_c,1,60,81
2,149846486,Note_off_c,1,60,0
2,149850937,Note_off_c,1,60,0
2,149851060,Note_on_c,1,60,81
2,149851594,Note_off_c,1,60,0
2,149852607,Note_on_c,1,60,81
2,149853125,Note_off_c,1,60,0
2,149854044,Note_on_c,1,60,81
2,149861159,Note_off_c,1,60,0
2,149861270,Note_on_c,1,60,81
2,149862504,Note_off_c,1,60,0
2,149884458,Note_on_c,1,60,81
2,149886682,Note_off_c,1,60,0
2,149886917,Note_on_c,1,60,81
2,149887411,Note_off_c,1,60,0
2,149887468,Note_on_c,1,60,81
2,149887889,Note_on_c,1,60,81
2,149887965,Note_off_c,1,60,0
2,149900798,Note_off_c,1,60,0
2,149903317,Note_on_c,1,60,81
2,149917844,Note_off_c,1,60,0
2,149923316,Note_on_c,1,60,81
2,149927803,Note_off_c,1,60,0
2,149928650,Note_on_c,1,60,81
2,149936879,Note_off_c,1,60,0
2,149937811,Note_on_c,1,60,81
2,150010726,Note_off_c,1,60,0
2,150045659,Note_on_c,1,60,81
2,150053863,Note_on_c,1,60,81
2,150055034,Note_off_c,1,60,0
2,150067278,Note_on_c,1,60,81
2,150067722,Note_off_c,1,60,0
2,150145329,Note_off_c,1,60,0
2,150149182,Note_on_c,1,60,81
2,150164720,Note_off_c,1,60,0
2,150173048,Note_on_c,1,60,81
2,150181429,Note_off_c,1,60,0
2,150211631,Note_on_c,1,60,81
2,150211925,Note_off_c,1,60,0
2,150218416,Note_on_c,1,60,81
2,150236156,Note_off_c,1,60,0
2,150236966,Note_on_c,1,60,81
2,150237156,Note_off_c,1,60,0
2,150255094,Note_on_c,1,60,81
2,150257250,Note_on_c,1,60,81
2,150257286,Note_off_c,1,60,0
2,150265078,Note_off_c,1,60,0
2,150265398,Note_on_c,1,60,81
2,150268199,Note_on_c,1,60,81
2,150269580,Note_off_c,1,60,0
2,150280916,Note_off_c,1,60,0
2,150281113,Note_on_c,1,60,81
2,150282171,Note_off_c,1,60,0
2,150282542,Note_on_c,1,60,81
2,150287093,Note_off_c,1,60,0
2,150293860,Note_on_c,1,60,81
2,150308979,Note_off_c,1,60,0
2,150321478,Note_on_c,1,60,81
2,150353233,Note_off_c,1,60,0
2,150363090,Note_on_c,1,60,81
2,150476566,Note_off_c,1,60,0
2,150487413,Note_on_c,1,60,81
2,150492344,Note_on_c,1,60,81
2,150492410,Note_off_c,1,60,0
2,150507602,Note_off_c,1,60,0
2,150508061,Note_on_c,1,60,81
2,150513789,Note_off_c,1,60,0
2,150515756,Note_on_c,1,60,81
2,150518032,Note_off_c,1,60,0
2,150548561,Note_on_c,1,60,81
2,150549368,Note_on_c,1,60,81
2,150551928,Note_on_c,1,60,81
2,150552014,Note_off_c,1,60,0
2,150557724,Note_off_c,1,60,0
2,150560201,Note_on_c,1,60,81
2,150560894,Note_on_c,1,60,81
2,150560937,Note_off_c,1,60,0
2,150561475,Note_on_c,1,60,81
2,150562115,Note_off_c,1,60,0
2,150562287,Note_off_c,1,60,0
2,150566561,Note_on_c,1,60,81
2,150566860,Note_off_c,1,60,0
2,150568970,Note_on_c,1,60,81
2,150569269,Note_off_c,1,60,0
2,150579738,Note_off_c,1,60,0
2,150600538,Note_on_c,1,60,81
2,150600659,Note_off_c,1,60,0
2,150600850,Note_on_c,1,60,81
2,150608506,Note_on_c,1,60,81
2,150608623,Note_off_c,1,60,0
2,150629612,Note_off_c,1,60,0
2,150629851,Note_on_c,1,60,81
2,150635726,Note_off_c,1,60,0
2,150646229,Note_on_c,1,60,81
2,150697154,Note_off_c,1,60,0
2,150698059,Note_on_c,1,60,81
2,150701865,Note_on_c,1,60,81
2,150701972,Note_off_c,1,60,0
2,150720895,Note_off_c,1,60,0
2,150730078,Note_on_c,1,60,81
2,150765957,Note_off_c,1,60,0
2,150780271,Note_on_c,1,60,81
2,150780644,Note_off_c,1,60,0
2,150794879,Note_on_c,1,60,81
2,150800472,Note_on_c,1,60,81
2,150801031,Note_off_c,1,60,0
2,150809577,Note_off_c,1,60,0
2,150809712,Note_on_c,1,60,81
2,150812590,Note_on_c,1,60,81
2,150812698,Note_off_c,1,60,0
2,150876708,Note_off_c,1,60,0
2,150881235,Note_on_c,1,60,81
2,150881683,Note_off_c,1,60,0
2,150887135,Note_on_c,1,60,81
2,150903895,Note_on_c,1,60,81
2,150904213,Note_off_c,1,60,0
2,150913292,Note_off_c,1,60,0
2,150926262,Note_on_c,1,60,81
2,150960582,Note_on_c,1,60,81
2,150964744,Note_off_c,1,60,0
2,150965244,Note_on_c,1,60,81
2,150966256,Note_off_c,1,60,0
2,150973122,Note_on_c,1,60,81
2,150975003,Note_off_c,1,60,0
2,150975534,Note_off_c,1,60,0
2,150982248,Note_on_c,1,60,81
2,150995634,Note_off_c,1,60,0
2,150996548,Note_on_c,1,60,81
2,151008376,Note_off_c,1,60,0
2,151008419,Note_on_c,1,60,81
2,151022745,Note_on_c,1,60,81
2,151022852,Note_off_c,1,60,0
2,151035713,Note_off_c,1,60,0
2,151036320,Note_on_c,1,60,81
2,151047720,Note_off_c,1,60,0
2,151047750,Note_on_c,1,60,81
2,151050970,Note_on_c,1,60,81
2,151051986,Note_off_c,1,60,0
2,151060396,Note_on_c,1,60,81
2,151069544,Note_off_c,1,60,0
2,151070325,Note_off_c,1,60,0
2,151070577,Note_on_c,1,60,81
2,151111911,Note_on_c,1,60,81
2,151112728,Note_off_c,1,60,0
2,151125542,Note_off_c,1,60,0
2,151130074,Note_on_c,1,60,81
2,151131610,Note_off_c,1,60,0
2,151131684,Note_on_c,1,60,81
2,151146631,Note_off_c,1,60,0
2,151146802,Note_on_c,1,60,81
2,151148054,Note_off_c,1,60,0
2,151156648,Note_on_c,1,60,81
2,151156663,Note_on_c,1,60,81
2,151159747,Note_on_c,1,60,81
2,151159749,Note_off_c,1,60,0
2,151165948,Note_off_c,1,60,0
2,151169985,Note_on_c,1,60,81
2,151170296,Note_off_c,1,60,0
2,151176284,Note_off_c,1,60,0
2,151176303,Note_on_c,1,60,81
2,151195321,Note_off_c,1,60,0
2,151197948,Note_on_c,1,60,81
2,151249536,Note_off_c,1,60,0
2,151254708,Note_on_c,1,60,81
2,151267479,Note_off_c,1,60,0
2,151279677,Note_on_c,1,60,81
2,151281617,Note_on_c,1,60,81
2,151281970,Note_off_c,1,60,0
2,151291796,Note_on_c,1,60,81
2,151292176,Note_off_c,1,60,0
2,151300664,Note_on_c,1,60,81
2,151300964,Note_off_c,1,60,0
2,151327715,Note_off_c,1,60,0
2,151327948,Note_on_c,1,60,81
2,151328429,Note_off_c,1,60,0
2,151340639,Note_on_c,1,60,81
2,151340647,Note_on_c,1,60,81
2,151341966,Note_off_c,1,60,0
2,151346937,Note_on_c,1,60,81
2,151347326,Note_off_c,1,60,0
2,151348027,Note_off_c,1,60,0
2,151364303,Note_on_c,1,60,81
2,151372707,Note_off_c,1,60,0
2,151399559,Note_on_c,1,60,81
2,151401937,Note_off_c,1,60,0
2,151402723,Note_on_c,1,60,81
2,151438999,Note_on_c,1,60,81
2,151439095,Note_off_c,1,60,0
2,151459494,Note_off_c,1,60,0
2,151510509,Note_on_c,1,60,81
2,151527830,Note_on_c,1,60,81
2,151527938,Note_off_c,1,60,0
2,151538692,Note_off_c,1,60,0
2,151540304,Note_on_c,1,60,81
2,151540515,Note_on_c,1,60,81
2,151545795,Note_on_c,1,60,81
2,151545891,Note_off_c,1,60,0
2,151557445,Note_on_c,1,60,81
2,151557940,Note_off_c,1,60,0
2,151561855,Note_off_c,1,60,0
2,151583583,Note_off_c,1,60,0
2,151612005,Note_on_c,1,60,81
2,151612037,Note_on_c,1,60,81
2,151613363,Note_off_c,1,60,0
2,151629323,Note_on_c,1,60,81
2,151629430,Note_off_c,1,60,0
2,151699091,Note_off_c,1,60,0
2,151700057,Note_on_c,1,60,81
2,151701025,Note_on_c,1,60,81
2,151708386,Note_off_c,1,60,0
2,151710432,Note_on_c,1,60,81
2,151716803,Note_off_c,1,60,0
2,151729805,Note_off_c,1,60,0
2,151747596,Note_on_c,1,60,81
2,151747700,Note_off_c,1,60,0
2,151755540,Note_on_c,1,60,81
2,151757658,Note_on_c,1,60,81
2,151758442,Note_off_c,1,60,0
2,151759646,Note_on_c,1,60,81
2,151759911,Note_off_c,1,60,0
2,151762898,Note_on_c,1,60,81
2,151763383,Note_on_c,1,60,81
2,151763496,Note_off_c,1,60,0
2,151765708,Note_on_c,1,60,81
2,151766389,Note_off_c,1,60,0
2,151766485,Note_on_c,1,60,81
2,151767000,Note_off_c,1,60,0
2,151769501,Note_off_c,1,60,0
2,151770106,Note_on_c,1,60,81
2,151771334,Note_off_c,1,60,0
2,151790803,Note_on_c,1,60,81
2,151791416,Note_off_c,1,60,0
2,151794403,Note_off_c,1,60,0
2,151798053,Note_on_c,1,60,81
2,151798602,Note_off_c,1,60,0
2,151800263,Note_on_c,1,60,81
2,151805419,Note_off_c,1,60,0
2,151806070,Note_on_c,1,60,81
2,151831845,Note_off_c,1,60,0
2,151837818,Note_on_c,1,60,81
2,151840557,Note_off_c,1,60,0
2,151841735,Note_on_c,1,60,81
2,151841837,Note_off_c,1,60,0
2,151841876,Note_on_c,1,60,81
2,151847100,Note_on_c,1,60,81
2,151850385,Note_off_c,1,60,0
2,151853712,Note_off_c,1,60,0
2,151870865,Note_on_c,1,60,81
2,151885250,Note_on_c,1,60,81
2,151899333,Note_off_c,1,60,0
2,151909637,Note_off_c,1,60,0
2,151944889,Note_on_c,1,60,81
2,151949522,Note_on_c,1,60,81
2,151950912,Note_off_c,1,60,0
2,151953985,Note_off_c,1,60,0
2,151982914,Note_on_c,1,60,81
2,151993859,Note_off_c,1,60,0
2,151994530,Note_on_c,1,60,81
2,152018661,Note_on_c,1,60,81
2,152022508,Note_off_c,1,60,0
2,152032505,Note_on_c,1,60,81
2,152042774,Note_off_c,1,60,0
2,152047907,Note_off_c,1,60,0
2,152077951,Note_on_c,1,60,81
2,152078211,Note_off_c,1,60,0
2,152079556,Note_on_c,1,60,81
2,152080903,Note_off_c,1,60,0
2,152084140,Note_on_c,1,60,81
2,152089064,Note_off_c,1,60,0
2,152106316,Note_on_c,1,60,81
2,152115444,Note_off_c,1,60,0
2,152122533,Note_on_c,1,60,81
2,152124015,Note_on_c,1,60,81
2,152125065,Note_off_c,1,60,0
2,152153594,Note_on_c,1,60,81
2,152159228,Note_off_c,1,60,0
2,152168124,Note_on_c,1,60,81
2,152196699,Note_off_c,1,60,0
2,152205857,Note_on_c,1,60,81
2,152207057,Note_off_c,1,60,0
2,152212075,Note_on_c,1,60,81
2,152224193,Note_off_c,1,60,0
2,152302164,Note_on_c,1,60,81
2,152325239,Note_off_c,1,60,0
2,152348734,Note_on_c,1,60,81
2,152360006,Note_off_c,1,60,0
2,152399576,Note_on_c,1,60,81
2,152399769,Note_off_c,1,60,0
2,152409242,Note_on_c,1,60,81
2,152414263,Note_off_c,1,60,0
2,152445456,Note_off_c,1,60,0
2,152510802,Note_on_c,1,60,81
2,152512177,Note_off_c,1,60,0
2,152514481,Note_on_c,1,60,81
2,152516008,Note_off_c,1,60,0
2,152565653,Note_on_c,1,60,81
2,152566780,Note_off_c,1,60,0
2,152579380,Note_on_c,1,60,81
2,152580516,Note_off_c,1,60,0
2,152600233,Note_on_c,1,60,81
2,152601086,Note_off_c,1,60,0
2,152613810,Note_on_c,1,60,81
2,152614098,Note_off_c,1,60,0
2,152622833,Note_on_c,1,60,81
2,152623103,Note_off_c,1,60,0
2,152644392,Note_on_c,1,60,81
2,152644717,Note_off_c,1,60,0
2,152656331,Note_on_c,1,60,81
2,152656501,Note_off_c,1,60,0
2,152663379,Note_on_c,1,60,81
2,152664659,Note_off_c,1,60,0
2,152675278,Note_on_c,1,60,81
2,152676569,Note_off_c,1,60,0
2,152686122,Note_on_c,1,60,81
2,152687397,Note_off_c,1,60,0
2,152698344,Note_on_c,1,60,81
2,152699442,Note_off_c,1,60,0
2,152708159,Note_on_c,1,60,81
2,152709434,Note_off_c,1,60,0
2,152719521,Note_on_c,1,60,81
2,152720470,Note_off_c,1,60,0
2,152737517,Note_on_c,1,60,81
2,152737868,Note_off_c,1,60,0
2,152744298,Note_on_c,1,60,81
2,152744606,Note_off_c,1,60,0
2,152759560,Note_on_c,1,60,81
2,152762052,Note_off_c,1,60,0
2,152775139,Note_on_c,1,60,81
2,152777024,Note_off_c,1,60,0
2,152786213,Note_on_c,1,60,81
2,152788426,Note_off_c,1,60,0
2,152796720,Note_on_c,1,60,81
2,152798181,Note_off_c,1,60,0
2,152804831,Note_on_c,1,60,81
2,152806651,Note_off_c,1,60,0
2,152811970,Note_on_c,1,60,81
2,152813108,Note_off_c,1,60,0
2,152827472,Note_on_c,1,60,81
2,152828097,Note_off_c,1,60,0
2,152842855,Note_on_c,1,60,81
2,152843983,Note_off_c,1,60,0
2,152859995,Note_on_c,1,60,81
2,152860985,Note_off_c,1,60,0
2,152878321,Note_on_c,1,60,81
2,152885047,Note_off_c,1,60,0
2,152897799,Note_on_c,1,60,81
2,152908545,Note_on_c,1,60,81
2,152911886,Note_off_c,1,60,0
2,152913110,Note_off_c,1,60,0
2,152930039,Note_on_c,1,60,81
2,152947153,Note_on_c,1,60,81
2,152949210,Note_off_c,1,60,0
2,152949258,Note_off_c,1,60,0
2,152970647,Note_on_c,1,60,81
2,152972574,Note_off_c,1,60,0
2,152985230,Note_on_c,1,60,81
2,152985500,Note_off_c,1,60,0
2,153001746,Note_on_c,1,60,81
2,153003856,Note_off_c,1,60,0
2,153012481,Note_on_c,1,60,81
2,153012614,Note_off_c,1,60,0
2,153023961,Note_on_c,1,60,81
2,153024260,Note_off_c,1,60,0
2,153031202,Note_on_c,1,60,81
2,153032900,Note_off_c,1,60,0
2,153039731,Note_on_c,1,60,81
2,153041931,Note_off_c,1,60,0
2,153056119,Note_on_c,1,60,81
2,153057512,Note_off_c,1,60,0
2,153070225,Note_on_c,1,60,81
2,153071611,Note_off_c,1,60,0
2,153093134,Note_on_c,1,60,81
2,153106184,Note_off_c,1,60,0
2,153112120,Note_on_c,1,60,81
2,153113516,Note_off_c,1,60,0
2,153140490,Note_on_c,1,60,81
2,153140709,Note_off_c,1,60,0
2,153149581,Note_on_c,1,60,81
2,153150890,Note_off_c,1,60,0
2,153174517,Note_on_c,1,60,81
2,153191676,Note_off_c,1,60,0
2,153203429,Note_on_c,1,60,81
2,153205120,Note_off_c,1,60,0
2,153217583,Note_on_c,1,60,81
2,153219310,Note_off_c,1,60,0
2,153225079,Note_on_c,1,60,81
2,153226006,Note_off_c,1,60,0
2,153259686,Note_on_c,1,60,81
2,153262124,Note_off_c,1,60,0
2,153297115,Note_on_c,1,60,81
2,153312952,Note_off_c,1,60,0
2,153330119,Note_on_c,1,60,81
2,153331621,Note_on_c,1,60,81
2,153331728,Note_off_c,1,60,0
2,153348841,Note_off_c,1,60,0
2,153357853,Note_on_c,1,60,81
2,153361023,Note_off_c,1,60,0
2,153373710,Note_on_c,1,60,81
2,153375621,Note_off_c,1,60,0
2,153379820,Note_on_c,1,60,81
2,153380799,Note_off_c,1,60,0
2,153390031,Note_on_c,1,60,81
2,153391073,Note_off_c,1,60,0
2,153396590,Note_on_c,1,60,81
2,153396771,Note_off_c,1,60,0
2,153416519,Note_on_c,1,60,81
2,153423222,Note_off_c,1,60,0
2,153427019,Note_on_c,1,60,81
2,153428401,Note_off_c,1,60,0
2,153437057,Note_on_c,1,60,81
2,153439949,Note_off_c,1,60,0
2,153457743,Note_on_c,1,60,81
2,153460651,Note_off_c,1,60,0
2,153500462,Note_on_c,1,60,81
2,153500764,Note_off_c,1,60,0
2,153533438,Note_on_c,1,60,81
2,153534598,Note_on_c,1,60,81
2,153535129,Note_off_c,1,60,0
2,153536244,Note_off_c,1,60,0
2,153537146,Note_on_c,1,60,81
2,153541765,Note_off_c,1,60,0
2,153543612,Note_on_c,1,60,81
2,153547328,Note_on_c,1,60,81
2,153549258,Note_off_c,1,60,0
2,153550136,Note_off_c,1,60,0
2,153561107,Note_on_c,1,60,81
2,153567890,Note_off_c,1,60,0
2,153586812,Note_on_c,1,60,81
2,153606283,Note_off_c,1,60,0
2,153606885,Note_on_c,1,60,81
2,153613145,Note_off_c,1,60,0
2,153614254,Note_on_c,1,60,81
2,153616986,Note_off_c,1,60,0
2,153618786,Note_on_c,1,60,81
2,153626331,Note_on_c,1,60,81
2,153627925,Note_on_c,1,60,81
2,153631360,Note_off_c,1,60,0
2,153631437,Note_on_c,1,60,81
2,153632039,Note_off_c,1,60,0
2,153633981,Note_on_c,1,60,81
2,153634340,Note_off_c,1,60,0
2,153634397,Note_off_c,1,60,0
2,153646306,Note_off_c,1,60,0
2,153658702,Note_on_c,1,60,81
2,153661787,Note_on_c,1,60,81
2,153661852,Note_off_c,1,60,0
2,153671028,Note_off_c,1,60,0
2,153678687,Note_on_c,1,60,81
2,153689704,Note_on_c,1,60,81
2,153689793,Note_off_c,1,60,0
2,153693992,Note_off_c,1,60,0
2,153704087,Note_on_c,1,60,81
2,153704385,Note_off_c,1,60,0
2,153717302,Note_on_c,1,60,81
2,153718347,Note_off_c,1,60,0
2,153726251,Note_on_c,1,60,81
2,153726353,Note_off_c,1,60,0
2,153728049,Note_on_c,1,60,81
2,153746850,Note_on_c,1,60,81
2,153750982,Note_on_c,1,60,81
2,153751227,Note_off_c,1,60,0
2,153752176,Note_off_c,1,60,0
2,153774353,Note_on_c,1,60,81
2,153774808,Note_off_c,1,60,0
2,153780157,Note_off_c,1,60,0
2,153785719,Note_on_c,1,60,81
2,153785821,Note_off_c,1,60,0
2,153789029,Note_on_c,1,60,81
2,153793936,Note_on_c,1,60,81
2,153802091,Note_off_c,1,60,0
2,153852105,Note_on_c,1,60,81
2,153853414,Note_off_c,1,60,0
2,153890594,Note_on_c,1,60,81
2,153890865,Note_off_c,1,60,0
2,153923283,Note_on_c,1,60,81
2,153923360,Note_off_c,1,60,0
2,153929500,Note_on_c,1,60,81
2,153935245,Note_off_c,1,60,0
2,153946718,Note_off_c,1,60,0
2,153947668,Note_on_c,1,60,81
2,153958615,Note_off_c,1,60,0
2,153959098,Note_on_c,1,60,81
2,153959150,Note_on_c,1,60,81
2,153962350,Note_on_c,1,60,81
2,153962420,Note_off_c,1,60,0
2,153964360,Note_on_c,1,60,81
2,153965070,Note_off_c,1,60,0
2,153966515,Note_on_c,1,60,81
2,153966930,Note_off_c,1,60,0
2,153967533,Note_on_c,1,60,81
2,153968184,Note_off_c,1,60,0
2,153974268,Note_on_c,1,60,81
2,153974361,Note_off_c,1,60,0
2,153975849,Note_on_c,1,60,81
2,153975887,Note_off_c,1,60,0
2,153977674,Note_off_c,1,60,0
2,153977742,Note_on_c,1,60,81
2,153979160,Note_off_c,1,60,0
2,153981616,Note_on_c,1,60,81
2,153986246,Note_off_c,1,60,0
2,153986358,Note_off_c,1,60,0
2,153990761,Note_on_c,1,60,81
2,153992155,Note_off_c,1,60,0
2,153992684,Note_on_c,1,60,81
2,153995631,Note_on_c,1,60,81
2,153995960,Note_off_c,1,60,0
2,154039915,Note_on_c,1,60,81
2,154040022,Note_off_c,1,60,0
2,154078865,Note_on_c,1,60,81
2,154079963,Note_off_c,1,60,0
2,154104520,Note_on_c,1,60,81
2,154104592,Note_off_c,1,60,0
2,154155116,Note_off_c,1,60,0
2,154155303,Note_on_c,1,60,81
2,154166244,Note_on_c,1,60,81
2,154166549,Note_off_c,1,60,0
2,154193664,Note_on_c,1,60,81
2,154193743,Note_off_c,1,60,0
2,154194648,Note_off_c,1,60,0
2,154199084,Note_on_c,1,60,81
2,154206333,Note_off_c,1,60,0
2,154206695,Note_on_c,1,60,81
2,154220178,Note_on_c,1,60,81
2,154220637,Note_off_c,1,60,0
2,154259726,Note_on_c,1,60,81
2,154259862,Note_off_c,1,60,0
2,154271510,Note_off_c,1,60,0
2,154272588,Note_on_c,1,60,81
2,154275875,Note_off_c,1,60,0
2,154288459,Note_on_c,1,60,81
2,154288527,Note_off_c,1,60,0
2,154295502,Note_on_c,1,60,81
2,154295601,Note_off_c,1,60,0
2,154297649,Note_on_c,1,60,81
2,154297748,Note_off_c,1,60,0
2,154312461,Note_on_c,1,60,81
2,154313084,Note_off_c,1,60,0
2,154321089,Note_on_c,1,60,81
2,154325325,Note_off_c,1,60,0
2,154325524,Note_on_c,1,60,81
2,154338742,Note_on_c,1,60,81
2,154338802,Note_off_c,1,60,0
2,154351304,Note_off_c,1,60,0
2,154376965,Note_on_c,1,60,81
2,154378206,Note_on_c,1,60,81
2,154379089,Note_off_c,1,60,0
2,154379273,Note_off_c,1,60,0
2,154402327,Note_on_c,1,60,81
2,154405192,Note_on_c,1,60,81
2,154406564,Note_off_c,1,60,0
2,154414368,Note_on_c,1,60,81
2,154415137,Note_off_c,1,60,0
2,154469450,Note_off_c,1,60,0
2,154469771,Note_on_c,1,60,81
2,154480011,Note_on_c,1,60,81
2,154481501,Note_off_c,1,60,0
2,154502218,Note_on_c,1,60,81
2,154502412,Note_off_c,1,60,0
2,154548147,Note_off_c,1,60,0
2,154548576,Note_on_c,1,60,81
2,154553608,Note_on_c,1,60,81
2,154555017,Note_off_c,1,60,0
2,154559028,Note_off_c,1,60,0
2,154564854,Note_on_c,1,60,81
2,154567749,Note_off_c,1,60,0
2,154567777,Note_on_c,1,60,81
2,154579064,Note_on_c,1,60,81
2,154579663,Note_off_c,1,60,0
2,154580013,Note_off_c,1,60,0
2,154581694,Note_on_c,1,60,81
2,154628013,Note_off_c,1,60,0
2,154671592,Note_on_c,1,60,81
2,154678345,Note_off_c,1,60,0
2,154697454,Note_on_c,1,60,81
2,154870281,Note_off_c,1,60,0
2,154924739,Note_on_c,1,60,81
2,154936719,Note_off_c,1,60,0
2,154937369,Note_on_c,1,60,81
2,154938059,Note_off_c,1,60,0
2,154944075,Note_on_c,1,60,81
2,154950209,Note_on_c,1,60,81
2,154950492,Note_off_c,1,60,0
2,154956123,Note_off_c,1,60,0
2,154957025,Note_on_c,1,60,81
2,154961824,Note_on_c,1,60,81
2,154962297,Note_on_c,1,60,81
2,154962623,Note_off_c,1,60,0
2,154963853,Note_off_c,1,60,0
2,154974395,Note_off_c,1,60,0
2,154974652,Note_on_c,1,60,81
2,154975692,Note_on_c,1,60,81
2,154975783,Note_off_c,1,60,0
2,154979251,Note_off_c,1,60,0
2,154983337,Note_on_c,1,60,81
2,154993111,Note_off_c,1,60,0
2,154993585,Note_on_c,1,60,81
2,154994315,Note_off_c,1,60,0
2,155000798,Note_on_c,1,60,81
2,155002107,Note_off_c,1,60,0
2,155002629,Note_on_c,1,60,81
2,155018519,Note_on_c,1,60,81
2,155018523,Note_off_c,1,60,0
2,155033781,Note_off_c,1,60,0
2,155033823,Note_on_c,1,60,81
2,155045190,Note_on_c,1,60,81
2,155046118,Note_off_c,1,60,0
2,155050565,Note_on_c,1,60,81
2,155050930,Note_off_c,1,60,0
2,155062775,Note_off_c,1,60,0
2,155063736,Note_on_c,1,60,81
2,155063747,Note_on_c,1,60,81
2,155069553,Note_off_c,1,60,0
2,155078836,Note_on_c,1,60,81
2,155086807,Note_off_c,1,60,0
2,155087538,Note_off_c,1,60,0
2,155120489,Note_on_c,1,60,81
2,155120598,Note_off_c,1,60,0
2,155127875,Note_on_c,1,60,81
2,155134899,Note_off_c,1,60,0
2,155135343,Note_on_c,1,60,81
2,155138857,Note_off_c,1,60,0
2,155139890,Note_on_c,1,60,81
2,155140595,Note_off_c,1,60,0
2,155148543,Note_on_c,1,60,81
2,155148813,Note_off_c,1,60,0
2,155169407,Note_on_c,1,60,81
2,155169408,Note_on_c,1,60,81
2,155173475,Note_off_c,1,60,0
2,155173786,Note_on_c,1,60,81
2,155184971,Note_off_c,1,60,0
2,155185823,Note_on_c,1,60,81
2,155187272,Note_off_c,1,60,0
2,155192916,Note_off_c,1,60,0
2,155194996,Note_on_c,1,60,81
2,155195176,Note_on_c,1,60,81
2,155195272,Note_off_c,1,60,0
2,155195587,Note_on_c,1,60,81
2,155205495,Note_off_c,1,60,0
2,155208694,Note_on_c,1,60,81
2,155209051,Note_off_c,1,60,0
2,155211150,Note_on_c,1,60,81
2,155213819,Note_off_c,1,60,0
2,155213820,Note_on_c,1,60,81
2,155213824,Note_off_c,1,60,0
2,155227574,Note_off_c,1,60,0
2,155230974,Note_on_c,1,60,81
2,155234325,Note_off_c,1,60,0
2,155234451,Note_on_c,1,60,81
2,155244699,Note_off_c,1,60,0
2,155247204,Note_on_c,1,60,81
2,155255483,Note_off_c,1,60,0
2,155255978,Note_on_c,1,60,81
2,155262430,Note_off_c,1,60,0
2,155262867,Note_on_c,1,60,81
2,155277462,Note_on_c,1,60,81
2,155278491,Note_off_c,1,60,0
2,155289292,Note_on_c,1,60,81
2,155289848,Note_off_c,1,60,0
2,155301438,Note_off_c,1,60,0
2,155308747,Note_on_c,1,60,81
2,155316862,Note_on_c,1,60,81
2,155320666,Note_off_c,1,60,0
2,155320893,Note_on_c,1,60,81
2,155324176,Note_off_c,1,60,0
2,155331114,Note_off_c,1,60,0
2,155335267,Note_on_c,1,60,81
2,155346349,Note_on_c,1,60,81
2,155346445,Note_off_c,1,60,0
2,155358711,Note_on_c,1,60,81
2,155358818,Note_off_c,1,60,0
2,155396009,Note_on_c,1,60,81
2,155396978,Note_off_c,1,60,0
2,155419396,Note_on_c,1,60,81
2,155419500,Note_off_c,1,60,0
2,155433177,Note_on_c,1,60,81
2,155434262,Note_off_c,1,60,0
2,155562025,Note_on_c,1,60,81
2,155563162,Note_off_c,1,60,0
2,155563944,Note_off_c,1,60,0
2,155566049,Note_on_c,1,60,81
2,155566306,Note_off_c,1,60,0
2,155586643,Note_on_c,1,60,81
2,155590600,Note_on_c,1,60,81
2,155591262,Note_off_c,1,60,0
2,155602197,Note_off_c,1,60,0
2,155609775,Note_on_c,1,60,81
2,155610204,Note_on_c,1,60,81
2,155610380,Note_off_c,1,60,0
2,155614725,Note_on_c,1,60,81
2,155614951,Note_off_c,1,60,0
2,155626756,Note_on_c,1,60,81
2,155637604,Note_off_c,1,60,0
2,155659442,Note_on_c,1,60,81
2,155660245,Note_off_c,1,60,0
2,155687959,Note_on_c,1,60,81
2,155689000,Note_off_c,1,60,0
2,155710097,Note_on_c,1,60,81
2,155710563,Note_off_c,1,60,0
2,155739010,Note_off_c,1,60,0
2,155745828,Note_on_c,1,60,81
2,155749658,Note_on_c,1,60,81
2,155750137,Note_off_c,1,60,0
2,155845366,Note_on_c,1,60,81
2,155846624,Note_off_c,1,60,0
2,155859400,Note_off_c,1,60,0
2,155859566,Note_on_c,1,60,81
2,155885199,Note_off_c,1,60,0
2,155894280,Note_on_c,1,60,81
2,155894386,Note_off_c,1,60,0
2,155897807,Note_on_c,1,60,81
2,155911404,Note_off_c,1,60,0
2,155913044,Note_on_c,1,60,81
2,155919908,Note_on_c,1,60,81
2,155920045,Note_off_c,1,60,0
2,155925957,Note_on_c,1,60,81
2,155925957,Note_on_c,1,60,81
2,155926085,Note_off_c,1,60,0
2,155926086,Note_off_c,1,60,0
2,155934413,Note_off_c,1,60,0
2,155941637,Note_on_c,1,60,81
2,155943087,Note_off_c,1,60,0
2,155946850,Note_on_c,1,60,81
2,155951272,Note_on_c,1,60,81
2,155951336,Note_off_c,1,60,0
2,155978798,Note_on_c,1,60,81
2,155982986,Note_off_c,1,60,0
2,155991389,Note_on_c,1,60,81
2,156001787,Note_off_c,1,60,0
2,156001952,Note_on_c,1,60,81
2,156007070,Note_off_c,1,60,0
2,156009047,Note_on_c,1,60,81
2,156020951,Note_off_c,1,60,0
2,156033342,Note_off_c,1,60,0
2,156035298,Note_on_c,1,60,81
2,156053798,Note_off_c,1,60,0
2,156054781,Note_on_c,1,60,81
2,156058506,Note_off_c,1,60,0
2,156061159,Note_on_c,1,60,81
2,156070504,Note_off_c,1,60,0
2,156072012,Note_on_c,1,60,81
2,156082465,Note_off_c,1,60,0
2,156082572,Note_on_c,1,60,81
2,156140081,Note_off_c,1,60,0
2,156147365,Note_on_c,1,60,81
2,156177752,Note_off_c,1,60,0
2,156192062,Note_on_c,1,60,81
2,156192203,Note_off_c,1,60,0
2,156193931,Note_on_c,1,60,81
2,156212796,Note_off_c,1,60,0
2,156212981,Note_on_c,1,60,81
2,156212992,Note_on_c,1,60,81
2,156240042,Note_off_c,1,60,0
2,156242183,Note_on_c,1,60,81
2,156243317,Note_off_c,1,60,0
2,156243319,Note_on_c,1,60,81
2,156243332,Note_off_c,1,60,0
2,156248117,Note_off_c,1,60,0
2,156249223,Note_on_c,1,60,81
2,156282825,Note_off_c,1,60,0
2,156282934,Note_on_c,1,60,81
2,156290088,Note_on_c,1,60,81
2,156293185,Note_off_c,1,60,0
2,156295689,Note_off_c,1,60,0
2,156298623,Note_on_c,1,60,81
2,156299307,Note_off_c,1,60,0
2,156308967,Note_on_c,1,60,81
2,156337313,Note_on_c,1,60,81
2,156346995,Note_off_c,1,60,0
2,156367873,Note_off_c,1,60,0
2,156369210,Note_on_c,1,60,81
2,156385219,Note_off_c,1,60,0
2,156388225,Note_on_c,1,60,81
2,156395609,Note_off_c,1,60,0
2,156404249,Note_on_c,1,60,81
2,156420340,Note_on_c,1,60,81
2,156420429,Note_off_c,1,60,0
2,156456763,Note_off_c,1,60,0
2,156463726,Note_on_c,1,60,81
2,156484097,Note_on_c,1,60,81
2,156484210,Note_off_c,1,60,0
2,156500779,Note_off_c,1,60,0
2,156503082,Note_on_c,1,60,81
2,156504021,Note_off_c,1,60,0
2,156504659,Note_on_c,1,60,81
2,156505057,Note_off_c,1,60,0
2,156509853,Note_on_c,1,60,81
2,156511681,Note_off_c,1,60,0
2,156525404,Note_on_c,1,60,81
2,156572604,Note_off_c,1,60,0
2,156579722,Note_on_c,1,60,81
2,156587719,Note_off_c,1,60,0
2,156591755,Note_on_c,1,60,81
2,156594300,Note_on_c,1,60,81
2,156601496,Note_off_c,1,60,0
2,156609507,Note_off_c,1,60,0
2,156614741,Note_on_c,1,60,81
2,156615288,Note_off_c,1,60,0
2,156619330,Note_on_c,1,60,81
2,156625725,Note_off_c,1,60,0
2,156637782,Note_on_c,1,60,81
2,156641004,Note_off_c,1,60,0
2,156641389,Note_on_c,1,60,81
2,156641665,Note_on_c,1,60,81
2,156644887,Note_off_c,1,60,0
2,156646506,Note_on_c,1,60,81
2,156659532,Note_off_c,1,60,0
2,156661424,Note_off_c,1,60,0
2,156668762,Note_on_c,1,60,81
2,156677407,Note_off_c,1,60,0
2,156687694,Note_on_c,1,60,81
2,156689675,Note_on_c,1,60,81
2,156691997,Note_off_c,1,60,0
2,156699605,Note_on_c,1,60,81
2,156704757,Note_off_c,1,60,0
2,156705816,Note_off_c,1,60,0
2,156712211,Note_on_c,1,60,81
2,156713174,Note_off_c,1,60,0
2,156721890,Note_on_c,1,60,81
2,156728441,Note_on_c,1,60,81
2,156728766,Note_off_c,1,60,0
2,156736960,Note_off_c,1,60,0
2,156737302,Note_on_c,1,60,81
2,156741590,Note_off_c,1,60,0
2,156742108,Note_on_c,1,60,81
2,156750609,Note_on_c,1,60,81
2,156766925,Note_off_c,1,60,0
2,156768104,Note_on_c,1,60,81
2,156769233,Note_off_c,1,60,0
2,156800815,Note_off_c,1,60,0
2,156806242,Note_on_c,1,60,81
2,156815639,Note_on_c,1,60,81
2,156816848,Note_off_c,1,60,0
2,156840062,Note_on_c,1,60,81
2,156859117,Note_off_c,1,60,0
2,156881850,Note_off_c,1,60,0
2,156893697,Note_on_c,1,60,81
2,156916429,Note_off_c,1,60,0
2,156920631,Note_on_c,1,60,81
2,156933094,Note_off_c,1,60,0
2,156934839,Note_on_c,1,60,81
2,156936130,Note_on_c,1,60,81
2,156936244,Note_off_c,1,60,0
2,156985754,Note_on_c,1,60,81
2,156986049,Note_off_c,1,60,0
2,157045742,Note_off_c,1,60,0
2,157059231,Note_on_c,1,60,81
2,157060762,Note_off_c,1,60,0
2,157073256,Note_on_c,1,60,81
2,157074703,Note_off_c,1,60,0
2,157092042,Note_on_c,1,60,81
2,157112412,Note_off_c,1,60,0
2,157121190,Note_on_c,1,60,81
2,157128361,Note_on_c,1,60,81
2,157128671,Note_off_c,1,60,0
2,157138474,Note_off_c,1,60,0
2,157171115,Note_on_c,1,60,81
2,157191963,Note_off_c,1,60,0
2,157204778,Note_on_c,1,60,81
2,157205040,Note_off_c,1,60,0
2,157232230,Note_on_c,1,60,81
2,157237136,Note_off_c,1,60,0
2,157273759,Note_on_c,1,60,81
2,157283968,Note_off_c,1,60,0
2,157287266,Note_on_c,1,60,81
2,157310655,Note_off_c,1,60,0
2,157400926,Note_on_c,1,60,81
2,157417259,Note_off_c,1,60,0
2,157437483,Note_on_c,1,60,81
2,157437754,Note_off_c,1,60,0
2,157513376,Note_on_c,1,60,81
2,157552515,Note_off_c,1,60,0
2,157573746,Note_on_c,1,60,81
2,157598085,Note_off_c,1,60,0
2,157629938,Note_on_c,1,60,81
2,157630728,Note_off_c,1,60,0
2,157636299,Note_on_c,1,60,81
2,157640301,Note_off_c,1,60,0
2,157674320,Note_on_c,1,60,81
2,157691761,Note_on_c,1,60,81
2,157696459,Note_off_c,1,60,0
2,157700769,Note_off_c,1,60,0
2,157709085,Note_on_c,1,60,81
2,157709643,Note_off_c,1,60,0
2,157724179,Note_on_c,1,60,81
2,157725020,Note_off_c,1,60,0
2,157745732,Note_on_c,1,60,81
2,157777132,Note_off_c,1,60,0
2,157794402,Note_on_c,1,60,81
2,157820120,Note_off_c,1,60,0
2,157830910,Note_on_c,1,60,81
2,157861196,Note_on_c,1,60,81
2,157861460,Note_off_c,1,60,0
2,157898256,Note_off_c,1,60,0
2,157925064,Note_on_c,1,60,81
2,157949071,Note_off_c,1,60,0
2,157993272,Note_on_c,1,60,81
2,158025549,Note_on_c,1,60,81
2,158031166,Note_off_c,1,60,0
2,158100262,Note_off_c,1,60,0
2,158127286,Note_on_c,1,60,81
2,158128301,Note_off_c,1,60,0
2,158131982,Note_on_c,1,60,81
2,158149810,Note_off_c,1,60,0
2,158175849,Note_on_c,1,60,81
2,158177755,Note_off_c,1,60,0
2,158178029,Note_on_c,1,60,81
2,158186427,Note_off_c,1,60,0
2,158195632,Note_on_c,1,60,81
2,158196131,Note_off_c,1,60,0
2,158197921,Note_on_c,1,60,81
2,158203877,Note_off_c,1,60,0
2,158254423,Note_on_c,1,60,81
2,158258269,Note_off_c,1,60,0
2,158266752,Note_on_c,1,60,81
2,158267320,Note_off_c,1,60,0
2,158289922,Note_on_c,1,60,81
2,158294774,Note_off_c,1,60,0
2,158327950,Note_on_c,1,60,81
2,158331531,Note_off_c,1,60,0
2,158353695,Note_on_c,1,60,81
2,158357553,Note_off_c,1,60,0
2,158398521,Note_on_c,1,60,81
2,158399466,Note_off_c,1,60,0
2,158418209,Note_on_c,1,60,81
2,158426237,Note_off_c,1,60,0
2,158445067,Note_on_c,1,60,81
2,158446014,Note_off_c,1,60,0
2,158454197,Note_on_c,1,60,81
2,158455273,Note_off_c,1,60,0
2,158461573,Note_on_c,1,60,81
2,158470857,Note_off_c,1,60,0
2,158472219,Note_on_c,1,60,81
2,158474453,Note_on_c,1,60,81
2,158480936,Note_off_c,1,60,0
2,158491218,Note_on_c,1,60,81
2,158492160,Note_off_c,1,60,0
2,158494886,Note_off_c,1,60,0
2,158514784,Note_on_c,1,60,81
2,158515925,Note_off_c,1,60,0
2,158523671,Note_on_c,1,60,81
2,158525838,Note_off_c,1,60,0
2,158544549,Note_on_c,1,60,81
2,158554405,Note_off_c,1,60,0
2,158560605,Note_on_c,1,60,81
2,158570580,Note_off_c,1,60,0
2,158578918,Note_on_c,1,60,81
2,158579899,Note_off_c,1,60,0
2,158605267,Note_on_c,1,60,81
2,158610703,Note_on_c,1,60,81
2,158612514,Note_off_c,1,60,0
2,158686715,Note_off_c,1,60,0
2,158694538,Note_on_c,1,60,81
2,158695509,Note_off_c,1,60,0
2,158699677,Note_on_c,1,60,81
2,158700652,Note_off_c,1,60,0
2,158716326,Note_on_c,1,60,81
2,158720720,Note_off_c,1,60,0
2,158724112,Note_on_c,1,60,81
2,158725067,Note_off_c,1,60,0
2,158742145,Note_on_c,1,60,81
2,158743415,Note_off_c,1,60,0
2,158747813,Note_on_c,1,60,81
2,158754719,Note_on_c,1,60,81
2,158755891,Note_off_c,1,60,0
2,158772195,Note_off_c,1,60,0
2,158774221,Note_on_c,1,60,81
2,158781204,Note_off_c,1,60,0
2,158796013,Note_on_c,1,60,81
2,158796213,Note_off_c,1,60,0
2,158808398,Note_on_c,1,60,81
2,158809335,Note_off_c,1,60,0
2,158831350,Note_on_c,1,60,81
2,158849506,Note_off_c,1,60,0
2,158878745,Note_on_c,1,60,81
2,158883500,Note_off_c,1,60,0
2,158930795,Note_on_c,1,60,81
2,158977059,Note_off_c,1,60,0
2,158999967,Note_on_c,1,60,81
2,159055155,Note_off_c,1,60,0
2,159062483,Note_on_c,1,60,81
2,159081132,Note_on_c,1,60,81
2,159081795,Note_off_c,1,60,0
2,159147096,Note_off_c,1,60,0
2,159171608,Note_on_c,1,60,81
2,159178472,Note_on_c,1,60,81
2,159178559,Note_off_c,1,60,0
2,159194324,Note_on_c,1,60,81
2,159203306,Note_on_c,1,60,81
2,159203313,Note_off_c,1,60,0
2,159206500,Note_off_c,1,60,0
2,159207973,Note_off_c,1,60,0
2,159276502,Note_on_c,1,60,81
2,159277111,Note_off_c,1,60,0
2,159279040,Note_on_c,1,60,81
2,159280001,Note_off_c,1,60,0
2,159289713,Note_on_c,1,60,81
2,159308224,Note_off_c,1,60,0
2,159313719,Note_on_c,1,60,81
2,159314659,Note_off_c,1,60,0
2,159346165,Note_on_c,1,60,81
2,159351092,Note_on_c,1,60,81
2,159352026,Note_off_c,1,60,0
2,159366160,Note_on_c,1,60,81
2,159367089,Note_off_c,1,60,0
2,159405422,Note_on_c,1,60,81
2,159406409,Note_off_c,1,60,0
2,159432203,Note_on_c,1,60,81
2,159433138,Note_off_c,1,60,0
2,159437844,Note_on_c,1,60,81
2,159443078,Note_off_c,1,60,0
2,159466320,Note_on_c,1,60,81
2,159469068,Note_off_c,1,60,0
2,159483376,Note_off_c,1,60,0
2,159501663,Note_on_c,1,60,81
2,159535077,Note_on_c,1,60,81
2,159536007,Note_off_c,1,60,0
2,159557367,Note_on_c,1,60,81
2,159558200,Note_off_c,1,60,0
2,159581497,Note_off_c,1,60,0
2,159581619,Note_on_c,1,60,81
2,159582648,Note_off_c,1,60,0
2,159587825,Note_on_c,1,60,81
2,159588865,Note_off_c,1,60,0
2,159598297,Note_on_c,1,60,81
2,159599227,Note_off_c,1,60,0
2,159649150,Note_on_c,1,60,81
2,159649620,Note_off_c,1,60,0
2,159704982,Note_on_c,1,60,81
2,159705607,Note_off_c,1,60,0
2,159712288,Note_on_c,1,60,81
2,159714589,Note_off_c,1,60,0
2,159759169,Note_on_c,1,60,81
2,159759589,Note_off_c,1,60,0
2,159776456,Note_on_c,1,60,81
2,159779366,Note_off_c,1,60,0
2,159780931,Note_on_c,1,60,81
2,159782543,Note_off_c,1,60,0
2,159800510,Note_on_c,1,60,81
2,159816257,Note_off_c,1,60,0
2,159826810,Note_on_c,1,60,81
2,159834473,Note_on_c,1,60,81
2,159834479,Note_on_c,1,60,81
2,159837492,Note_off_c,1,60,0
2,159851905,Note_on_c,1,60,81
2,159851972,Note_off_c,1,60,0
2,159854315,Note_on_c,1,60,81
2,159854869,Note_on_c,1,60,81
2,159855071,Note_off_c,1,60,0
2,159862657,Note_off_c,1,60,0
2,159867685,Note_off_c,1,60,0
2,159872363,Note_on_c,1,60,81
2,159873053,Note_off_c,1,60,0
2,159899978,Note_on_c,1,60,81
2,159900079,Note_off_c,1,60,0
2,159900165,Note_off_c,1,60,0
2,159900474,Note_on_c,1,60,81
2,159903431,Note_off_c,1,60,0
2,159910093,Note_on_c,1,60,81
2,159910554,Note_off_c,1,60,0
2,159918106,Note_on_c,1,60,81
2,159925507,Note_off_c,1,60,0
2,159927038,Note_on_c,1,60,81
2,159945613,Note_off_c,1,60,0
2,159951491,Note_on_c,1,60,81
2,159954237,Note_off_c,1,60,0
2,159958034,Note_on_c,1,60,81
2,159972547,Note_on_c,1,60,81
2,159974064,Note_off_c,1,60,0
2,159984750,Note_off_c,1,60,0
2,159998650,Note_on_c,1,60,81
2,160020299,Note_on_c,1,60,81
2,160020727,Note_off_c,1,60,0
2,160024952,Note_on_c,1,60,81
2,160031990,Note_off_c,1,60,0
2,160062460,Note_on_c,1,60,81
2,160070160,Note_off_c,1,60,0
2,160080769,Note_off_c,1,60,0
2,160081537,Note_on_c,1,60,81
2,160090563,Note_off_c,1,60,0
2,160091339,Note_on_c,1,60,81
2,160098943,Note_off_c,1,60,0
2,160115758,Note_on_c,1,60,81
2,160143591,Note_off_c,1,60,0
2,160151585,Note_on_c,1,60,81
2,160186980,Note_off_c,1,60,0
2,160190574,Note_on_c,1,60,81
2,160201886,Note_off_c,1,60,0
2,160202198,Note_on_c,1,60,81
2,160205379,Note_on_c,1,60,81
2,160208869,Note_off_c,1,60,0
2,160215376,Note_off_c,1,60,0
2,160215714,Note_on_c,1,60,81
2,160216799,Note_on_c,1,60,81
2,160261740,Note_on_c,1,60,81
2,160262549,Note_off_c,1,60,0
2,160263328,Note_off_c,1,60,0
2,160266339,Note_on_c,1,60,81
2,160267225,Note_off_c,1,60,0
2,160276806,Note_on_c,1,60,81
2,160285130,Note_off_c,1,60,0
2,160286348,Note_off_c,1,60,0
2,160288593,Note_on_c,1,60,81
2,160317402,Note_on_c,1,60,81
2,160317706,Note_off_c,1,60,0
2,160326103,Note_on_c,1,60,81
2,160326216,Note_off_c,1,60,0
2,160343273,Note_off_c,1,60,0
2,160343315,Note_on_c,1,60,81
2,160358952,Note_off_c,1,60,0
2,160367070,Note_on_c,1,60,81
2,160372846,Note_off_c,1,60,0
2,160392767,Note_on_c,1,60,81
2,160392909,Note_off_c,1,60,0
2,160400563,Note_on_c,1,60,81
2,160428670,Note_off_c,1,60,0
2,160485029,Note_on_c,1,60,81
2,160523262,Note_off_c,1,60,0
2,160537072,Note_on_c,1,60,81
2,160541094,Note_on_c,1,60,81
2,160571458,Note_off_c,1,60,0
2,160579516,Note_off_c,1,60,0
2,160608105,Note_on_c,1,60,81
2,160647044,Note_off_c,1,60,0
2,160670147,Note_on_c,1,60,81
2,160670777,Note_on_c,1,60,81
2,160670979,Note_off_c,1,60,0
2,160678745,Note_on_c,1,60,81
2,160699761,Note_off_c,1,60,0
2,160711831,Note_off_c,1,60,0
2,160739056,Note_on_c,1,60,81
2,160754821,Note_off_c,1,60,0
2,160775953,Note_on_c,1,60,81
2,160776608,Note_off_c,1,60,0
2,160776974,Note_on_c,1,60,81
2,160780140,Note_off_c,1,60,0
2,160796073,Note_on_c,1,60,81
2,160828261,Note_off_c,1,60,0
2,160830159,Note_on_c,1,60,81
2,160848009,Note_on_c,1,60,81
2,160848502,Note_off_c,1,60,0
2,160862887,Note_off_c,1,60,0
2,160876539,Note_on_c,1,60,81
2,160885180,Note_off_c,1,60,0
2,160894979,Note_on_c,1,60,81
2,160896076,Note_off_c,1,60,0
2,160931738,Note_on_c,1,60,81
2,160932464,Note_on_c,1,60,81
2,160934380,Note_off_c,1,60,0
2,160935536,Note_on_c,1,60,81
2,160936126,Note_off_c,1,60,0
2,160945024,Note_on_c,1,60,81
2,160949922,Note_off_c,1,60,0
2,160954809,Note_off_c,1,60,0
2,160995210,Note_on_c,1,60,81
2,160997956,Note_on_c,1,60,81
2,161021343,Note_off_c,1,60,0
2,161034833,Note_on_c,1,60,81
2,161035006,Note_off_c,1,60,0
2,161037630,Note_on_c,1,60,81
2,161038962,Note_off_c,1,60,0
2,161038977,Note_off_c,1,60,0
2,161039250,Note_on_c,1,60,81
2,161045977,Note_off_c,1,60,0
2,161046026,Note_on_c,1,60,81
2,161046855,Note_off_c,1,60,0
2,161046945,Note_on_c,1,60,81
2,161069970,Note_off_c,1,60,0
2,161070997,Note_on_c,1,60,81
2,161084464,Note_on_c,1,60,81
2,161087571,Note_off_c,1,60,0
2,161089558,Note_off_c,1,60,0
2,161098360,Note_on_c,1,60,81
2,161100346,Note_off_c,1,60,0
2,161100555,Note_on_c,1,60,81
2,161118055,Note_off_c,1,60,0
2,161118085,Note_on_c,1,60,81
2,161120973,Note_on_c,1,60,81
2,161125445,Note_off_c,1,60,0
2,161132688,Note_off_c,1,60,0
2,161141207,Note_on_c,1,60,81
2,161141336,Note_off_c,1,60,0
2,161152775,Note_on_c,1,60,81
2,161153759,Note_on_c,1,60,81
2,161158856,Note_off_c,1,60,0
2,161159349,Note_off_c,1,60,0
2,161159449,Note_on_c,1,60,81
2,161165723,Note_off_c,1,60,0
2,161166055,Note_on_c,1,60,81
2,161171309,Note_on_c,1,60,81
2,161177968,Note_off_c,1,60,0
2,161178013,Note_off_c,1,60,0
2,161184301,Note_on_c,1,60,81
2,161197103,Note_on_c,1,60,81
2,161199054,Note_off_c,1,60,0
2,161214723,Note_off_c,1,60,0
2,161215233,Note_on_c,1,60,81
2,161220699,Note_off_c,1,60,0
2,161222291,Note_on_c,1,60,81
2,161223631,Note_off_c,1,60,0
2,161225938,Note_on_c,1,60,81
2,161227185,Note_on_c,1,60,81
2,161227261,Note_off_c,1,60,0
2,161229665,Note_on_c,1,60,81
2,161230746,Note_off_c,1,60,0
2,161238244,Note_off_c,1,60,0
2,161258744,Note_on_c,1,60,81
2,161285450,Note_off_c,1,60,0
2,161304734,Note_on_c,1,60,81
2,161309968,Note_off_c,1,60,0
2,161314380,Note_on_c,1,60,81
2,161363206,Note_off_c,1,60,0
2,161364226,Note_on_c,1,60,81
2,161364732,Note_on_c,1,60,81
2,161364751,Note_off_c,1,60,0
2,161367876,Note_off_c,1,60,0
2,161368021,Note_on_c,1,60,81
2,161371964,Note_off_c,1,60,0
2,161378706,Note_on_c,1,60,81
2,161379358,Note_off_c,1,60,0
2,161389546,Note_on_c,1,60,81
2,161389950,Note_off_c,1,60,0
2,161399408,Note_on_c,1,60,81
2,161399997,Note_on_c,1,60,81
2,161401288,Note_on_c,1,60,81
2,161401395,Note_off_c,1,60,0
2,161401868,Note_off_c,1,60,0
2,161403408,Note_on_c,1,60,81
2,161406067,Note_on_c,1,60,81
2,161407082,Note_off_c,1,60,0
2,161411596,Note_on_c,1,60,81
2,161411802,Note_off_c,1,60,0
2,161422424,Note_off_c,1,60,0
2,161433443,Note_on_c,1,60,81
2,161440996,Note_off_c,1,60,0
2,161470523,Note_off_c,1,60,0
2,161505429,Note_on_c,1,60,81
2,161513175,Note_on_c,1,60,81
2,161518704,Note_on_c,1,60,81
2,161519568,Note_off_c,1,60,0
2,161524013,Note_off_c,1,60,0
2,161524539,Note_on_c,1,60,81
2,161526894,Note_off_c,1,60,0
2,161536570,Note_on_c,1,60,81
2,161538158,Note_off_c,1,60,0
2,161541758,Note_on_c,1,60,81
2,161550737,Note_off_c,1,60,0
2,161556289,Note_on_c,1,60,81
2,161557078,Note_off_c,1,60,0
2,161581338,Note_on_c,1,60,81
2,161605099,Note_off_c,1,60,0
2,161605662,Note_off_c,1,60,0
2,161606290,Note_on_c,1,60,81
2,161608217,Note_off_c,1,60,0
2,161617991,Note_on_c,1,60,81
2,161619585,Note_off_c,1,60,0
2,161623195,Note_on_c,1,60,81
2,161631963,Note_off_c,1,60,0
2,161663142,Note_on_c,1,60,81
2,161671977,Note_on_c,1,60,81
2,161674824,Note_off_c,1,60,0
2,161678654,Note_off_c,1,60,0
2,161683694,Note_on_c,1,60,81
2,161685252,Note_off_c,1,60,0
2,161699505,Note_on_c,1,60,81
2,161699607,Note_off_c,1,60,0
2,161706971,Note_on_c,1,60,81
2,161714352,Note_off_c,1,60,0
2,161721562,Note_on_c,1,60,81
2,161728143,Note_off_c,1,60,0
2,161735807,Note_on_c,1,60,81
2,161736102,Note_off_c,1,60,0
2,161749757,Note_on_c,1,60,81
2,161757238,Note_off_c,1,60,0
2,161765324,Note_on_c,1,60,81
2,161766227,Note_off_c,1,60,0
2,161766297,Note_on_c,1,60,81
2,161890832,Note_on_c,1,60,81
2,161892196,Note_off_c,1,60,0
2,161977574,Note_off_c,1,60,0
2,161983191,Note_on_c,1,60,81
2,162023869,Note_off_c,1,60,0
2,162039015,Note_on_c,1,60,81
2,162039567,Note_off_c,1,60,0
2,162069690,Note_on_c,1,60,81
2,162146708,Note_on_c,1,60,81
2,162157106,Note_on_c,1,60,81
2,162157182,Note_off_c,1,60,0
2,162175243,Note_off_c,1,60,0
2,162316851,Note_on_c,1,60,81
2,162317794,Note_off_c,1,60,0
2,162338642,Note_on_c,1,60,81
2,162338742,Note_off_c,1,60,0
2,162342545,Note_on_c,1,60,81
2,162342640,Note_off_c,1,60,0
2,162365406,Note_on_c,1,60,81
2,162370475,Note_off_c,1,60,0
2,162373202,Note_on_c,1,60,81
2,162376854,Note_off_c,1,60,0
2,162378840,Note_on_c,1,60,81
2,162383531,Note_off_c,1,60,0
2,162386812,Note_off_c,1,60,0
2,162395267,Note_on_c,1,60,81
2,162412138,Note_off_c,1,60,0
2,162445548,Note_on_c,1,60,81
2,162446566,Note_off_c,1,60,0
2,162497250,Note_on_c,1,60,81
2,162529631,Note_off_c,1,60,0
2,162541331,Note_on_c,1,60,81
2,162541628,Note_off_c,1,60,0
2,162560226,Note_on_c,1,60,81
2,162561308,Note_off_c,1,60,0
2,162561505,Note_on_c,1,60,81
2,162593102,Note_on_c,1,60,81
2,162593754,Note_off_c,1,60,0
2,162599842,Note_off_c,1,60,0
2,162631372,Note_on_c,1,60,81
2,162777729,Note_on_c,1,60,81
2,162778014,Note_off_c,1,60,0
2,162787405,Note_off_c,1,60,0
2,162790701,Note_on_c,1,60,81
2,162812823,Note_off_c,1,60,0
2,162824457,Note_on_c,1,60,81
2,162824794,Note_on_c,1,60,81
2,162849467,Note_off_c,1,60,0
2,162868761,Note_off_c,1,60,0
2,162979550,Note_on_c,1,60,81
2,162979793,Note_off_c,1,60,0
2,163068774,Note_on_c,1,60,81
2,163076802,Note_off_c,1,60,0
2,163111120,Note_on_c,1,60,81
2,163161674,Note_on_c,1,60,81
2,163213023,Note_off_c,1,60,0
2,163237213,Note_on_c,1,60,81
2,163239197,Note_off_c,1,60,0
2,163244504,Note_on_c,1,60,81
2,163259849,Note_on_c,1,60,81
2,163260659,Note_off_c,1,60,0
2,163266575,Note_on_c,1,60,81
2,163321791,Note_off_c,1,60,0
2,163321894,Note_off_c,1,60,0
2,163355764,Note_off_c,1,60,0
2,163422404,Note_on_c,1,60,81
2,163423164,Note_off_c,1,60,0
2,163468495,Note_on_c,1,60,81
2,163468605,Note_off_c,1,60,0
2,163509483,Note_on_c,1,60,81
2,163509595,Note_off_c,1,60,0
2,163769338,Note_on_c,1,60,81
2,163769691,Note_off_c,1,60,0
2,163923669,Note_on_c,1,60,81
2,163923873,Note_off_c,1,60,0
2,164343004,Note_on_c,1,60,81
2,164343864,Note_off_c,1,60,0
2,164351272,Note_on_c,1,60,81
2,164351388,Note_off_c,1,60,0
2,164356766,Note_on_c,1,60,81
2,164357364,Note_off_c,1,60,0
2,164555583,Note_on_c,1,60,81
2,164639564,Note_on_c,1,60,81
2,164639671,Note_off_c,1,60,0
2,164680084,Note_on_c,1,60,81
2,164680799,Note_off_c,1,60,0
2,164703025,Note_on_c,1,60,81
2,164703309,Note_off_c,1,60,0
2,164769115,Note_on_c,1,60,81
2,164774641,Note_off_c,1,60,0
2,164828435,Note_on_c,1,60,81
2,164829952,Note_off_c,1,60,0
2,164854230,Note_on_c,1,60,81
2,164854332,Note_off_c,1,60,0
2,164899296,Note_off_c,1,60,0
2,164903098,Note_on_c,1,60,81
2,164912379,Note_off_c,1,60,0
2,164921317,Note_on_c,1,60,81
2,164921629,Note_off_c,1,60,0
2,164980034,Note_on_c,1,60,81
2,164980137,Note_off_c,1,60,0
2,165201866,Note_on_c,1,60,81
2,165210626,Note_on_c,1,60,81
2,165213090,Note_off_c,1,60,0
2,165215950,Note_on_c,1,60,81
2,165219104,Note_off_c,1,60,0
2,165356715,Note_off_c,1,60,0
2,165400921,Note_on_c,1,60,81
2,165445355,Note_off_c,1,60,0
2,165476832,Note_on_c,1,60,81
2,165497723,Note_on_c,1,60,81
2,165498348,Note_off_c,1,60,0
2,165543999,Note_on_c,1,60,81
2,165563957,Note_off_c,1,60,0
2,165581612,Note_on_c,1,60,81
2,165582155,Note_off_c,1,60,0
2,165582476,Note_off_c,1,60,0
2,165598355,Note_on_c,1,60,81
2,165624084,Note_off_c,1,60,0
2,165631212,Note_on_c,1,60,81
2,165661796,Note_off_c,1,60,0
2,165662215,Note_on_c,1,60,81
2,165662584,Note_on_c,1,60,81
2,165662687,Note_off_c,1,60,0
2,165671255,Note_on_c,1,60,81
2,165671725,Note_off_c,1,60,0
2,165676309,Note_on_c,1,60,81
2,165676781,Note_off_c,1,60,0
2,165698562,Note_off_c,1,60,0
2,165698749,Note_on_c,1,60,81
2,165706555,Note_on_c,1,60,81
2,165707284,Note_off_c,1,60,0
2,165709968,Note_off_c,1,60,0
2,165724292,Note_on_c,1,60,81
2,165768928,Note_on_c,1,60,81
2,165775176,Note_off_c,1,60,0
2,165819352,Note_on_c,1,60,81
2,165819787,Note_off_c,1,60,0
2,165827613,Note_on_c,1,60,81
2,165827755,Note_off_c,1,60,0
2,165889724,Note_on_c,1,60,81
2,165900995,Note_off_c,1,60,0
2,165907920,Note_on_c,1,60,81
2,165907976,Note_off_c,1,60,0
2,165911618,Note_off_c,1,60,0
2,165941234,Note_on_c,1,60,81
2,165941769,Note_off_c,1,60,0
2,166022214,Note_on_c,1,60,81
2,166023027,Note_off_c,1,60,0
2,166042243,Note_on_c,1,60,81
2,166042350,Note_off_c,1,60,0
2,166057425,Note_on_c,1,60,81
2,166081182,Note_on_c,1,60,81
2,166087483,Note_off_c,1,60,0
2,166147781,Note_on_c,1,60,81
2,166154742,Note_on_c,1,60,81
2,166154798,Note_off_c,1,60,0
2,166165095,Note_off_c,1,60,0
2,166165851,Note_on_c,1,60,81
2,166167001,Note_off_c,1,60,0
2,166275628,Note_on_c,1,60,81
2,166277597,Note_off_c,1,60,0
2,166340900,Note_off_c,1,60,0
2,166387726,Note_on_c,1,60,81
2,166452632,Note_off_c,1,60,0
2,166474744,Note_on_c,1,60,81
2,166474878,Note_on_c,1,60,81
2,166481565,Note_off_c,1,60,0
2,166490307,Note_off_c,1,60,0
2,166566177,Note_on_c,1,60,81
2,166580705,Note_off_c,1,60,0
2,166603915,Note_on_c,1,60,81
2,166631400,Note_off_c,1,60,0
2,166665884,Note_on_c,1,60,81
2,166682196,Note_off_c,1,60,0
2,166747378,Note_on_c,1,60,81
2,166748660,Note_off_c,1,60,0
2,166763333,Note_on_c,1,60,81
2,166792767,Note_off_c,1,60,0
2,166796265,Note_on_c,1,60,81
2,166797183,Note_off_c,1,60,0
2,166839446,Note_on_c,1,60,81
2,166856359,Note_off_c,1,60,0
2,166856509,Note_on_c,1,60,81
2,166868747,Note_on_c,1,60,81
2,166869209,Note_off_c,1,60,0
2,166876264,Note_off_c,1,60,0
2,166895710,Note_on_c,1,60,81
2,166975540,Note_off_c,1,60,0
2,166975581,Note_on_c,1,60,81
2,167005958,Note_on_c,1,60,81
2,167006077,Note_off_c,1,60,0
2,167022214,Note_off_c,1,60,0
2,167052550,Note_on_c,1,60,81
2,167052835,Note_on_c,1,60,81
2,167058542,Note_off_c,1,60,0
2,167094074,Note_on_c,1,60,81
2,167129165,Note_off_c,1,60,0
2,167162422,Note_on_c,1,60,81
2,167162837,Note_off_c,1,60,0
2,167166479,Note_off_c,1,60,0
2,167175362,Note_on_c,1,60,81
2,167195792,Note_off_c,1,60,0
2,167219830,Note_on_c,1,60,81
2,167220512,Note_off_c,1,60,0
2,167220875,Note_on_c,1,60,81
2,167379107,Note_on_c,1,60,81
2,167381000,Note_off_c,1,60,0
2,167427345,Note_off_c,1,60,0
2,167430639,Note_on_c,1,60,81
2,167455194,Note_on_c,1,60,81
2,167457382,Note_on_c,1,60,81
2,167457741,Note_on_c,1,60,81
2,167458646,Note_off_c,1,60,0
2,167458661,Note_off_c,1,60,0
2,167459891,Note_off_c,1,60,0
2,167518610,Note_off_c,1,60,0
2,167519535,Note_on_c,1,60,81
2,167520586,Note_off_c,1,60,0
2,167529116,Note_on_c,1,60,81
2,167553805,Note_off_c,1,60,0
2,167591391,Note_on_c,1,60,81
2,167591846,Note_off_c,1,60,0
2,167627384,Note_on_c,1,60,81
2,167630092,Note_on_c,1,60,81
2,167630674,Note_off_c,1,60,0
2,167708696,Note_off_c,1,60,0
2,167721191,Note_on_c,1,60,81
2,167791919,Note_off_c,1,60,0
2,167809385,Note_on_c,1,60,81
2,167819897,Note_on_c,1,60,81
2,167820248,Note_off_c,1,60,0
2,167820405,Note_on_c,1,60,81
2,167821224,Note_off_c,1,60,0
2,167914215,Note_off_c,1,60,0
2,167916674,Note_on_c,1,60,81
2,167935782,Note_on_c,1,60,81
2,167937072,Note_off_c,1,60,0
2,167998659,Note_on_c,1,60,81
2,167998726,Note_off_c,1,60,0
2,168055900,Note_on_c,1,60,81
2,168056422,Note_off_c,1,60,0
2,168075843,Note_off_c,1,60,0
2,168079541,Note_on_c,1,60,81
2,168137667,Note_off_c,1,60,0
2,168178961,Note_on_c,1,60,81
2,168202109,Note_off_c,1,60,0
2,168210615,Note_on_c,1,60,81
2,168210969,Note_off_c,1,60,0
2,168215404,Note_on_c,1,60,81
2,168215652,Note_off_c,1,60,0
2,168225937,Note_on_c,1,60,81
2,168245564,Note_on_c,1,60,81
2,168247343,Note_off_c,1,60,0
2,168253021,Note_off_c,1,60,0
2,168263374,Note_on_c,1,60,81
2,168263481,Note_off_c,1,60,0
2,168280876,Note_on_c,1,60,81
2,168314426,Note_off_c,1,60,0
2,168317496,Note_on_c,1,60,81
2,168375523,Note_on_c,1,60,81
2,168375621,Note_off_c,1,60,0
2,168376876,Note_off_c,1,60,0
2,168400828,Note_on_c,1,60,81
2,168401482,Note_on_c,1,60,81
2,168407274,Note_off_c,1,60,0
2,168449671,Note_on_c,1,60,81
2,168451211,Note_off_c,1,60,0
2,168495692,Note_off_c,1,60,0
2,168540767,Note_on_c,1,60,81
2,168542736,Note_on_c,1,60,81
2,168543354,Note_off_c,1,60,0
2,168543997,Note_off_c,1,60,0
2,168576604,Note_on_c,1,60,81
2,168578652,Note_on_c,1,60,81
2,168579439,Note_off_c,1,60,0
2,168582069,Note_off_c,1,60,0
2,168695467,Note_on_c,1,60,81
2,168695873,Note_on_c,1,60,81
2,168729206,Note_off_c,1,60,0
2,168763364,Note_on_c,1,60,81
2,168774490,Note_off_c,1,60,0
2,168784011,Note_on_c,1,60,81
2,168792886,Note_off_c,1,60,0
2,168898135,Note_on_c,1,60,81
2,168898439,Note_off_c,1,60,0
2,168898632,Note_on_c,1,60,81
2,168902836,Note_off_c,1,60,0
2,168903904,Note_on_c,1,60,81
2,168938466,Note_on_c,1,60,81
2,168938923,Note_off_c,1,60,0
2,169059575,Note_on_c,1,60,81
2,169062441,Note_off_c,1,60,0
2,169067263,Note_on_c,1,60,81
2,169067364,Note_off_c,1,60,0
2,169087005,Note_off_c,1,60,0
2,169103296,Note_off_c,1,60,0
2,169104123,Note_on_c,1,60,81
2,169104907,Note_off_c,1,60,0
2,169105696,Note_on_c,1,60,81
2,169112163,Note_on_c,1,60,81
2,169112773,Note_off_c,1,60,0
2,169132530,Note_on_c,1,60,81
2,169310664,Note_on_c,1,60,81
2,169310992,Note_off_c,1,60,0
2,169322479,Note_off_c,1,60,0
2,169367948,Note_off_c,1,60,0
2,169367969,Note_on_c,1,60,81
2,169394869,Note_on_c,1,60,81
2,169396540,Note_off_c,1,60,0
2,169460669,Note_off_c,1,60,0
2,169463908,Note_on_c,1,60,81
2,169474059,Note_on_c,1,60,81
2,169474159,Note_off_c,1,60,0
2,169485944,Note_off_c,1,60,0
2,169486075,Note_on_c,1,60,81
2,169500182,Note_off_c,1,60,0
2,169511950,Note_on_c,1,60,81
2,169586588,Note_off_c,1,60,0
2,169588848,Note_on_c,1,60,81
2,169630193,Note_off_c,1,60,0
2,169662006,Note_on_c,1,60,81
2,169690664,Note_on_c,1,60,81
2,169711702,Note_off_c,1,60,0
2,169722639,Note_on_c,1,60,81
2,169762928,Note_on_c,1,60,81
2,169764648,Note_off_c,1,60,0
2,169764705,Note_off_c,1,60,0
2,169792528,Note_on_c,1,60,81
2,169794963,Note_off_c,1,60,0
2,169849630,Note_on_c,1,60,81
2,169854080,Note_off_c,1,60,0
2,169859755,Note_on_c,1,60,81
2,169860052,Note_off_c,1,60,0
2,169894267,Note_off_c,1,60,0
2,169915003,Note_on_c,1,60,81
2,169915198,Note_off_c,1,60,0
2,169921325,Note_on_c,1,60,81
2,169957941,Note_on_c,1,60,81
2,169958246,Note_off_c,1,60,0
2,169990066,Note_on_c,1,60,81
2,169990196,Note_off_c,1,60,0
2,170024076,Note_on_c,1,60,81
2,170024683,Note_off_c,1,60,0
2,170085208,Note_off_c,1,60,0
2,170115635,Note_on_c,1,60,81
2,170116576,Note_off_c,1,60,0
2,170145958,Note_on_c,1,60,81
2,170151377,Note_on_c,1,60,81
2,170151377,Note_on_c,1,60,81
2,170151462,Note_off_c,1,60,0
2,170151462,Note_off_c,1,60,0
2,170168866,Note_off_c,1,60,0
2,170173864,Note_on_c,1,60,81
2,170211009,Note_on_c,1,60,81
2,170211457,Note_off_c,1,60,0
2,170271394,Note_on_c,1,60,81
2,170284277,Note_off_c,1,60,0
2,170304358,Note_off_c,1,60,0
2,170369222,Note_on_c,1,60,81
2,170370367,Note_off_c,1,60,0
2,170460452,Note_on_c,1,60,81
2,170531818,Note_on_c,1,60,81
2,170532647,Note_off_c,1,60,0
2,170553834,Note_off_c,1,60,0
2,170587248,Note_on_c,1,60,81
2,170588236,Note_off_c,1,60,0
2,170598853,Note_on_c,1,60,81
2,170647339,Note_off_c,1,60,0
2,170662727,Note_on_c,1,60,81
2,170667380,Note_on_c,1,60,81
2,170669425,Note_off_c,1,60,0
2,170739421,Note_off_c,1,60,0
2,170748572,Note_on_c,1,60,81
2,170935525,Note_on_c,1,60,81
2,171064765,Note_off_c,1,60,0
2,171083564,Note_on_c,1,60,81
2,171085205,Note_off_c,1,60,0
2,171090900,Note_on_c,1,60,81
2,171101727,Note_on_c,1,60,81
2,171101738,Note_on_c,1,60,81
2,171101798,Note_off_c,1,60,0
2,171101806,Note_off_c,1,60,0
2,171117819,Note_off_c,1,60,0
2,171137739,Note_on_c,1,60,81
2,171161568,Note_off_c,1,60,0
2,171185248,Note_on_c,1,60,81
2,171199243,Note_on_c,1,60,81
2,171212686,Note_off_c,1,60,0
2,171227788,Note_off_c,1,60,0
2,171248470,Note_on_c,1,60,81
2,171251857,Note_off_c,1,60,0
2,171253905,Note_on_c,1,60,81
2,171254022,Note_off_c,1,60,0
2,171270953,Note_on_c,1,60,81
2,171271590,Note_off_c,1,60,0
2,171285978,Note_off_c,1,60,0
2,171314182,Note_on_c,1,60,81
2,171339298,Note_on_c,1,60,81
2,171339959,Note_off_c,1,60,0
2,171342084,Note_off_c,1,60,0
2,171345104,Note_on_c,1,60,81
2,171345307,Note_off_c,1,60,0
2,171392228,Note_on_c,1,60,81
2,171392790,Note_off_c,1,60,0
2,171444698,Note_on_c,1,60,81
2,171444963,Note_off_c,1,60,0
2,171485529,Note_on_c,1,60,81
2,171593511,Note_off_c,1,60,0
2,171600620,Note_on_c,1,60,81
2,171635416,Note_on_c,1,60,81
2,171638799,Note_off_c,1,60,0
2,171652688,Note_off_c,1,60,0
2,171670516,Note_on_c,1,60,81
2,171670939,Note_off_c,1,60,0
2,171683127,Note_on_c,1,60,81
2,171684438,Note_off_c,1,60,0
2,171700159,Note_on_c,1,60,81
2,171742074,Note_off_c,1,60,0
2,171751542,Note_on_c,1,60,81
2,171752025,Note_off_c,1,60,0
2,171755802,Note_on_c,1,60,81
2,171756323,Note_off_c,1,60,0
2,171762073,Note_on_c,1,60,81
2,171762524,Note_off_c,1,60,0
2,171768069,Note_on_c,1,60,81
2,171768175,Note_off_c,1,60,0
2,171781659,Note_on_c,1,60,81
2,171803516,Note_on_c,1,60,81
2,171803939,Note_off_c,1,60,0
2,171814023,Note_off_c,1,60,0
2,171817886,Note_on_c,1,60,81
2,171824609,Note_on_c,1,60,81
2,171824959,Note_off_c,1,60,0
2,171864186,Note_on_c,1,60,81
2,171864687,Note_off_c,1,60,0
2,172138396,Note_on_c,1,60,81
2,172138797,Note_on_c,1,60,81
2,172138807,Note_on_c,1,60,81
2,172138888,Note_off_c,1,60,0
2,172138907,Note_off_c,1,60,0
2,172144534,Note_on_c,1,60,81
2,172144644,Note_off_c,1,60,0
2,172144840,Note_off_c,1,60,0
2,172210710,Note_on_c,1,60,81
2,172213499,Note_off_c,1,60,0
2,172366539,Note_on_c,1,60,81
2,172366646,Note_off_c,1,60,0
2,172370188,Note_on_c,1,60,81
2,172418466,Note_off_c,1,60,0
2,172420684,Note_on_c,1,60,81
2,172444086,Note_off_c,1,60,0
2,172468831,Note_off_c,1,60,0
2,172532348,Note_on_c,1,60,81
2,172611833,Note_off_c,1,60,0
2,172613427,Note_on_c,1,60,81
2,172613534,Note_off_c,1,60,0
2,172659102,Note_on_c,1,60,81
2,172666876,Note_off_c,1,60,0
2,172748559,Note_on_c,1,60,81
2,172749502,Note_off_c,1,60,0
2,172752585,Note_on_c,1,60,81
2,172752924,Note_off_c,1,60,0
2,172775904,Note_on_c,1,60,81
2,172885946,Note_on_c,1,60,81
2,172886258,Note_off_c,1,60,0
2,172906899,Note_on_c,1,60,81
2,172907684,Note_off_c,1,60,0
2,173039201,Note_on_c,1,60,81
2,173050941,Note_off_c,1,60,0
2,173064015,Note_off_c,1,60,0
2,173141099,Note_on_c,1,60,81
2,173142350,Note_off_c,1,60,0
2,173174299,Note_on_c,1,60,81
2,173175503,Note_off_c,1,60,0
2,173183730,Note_on_c,1,60,81
2,173207331,Note_off_c,1,60,0
2,173351688,Note_on_c,1,60,81
2,173352004,Note_off_c,1,60,0
2,173362396,Note_on_c,1,60,81
2,173363733,Note_off_c,1,60,0
2,173417792,Note_on_c,1,60,81
2,173477329,Note_on_c,1,60,81
2,173488815,Note_off_c,1,60,0
2,173489407,Note_off_c,1,60,0
2,173500459,Note_on_c,1,60,81
2,173555250,Note_on_c,1,60,81
2,173596059,Note_on_c,1,60,81
2,173603072,Note_off_c,1,60,0
2,173608335,Note_on_c,1,60,81
2,173612772,Note_off_c,1,60,0
2,173635337,Note_on_c,1,60,81
2,173637130,Note_off_c,1,60,0
2,173637712,Note_on_c,1,60,81
2,173669837,Note_off_c,1,60,0
2,173669851,Note_off_c,1,60,0
2,173678264,Note_off_c,1,60,0
2,173714940,Note_on_c,1,60,81
2,173741673,Note_on_c,1,60,81
2,173741928,Note_off_c,1,60,0
2,173786692,Note_off_c,1,60,0
2,173791547,Note_on_c,1,60,81
2,173791887,Note_off_c,1,60,0
2,173799549,Note_on_c,1,60,81
2,173808488,Note_on_c,1,60,81
2,173808622,Note_off_c,1,60,0
2,173824652,Note_on_c,1,60,81
2,173824883,Note_off_c,1,60,0
2,173858558,Note_on_c,1,60,81
2,173858808,Note_off_c,1,60,0
2,173862472,Note_on_c,1,60,81
2,173863941,Note_off_c,1,60,0
2,173868081,Note_on_c,1,60,81
2,173868882,Note_off_c,1,60,0
2,173903549,Note_off_c,1,60,0
2,173903799,Note_on_c,1,60,81
2,173917327,Note_off_c,1,60,0
2,173921069,Note_on_c,1,60,81
2,173921200,Note_off_c,1,60,0
2,173931083,Note_on_c,1,60,81
2,173969317,Note_on_c,1,60,81
2,173969436,Note_off_c,1,60,0
2,174009266,Note_on_c,1,60,81
2,174016206,Note_off_c,1,60,0
2,174022357,Note_off_c,1,60,0
2,174022508,Note_on_c,1,60,81
2,174023167,Note_off_c,1,60,0
2,174090135,Note_on_c,1,60,81
2,174090474,Note_off_c,1,60,0
2,174110267,Note_on_c,1,60,81
2,174159409,Note_on_c,1,60,81
2,174160165,Note_off_c,1,60,0
2,174367104,Note_on_c,1,60,81
2,174368039,Note_off_c,1,60,0
2,174447963,Note_on_c,1,60,81
2,174449545,Note_off_c,1,60,0
2,174756849,Note_on_c,1,60,81
2,174757119,Note_off_c,1,60,0
2,174849666,Note_on_c,1,60,81
2,174850168,Note_off_c,1,60,0
2,174892416,Note_on_c,1,60,81
2,174893155,Note_off_c,1,60,0
2,174896957,Note_on_c,1,60,81
2,174897996,Note_off_c,1,60,0
2,174922106,Note_on_c,1,60,81
2,174922440,Note_off_c,1,60,0
2,174934946,Note_on_c,1,60,81
2,174954261,Note_off_c,1,60,0
2,174967327,Note_on_c,1,60,81
2,174967944,Note_off_c,1,60,0
2,174995308,Note_off_c,1,60,0
2,174996523,Note_on_c,1,60,81
2,174996629,Note_off_c,1,60,0
2,174998352,Note_on_c,1,60,81
2,174999162,Note_on_c,1,60,81
2,174999623,Note_off_c,1,60,0
2,175010788,Note_on_c,1,60,81
2,175012027,Note_off_c,1,60,0
2,175022478,Note_on_c,1,60,81
2,175022580,Note_off_c,1,60,0
2,175023425,Note_off_c,1,60,0
2,175044625,Note_on_c,1,60,81
2,175045648,Note_off_c,1,60,0
2,175067832,Note_on_c,1,60,81
2,175148075,Note_off_c,1,60,0
2,175156985,Note_on_c,1,60,81
2,175192999,Note_off_c,1,60,0
2,175203227,Note_on_c,1,60,81
2,175204849,Note_off_c,1,60,0
2,175297079,Note_on_c,1,60,81
2,175297240,Note_off_c,1,60,0
2,175307217,Note_on_c,1,60,81
2,175315193,Note_on_c,1,60,81
2,175335459,Note_off_c,1,60,0
2,175538774,Note_on_c,1,60,81
2,175556818,Note_off_c,1,60,0
2,175743616,Note_off_c,1,60,0
2,175877342,Note_on_c,1,60,81
2,175880468,Note_off_c,1,60,0
2,175904761,Note_on_c,1,60,81
2,175921057,Note_off_c,1,60,0
2,175921974,Note_on_c,1,60,81
2,175922145,Note_off_c,1,60,0
2,175944830,Note_on_c,1,60,81
2,175968397,Note_on_c,1,60,81
2,175968540,Note_off_c,1,60,0
2,176017276,Note_on_c,1,60,81
2,176018760,Note_off_c,1,60,0
2,176207286,Note_off_c,1,60,0
2,176207645,Note_on_c,1,60,81
2,176217540,Note_on_c,1,60,81
2,176217602,Note_off_c,1,60,0
2,176231199,Note_on_c,1,60,81
2,176231830,Note_off_c,1,60,0
2,176243861,Note_on_c,1,60,81
2,176244029,Note_off_c,1,60,0
2,176272482,Note_on_c,1,60,81
2,176273402,Note_off_c,1,60,0
2,176305671,Note_on_c,1,60,81
2,176306095,Note_off_c,1,60,0
2,176367698,Note_on_c,1,60,81
2,176368401,Note_off_c,1,60,0
2,176447919,Note_off_c,1,60,0
2,176463170,Note_on_c,1,60,81
2,176616272,Note_on_c,1,60,81
2,176616786,Note_off_c,1,60,0
2,176829127,Note_on_c,1,60,81
2,176831841,Note_off_c,1,60,0
2,176845601,Note_off_c,1,60,0
2,176857301,Note_on_c,1,60,81
2,177029362,Note_on_c,1,60,81
2,177029445,Note_off_c,1,60,0
2,177164973,Note_off_c,1,60,0
2,177170957,Note_on_c,1,60,81
2,177282422,Note_off_c,1,60,0
2,177351559,Note_on_c,1,60,81
2,177392666,Note_on_c,1,60,81
2,177437880,Note_off_c,1,60,0
2,177700523,Note_on_c,1,60,81
2,177712275,Note_off_c,1,60,0
2,177920152,Note_off_c,1,60,0
2,177923955,Note_on_c,1,60,81
2,177928787,Note_on_c,1,60,81
2,177984303,Note_off_c,1,60,0
2,178006135,Note_on_c,1,60,81
2,178017126,Note_on_c,1,60,81
2,178017343,Note_off_c,1,60,0
2,178037950,Note_off_c,1,60,0
2,178038007,Note_off_c,1,60,0
2,178090676,Note_on_c,1,60,81
2,178093984,Note_off_c,1,60,0
2,178094103,Note_on_c,1,60,81
2,178194341,Note_on_c,1,60,81
2,178194709,Note_off_c,1,60,0
2,178411615,Note_on_c,1,60,81
2,178411972,Note_off_c,1,60,0
2,178479246,Note_on_c,1,60,81
2,178484147,Note_off_c,1,60,0
2,178484407,Note_on_c,1,60,81
2,178484682,Note_off_c,1,60,0
2,178499634,Note_off_c,1,60,0
2,178511562,Note_on_c,1,60,81
2,178513051,Note_off_c,1,60,0
2,178513108,Note_on_c,1,60,81
2,178542751,Note_on_c,1,60,81
2,178548602,Note_off_c,1,60,0
2,178548889,Note_off_c,1,60,0
2,178560912,Note_on_c,1,60,81
2,178561029,Note_off_c,1,60,0
2,178651705,Note_on_c,1,60,81
2,178652282,Note_off_c,1,60,0
2,178677748,Note_on_c,1,60,81
2,178677834,Note_off_c,1,60,0
2,178724305,Note_on_c,1,60,81
2,178725164,Note_on_c,1,60,81
2,178726285,Note_off_c,1,60,0
2,178746682,Note_on_c,1,60,81
2,178747754,Note_off_c,1,60,0
2,178753653,Note_on_c,1,60,81
2,178753772,Note_off_c,1,60,0
2,178849534,Note_on_c,1,60,81
2,178871077,Note_off_c,1,60,0
2,178921842,Note_off_c,1,60,0
2,179017298,Note_on_c,1,60,81
2,179017926,Note_off_c,1,60,0
2,179025803,Note_on_c,1,60,81
2,179035308,Note_on_c,1,60,81
2,179035652,Note_off_c,1,60,0
2,179076567,Note_off_c,1,60,0
2,179082069,Note_on_c,1,60,81
2,179098023,Note_off_c,1,60,0
2,179099329,Note_on_c,1,60,81
2,179137763,Note_on_c,1,60,81
2,179137934,Note_off_c,1,60,0
2,179183733,Note_on_c,1,60,81
2,179184547,Note_off_c,1,60,0
2,179196472,Note_on_c,1,60,81
2,179196579,Note_off_c,1,60,0
2,179201486,Note_on_c,1,60,81
2,179201627,Note_off_c,1,60,0
2,179201704,Note_on_c,1,60,81
2,179201926,Note_off_c,1,60,0
2,179220937,Note_on_c,1,60,81
2,179222125,Note_off_c,1,60,0
2,179229684,Note_off_c,1,60,0
2,179255732,Note_on_c,1,60,81
2,179256081,Note_off_c,1,60,0
2,179271115,Note_on_c,1,60,81
2,179271266,Note_off_c,1,60,0
2,179293713,Note_on_c,1,60,81
2,179358680,Note_off_c,1,60,0
2,179365719,Note_on_c,1,60,81
2,179447577,Note_on_c,1,60,81
2,179447601,Note_on_c,1,60,81
2,179448440,Note_off_c,1,60,0
2,179457315,Note_off_c,1,60,0
2,179543200,Note_on_c,1,60,81
2,179548922,Note_off_c,1,60,0
2,179550538,Note_on_c,1,60,81
2,179554735,Note_off_c,1,60,0
2,179575952,Note_off_c,1,60,0
2,179576267,Note_on_c,1,60,81
2,179576349,Note_off_c,1,60,0
2,179586704,Note_on_c,1,60,81
2,179589175,Note_off_c,1,60,0
2,179590371,Note_on_c,1,60,81
2,179591305,Note_off_c,1,60,0
2,179591612,Note_on_c,1,60,81
2,179691272,Note_off_c,1,60,0
2,179730190,Note_on_c,1,60,81
2,179742697,Note_off_c,1,60,0
2,179743290,Note_on_c,1,60,81
2,179816183,Note_on_c,1,60,81
2,179816198,Note_off_c,1,60,0
2,179818191,Note_off_c,1,60,0
2,179829608,Note_on_c,1,60,81
2,179836124,Note_off_c,1,60,0
2,179839966,Note_on_c,1,60,81
2,179877803,Note_off_c,1,60,0
2,179881606,Note_on_c,1,60,81
2,179882041,Note_on_c,1,60,81
2,179882595,Note_off_c,1,60,0
2,179900261,Note_on_c,1,60,81
2,179900564,Note_off_c,1,60,0
2,179920077,Note_off_c,1,60,0
2,179926640,Note_on_c,1,60,81
2,179941796,Note_off_c,1,60,0
2,179953183,Note_on_c,1,60,81
2,179954440,Note_off_c,1,60,0
2,179954772,Note_on_c,1,60,81
2,179968685,Note_on_c,1,60,81
2,179969506,Note_off_c,1,60,0
2,180000437,Note_on_c,1,60,81
2,180000808,Note_off_c,1,60,0
2,180114875,Note_off_c,1,60,0
2,180117139,Note_on_c,1,60,81
2,180123890,Note_off_c,1,60,0
2,180154868,Note_on_c,1,60,81
2,180204030,Note_off_c,1,60,0
2,180230263,Note_on_c,1,60,81
2,180269652,Note_on_c,1,60,81
2,180278984,Note_off_c,1,60,0
2,180434799,Note_on_c,1,60,81
2,180435936,Note_off_c,1,60,0
2,180438313,Note_on_c,1,60,81
2,180438390,Note_off_c,1,60,0
2,180502954,Note_off_c,1,60,0
2,180509379,Note_on_c,1,60,81
2,180519015,Note_on_c,1,60,81
2,180519119,Note_off_c,1,60,0
2,180566523,Note_off_c,1,60,0
2,180632021,Note_on_c,1,60,81
2,180758721,Note_on_c,1,60,81
2,180758817,Note_off_c,1,60,0
2,180890279,Note_off_c,1,60,0
2,180906650,Note_on_c,1,60,81
2,180909166,Note_off_c,1,60,0
2,180912896,Note_on_c,1,60,81
2,180944041,Note_on_c,1,60,81
2,180949698,Note_on_c,1,60,81
2,180951614,Note_off_c,1,60,0
2,180954887,Note_off_c,1,60,0
2,180964510,Note_on_c,1,60,81
2,180965909,Note_off_c,1,60,0
2,180970836,Note_on_c,1,60,81
2,180971247,Note_off_c,1,60,0
2,180972711,Note_on_c,1,60,81
2,180976482,Note_off_c,1,60,0
2,181023121,Note_off_c,1,60,0
2,181033373,Note_on_c,1,60,81
2,181061938,Note_off_c,1,60,0
2,181086643,Note_on_c,1,60,81
2,181088496,Note_off_c,1,60,0
2,181088699,Note_on_c,1,60,81
2,181092900,Note_off_c,1,60,0
2,181174483,Note_on_c,1,60,81
2,181182208,Note_off_c,1,60,0
2,181190470,Note_on_c,1,60,81
2,181191149,Note_off_c,1,60,0
2,181236387,Note_on_c,1,60,81
2,181238604,Note_off_c,1,60,0
2,181317689,Note_on_c,1,60,81
2,181668748,Note_on_c,1,60,81
2,181669028,Note_off_c,1,60,0
2,181771565,Note_on_c,1,60,81
2,181771644,Note_off_c,1,60,0
2,181808084,Note_off_c,1,60,0
2,181808926,Note_on_c,1,60,81
2,181812495,Note_off_c,1,60,0
2,181812704,Note_on_c,1,60,81
2,181813261,Note_off_c,1,60,0
2,181839472,Note_on_c,1,60,81
2,181839774,Note_off_c,1,60,0
2,181962888,Note_on_c,1,60,81
2,181998985,Note_off_c,1,60,0
2,182054569,Note_on_c,1,60,81
2,182061712,Note_off_c,1,60,0
2,182062676,Note_on_c,1,60,81
2,182069253,Note_off_c,1,60,0
2,182086550,Note_on_c,1,60,81
2,182090112,Note_off_c,1,60,0
2,182096337,Note_on_c,1,60,81
2,182127296,Note_on_c,1,60,81
2,182128682,Note_off_c,1,60,0
2,182149702,Note_on_c,1,60,81
2,182150672,Note_off_c,1,60,0
2,182182729,Note_on_c,1,60,81
2,182183096,Note_off_c,1,60,0
2,182314061,Note_off_c,1,60,0
2,182327067,Note_on_c,1,60,81
2,182327174,Note_off_c,1,60,0
2,182328496,Note_on_c,1,60,81
2,182329007,Note_off_c,1,60,0
2,182336000,Note_on_c,1,60,81
2,182336334,Note_off_c,1,60,0
2,182378097,Note_on_c,1,60,81
2,182392206,Note_off_c,1,60,0
2,182398116,Note_on_c,1,60,81
2,182400667,Note_off_c,1,60,0
2,182407620,Note_on_c,1,60,81
2,182409191,Note_on_c,1,60,81
2,182414815,Note_off_c,1,60,0
2,182433892,Note_on_c,1,60,81
2,182434461,Note_off_c,1,60,0
2,182441576,Note_on_c,1,60,81
2,182442362,Note_off_c,1,60,0
2,182560599,Note_off_c,1,60,0
2,182573633,Note_on_c,1,60,81
2,182576771,Note_on_c,1,60,81
2,182577040,Note_off_c,1,60,0
2,182589256,Note_off_c,1,60,0
2,182598622,Note_on_c,1,60,81
2,182604389,Note_off_c,1,60,0
2,182615253,Note_on_c,1,60,81
2,182616629,Note_off_c,1,60,0
2,182641815,Note_on_c,1,60,81
2,182684576,Note_off_c,1,60,0
2,182712861,Note_on_c,1,60,81
2,182714544,Note_off_c,1,60,0
2,182733791,Note_on_c,1,60,81
2,182734779,Note_off_c,1,60,0
2,182789292,Note_on_c,1,60,81
2,182830384,Note_off_c,1,60,0
2,182837184,Note_on_c,1,60,81
2,182839346,Note_on_c,1,60,81
2,182839561,Note_off_c,1,60,0
2,182887982,Note_off_c,1,60,0
2,182899864,Note_on_c,1,60,81
2,182942114,Note_on_c,1,60,81
2,182942404,Note_off_c,1,60,0
2,182944364,Note_on_c,1,60,81
2,182944490,Note_off_c,1,60,0
2,182953525,Note_off_c,1,60,0
2,182955389,Note_on_c,1,60,81
2,182956148,Note_off_c,1,60,0
2,182959073,Note_on_c,1,60,81
2,182960405,Note_off_c,1,60,0
2,182982211,Note_on_c,1,60,81
2,182982318,Note_off_c,1,60,0
2,183023419,Note_on_c,1,60,81
2,183138401,Note_on_c,1,60,81
2,183141282,Note_off_c,1,60,0
2,183145592,Note_off_c,1,60,0
2,183186237,Note_on_c,1,60,81
2,183245127,Note_off_c,1,60,0
2,183248236,Note_on_c,1,60,81
2,183252262,Note_on_c,1,60,81
2,183258968,Note_off_c,1,60,0
2,183266601,Note_on_c,1,60,81
2,183267285,Note_off_c,1,60,0
2,183372869,Note_on_c,1,60,81
2,183374556,Note_off_c,1,60,0
2,183418380,Note_off_c,1,60,0
2,183460873,Note_on_c,1,60,81
2,183472215,Note_on_c,1,60,81
2,183472896,Note_off_c,1,60,0
2,183555561,Note_on_c,1,60,81
2,183590876,Note_off_c,1,60,0
2,183598246,Note_off_c,1,60,0
2,183605127,Note_on_c,1,60,81
2,183605884,Note_off_c,1,60,0
2,183613536,Note_on_c,1,60,81
2,183619335,Note_off_c,1,60,0
2,183620845,Note_on_c,1,60,81
2,183635783,Note_off_c,1,60,0
2,183636084,Note_on_c,1,60,81
2,183646274,Note_on_c,1,60,81
2,183653316,Note_off_c,1,60,0
2,183709304,Note_on_c,1,60,81
2,183710240,Note_off_c,1,60,0
2,183754417,Note_on_c,1,60,81
2,183754937,Note_off_c,1,60,0
2,183874510,Note_on_c,1,60,81
2,183875729,Note_off_c,1,60,0
2,183928532,Note_off_c,1,60,0
2,183929853,Note_on_c,1,60,81
2,184037729,Note_off_c,1,60,0
2,184051650,Note_on_c,1,60,81
2,184080656,Note_on_c,1,60,81
2,184123978,Note_off_c,1,60,0
2,184149652,Note_off_c,1,60,0
2,184171713,Note_on_c,1,60,81
2,184171823,Note_off_c,1,60,0
2,184315657,Note_on_c,1,60,81
2,184315765,Note_off_c,1,60,0
2,184329070,Note_on_c,1,60,81
2,184332826,Note_off_c,1,60,0
2,184335657,Note_on_c,1,60,81
2,184335949,Note_off_c,1,60,0
2,184385752,Note_on_c,1,60,81
2,184386704,Note_off_c,1,60,0
2,184387028,Note_on_c,1,60,81
2,184408336,Note_on_c,1,60,81
2,184412360,Note_off_c,1,60,0
2,184566510,Note_on_c,1,60,81
2,184567835,Note_off_c,1,60,0
2,184607598,Note_on_c,1,60,81
2,184629019,Note_off_c,1,60,0
2,184664281,Note_on_c,1,60,81
2,184668535,Note_off_c,1,60,0
2,184672166,Note_off_c,1,60,0
2,184690236,Note_on_c,1,60,81
2,184754907,Note_off_c,1,60,0
2,184790723,Note_on_c,1,60,81
2,184821427,Note_on_c,1,60,81
2,184821489,Note_off_c,1,60,0
2,184974508,Note_off_c,1,60,0
2,184999709,Note_on_c,1,60,81
2,185008789,Note_off_c,1,60,0
2,185014950,Note_on_c,1,60,81
2,185015067,Note_off_c,1,60,0
2,185045525,Note_on_c,1,60,81
2,185071566,Note_on_c,1,60,81
2,185072035,Note_off_c,1,60,0
2,185102603,Note_off_c,1,60,0
2,185118100,Note_on_c,1,60,81
2,185157072,Note_off_c,1,60,0
2,185157079,Note_on_c,1,60,81
2,185171334,Note_on_c,1,60,81
2,185171710,Note_off_c,1,60,0
2,185226807,Note_on_c,1,60,81
2,185227700,Note_off_c,1,60,0
2,185251312,Note_on_c,1,60,81
2,185251411,Note_off_c,1,60,0
2,185257910,Note_on_c,1,60,81
2,185258015,Note_off_c,1,60,0
2,185262285,Note_on_c,1,60,81
2,185264356,Note_off_c,1,60,0
2,185266534,Note_on_c,1,60,81
2,185266627,Note_off_c,1,60,0
2,185280843,Note_on_c,1,60,81
2,185281816,Note_off_c,1,60,0
2,185291781,Note_off_c,1,60,0
2,185292383,Note_on_c,1,60,81
2,185294372,Note_off_c,1,60,0
2,185296387,Note_on_c,1,60,81
2,185317273,Note_off_c,1,60,0
2,185317778,Note_on_c,1,60,81
2,185318530,Note_off_c,1,60,0
2,185321156,Note_on_c,1,60,81
2,185335039,Note_off_c,1,60,0
2,185434243,Note_on_c,1,60,81
2,185434305,Note_off_c,1,60,0
2,185435838,Note_on_c,1,60,81
2,185436047,Note_off_c,1,60,0
2,185518650,Note_on_c,1,60,81
2,185520986,Note_off_c,1,60,0
2,185558370,Note_on_c,1,60,81
2,185628944,Note_off_c,1,60,0
2,185630427,Note_on_c,1,60,81
2,185630528,Note_off_c,1,60,0
2,185634072,Note_on_c,1,60,81
2,185634182,Note_off_c,1,60,0
2,185646462,Note_on_c,1,60,81
2,185657168,Note_off_c,1,60,0
2,185734390,Note_on_c,1,60,81
2,186176813,Note_on_c,1,60,81
2,186177302,Note_off_c,1,60,0
2,186190949,Note_off_c,1,60,0
2,186224471,Note_on_c,1,60,81
2,186228191,Note_off_c,1,60,0
2,186296278,Note_on_c,1,60,81
2,186311651,Note_on_c,1,60,81
2,186311824,Note_on_c,1,60,81
2,186311928,Note_off_c,1,60,0
2,186314567,Note_off_c,1,60,0
2,186375693,Note_off_c,1,60,0
2,186375837,Note_on_c,1,60,81
2,186421378,Note_off_c,1,60,0
2,186423480,Note_on_c,1,60,81
2,186443565,Note_on_c,1,60,81
2,186461114,Note_off_c,1,60,0
2,186521147,Note_off_c,1,60,0
2,186521772,Note_on_c,1,60,81
2,186522304,Note_off_c,1,60,0
2,186578278,Note_on_c,1,60,81
2,186579299,Note_off_c,1,60,0
2,186580514,Note_on_c,1,60,81
2,186581191,Note_off_c,1,60,0
2,186624699,Note_on_c,1,60,81
2,186626619,Note_off_c,1,60,0
2,186671790,Note_on_c,1,60,81
2,186680621,Note_on_c,1,60,81
2,186680922,Note_off_c,1,60,0
2,186683165,Note_off_c,1,60,0
2,186828948,Note_on_c,1,60,81
2,186988981,Note_off_c,1,60,0
2,187070699,Note_on_c,1,60,81
2,187506837,Note_on_c,1,60,81
2,187507119,Note_off_c,1,60,0
2,187563060,Note_on_c,1,60,81
2,187564131,Note_off_c,1,60,0
2,187632165,Note_on_c,1,60,81
2,187632439,Note_off_c,1,60,0
2,187687674,Note_off_c,1,60,0
2,187706560,Note_on_c,1,60,81
2,187708898,Note_off_c,1,60,0
2,187714242,Note_on_c,1,60,81
2,187714735,Note_off_c,1,60,0
2,188013641,Note_on_c,1,60,81
2,188067297,Note_on_c,1,60,81
2,188067525,Note_off_c,1,60,0
2,188144768,Note_off_c,1,60,0
2,188155838,Note_on_c,1,60,81
2,188156180,Note_off_c,1,60,0
2,188218399,Note_on_c,1,60,81
2,188220676,Note_off_c,1,60,0
2,188242138,Note_on_c,1,60,81
2,188242678,Note_off_c,1,60,0
2,188508537,Note_on_c,1,60,81
2,188536465,Note_off_c,1,60,0
2,188671352,Note_on_c,1,60,81
2,188671759,Note_off_c,1,60,0
2,188694319,Note_on_c,1,60,81
2,188695111,Note_off_c,1,60,0
2,188705622,Note_on_c,1,60,81
2,188732208,Note_off_c,1,60,0
2,188869473,Note_on_c,1,60,81
2,188888540,Note_off_c,1,60,0
2,188905687,Note_on_c,1,60,81
2,189035960,Note_on_c,1,60,81
2,189036444,Note_off_c,1,60,0
2,189037564,Note_off_c,1,60,0
2,189132349,Note_on_c,1,60,81
2,189133292,Note_off_c,1,60,0
2,189666148,Note_on_c,1,60,81
2,189666256,Note_off_c,1,60,0
2,189775464,Note_on_c,1,60,81
2,189814918,Note_off_c,1,60,0
2,189868000,Note_on_c,1,60,81
2,189868380,Note_on_c,1,60,81
2,189868528,Note_off_c,1,60,0
2,189876160,Note_off_c,1,60,0
2,189989569,Note_on_c,1,60,81
2,189993097,Note_off_c,1,60,0
2,190097657,Note_on_c,1,60,81
2,190264897,Note_on_c,1,60,81
2,190362270,Note_off_c,1,60,0
2,190478404,Note_off_c,1,60,0
2,190478550,Note_on_c,1,60,81
2,190480378,Note_on_c,1,60,81
2,190480735,Note_off_c,1,60,0
2,190494297,Note_off_c,1,60,0
2,190624889,Note_on_c,1,60,81
2,190781786,Note_on_c,1,60,81
2,190781995,Note_off_c,1,60,0
2,190797523,Note_on_c,1,60,81
2,190797956,Note_off_c,1,60,0
2,190801658,Note_off_c,1,60,0
2,190878144,Note_on_c,1,60,81
2,191146024,Note_on_c,1,60,81
2,191146961,Note_off_c,1,60,0
2,191151410,Note_off_c,1,60,0
2,191151509,Note_on_c,1,60,81
2,191154634,Note_off_c,1,60,0
2,191179520,Note_on_c,1,60,81
2,191179739,Note_off_c,1,60,0
2,191221158,Note_on_c,1,60,81
2,191228467,Note_off_c,1,60,0
2,191823431,Note_on_c,1,60,81
2,191858706,Note_on_c,1,60,81
2,191890229,Note_off_c,1,60,0
2,192011260,Note_off_c,1,60,0
2,192158461,Note_on_c,1,60,81
2,192167785,Note_on_c,1,60,81
2,192185815,Note_off_c,1,60,0
2,192246707,Note_on_c,1,60,81
2,192247487,Note_off_c,1,60,0
2,192247504,Note_on_c,1,60,81
2,192247947,Note_off_c,1,60,0
2,192316991,Note_on_c,1,60,81
2,192367285,Note_off_c,1,60,0
2,192517189,Note_on_c,1,60,81
2,192538102,Note_off_c,1,60,0
2,192575762,Note_on_c,1,60,81
2,192580024,Note_off_c,1,60,0
2,192636137,Note_on_c,1,60,81
2,192660311,Note_off_c,1,60,0
2,192716131,Note_on_c,1,60,81
2,192716327,Note_on_c,1,60,81
2,192716390,Note_off_c,1,60,0
2,192716653,Note_off_c,1,60,0
2,192796532,Note_on_c,1,60,81
2,192797205,Note_off_c,1,60,0
2,192800570,Note_on_c,1,60,81
2,192801141,Note_off_c,1,60,0
2,192809038,Note_on_c,1,60,81
2,192812275,Note_off_c,1,60,0
2,192875685,Note_on_c,1,60,81
2,192875985,Note_off_c,1,60,0
2,192957713,Note_off_c,1,60,0
2,192993448,Note_on_c,1,60,81
2,192994677,Note_off_c,1,60,0
2,193012249,Note_on_c,1,60,81
2,193057280,Note_on_c,1,60,81
2,193057415,Note_off_c,1,60,0
2,193059453,Note_on_c,1,60,81
2,193060080,Note_off_c,1,60,0
2,193090865,Note_on_c,1,60,81
2,193091777,Note_off_c,1,60,0
2,193106114,Note_off_c,1,60,0
2,193121982,Note_on_c,1,60,81
2,193136502,Note_on_c,1,60,81
2,193136583,Note_off_c,1,60,0
2,193178729,Note_on_c,1,60,81
2,193186613,Note_off_c,1,60,0
2,193236793,Note_on_c,1,60,81
2,193237107,Note_off_c,1,60,0
2,193254815,Note_off_c,1,60,0
2,193304744,Note_on_c,1,60,81
2,193365953,Note_off_c,1,60,0
2,193457421,Note_on_c,1,60,81
2,193465198,Note_off_c,1,60,0
2,193473223,Note_on_c,1,60,81
2,193482539,Note_on_c,1,60,81
2,193546198,Note_off_c,1,60,0
2,193678893,Note_on_c,1,60,81
2,193684245,Note_on_c,1,60,81
2,193688429,Note_off_c,1,60,0
2,193727035,Note_off_c,1,60,0
2,193756814,Note_on_c,1,60,81
2,193757267,Note_off_c,1,60,0
2,194188966,Note_on_c,1,60,81
2,194190342,Note_off_c,1,60,0
2,194198708,Note_off_c,1,60,0
2,194350942,Note_on_c,1,60,81
2,194352426,Note_off_c,1,60,0
2,194488102,Note_on_c,1,60,81
2,194488205,Note_off_c,1,60,0
2,194718794,Note_on_c,1,60,81
2,194719236,Note_off_c,1,60,0
2,194785516,Note_on_c,1,60,81
2,194931310,Note_off_c,1,60,0
2,195747023,Note_on_c,1,60,81
2,195763501,Note_off_c,1,60,0
2,196044882,Note_on_c,1,60,81
2,196065235,Note_off_c,1,60,0
2,196225778,Note_on_c,1,60,81
2,196582412,Note_on_c,1,60,81
2,196582481,Note_off_c,1,60,0
2,196609225,Note_off_c,1,60,0
2,196652042,Note_on_c,1,60,81
2,196747504,Note_off_c,1,60,0
2,196774812,Note_on_c,1,60,81
2,196795407,Note_off_c,1,60,0
2,196819730,Note_on_c,1,60,81
2,196832189,Note_off_c,1,60,0
2,196850282,Note_on_c,1,60,81
2,196884793,Note_off_c,1,60,0
2,196888013,Note_on_c,1,60,81
2,196918713,Note_off_c,1,60,0
2,196943737,Note_on_c,1,60,81
2,196959622,Note_off_c,1,60,0
2,196970494,Note_on_c,1,60,81
2,196970671,Note_off_c,1,60,0
2,196977555,Note_on_c,1,60,81
2,197009678,Note_off_c,1,60,0
2,197038740,Note_on_c,1,60,81
2,197067260,Note_off_c,1,60,0
2,197084120,Note_on_c,1,60,81
2,197138747,Note_on_c,1,60,81
2,197139307,Note_off_c,1,60,0
2,197146694,Note_off_c,1,60,0
2,197153681,Note_on_c,1,60,81
2,197201293,Note_off_c,1,60,0
2,197222221,Note_on_c,1,60,81
2,197223255,Note_off_c,1,60,0
2,197268203,Note_on_c,1,60,81
2,197363816,Note_on_c,1,60,81
2,197364078,Note_off_c,1,60,0
2,197437975,Note_on_c,1,60,81
2,197447469,Note_off_c,1,60,0
2,197478455,Note_off_c,1,60,0
2,197504747,Note_on_c,1,60,81
2,197685639,Note_on_c,1,60,81
2,197685740,Note_off_c,1,60,0
2,197688759,Note_on_c,1,60,81
2,197690627,Note_off_c,1,60,0
2,197735635,Note_on_c,1,60,81
2,197736107,Note_off_c,1,60,0
2,197746750,Note_on_c,1,60,81
2,197747451,Note_off_c,1,60,0
2,197757318,Note_on_c,1,60,81
2,197761965,Note_off_c,1,60,0
2,197775696,Note_off_c,1,60,0
2,197902629,Note_on_c,1,60,81
2,197907367,Note_off_c,1,60,0
2,197911901,Note_on_c,1,60,81
2,197935478,Note_off_c,1,60,0
2,198156993,Note_on_c,1,60,81
2,198197778,Note_on_c,1,60,81
2,198198186,Note_off_c,1,60,0
2,198322420,Note_off_c,1,60,0
2,198450665,Note_on_c,1,60,81
2,198519877,Note_off_c,1,60,0
2,198523221,Note_on_c,1,60,81
2,198540945,Note_off_c,1,60,0
2,198597723,Note_on_c,1,60,81
2,198598868,Note_off_c,1,60,0
2,198638456,Note_on_c,1,60,81
2,198657552,Note_on_c,1,60,81
2,198667061,Note_off_c,1,60,0
2,198679138,Note_on_c,1,60,81
2,198680033,Note_off_c,1,60,0
2,198757476,Note_off_c,1,60,0
2,198777860,Note_on_c,1,60,81
2,198858872,Note_on_c,1,60,81
2,198858982,Note_off_c,1,60,0
2,198859043,Note_on_c,1,60,81
2,198859153,Note_off_c,1,60,0
2,198937471,Note_off_c,1,60,0
2,198949015,Note_on_c,1,60,81
2,198949805,Note_off_c,1,60,0
2,198973378,Note_on_c,1,60,81
2,198985506,Note_off_c,1,60,0
2,199006039,Note_on_c,1,60,81
2,199016132,Note_on_c,1,60,81
2,199021037,Note_off_c,1,60,0
2,199040500,Note_on_c,1,60,81
2,199076735,Note_off_c,1,60,0
2,199080975,Note_off_c,1,60,0
2,199148597,Note_on_c,1,60,81
2,199371876,Note_on_c,1,60,81
2,199372297,Note_off_c,1,60,0
2,199387140,Note_on_c,1,60,81
2,199388475,Note_off_c,1,60,0
2,199393307,Note_off_c,1,60,0
2,199752490,Note_on_c,1,60,81
2,199752890,Note_off_c,1,60,0
2,199876977,Note_on_c,1,60,81
2,199877558,Note_off_c,1,60,0
2,199888158,Note_on_c,1,60,81
2,199888261,Note_off_c,1,60,0
2,199908920,Note_on_c,1,60,81
2,199909648,Note_off_c,1,60,0
2,200008504,Note_on_c,1,60,81
2,200008607,Note_off_c,1,60,0
2,200014688,Note_on_c,1,60,81
2,200014795,Note_off_c,1,60,0
2,200027613,Note_on_c,1,60,81
2,200054060,Note_on_c,1,60,81
2,200054165,Note_off_c,1,60,0
2,200147530,Note_on_c,1,60,81
2,200148279,Note_off_c,1,60,0
2,200177420,Note_off_c,1,60,0
2,200213677,Note_on_c,1,60,81
2,200214322,Note_off_c,1,60,0
2,200253418,Note_on_c,1,60,81
2,200315434,Note_on_c,1,60,81
2,200315967,Note_off_c,1,60,0
2,200329160,Note_on_c,1,60,81
2,200329677,Note_off_c,1,60,0
2,200333192,Note_on_c,1,60,81
2,200400705,Note_off_c,1,60,0
2,200404939,Note_on_c,1,60,81
2,200410056,Note_off_c,1,60,0
2,200478019,Note_on_c,1,60,81
2,200478669,Note_off_c,1,60,0
2,200483604,Note_off_c,1,60,0
2,200551496,Note_on_c,1,60,81
2,200620751,Note_off_c,1,60,0
2,200623895,Note_on_c,1,60,81
2,200669506,Note_on_c,1,60,81
2,200669907,Note_off_c,1,60,0
2,200694250,Note_off_c,1,60,0
2,200738892,Note_on_c,1,60,81
2,200860704,Note_off_c,1,60,0
2,200863807,Note_on_c,1,60,81
2,200864152,Note_off_c,1,60,0
2,200872980,Note_on_c,1,60,81
2,200874178,Note_off_c,1,60,0
2,200891047,Note_on_c,1,60,81
2,200915742,Note_off_c,1,60,0
2,200917459,Note_on_c,1,60,81
2,200933344,Note_on_c,1,60,81
2,200933447,Note_off_c,1,60,0
2,200966668,Note_off_c,1,60,0
2,200969389,Note_on_c,1,60,81
2,201023714,Note_off_c,1,60,0
2,201023948,Note_on_c,1,60,81
2,201028792,Note_off_c,1,60,0
2,201031135,Note_on_c,1,60,81
2,201039511,Note_on_c,1,60,81
2,201043073,Note_off_c,1,60,0
2,201112451,Note_off_c,1,60,0
2,201113942,Note_on_c,1,60,81
2,201127184,Note_off_c,1,60,0
2,201134771,Note_on_c,1,60,81
2,201171574,Note_off_c,1,60,0
2,201190823,Note_on_c,1,60,81
2,201222112,Note_on_c,1,60,81
2,201223123,Note_off_c,1,60,0
2,201228952,Note_off_c,1,60,0
2,201283451,Note_on_c,1,60,81
2,201332993,Note_off_c,1,60,0
2,201359007,Note_on_c,1,60,81
2,201359017,Note_on_c,1,60,81
2,201377764,Note_off_c,1,60,0
2,201380832,Note_on_c,1,60,81
2,201385784,Note_off_c,1,60,0
2,201399632,Note_on_c,1,60,81
2,201399915,Note_off_c,1,60,0
2,201401190,Note_off_c,1,60,0
2,201403767,Note_on_c,1,60,81
2,201428974,Note_on_c,1,60,81
2,201429361,Note_off_c,1,60,0
2,201429866,Note_off_c,1,60,0
2,201464277,Note_on_c,1,60,81
2,201464382,Note_on_c,1,60,81
2,201465146,Note_off_c,1,60,0
2,201469237,Note_off_c,1,60,0
2,201483529,Note_on_c,1,60,81
2,201507240,Note_on_c,1,60,81
2,201509456,Note_off_c,1,60,0
2,201518702,Note_on_c,1,60,81
2,201534784,Note_off_c,1,60,0
2,201539126,Note_on_c,1,60,81
2,201584367,Note_off_c,1,60,0
2,201673104,Note_on_c,1,60,81
2,201674144,Note_off_c,1,60,0
2,201688258,Note_on_c,1,60,81
2,201719507,Note_on_c,1,60,81
2,201719627,Note_off_c,1,60,0
2,201723293,Note_on_c,1,60,81
2,201733405,Note_on_c,1,60,81
2,201733505,Note_off_c,1,60,0
2,201737506,Note_off_c,1,60,0
2,201808610,Note_on_c,1,60,81
2,201808702,Note_off_c,1,60,0
2,201826969,Note_off_c,1,60,0
2,201829148,Note_on_c,1,60,81
2,201829559,Note_off_c,1,60,0
2,201863372,Note_on_c,1,60,81
2,201863447,Note_off_c,1,60,0
2,201884291,Note_off_c,1,60,0
2,201888679,Note_on_c,1,60,81
2,201892587,Note_off_c,1,60,0
2,201893841,Note_on_c,1,60,81
2,201896455,Note_on_c,1,60,81
2,201899978,Note_off_c,1,60,0
2,201946588,Note_off_c,1,60,0
2,201955502,Note_on_c,1,60,81
2,201970664,Note_off_c,1,60,0
2,201978460,Note_on_c,1,60,81
2,201978595,Note_off_c,1,60,0
2,201978641,Note_on_c,1,60,81
2,201978949,Note_off_c,1,60,0
2,201982371,Note_on_c,1,60,81
2,201995695,Note_on_c,1,60,81
2,202003123,Note_on_c,1,60,81
2,202003236,Note_off_c,1,60,0
2,202006147,Note_off_c,1,60,0
2,202007944,Note_on_c,1,60,81
2,202010463,Note_off_c,1,60,0
2,202011369,Note_on_c,1,60,81
2,202015657,Note_off_c,1,60,0
2,202017183,Note_off_c,1,60,0
2,202028605,Note_on_c,1,60,81
2,202028692,Note_off_c,1,60,0
2,202039850,Note_on_c,1,60,81
2,202039934,Note_off_c,1,60,0
2,202070840,Note_on_c,1,60,81
2,202070943,Note_off_c,1,60,0
2,202096758,Note_on_c,1,60,81
2,202096978,Note_off_c,1,60,0
2,202122885,Note_on_c,1,60,81
2,202133403,Note_on_c,1,60,81
2,202133592,Note_off_c,1,60,0
2,202144743,Note_off_c,1,60,0
2,202147012,Note_on_c,1,60,81
2,202161588,Note_off_c,1,60,0
2,202168050,Note_on_c,1,60,81
2,202189455,Note_off_c,1,60,0
2,202193798,Note_on_c,1,60,81
2,202319781,Note_off_c,1,60,0
2,202331656,Note_on_c,1,60,81
2,202341980,Note_off_c,1,60,0
2,202348698,Note_on_c,1,60,81
2,202369525,Note_on_c,1,60,81
2,202370145,Note_off_c,1,60,0
2,202410107,Note_on_c,1,60,81
2,202410207,Note_off_c,1,60,0
2,202438395,Note_on_c,1,60,81
2,202439957,Note_off_c,1,60,0
2,202471863,Note_on_c,1,60,81
2,202472117,Note_off_c,1,60,0
2,202527309,Note_on_c,1,60,81
2,202527427,Note_off_c,1,60,0
2,202590595,Note_on_c,1,60,81
2,202592706,Note_off_c,1,60,0
2,202604267,Note_on_c,1,60,81
2,202605293,Note_off_c,1,60,0
2,202632427,Note_on_c,1,60,81
2,202632911,Note_off_c,1,60,0
2,202710454,Note_off_c,1,60,0
2,202724494,Note_on_c,1,60,81
2,202767228,Note_on_c,1,60,81
2,202767418,Note_off_c,1,60,0
2,202796029,Note_on_c,1,60,81
2,202797094,Note_off_c,1,60,0
2,202808487,Note_off_c,1,60,0
2,202810237,Note_on_c,1,60,81
2,202810829,Note_off_c,1,60,0
2,202810849,Note_on_c,1,60,81
2,202812473,Note_off_c,1,60,0
2,202820265,Note_on_c,1,60,81
2,202827225,Note_off_c,1,60,0
2,202851827,Note_on_c,1,60,81
2,202861753,Note_on_c,1,60,81
2,202861755,Note_off_c,1,60,0
2,202875241,Note_off_c,1,60,0
2,202878281,Note_on_c,1,60,81
2,202889149,Note_off_c,1,60,0
2,202891115,Note_on_c,1,60,81
2,202911811,Note_on_c,1,60,81
2,202912729,Note_off_c,1,60,0
2,202914879,Note_on_c,1,60,81
2,202914980,Note_off_c,1,60,0
2,202928636,Note_off_c,1,60,0
2,202940825,Note_on_c,1,60,81
2,202958572,Note_off_c,1,60,0
2,202961872,Note_on_c,1,60,81
2,202967275,Note_off_c,1,60,0
2,202986556,Note_on_c,1,60,81
2,202988582,Note_off_c,1,60,0
2,202999737,Note_on_c,1,60,81
2,203000352,Note_off_c,1,60,0
2,203007373,Note_on_c,1,60,81
2,203024848,Note_off_c,1,60,0
2,203026490,Note_on_c,1,60,81
2,203078740,Note_off_c,1,60,0
2,203083128,Note_on_c,1,60,81
2,203086012,Note_off_c,1,60,0
2,203090653,Note_on_c,1,60,81
2,203115467,Note_on_c,1,60,81
2,203128367,Note_off_c,1,60,0
2,203144693,Note_on_c,1,60,81
2,203152579,Note_off_c,1,60,0
2,203167405,Note_off_c,1,60,0
2,203167810,Note_on_c,1,60,81
2,203175826,Note_off_c,1,60,0
2,203178930,Note_on_c,1,60,81
2,203186704,Note_off_c,1,60,0
2,203212826,Note_on_c,1,60,81
2,203255742,Note_on_c,1,60,81
2,203256475,Note_off_c,1,60,0
2,203273220,Note_on_c,1,60,81
2,203273641,Note_off_c,1,60,0
2,203288804,Note_off_c,1,60,0
2,203290127,Note_on_c,1,60,81
2,203290500,Note_off_c,1,60,0
2,203298757,Note_on_c,1,60,81
2,203305315,Note_off_c,1,60,0
2,203305490,Note_on_c,1,60,81
2,203309602,Note_off_c,1,60,0
2,203318995,Note_on_c,1,60,81
2,203319099,Note_off_c,1,60,0
2,203340627,Note_on_c,1,60,81
2,203351758,Note_off_c,1,60,0
2,203353364,Note_on_c,1,60,81
2,203353651,Note_off_c,1,60,0
2,203400265,Note_on_c,1,60,81
2,203400581,Note_off_c,1,60,0
2,203475805,Note_on_c,1,60,81
2,203491352,Note_off_c,1,60,0
2,203494152,Note_on_c,1,60,81
2,203508949,Note_off_c,1,60,0
2,203626786,Note_on_c,1,60,81
2,203656968,Note_on_c,1,60,81
2,203657760,Note_off_c,1,60,0
2,203729580,Note_on_c,1,60,81
2,203729705,Note_off_c,1,60,0
2,203744081,Note_off_c,1,60,0
2,203765176,Note_on_c,1,60,81
2,203776372,Note_off_c,1,60,0
2,203795622,Note_on_c,1,60,81
2,203795713,Note_on_c,1,60,81
2,203802093,Note_on_c,1,60,81
2,203802192,Note_off_c,1,60,0
2,203805620,Note_on_c,1,60,81
2,203806263,Note_off_c,1,60,0
2,203835584,Note_on_c,1,60,81
2,203835912,Note_off_c,1,60,0
2,203854999,Note_off_c,1,60,0
2,203854999,Note_off_c,1,60,0
2,203861598,Note_on_c,1,60,81
2,203871152,Note_off_c,1,60,0
2,203872573,Note_on_c,1,60,81
2,203874187,Note_off_c,1,60,0
2,203903722,Note_on_c,1,60,81
2,203904013,Note_off_c,1,60,0
2,203954639,Note_on_c,1,60,81
2,203955780,Note_off_c,1,60,0
2,203996531,Note_on_c,1,60,81
2,204008357,Note_off_c,1,60,0
2,204032446,Note_on_c,1,60,81
2,204041265,Note_off_c,1,60,0
2,204064532,Note_on_c,1,60,81
2,204073114,Note_on_c,1,60,81
2,204073965,Note_off_c,1,60,0
2,204127743,Note_off_c,1,60,0
2,204131061,Note_on_c,1,60,81
2,204131061,Note_on_c,1,60,81
2,204131966,Note_off_c,1,60,0
2,204141403,Note_on_c,1,60,81
2,204143327,Note_off_c,1,60,0
2,204152044,Note_off_c,1,60,0
2,204154818,Note_on_c,1,60,81
2,204183005,Note_on_c,1,60,81
2,204183537,Note_off_c,1,60,0
2,204190324,Note_off_c,1,60,0
2,204190340,Note_on_c,1,60,81
2,204196491,Note_off_c,1,60,0
2,204198162,Note_on_c,1,60,81
2,204213988,Note_off_c,1,60,0
2,204218852,Note_on_c,1,60,81
2,204276900,Note_on_c,1,60,81
2,204280363,Note_off_c,1,60,0
2,204346775,Note_on_c,1,60,81
2,204347258,Note_off_c,1,60,0
2,204368430,Note_on_c,1,60,81
2,204369719,Note_off_c,1,60,0
2,204377665,Note_off_c,1,60,0
2,204377849,Note_on_c,1,60,81
2,204394540,Note_on_c,1,60,81
2,204394774,Note_off_c,1,60,0
2,204396491,Note_on_c,1,60,81
2,204411379,Note_on_c,1,60,81
2,204411887,Note_off_c,1,60,0
2,204412418,Note_off_c,1,60,0
2,204422627,Note_on_c,1,60,81
2,204435846,Note_off_c,1,60,0
2,204494805,Note_off_c,1,60,0
2,204516378,Note_on_c,1,60,81
2,204528844,Note_on_c,1,60,81
2,204529692,Note_off_c,1,60,0
2,204558120,Note_off_c,1,60,0
2,204562412,Note_on_c,1,60,81
2,204562521,Note_off_c,1,60,0
2,204603034,Note_on_c,1,60,81
2,204616565,Note_off_c,1,60,0
2,204617169,Note_on_c,1,60,81
2,204626774,Note_on_c,1,60,81
2,204629712,Note_off_c,1,60,0
2,204663871,Note_on_c,1,60,81
2,204664613,Note_off_c,1,60,0
2,204685738,Note_off_c,1,60,0
2,204707319,Note_on_c,1,60,81
2,204707430,Note_off_c,1,60,0
2,204727990,Note_on_c,1,60,81
2,204728106,Note_off_c,1,60,0
2,204822663,Note_on_c,1,60,81
2,204828650,Note_on_c,1,60,81
2,204829274,Note_off_c,1,60,0
2,204946607,Note_on_c,1,60,81
2,204947169,Note_off_c,1,60,0
2,205022822,Note_off_c,1,60,0
2,205042936,Note_on_c,1,60,81
2,205078289,Note_off_c,1,60,0
2,205083128,Note_on_c,1,60,81
2,205084460,Note_off_c,1,60,0
2,205086141,Note_on_c,1,60,81
2,205091162,Note_on_c,1,60,81
2,205091946,Note_off_c,1,60,0
2,205122015,Note_off_c,1,60,0
2,205134645,Note_on_c,1,60,81
2,205134950,Note_off_c,1,60,0
2,205142504,Note_on_c,1,60,81
2,205202190,Note_on_c,1,60,81
2,205202742,Note_off_c,1,60,0
2,205211702,Note_off_c,1,60,0
2,205227945,Note_on_c,1,60,81
2,205233820,Note_on_c,1,60,81
2,205236867,Note_off_c,1,60,0
2,205285632,Note_off_c,1,60,0
2,205302062,Note_on_c,1,60,81
2,205321745,Note_off_c,1,60,0
2,205336060,Note_on_c,1,60,81
2,205351246,Note_on_c,1,60,81
2,205351471,Note_off_c,1,60,0
2,205357090,Note_off_c,1,60,0
2,205373251,Note_on_c,1,60,81
2,205381377,Note_on_c,1,60,81
2,205387440,Note_off_c,1,60,0
2,205434884,Note_on_c,1,60,81
2,205448301,Note_on_c,1,60,81
2,205448398,Note_off_c,1,60,0
2,205455928,Note_on_c,1,60,81
2,205455954,Note_off_c,1,60,0
2,205457091,Note_off_c,1,60,0
2,205469024,Note_off_c,1,60,0
2,205504595,Note_on_c,1,60,81
2,205532793,Note_off_c,1,60,0
2,205566715,Note_on_c,1,60,81
2,205566799,Note_off_c,1,60,0
2,205568884,Note_on_c,1,60,81
2,205595040,Note_on_c,1,60,81
2,205595147,Note_off_c,1,60,0
2,205597555,Note_on_c,1,60,81
2,205602918,Note_off_c,1,60,0
2,205625482,Note_on_c,1,60,81
2,205626153,Note_off_c,1,60,0
2,205632011,Note_off_c,1,60,0
2,205657850,Note_on_c,1,60,81
2,205680509,Note_off_c,1,60,0
2,205684017,Note_on_c,1,60,81
2,205684307,Note_off_c,1,60,0
2,205712821,Note_on_c,1,60,81
2,205731220,Note_on_c,1,60,81
2,205731352,Note_off_c,1,60,0
2,205750182,Note_off_c,1,60,0
2,205767985,Note_on_c,1,60,81
2,205775482,Note_off_c,1,60,0
2,205775558,Note_on_c,1,60,81
2,205783623,Note_off_c,1,60,0
2,205789093,Note_on_c,1,60,81
2,205813321,Note_on_c,1,60,81
2,205813748,Note_off_c,1,60,0
2,205828024,Note_on_c,1,60,81
2,205850132,Note_off_c,1,60,0
2,205896082,Note_off_c,1,60,0
2,205913047,Note_on_c,1,60,81
2,205935127,Note_on_c,1,60,81
2,205935768,Note_off_c,1,60,0
2,205943460,Note_off_c,1,60,0
2,205976739,Note_on_c,1,60,81
2,206003461,Note_off_c,1,60,0
2,206008534,Note_on_c,1,60,81
2,206023909,Note_off_c,1,60,0
2,206035252,Note_on_c,1,60,81
2,206053172,Note_on_c,1,60,81
2,206062257,Note_off_c,1,60,0
2,206080238,Note_on_c,1,60,81
2,206080324,Note_off_c,1,60,0
2,206102449,Note_off_c,1,60,0
2,206106935,Note_on_c,1,60,81
2,206117699,Note_off_c,1,60,0
2,206117782,Note_on_c,1,60,81
2,206126805,Note_off_c,1,60,0
2,206147163,Note_on_c,1,60,81
2,206160886,Note_on_c,1,60,81
2,206161276,Note_off_c,1,60,0
2,206166149,Note_off_c,1,60,0
2,206175059,Note_on_c,1,60,81
2,206177246,Note_off_c,1,60,0
2,206186178,Note_on_c,1,60,81
2,206203345,Note_on_c,1,60,81
2,206204414,Note_off_c,1,60,0
2,206333326,Note_on_c,1,60,81
2,206333438,Note_off_c,1,60,0
2,206464436,Note_off_c,1,60,0
2,206470475,Note_on_c,1,60,81
2,206474802,Note_on_c,1,60,81
2,206474864,Note_off_c,1,60,0
2,206491115,Note_on_c,1,60,81
2,206496889,Note_off_c,1,60,0
2,206497728,Note_off_c,1,60,0
2,206503947,Note_on_c,1,60,81
2,206504456,Note_off_c,1,60,0
2,206507530,Note_on_c,1,60,81
2,206528914,Note_on_c,1,60,81
2,206529706,Note_off_c,1,60,0
2,206541757,Note_on_c,1,60,81
2,206544892,Note_off_c,1,60,0
2,206571291,Note_on_c,1,60,81
2,206589448,Note_off_c,1,60,0
2,206612465,Note_off_c,1,60,0
2,206634183,Note_on_c,1,60,81
2,206635535,Note_on_c,1,60,81
2,206635714,Note_off_c,1,60,0
2,206684419,Note_off_c,1,60,0
2,206684904,Note_on_c,1,60,81
2,206695836,Note_on_c,1,60,81
2,206696269,Note_off_c,1,60,0
2,206734281,Note_off_c,1,60,0
2,206747979,Note_on_c,1,60,81
2,206748092,Note_off_c,1,60,0
2,206767601,Note_on_c,1,60,81
2,206770763,Note_on_c,1,60,81
2,206774541,Note_off_c,1,60,0
2,206842981,Note_off_c,1,60,0
2,206865622,Note_on_c,1,60,81
2,206869223,Note_off_c,1,60,0
2,206897442,Note_on_c,1,60,81
2,206903316,Note_on_c,1,60,81
2,206904139,Note_off_c,1,60,0
2,206905927,Note_on_c,1,60,81
2,206906393,Note_off_c,1,60,0
2,206907618,Note_on_c,1,60,81
2,206908229,Note_off_c,1,60,0
2,206923247,Note_off_c,1,60,0
2,206928521,Note_on_c,1,60,81
2,206946466,Note_off_c,1,60,0
2,206957964,Note_on_c,1,60,81
2,206970625,Note_off_c,1,60,0
2,207018521,Note_on_c,1,60,81
2,207032756,Note_off_c,1,60,0
2,207034365,Note_on_c,1,60,81
2,207043848,Note_on_c,1,60,81
2,207052980,Note_off_c,1,60,0
2,207081024,Note_off_c,1,60,0
2,207088859,Note_on_c,1,60,81
2,207099993,Note_off_c,1,60,0
2,207104232,Note_on_c,1,60,81
2,207127009,Note_on_c,1,60,81
2,207127486,Note_off_c,1,60,0
2,207144972,Note_off_c,1,60,0
2,207150204,Note_on_c,1,60,81
2,207150281,Note_off_c,1,60,0
2,207165495,Note_on_c,1,60,81
2,207179295,Note_on_c,1,60,81
2,207183910,Note_off_c,1,60,0
2,207184062,Note_off_c,1,60,0
2,207225797,Note_on_c,1,60,81
2,207229202,Note_off_c,1,60,0
2,207240121,Note_on_c,1,60,81
2,207309292,Note_off_c,1,60,0
2,207321531,Note_on_c,1,60,81
2,207386804,Note_off_c,1,60,0
2,207401690,Note_on_c,1,60,81
2,207416236,Note_off_c,1,60,0
2,207454229,Note_on_c,1,60,81
2,207489895,Note_off_c,1,60,0
2,207496146,Note_on_c,1,60,81
2,207551924,Note_on_c,1,60,81
2,207606555,Note_off_c,1,60,0
2,207641765,Note_off_c,1,60,0
2,207645112,Note_on_c,1,60,81
2,207645233,Note_on_c,1,60,81
2,207657410,Note_off_c,1,60,0
2,207658453,Note_on_c,1,60,81
2,207659142,Note_off_c,1,60,0
2,207708897,Note_on_c,1,60,81
2,207708981,Note_off_c,1,60,0
2,207709023,Note_on_c,1,60,81
2,207711508,Note_off_c,1,60,0
2,207738416,Note_off_c,1,60,0
2,207752053,Note_on_c,1,60,81
2,207762583,Note_on_c,1,60,81
2,207763263,Note_off_c,1,60,0
2,207795513,Note_off_c,1,60,0
2,207801517,Note_on_c,1,60,81
2,207801851,Note_on_c,1,60,81
2,207801939,Note_off_c,1,60,0
2,207802442,Note_on_c,1,60,81
2,207802523,Note_off_c,1,60,0
2,207822902,Note_on_c,1,60,81
2,207823542,Note_off_c,1,60,0
2,207879115,Note_off_c,1,60,0
2,207880971,Note_on_c,1,60,81
2,207909991,Note_on_c,1,60,81
2,207911402,Note_off_c,1,60,0
2,207917088,Note_off_c,1,60,0
2,207959291,Note_on_c,1,60,81
2,207969329,Note_off_c,1,60,0
2,208022241,Note_on_c,1,60,81
2,208106101,Note_on_c,1,60,81
2,208107655,Note_off_c,1,60,0
2,208244384,Note_off_c,1,60,0
2,208244966,Note_on_c,1,60,81
2,208255289,Note_on_c,1,60,81
2,208255376,Note_off_c,1,60,0
2,208270667,Note_off_c,1,60,0
2,208606563,Note_on_c,1,60,81
2,208614295,Note_off_c,1,60,0
2,208626740,Note_on_c,1,60,81
2,208628085,Note_off_c,1,60,0
2,208697368,Note_on_c,1,60,81
2,208697698,Note_off_c,1,60,0
2,208728664,Note_on_c,1,60,81
2,208736286,Note_off_c,1,60,0
2,208972453,Note_on_c,1,60,81
2,208975307,Note_off_c,1,60,0
2,209001337,Note_on_c,1,60,81
2,209001476,Note_off_c,1,60,0
2,209107502,Note_on_c,1,60,81
2,209114419,Note_off_c,1,60,0
2,209147219,Note_on_c,1,60,81
2,209173013,Note_on_c,1,60,81
2,209173375,Note_off_c,1,60,0
2,209232195,Note_on_c,1,60,81
2,209233419,Note_off_c,1,60,0
2,209266758,Note_off_c,1,60,0
2,209267797,Note_on_c,1,60,81
2,209268223,Note_off_c,1,60,0
2,209325391,Note_on_c,1,60,81
2,209328535,Note_off_c,1,60,0
2,209367661,Note_on_c,1,60,81
2,209380518,Note_off_c,1,60,0
2,209428816,Note_on_c,1,60,81
2,209432132,Note_on_c,1,60,81
2,209432242,Note_off_c,1,60,0
2,209432848,Note_off_c,1,60,0
2,209528454,Note_on_c,1,60,81
2,209531235,Note_on_c,1,60,81
2,209536351,Note_off_c,1,60,0
2,209567673,Note_off_c,1,60,0
2,209583713,Note_on_c,1,60,81
2,209613939,Note_off_c,1,60,0
2,209614869,Note_on_c,1,60,81
2,209623443,Note_on_c,1,60,81
2,209623510,Note_off_c,1,60,0
2,209652425,Note_off_c,1,60,0
2,209661355,Note_on_c,1,60,81
2,209675411,Note_on_c,1,60,81
2,209676390,Note_off_c,1,60,0
2,209686177,Note_on_c,1,60,81
2,209724125,Note_off_c,1,60,0
2,209734949,Note_off_c,1,60,0
2,209744372,Note_on_c,1,60,81
2,209745214,Note_off_c,1,60,0
2,209756031,Note_on_c,1,60,81
2,209779207,Note_on_c,1,60,81
2,209782320,Note_off_c,1,60,0
2,209784559,Note_off_c,1,60,0
2,209785616,Note_on_c,1,60,81
2,209806175,Note_off_c,1,60,0
2,209827971,Note_on_c,1,60,81
2,209857565,Note_off_c,1,60,0
2,209900922,Note_on_c,1,60,81
2,209987332,Note_on_c,1,60,81
2,209997092,Note_off_c,1,60,0
2,210171389,Note_off_c,1,60,0
2,210231455,Note_on_c,1,60,81
2,210232795,Note_on_c,1,60,81
2,210234047,Note_off_c,1,60,0
2,210246631,Note_off_c,1,60,0
2,210265635,Note_on_c,1,60,81
2,210267241,Note_off_c,1,60,0
2,210303683,Note_on_c,1,60,81
2,210304540,Note_off_c,1,60,0
2,210328251,Note_on_c,1,60,81
2,210362860,Note_on_c,1,60,81
2,210366948,Note_off_c,1,60,0
2,210374153,Note_on_c,1,60,81
2,210374267,Note_off_c,1,60,0
2,210386656,Note_on_c,1,60,81
2,210394112,Note_off_c,1,60,0
2,210462344,Note_on_c,1,60,81
2,210463012,Note_off_c,1,60,0
2,210676296,Note_off_c,1,60,0
2,210676822,Note_on_c,1,60,81
2,210678314,Note_on_c,1,60,81
2,210681932,Note_off_c,1,60,0
2,210858124,Note_on_c,1,60,81
2,210859176,Note_on_c,1,60,81
2,210862285,Note_off_c,1,60,0
2,211082871,Note_on_c,1,60,81
2,211108444,Note_on_c,1,60,81
2,211132587,Note_on_c,1,60,81
2,211133374,Note_off_c,1,60,0
2,211134146,Note_off_c,1,60,0
2,211134165,Note_off_c,1,60,0
2,211173487,Note_on_c,1,60,81
2,211173849,Note_off_c,1,60,0
2,211188533,Note_off_c,1,60,0
2,211207138,Note_off_c,1,60,0
2,211207238,Note_on_c,1,60,81
2,211207897,Note_off_c,1,60,0
2,211258376,Note_on_c,1,60,81
2,211316385,Note_off_c,1,60,0
2,211326614,Note_on_c,1,60,81
2,211374946,Note_off_c,1,60,0
2,211376803,Note_on_c,1,60,81
2,211382717,Note_off_c,1,60,0
2,211382735,Note_on_c,1,60,81
2,211417024,Note_on_c,1,60,81
2,211417934,Note_off_c,1,60,0
2,211435570,Note_off_c,1,60,0
2,211442273,Note_on_c,1,60,81
2,211442806,Note_off_c,1,60,0
2,211476521,Note_on_c,1,60,81
2,211492162,Note_off_c,1,60,0
2,211492254,Note_on_c,1,60,81
2,211492917,Note_off_c,1,60,0
2,211571567,Note_on_c,1,60,81
2,211579161,Note_off_c,1,60,0
2,211583014,Note_on_c,1,60,81
2,211583725,Note_off_c,1,60,0
2,211605838,Note_on_c,1,60,81
2,211606579,Note_off_c,1,60,0
2,211635864,Note_on_c,1,60,81
2,211639439,Note_on_c,1,60,81
2,211644114,Note_off_c,1,60,0
2,211654627,Note_off_c,1,60,0
2,211658656,Note_on_c,1,60,81
2,211660188,Note_on_c,1,60,81
2,211661277,Note_off_c,1,60,0
2,211675630,Note_off_c,1,60,0
2,211675748,Note_on_c,1,60,81
2,211690103,Note_off_c,1,60,0
2,211715927,Note_on_c,1,60,81
2,211725402,Note_off_c,1,60,0
2,211743456,Note_on_c,1,60,81
2,211792110,Note_on_c,1,60,81
2,211792406,Note_off_c,1,60,0
2,211803016,Note_on_c,1,60,81
2,211803104,Note_off_c,1,60,0
2,211829635,Note_on_c,1,60,81
2,211830763,Note_off_c,1,60,0
2,211853703,Note_off_c,1,60,0
2,211936248,Note_on_c,1,60,81
2,211936634,Note_off_c,1,60,0
2,211940398,Note_on_c,1,60,81
2,212025560,Note_on_c,1,60,81
2,212025682,Note_off_c,1,60,0
2,212035552,Note_on_c,1,60,81
2,212035557,Note_off_c,1,60,0
2,212051523,Note_on_c,1,60,81
2,212052006,Note_off_c,1,60,0
2,212077612,Note_on_c,1,60,81
2,212077685,Note_off_c,1,60,0
2,212099520,Note_on_c,1,60,81
2,212099676,Note_off_c,1,60,0
2,212107400,Note_off_c,1,60,0
2,212168206,Note_on_c,1,60,81
2,212180140,Note_on_c,1,60,81
2,212190259,Note_off_c,1,60,0
2,212285130,Note_off_c,1,60,0
2,212285409,Note_on_c,1,60,81
2,212297447,Note_on_c,1,60,81
2,212299494,Note_on_c,1,60,81
2,212299579,Note_off_c,1,60,0
2,212309050,Note_on_c,1,60,81
2,212309518,Note_off_c,1,60,0
2,212331713,Note_off_c,1,60,0
2,212352815,Note_on_c,1,60,81
2,212352950,Note_off_c,1,60,0
2,212357417,Note_on_c,1,60,81
2,212358353,Note_off_c,1,60,0
2,212361853,Note_off_c,1,60,0
2,212363927,Note_on_c,1,60,81
2,212414901,Note_off_c,1,60,0
2,212430268,Note_on_c,1,60,81
2,212432775,Note_off_c,1,60,0
2,212432919,Note_on_c,1,60,81
2,212446379,Note_off_c,1,60,0
2,212466698,Note_on_c,1,60,81
2,212472905,Note_off_c,1,60,0
2,212504177,Note_on_c,1,60,81
2,212534060,Note_off_c,1,60,0
2,212545693,Note_on_c,1,60,81
2,212556065,Note_off_c,1,60,0
2,212557832,Note_on_c,1,60,81
2,212559362,Note_on_c,1,60,81
2,212559731,Note_off_c,1,60,0
2,212561399,Note_off_c,1,60,0
2,212565333,Note_on_c,1,60,81
2,212620777,Note_off_c,1,60,0
2,212624283,Note_on_c,1,60,81
2,212624473,Note_on_c,1,60,81
2,212626771,Note_off_c,1,60,0
2,212626775,Note_off_c,1,60,0
2,212647295,Note_on_c,1,60,81
2,212647755,Note_off_c,1,60,0
2,212653304,Note_on_c,1,60,81
2,212665638,Note_off_c,1,60,0
2,212686416,Note_on_c,1,60,81
2,212699840,Note_off_c,1,60,0
2,212726152,Note_on_c,1,60,81
2,212791782,Note_off_c,1,60,0
2,212791827,Note_on_c,1,60,81
2,212816830,Note_off_c,1,60,0
2,212824026,Note_on_c,1,60,81
2,212824505,Note_off_c,1,60,0
2,212830140,Note_on_c,1,60,81
2,212847649,Note_off_c,1,60,0
2,212852104,Note_on_c,1,60,81
2,212853279,Note_on_c,1,60,81
2,212853426,Note_off_c,1,60,0
2,212855174,Note_on_c,1,60,81
2,212855366,Note_off_c,1,60,0
2,212858138,Note_off_c,1,60,0
2,212858274,Note_on_c,1,60,81
2,212899363,Note_off_c,1,60,0
2,212916786,Note_on_c,1,60,81
2,212917577,Note_off_c,1,60,0
2,212950519,Note_on_c,1,60,81
2,212992037,Note_off_c,1,60,0
2,212992181,Note_on_c,1,60,81
2,213015867,Note_off_c,1,60,0
2,213051232,Note_on_c,1,60,81
2,213274774,Note_off_c,1,60,0
2,213428707,Note_on_c,1,60,81
2,213429077,Note_off_c,1,60,0
2,213492287,Note_on_c,1,60,81
2,213579267,Note_off_c,1,60,0
2,213731415,Note_on_c,1,60,81
2,213794587,Note_off_c,1,60,0
2,213817750,Note_on_c,1,60,81
2,213924748,Note_on_c,1,60,81
2,213926654,Note_off_c,1,60,0
2,213983180,Note_on_c,1,60,81
2,213983792,Note_on_c,1,60,81
2,213986419,Note_off_c,1,60,0
2,213988508,Note_off_c,1,60,0
2,214028890,Note_on_c,1,60,81
2,214030901,Note_off_c,1,60,0
2,214041510,Note_off_c,1,60,0
2,214051193,Note_on_c,1,60,81
2,214187773,Note_off_c,1,60,0
2,214281101,Note_on_c,1,60,81
2,214337131,Note_off_c,1,60,0
2,214344171,Note_on_c,1,60,81
2,214348699,Note_on_c,1,60,81
2,214357615,Note_off_c,1,60,0
2,214482812,Note_on_c,1,60,81
2,214483387,Note_off_c,1,60,0
2,214532194,Note_on_c,1,60,81
2,214533467,Note_off_c,1,60,0
2,214552449,Note_off_c,1,60,0
2,214603194,Note_on_c,1,60,81
2,214605469,Note_on_c,1,60,81
2,214608840,Note_off_c,1,60,0
2,214612959,Note_on_c,1,60,81
2,214613398,Note_off_c,1,60,0
2,214664571,Note_off_c,1,60,0
2,214870733,Note_on_c,1,60,81
2,214871716,Note_off_c,1,60,0
2,214943122,Note_on_c,1,60,81
2,214943540,Note_off_c,1,60,0
2,214946908,Note_on_c,1,60,81
2,214988040,Note_off_c,1,60,0
2,215005774,Note_on_c,1,60,81
2,215237090,Note_off_c,1,60,0
2,215376483,Note_on_c,1,60,81
2,215377374,Note_off_c,1,60,0
2,215393645,Note_on_c,1,60,81
2,215394418,Note_off_c,1,60,0
2,215567303,Note_on_c,1,60,81
2,215621807,Note_off_c,1,60,0
2,215622890,Note_on_c,1,60,81
2,215630025,Note_on_c,1,60,81
2,215630117,Note_off_c,1,60,0
2,215886581,Note_on_c,1,60,81
2,215901464,Note_off_c,1,60,0
2,216072464,Note_on_c,1,60,81
2,216086917,Note_off_c,1,60,0
2,216194050,Note_on_c,1,60,81
2,216201634,Note_on_c,1,60,81
2,216201826,Note_off_c,1,60,0
2,216204366,Note_off_c,1,60,0
2,216423448,Note_off_c,1,60,0
2,216503245,Note_on_c,1,60,81
2,217137755,Note_off_c,1,60,0
2,217426991,Note_on_c,1,60,81
2,217631090,Note_off_c,1,60,0
2,217631323,Note_on_c,1,60,81
2,217781197,Note_on_c,1,60,81
2,217785120,Note_off_c,1,60,0
2,217850402,Note_on_c,1,60,81
2,217850633,Note_off_c,1,60,0
2,217871696,Note_off_c,1,60,0
2,217892899,Note_on_c,1,60,81
2,217920804,Note_off_c,1,60,0
2,218031834,Note_on_c,1,60,81
2,218033660,Note_off_c,1,60,0
2,218043504,Note_on_c,1,60,81
2,218046942,Note_on_c,1,60,81
2,218049221,Note_off_c,1,60,0
2,218059140,Note_off_c,1,60,0
2,218129794,Note_on_c,1,60,81
2,218129952,Note_off_c,1,60,0
2,218285292,Note_on_c,1,60,81
2,218301261,Note_on_c,1,60,81
2,218301972,Note_off_c,1,60,0
2,218337983,Note_off_c,1,60,0
2,218338540,Note_on_c,1,60,81
2,218338756,Note_off_c,1,60,0
2,218344189,Note_on_c,1,60,81
2,218345335,Note_on_c,1,60,81
2,218346024,Note_off_c,1,60,0
2,218442625,Note_on_c,1,60,81
2,218443996,Note_off_c,1,60,0
2,218444619,Note_off_c,1,60,0
2,218459264,Note_on_c,1,60,81
2,218525978,Note_off_c,1,60,0
2,218541689,Note_on_c,1,60,81
2,218541899,Note_off_c,1,60,0
2,218881599,Note_on_c,1,60,81
2,218882650,Note_off_c,1,60,0
2,218912756,Note_on_c,1,60,81
2,218918714,Note_off_c,1,60,0
2,218976671,Note_on_c,1,60,81
2,219173868,Note_on_c,1,60,81
2,219173961,Note_off_c,1,60,0
2,219199913,Note_on_c,1,60,81
2,219200567,Note_off_c,1,60,0
2,219212865,Note_off_c,1,60,0
2,219222247,Note_on_c,1,60,81
2,219225497,Note_off_c,1,60,0
2,219270773,Note_on_c,1,60,81
2,219273387,Note_off_c,1,60,0
2,219294981,Note_on_c,1,60,81
2,219297668,Note_off_c,1,60,0
2,219409038,Note_on_c,1,60,81
2,219459369,Note_off_c,1,60,0
2,219557191,Note_on_c,1,60,81
2,219557701,Note_off_c,1,60,0
2,219608009,Note_on_c,1,60,81
2,219613145,Note_off_c,1,60,0
2,219685426,Note_on_c,1,60,81
2,219761788,Note_on_c,1,60,81
2,219761875,Note_off_c,1,60,0
2,219958647,Note_off_c,1,60,0
2,219962651,Note_on_c,1,60,81
2,219962865,Note_off_c,1,60,0
2,219968599,Note_on_c,1,60,81
2,220046530,Note_off_c,1,60,0
2,220057481,Note_on_c,1,60,81
2,220090462,Note_off_c,1,60,0
2,220094131,Note_on_c,1,60,81
2,220117852,Note_on_c,1,60,81
2,220117962,Note_off_c,1,60,0
2,220118156,Note_on_c,1,60,81
2,220118241,Note_off_c,1,60,0
2,220143963,Note_on_c,1,60,81
2,220144351,Note_off_c,1,60,0
2,220148041,Note_off_c,1,60,0
2,220148292,Note_on_c,1,60,81
2,220200537,Note_on_c,1,60,81
2,220200545,Note_on_c,1,60,81
2,220200619,Note_off_c,1,60,0
2,220200676,Note_off_c,1,60,0
2,220207617,Note_on_c,1,60,81
2,220208282,Note_off_c,1,60,0
2,220220290,Note_on_c,1,60,81
2,220220593,Note_off_c,1,60,0
2,220253569,Note_on_c,1,60,81
2,220254536,Note_off_c,1,60,0
2,220266705,Note_on_c,1,60,81
2,220267917,Note_off_c,1,60,0
2,220272529,Note_off_c,1,60,0
2,220313944,Note_on_c,1,60,81
2,220315565,Note_off_c,1,60,0
2,220316666,Note_on_c,1,60,81
2,220317599,Note_off_c,1,60,0
2,220359730,Note_on_c,1,60,81
2,220360183,Note_off_c,1,60,0
2,220401121,Note_on_c,1,60,81
2,220404033,Note_off_c,1,60,0
2,220448515,Note_on_c,1,60,81
2,220448853,Note_off_c,1,60,0
2,220455153,Note_on_c,1,60,81
2,220455312,Note_off_c,1,60,0
2,220467953,Note_on_c,1,60,81
2,220468808,Note_off_c,1,60,0
2,220485103,Note_on_c,1,60,81
2,220487558,Note_off_c,1,60,0
2,220528135,Note_on_c,1,60,81
2,220571738,Note_on_c,1,60,81
2,220572035,Note_off_c,1,60,0
2,220625739,Note_on_c,1,60,81
2,220628056,Note_off_c,1,60,0
2,220664461,Note_off_c,1,60,0
2,220690362,Note_on_c,1,60,81
2,220699153,Note_off_c,1,60,0
2,220748224,Note_on_c,1,60,81
2,220784815,Note_off_c,1,60,0
2,220786912,Note_on_c,1,60,81
2,220786989,Note_on_c,1,60,81
2,220819659,Note_off_c,1,60,0
2,220825619,Note_on_c,1,60,81
2,220825775,Note_on_c,1,60,81
2,220825893,Note_off_c,1,60,0
2,220826063,Note_off_c,1,60,0
2,220828675,Note_on_c,1,60,81
2,220829211,Note_off_c,1,60,0
2,220829254,Note_on_c,1,60,81
2,220832429,Note_off_c,1,60,0
2,220832762,Note_on_c,1,60,81
2,220878224,Note_on_c,1,60,81
2,220879201,Note_off_c,1,60,0
2,220879430,Note_on_c,1,60,81
2,220880140,Note_off_c,1,60,0
2,220884503,Note_off_c,1,60,0
2,220885059,Note_off_c,1,60,0
2,221133864,Note_on_c,1,60,81
2,221134221,Note_off_c,1,60,0
2,221330079,Note_on_c,1,60,81
2,221336489,Note_off_c,1,60,0
2,221508558,Note_on_c,1,60,81
2,221510979,Note_off_c,1,60,0
2,221549361,Note_on_c,1,60,81
2,221549785,Note_on_c,1,60,81
2,221550643,Note_off_c,1,60,0
2,221554314,Note_off_c,1,60,0
2,221555549,Note_on_c,1,60,81
2,221563653,Note_off_c,1,60,0
2,221701423,Note_on_c,1,60,81
2,221742089,Note_off_c,1,60,0
2,221819841,Note_on_c,1,60,81
2,221837333,Note_on_c,1,60,81
2,221837437,Note_off_c,1,60,0
2,221840717,Note_off_c,1,60,0
2,221880980,Note_on_c,1,60,81
2,221966340,Note_on_c,1,60,81
2,221978523,Note_off_c,1,60,0
2,221984964,Note_off_c,1,60,0
2,222010824,Note_on_c,1,60,81
2,222064773,Note_off_c,1,60,0
2,222088805,Note_on_c,1,60,81
2,222261832,Note_on_c,1,60,81
2,222262796,Note_off_c,1,60,0
2,222389103,Note_off_c,1,60,0
2,222452737,Note_on_c,1,60,81
2,222454705,Note_off_c,1,60,0
2,222468093,Note_on_c,1,60,81
2,222470882,Note_off_c,1,60,0
2,222477251,Note_on_c,1,60,81
2,222503631,Note_on_c,1,60,81
2,222503735,Note_off_c,1,60,0
2,222504622,Note_off_c,1,60,0
2,222510168,Note_on_c,1,60,81
2,222519732,Note_off_c,1,60,0
2,222522257,Note_on_c,1,60,81
2,222548104,Note_off_c,1,60,0
2,222557901,Note_on_c,1,60,81
2,222589824,Note_on_c,1,60,81
2,222589933,Note_off_c,1,60,0
2,222593843,Note_off_c,1,60,0
2,222618096,Note_on_c,1,60,81
2,222641413,Note_on_c,1,60,81
2,222641858,Note_off_c,1,60,0
2,222658866,Note_on_c,1,60,81
2,222661512,Note_off_c,1,60,0
2,222668007,Note_off_c,1,60,0
2,222668012,Note_on_c,1,60,81
2,222712552,Note_on_c,1,60,81
2,222713210,Note_off_c,1,60,0
2,222735196,Note_off_c,1,60,0
2,222737201,Note_on_c,1,60,81
2,222742639,Note_on_c,1,60,81
2,222742729,Note_off_c,1,60,0
2,222743355,Note_on_c,1,60,81
2,222751004,Note_off_c,1,60,0
2,222773149,Note_off_c,1,60,0
2,222815021,Note_on_c,1,60,81
2,222945724,Note_on_c,1,60,81
2,222945900,Note_off_c,1,60,0
2,223005995,Note_off_c,1,60,0
2,223091871,Note_on_c,1,60,81
2,223103335,Note_off_c,1,60,0
2,223109403,Note_on_c,1,60,81
2,223143248,Note_off_c,1,60,0
2,223144048,Note_on_c,1,60,81
2,223144954,Note_off_c,1,60,0
2,223181143,Note_on_c,1,60,81
2,223188154,Note_off_c,1,60,0
2,223220818,Note_on_c,1,60,81
2,223364233,Note_off_c,1,60,0
2,223373821,Note_on_c,1,60,81
2,223373956,Note_off_c,1,60,0
2,223393414,Note_on_c,1,60,81
2,223395465,Note_off_c,1,60,0
2,223538006,Note_on_c,1,60,81
2,223644109,Note_on_c,1,60,81
2,223644383,Note_off_c,1,60,0
2,223665723,Note_off_c,1,60,0
2,223690050,Note_on_c,1,60,81
2,223690114,Note_off_c,1,60,0
2,223701592,Note_on_c,1,60,81
2,223776018,Note_off_c,1,60,0
2,223779892,Note_on_c,1,60,81
2,223845954,Note_off_c,1,60,0
2,223846080,Note_on_c,1,60,81
2,223846714,Note_off_c,1,60,0
2,223856578,Note_on_c,1,60,81
2,223857387,Note_off_c,1,60,0
2,223863725,Note_on_c,1,60,81
2,223864851,Note_off_c,1,60,0
2,223947604,Note_on_c,1,60,81
2,223950416,Note_off_c,1,60,0
2,223951393,Note_on_c,1,60,81
2,223976145,Note_on_c,1,60,81
2,223976249,Note_off_c,1,60,0
2,223992625,Note_off_c,1,60,0
2,223992742,Note_on_c,1,60,81
2,223994261,Note_on_c,1,60,81
2,223995196,Note_off_c,1,60,0
2,224010612,Note_off_c,1,60,0
2,224030703,Note_on_c,1,60,81
2,224035056,Note_off_c,1,60,0
2,224107281,Note_on_c,1,60,81
2,224107541,Note_off_c,1,60,0
2,224114110,Note_on_c,1,60,81
2,224162047,Note_off_c,1,60,0
2,224175475,Note_on_c,1,60,81
2,224175706,Note_off_c,1,60,0
2,224175755,Note_on_c,1,60,81
2,224179640,Note_on_c,1,60,81
2,224179767,Note_off_c,1,60,0
2,224193441,Note_off_c,1,60,0
2,224208740,Note_on_c,1,60,81
2,224213625,Note_off_c,1,60,0
2,224219612,Note_on_c,1,60,81
2,224227333,Note_on_c,1,60,81
2,224228043,Note_off_c,1,60,0
2,224257003,Note_on_c,1,60,81
2,224257141,Note_off_c,1,60,0
2,224297645,Note_on_c,1,60,81
2,224298600,Note_off_c,1,60,0
2,224305379,Note_on_c,1,60,81
2,224305483,Note_off_c,1,60,0
2,224330189,Note_off_c,1,60,0
2,224356857,Note_on_c,1,60,81
2,224379459,Note_off_c,1,60,0
2,224385145,Note_on_c,1,60,81
2,224398226,Note_on_c,1,60,81
2,224398311,Note_off_c,1,60,0
2,224434659,Note_on_c,1,60,81
2,224437033,Note_off_c,1,60,0
2,224574433,Note_on_c,1,60,81
2,224575389,Note_off_c,1,60,0
2,224608129,Note_on_c,1,60,81
2,224616220,Note_off_c,1,60,0
2,224661172,Note_on_c,1,60,81
2,224661886,Note_off_c,1,60,0
2,224703271,Note_on_c,1,60,81
2,224712849,Note_off_c,1,60,0
2,224717503,Note_on_c,1,60,81
2,224730662,Note_off_c,1,60,0
2,224740554,Note_off_c,1,60,0
2,224766323,Note_on_c,1,60,81
2,224779335,Note_off_c,1,60,0
2,224802958,Note_on_c,1,60,81
2,224881355,Note_off_c,1,60,0
2,224896261,Note_on_c,1,60,81
2,225399292,Note_off_c,1,60,0
2,225401501,Note_on_c,1,60,81
2,225428925,Note_off_c,1,60,0
2,225447232,Note_on_c,1,60,81
2,225465020,Note_on_c,1,60,81
2,225465400,Note_off_c,1,60,0
2,225473837,Note_off_c,1,60,0
2,225486828,Note_on_c,1,60,81
2,225653142,Note_off_c,1,60,0
2,225653284,Note_on_c,1,60,81
2,225654323,Note_off_c,1,60,0
2,225700263,Note_on_c,1,60,81
2,225710967,Note_on_c,1,60,81
2,225736274,Note_off_c,1,60,0
2,225741274,Note_on_c,1,60,81
2,225741380,Note_off_c,1,60,0
2,225752258,Note_off_c,1,60,0
2,225777812,Note_on_c,1,60,81
2,225790468,Note_off_c,1,60,0
2,225803147,Note_on_c,1,60,81
2,225803448,Note_off_c,1,60,0
2,225810123,Note_on_c,1,60,81
2,225840882,Note_on_c,1,60,81
2,225845535,Note_on_c,1,60,81
2,225845563,Note_off_c,1,60,0
2,225846522,Note_off_c,1,60,0
2,225882380,Note_off_c,1,60,0
2,225886281,Note_on_c,1,60,81
2,225886695,Note_on_c,1,60,81
2,225911382,Note_off_c,1,60,0
2,225919876,Note_on_c,1,60,81
2,225922079,Note_on_c,1,60,81
2,225922142,Note_off_c,1,60,0
2,225924278,Note_off_c,1,60,0
2,225924340,Note_off_c,1,60,0
2,225936410,Note_on_c,1,60,81
2,225936597,Note_on_c,1,60,81
2,225937557,Note_off_c,1,60,0
2,225941383,Note_off_c,1,60,0
2,225964178,Note_on_c,1,60,81
2,225964428,Note_off_c,1,60,0
2,225982701,Note_on_c,1,60,81
2,225999343,Note_off_c,1,60,0
2,225999614,Note_on_c,1,60,81
2,226000545,Note_off_c,1,60,0
2,226045560,Note_on_c,1,60,81
2,226061850,Note_on_c,1,60,81
2,226061898,Note_off_c,1,60,0
2,226072019,Note_off_c,1,60,0
2,226083589,Note_on_c,1,60,81
2,226090465,Note_off_c,1,60,0
2,226127177,Note_on_c,1,60,81
2,226127346,Note_off_c,1,60,0
2,226144678,Note_on_c,1,60,81
2,226148002,Note_on_c,1,60,81
2,226155071,Note_off_c,1,60,0
2,226186741,Note_off_c,1,60,0
2,226188869,Note_on_c,1,60,81
2,226189221,Note_off_c,1,60,0
2,226223617,Note_on_c,1,60,81
2,226227060,Note_off_c,1,60,0
2,226231148,Note_on_c,1,60,81
2,226309869,Note_off_c,1,60,0
2,226318014,Note_on_c,1,60,81
2,226318693,Note_off_c,1,60,0
2,226331998,Note_on_c,1,60,81
2,226333655,Note_off_c,1,60,0
2,226349170,Note_on_c,1,60,81
2,226353793,Note_off_c,1,60,0
2,226360209,Note_on_c,1,60,81
2,226408154,Note_off_c,1,60,0
2,226411614,Note_on_c,1,60,81
2,226412135,Note_off_c,1,60,0
2,226438563,Note_on_c,1,60,81
2,226439344,Note_off_c,1,60,0
2,226445936,Note_on_c,1,60,81
2,226446292,Note_off_c,1,60,0
2,226493187,Note_on_c,1,60,81
2,226493489,Note_off_c,1,60,0
2,226538304,Note_on_c,1,60,81
2,226542729,Note_off_c,1,60,0
2,226548763,Note_on_c,1,60,81
2,226609230,Note_off_c,1,60,0
2,226631689,Note_on_c,1,60,81
2,226656079,Note_on_c,1,60,81
2,226668896,Note_on_c,1,60,81
2,226675089,Note_off_c,1,60,0
2,226676345,Note_off_c,1,60,0
2,226739323,Note_off_c,1,60,0
2,226781500,Note_on_c,1,60,81
2,226781744,Note_off_c,1,60,0
2,226827710,Note_on_c,1,60,81
2,226833906,Note_off_c,1,60,0
2,226870183,Note_on_c,1,60,81
2,226870183,Note_on_c,1,60,81
2,226927726,Note_off_c,1,60,0
2,226940285,Note_on_c,1,60,81
2,226958068,Note_on_c,1,60,81
2,226958267,Note_off_c,1,60,0
2,226987544,Note_off_c,1,60,0
2,226987545,Note_off_c,1,60,0
2,226989864,Note_on_c,1,60,81
2,226992139,Note_on_c,1,60,81
2,226993206,Note_off_c,1,60,0
2,227123894,Note_on_c,1,60,81
2,227132394,Note_off_c,1,60,0
2,227178332,Note_on_c,1,60,81
2,227183444,Note_off_c,1,60,0
2,227234268,Note_on_c,1,60,81
2,227235355,Note_off_c,1,60,0
2,227264775,Note_on_c,1,60,81
2,227265207,Note_off_c,1,60,0
2,227280448,Note_on_c,1,60,81
2,227281967,Note_off_c,1,60,0
2,227318492,Note_off_c,1,60,0
2,227393553,Note_on_c,1,60,81
2,227410616,Note_on_c,1,60,81
2,227411319,Note_off_c,1,60,0
2,227430525,Note_on_c,1,60,81
2,227430976,Note_off_c,1,60,0
2,227431035,Note_off_c,1,60,0
2,227434063,Note_on_c,1,60,81
2,227434346,Note_off_c,1,60,0
2,227482252,Note_on_c,1,60,81
2,227482454,Note_off_c,1,60,0
2,227490690,Note_on_c,1,60,81
2,227492296,Note_off_c,1,60,0
2,227493028,Note_on_c,1,60,81
2,227495142,Note_off_c,1,60,0
2,227506181,Note_on_c,1,60,81
2,227508292,Note_off_c,1,60,0
2,227509027,Note_on_c,1,60,81
2,227510618,Note_off_c,1,60,0
2,227518737,Note_on_c,1,60,81
2,227520619,Note_off_c,1,60,0
2,227561180,Note_on_c,1,60,81
2,227561300,Note_off_c,1,60,0
2,227563542,Note_on_c,1,60,81
2,227598423,Note_on_c,1,60,81
2,227599094,Note_off_c,1,60,0
2,227677443,Note_off_c,1,60,0
2,227696891,Note_on_c,1,60,81
2,227706699,Note_off_c,1,60,0
2,227728199,Note_on_c,1,60,81
2,227730424,Note_on_c,1,60,81
2,227735411,Note_off_c,1,60,0
2,227743830,Note_on_c,1,60,81
2,227747191,Note_off_c,1,60,0
2,227781826,Note_off_c,1,60,0
2,227786752,Note_on_c,1,60,81
2,227792179,Note_off_c,1,60,0
2,227815692,Note_on_c,1,60,81
2,227846470,Note_off_c,1,60,0
2,227918655,Note_on_c,1,60,81
2,227941589,Note_on_c,1,60,81
2,227941683,Note_off_c,1,60,0
2,227947932,Note_off_c,1,60,0
2,227975389,Note_on_c,1,60,81
2,227978193,Note_off_c,1,60,0
2,227980050,Note_on_c,1,60,81
2,227980227,Note_off_c,1,60,0
2,228006997,Note_on_c,1,60,81
2,228061271,Note_off_c,1,60,0
2,228073908,Note_on_c,1,60,81
2,228076550,Note_off_c,1,60,0
2,228082659,Note_on_c,1,60,81
2,228097262,Note_on_c,1,60,81
2,228097341,Note_off_c,1,60,0
2,228099212,Note_off_c,1,60,0
2,228100725,Note_on_c,1,60,81
2,228105411,Note_off_c,1,60,0
2,228106678,Note_on_c,1,60,81
2,228109312,Note_off_c,1,60,0
2,228114996,Note_on_c,1,60,81
2,228115473,Note_off_c,1,60,0
2,228119148,Note_on_c,1,60,81
2,228121312,Note_off_c,1,60,0
2,228121522,Note_on_c,1,60,81
2,228123771,Note_off_c,1,60,0
2,228134784,Note_on_c,1,60,81
2,228134992,Note_off_c,1,60,0
2,228139961,Note_on_c,1,60,81
2,228148984,Note_off_c,1,60,0
2,228149929,Note_on_c,1,60,81
2,228159826,Note_off_c,1,60,0
2,228164085,Note_on_c,1,60,81
2,228165512,Note_off_c,1,60,0
2,228165803,Note_on_c,1,60,81
2,228182257,Note_off_c,1,60,0
2,228203502,Note_on_c,1,60,81
2,228208043,Note_on_c,1,60,81
2,228213664,Note_off_c,1,60,0
2,228238240,Note_on_c,1,60,81
2,228276066,Note_off_c,1,60,0
2,228295548,Note_on_c,1,60,81
2,228303002,Note_off_c,1,60,0
2,228329466,Note_on_c,1,60,81
2,228331191,Note_off_c,1,60,0
2,228357011,Note_on_c,1,60,81
2,228368554,Note_off_c,1,60,0
2,228378876,Note_off_c,1,60,0
2,228384113,Note_on_c,1,60,81
2,228385016,Note_off_c,1,60,0
2,228393672,Note_on_c,1,60,81
2,228394289,Note_on_c,1,60,81
2,228396967,Note_off_c,1,60,0
2,228397047,Note_on_c,1,60,81
2,228397109,Note_off_c,1,60,0
2,228406835,Note_off_c,1,60,0
2,228407364,Note_on_c,1,60,81
2,228407934,Note_on_c,1,60,81
2,228410870,Note_off_c,1,60,0
2,228416861,Note_off_c,1,60,0
2,228424844,Note_on_c,1,60,81
2,228425360,Note_off_c,1,60,0
2,228434776,Note_on_c,1,60,81
2,228449162,Note_on_c,1,60,81
2,228449621,Note_off_c,1,60,0
2,228457873,Note_off_c,1,60,0
2,228458102,Note_on_c,1,60,81
2,228462073,Note_on_c,1,60,81
2,228462152,Note_off_c,1,60,0
2,228463104,Note_off_c,1,60,0
2,228464212,Note_on_c,1,60,81
2,228464594,Note_off_c,1,60,0
2,228486187,Note_on_c,1,60,81
2,228487120,Note_off_c,1,60,0
2,228487381,Note_on_c,1,60,81
2,228499899,Note_off_c,1,60,0
2,228510424,Note_on_c,1,60,81
2,228512305,Note_off_c,1,60,0
2,228555792,Note_on_c,1,60,81
2,228555901,Note_off_c,1,60,0
2,228558295,Note_on_c,1,60,81
2,228558339,Note_off_c,1,60,0
2,228610267,Note_on_c,1,60,81
2,228610386,Note_off_c,1,60,0
2,228612508,Note_on_c,1,60,81
2,228612627,Note_off_c,1,60,0
2,228614749,Note_on_c,1,60,81
2,228614868,Note_off_c,1,60,0
2,228616990,Note_on_c,1,60,81
2,228617109,Note_off_c,1,60,0
2,228619231,Note_on_c,1,60,81
2,228619350,Note_off_c,1,60,0
2,228621446,Note_on_c,1,60,81
2,228621565,Note_off_c,1,60,0
2,228623666,Note_on_c,1,60,81
2,228623785,Note_off_c,1,60,0
2,228625908,Note_on_c,1,60,81
2,228626027,Note_off_c,1,60,0
2,228628147,Note_on_c,1,60,81
2,228628266,Note_off_c,1,60,0
2,228630389,Note_on_c,1,60,81
2,228630508,Note_off_c,1,60,0
2,228632630,Note_on_c,1,60,81
2,228632749,Note_off_c,1,60,0
2,228634870,Note_on_c,1,60,81
2,228634989,Note_off_c,1,60,0
2,228637095,Note_on_c,1,60,81
2,228637214,Note_off_c,1,60,0
2,228639336,Note_on_c,1,60,81
2,228639455,Note_off_c,1,60,0
2,228641567,Note_on_c,1,60,81
2,228641686,Note_off_c,1,60,0
2,228643808,Note_on_c,1,60,81
2,228643927,Note_off_c,1,60,0
2,228646039,Note_on_c,1,60,81
2,228646158,Note_off_c,1,60,0
2,228647911,Note_on_c,1,60,81
2,228648032,Note_off_c,1,60,0
2,228650240,Note_on_c,1,60,81
2,228651379,Note_off_c,1,60,0
2,228652435,Note_on_c,1,60,81
2,228652560,Note_off_c,1,60,0
2,228687414,Note_on_c,1,60,81
2,228687826,Note_off_c,1,60,0
2,228735478,Note_on_c,1,60,81
2,228746664,Note_off_c,1,60,0
2,228776311,Note_on_c,1,60,81
2,228776865,Note_off_c,1,60,0
2,228858009,Note_on_c,1,60,81
2,228858556,Note_off_c,1,60,0
2,229022772,Note_on_c,1,60,81
2,229038274,Note_off_c,1,60,0
2,229042170,Note_on_c,1,60,81
2,229042591,Note_off_c,1,60,0
2,229087113,Note_on_c,1,60,81
2,229205428,Note_off_c,1,60,0
2,229223456,Note_on_c,1,60,81
2,229242902,Note_off_c,1,60,0
2,229249635,Note_on_c,1,60,81
2,229251810,Note_off_c,1,60,0
2,229256891,Note_on_c,1,60,81
2,229271061,Note_on_c,1,60,81
2,229271242,Note_off_c,1,60,0
2,229305894,Note_off_c,1,60,0
2,229319402,Note_on_c,1,60,81
2,229321010,Note_on_c,1,60,81
2,229323087,Note_off_c,1,60,0
2,229343294,Note_off_c,1,60,0
2,229383127,Note_on_c,1,60,81
2,229383188,Note_off_c,1,60,0
2,229407360,Note_on_c,1,60,81
2,229410499,Note_on_c,1,60,81
2,229410570,Note_off_c,1,60,0
2,229410767,Note_off_c,1,60,0
2,229425019,Note_on_c,1,60,81
2,229425650,Note_off_c,1,60,0
2,229430364,Note_on_c,1,60,81
2,229434104,Note_off_c,1,60,0
2,229440258,Note_on_c,1,60,81
2,229440283,Note_on_c,1,60,81
2,229441020,Note_off_c,1,60,0
2,229508341,Note_off_c,1,60,0
2,229508368,Note_on_c,1,60,81
2,229514272,Note_off_c,1,60,0
2,229516581,Note_on_c,1,60,81
2,229535063,Note_on_c,1,60,81
2,229535189,Note_off_c,1,60,0
2,229549904,Note_on_c,1,60,81
2,229550022,Note_off_c,1,60,0
2,229558707,Note_off_c,1,60,0
2,229570531,Note_on_c,1,60,81
2,229570796,Note_off_c,1,60,0
2,229593120,Note_on_c,1,60,81
2,229626047,Note_off_c,1,60,0
2,229626246,Note_on_c,1,60,81
2,229660200,Note_off_c,1,60,0
2,229688998,Note_on_c,1,60,81
2,229689904,Note_off_c,1,60,0
2,229705233,Note_on_c,1,60,81
2,229705861,Note_off_c,1,60,0
2,229812916,Note_on_c,1,60,81
2,229892046,Note_off_c,1,60,0
2,230002371,Note_on_c,1,60,81
2,230007195,Note_off_c,1,60,0
2,230057989,Note_on_c,1,60,81
2,230258693,Note_on_c,1,60,81
2,230272100,Note_off_c,1,60,0
2,230280311,Note_on_c,1,60,81
2,230281893,Note_off_c,1,60,0
2,230282122,Note_off_c,1,60,0
2,230314489,Note_on_c,1,60,81
2,230426332,Note_off_c,1,60,0
2,230426490,Note_on_c,1,60,81
2,230592659,Note_on_c,1,60,81
2,230595583,Note_off_c,1,60,0
2,230612008,Note_on_c,1,60,81
2,230612412,Note_off_c,1,60,0
2,230641806,Note_off_c,1,60,0
2,230642480,Note_on_c,1,60,81
2,230690775,Note_on_c,1,60,81
2,230693982,Note_off_c,1,60,0
2,230710697,Note_on_c,1,60,81
2,230745576,Note_off_c,1,60,0
2,230747383,Note_on_c,1,60,81
2,230795492,Note_off_c,1,60,0
2,230802003,Note_off_c,1,60,0
2,230820249,Note_on_c,1,60,81
2,230820358,Note_off_c,1,60,0
2,230823640,Note_on_c,1,60,81
2,230824707,Note_off_c,1,60,0
2,230837118,Note_on_c,1,60,81
2,230868258,Note_on_c,1,60,81
2,230869589,Note_off_c,1,60,0
2,230878661,Note_on_c,1,60,81
2,230879141,Note_off_c,1,60,0
2,230889948,Note_on_c,1,60,81
2,230890169,Note_off_c,1,60,0
2,230894140,Note_on_c,1,60,81
2,230894427,Note_off_c,1,60,0
2,230895788,Note_off_c,1,60,0
2,230906242,Note_on_c,1,60,81
2,230978875,Note_off_c,1,60,0
2,230978980,Note_on_c,1,60,81
2,231000733,Note_off_c,1,60,0
2,231018957,Note_on_c,1,60,81
2,231019827,Note_on_c,1,60,81
2,231019924,Note_off_c,1,60,0
2,231021610,Note_on_c,1,60,81
2,231022183,Note_off_c,1,60,0
2,231040254,Note_off_c,1,60,0
2,231117830,Note_on_c,1,60,81
2,231118325,Note_off_c,1,60,0
2,231162057,Note_on_c,1,60,81
2,231184097,Note_on_c,1,60,81
2,231187627,Note_off_c,1,60,0
2,231221565,Note_off_c,1,60,0
2,231223762,Note_on_c,1,60,81
2,231241187,Note_off_c,1,60,0
2,231241206,Note_on_c,1,60,81
2,231277973,Note_off_c,1,60,0
2,231281413,Note_on_c,1,60,81
2,231281524,Note_off_c,1,60,0
2,231332752,Note_on_c,1,60,81
2,231337103,Note_on_c,1,60,81
2,231337852,Note_off_c,1,60,0
2,231339420,Note_on_c,1,60,81
2,231339558,Note_off_c,1,60,0
2,231355023,Note_off_c,1,60,0
2,231363750,Note_on_c,1,60,81
2,231363796,Note_on_c,1,60,81
2,231422287,Note_off_c,1,60,0
2,231475955,Note_on_c,1,60,81
2,231476288,Note_off_c,1,60,0
2,231520728,Note_on_c,1,60,81
2,231528540,Note_on_c,1,60,81
2,231528603,Note_off_c,1,60,0
2,231528618,Note_off_c,1,60,0
2,231528652,Note_on_c,1,60,81
2,231566524,Note_off_c,1,60,0
2,231591291,Note_on_c,1,60,81
2,231612090,Note_off_c,1,60,0
2,231626789,Note_on_c,1,60,81
2,231670634,Note_on_c,1,60,81
2,231670750,Note_off_c,1,60,0
2,231767463,Note_on_c,1,60,81
2,231814981,Note_on_c,1,60,81
2,231815186,Note_off_c,1,60,0
2,231819244,Note_off_c,1,60,0
2,231847711,Note_off_c,1,60,0
2,231925833,Note_on_c,1,60,81
2,231945233,Note_off_c,1,60,0
2,232041272,Note_off_c,1,60,0
2,232160090,Note_on_c,1,60,81
2,232174931,Note_on_c,1,60,81
2,232180113,Note_off_c,1,60,0
2,232185643,Note_off_c,1,60,0
2,232221937,Note_on_c,1,60,81
2,232222174,Note_off_c,1,60,0
2,232222865,Note_on_c,1,60,81
2,232223145,Note_off_c,1,60,0
2,232397964,Note_on_c,1,60,81
2,232630571,Note_off_c,1,60,0
2,232700203,Note_on_c,1,60,81
2,232700308,Note_off_c,1,60,0
2,232718070,Note_on_c,1,60,81
2,232722250,Note_off_c,1,60,0
2,232727250,Note_on_c,1,60,81
2,232751299,Note_off_c,1,60,0
2,232805415,Note_on_c,1,60,81
2,232809929,Note_off_c,1,60,0
2,232832016,Note_on_c,1,60,81
2,232832187,Note_off_c,1,60,0
2,232843385,Note_on_c,1,60,81
2,232897660,Note_off_c,1,60,0
2,232917234,Note_on_c,1,60,81
2,232918018,Note_off_c,1,60,0
2,232950604,Note_on_c,1,60,81
2,232983434,Note_on_c,1,60,81
2,232983882,Note_off_c,1,60,0
2,233288867,Note_on_c,1,60,81
2,233289447,Note_off_c,1,60,0
2,233295324,Note_on_c,1,60,81
2,233295725,Note_off_c,1,60,0
2,233295727,Note_off_c,1,60,0
2,233327723,Note_on_c,1,60,81
2,233385148,Note_off_c,1,60,0
2,233448625,Note_on_c,1,60,81
2,233448781,Note_off_c,1,60,0
2,233527543,Note_on_c,1,60,81
2,233543633,Note_off_c,1,60,0
2,233613569,Note_on_c,1,60,81
2,233613969,Note_off_c,1,60,0
2,233614105,Note_on_c,1,60,81
2,233624151,Note_on_c,1,60,81
2,233624219,Note_off_c,1,60,0
2,233672514,Note_off_c,1,60,0
2,233724453,Note_on_c,1,60,81
2,233730746,Note_off_c,1,60,0
2,233836079,Note_on_c,1,60,81
2,233836432,Note_off_c,1,60,0
2,233844620,Note_on_c,1,60,81
2,233865370,Note_off_c,1,60,0
2,233904103,Note_on_c,1,60,81
2,233904675,Note_on_c,1,60,81
2,233905931,Note_off_c,1,60,0
2,234026850,Note_on_c,1,60,81
2,234027227,Note_off_c,1,60,0
2,234212605,Note_on_c,1,60,81
2,234215088,Note_off_c,1,60,0
2,234261705,Note_on_c,1,60,81
2,234268582,Note_on_c,1,60,81
2,234272500,Note_off_c,1,60,0
2,234274465,Note_off_c,1,60,0
2,234284971,Note_on_c,1,60,81
2,234285541,Note_off_c,1,60,0
2,234306466,Note_on_c,1,60,81
2,234306539,Note_off_c,1,60,0
2,234324511,Note_off_c,1,60,0
2,234356703,Note_on_c,1,60,81
2,234357005,Note_on_c,1,60,81
2,234357141,Note_off_c,1,60,0
2,234365828,Note_off_c,1,60,0
2,234372185,Note_on_c,1,60,81
2,234372806,Note_on_c,1,60,81
2,234372811,Note_off_c,1,60,0
2,234373455,Note_on_c,1,60,81
2,234373662,Note_off_c,1,60,0
2,234385080,Note_off_c,1,60,0
2,234391312,Note_on_c,1,60,81
2,234479179,Note_off_c,1,60,0
2,234527886,Note_on_c,1,60,81
2,234531337,Note_on_c,1,60,81
2,234531803,Note_off_c,1,60,0
2,234532014,Note_off_c,1,60,0
2,234535962,Note_on_c,1,60,81
2,234539054,Note_off_c,1,60,0
2,234550541,Note_on_c,1,60,81
2,234554838,Note_off_c,1,60,0
2,234565297,Note_on_c,1,60,81
2,234570088,Note_off_c,1,60,0
2,234593274,Note_on_c,1,60,81
2,234593402,Note_off_c,1,60,0
2,234599567,Note_on_c,1,60,81
2,234600057,Note_off_c,1,60,0
2,234604268,Note_on_c,1,60,81
2,234607007,Note_on_c,1,60,81
2,234609483,Note_off_c,1,60,0
2,234610178,Note_off_c,1,60,0
2,234629310,Note_on_c,1,60,81
2,234634780,Note_off_c,1,60,0
2,234644665,Note_on_c,1,60,81
2,234646288,Note_on_c,1,60,81
2,234647571,Note_off_c,1,60,0
2,234660270,Note_on_c,1,60,81
2,234667104,Note_off_c,1,60,0
2,234669522,Note_on_c,1,60,81
2,234683176,Note_off_c,1,60,0
2,234696153,Note_off_c,1,60,0
2,234709382,Note_on_c,1,60,81
2,234720220,Note_off_c,1,60,0
2,234724041,Note_on_c,1,60,81
2,234736720,Note_off_c,1,60,0
2,234757618,Note_on_c,1,60,81
2,234760056,Note_off_c,1,60,0
2,234771522,Note_on_c,1,60,81
2,234772797,Note_off_c,1,60,0
2,234811051,Note_on_c,1,60,81
2,234837975,Note_on_c,1,60,81
2,234838069,Note_off_c,1,60,0
2,234904185,Note_on_c,1,60,81
2,234904488,Note_off_c,1,60,0
2,234932653,Note_off_c,1,60,0
2,234957230,Note_on_c,1,60,81
2,234957341,Note_on_c,1,60,81
2,234959989,Note_off_c,1,60,0
2,234970062,Note_off_c,1,60,0
2,234978813,Note_on_c,1,60,81
2,234980804,Note_off_c,1,60,0
2,235064926,Note_on_c,1,60,81
2,235074220,Note_off_c,1,60,0
2,235097186,Note_on_c,1,60,81
2,235097412,Note_off_c,1,60,0
2,235104179,Note_on_c,1,60,81
2,235104609,Note_off_c,1,60,0
2,235109340,Note_on_c,1,60,81
2,235127802,Note_on_c,1,60,81
2,235127937,Note_off_c,1,60,0
2,235128837,Note_off_c,1,60,0
2,235131182,Note_on_c,1,60,81
2,235131633,Note_on_c,1,60,81
2,235161283,Note_off_c,1,60,0
2,235161320,Note_on_c,1,60,81
2,235161705,Note_off_c,1,60,0
2,235190033,Note_on_c,1,60,81
2,235190116,Note_off_c,1,60,0
2,235295864,Note_on_c,1,60,81
2,235296335,Note_off_c,1,60,0
2,235327349,Note_on_c,1,60,81
2,235328219,Note_off_c,1,60,0
2,235328569,Note_on_c,1,60,81
2,235336805,Note_on_c,1,60,81
2,235337087,Note_off_c,1,60,0
2,235344532,Note_off_c,1,60,0
2,235361152,Note_on_c,1,60,81
2,235362540,Note_off_c,1,60,0
2,235366352,Note_on_c,1,60,81
2,235367359,Note_on_c,1,60,81
2,235367366,Note_off_c,1,60,0
2,235432984,Note_on_c,1,60,81
2,235433231,Note_off_c,1,60,0
2,235447189,Note_on_c,1,60,81
2,235448952,Note_off_c,1,60,0
2,235452443,Note_off_c,1,60,0
2,235504452,Note_off_c,1,60,0
2,235519970,Note_on_c,1,60,81
2,235520685,Note_off_c,1,60,0
2,235537519,Note_on_c,1,60,81
2,235538041,Note_off_c,1,60,0
2,235538051,Note_on_c,1,60,81
2,235539845,Note_off_c,1,60,0
2,235540052,Note_on_c,1,60,81
2,235541411,Note_on_c,1,60,81
2,235541415,Note_off_c,1,60,0
2,235541706,Note_off_c,1,60,0
2,235541758,Note_on_c,1,60,81
2,235542097,Note_off_c,1,60,0
2,235542158,Note_on_c,1,60,81
2,235542390,Note_off_c,1,60,0
2,235547684,Note_on_c,1,60,81
2,235565760,Note_on_c,1,60,81
2,235566937,Note_off_c,1,60,0
2,235614673,Note_on_c,1,60,81
2,235616397,Note_off_c,1,60,0
2,235650754,Note_off_c,1,60,0
2,235661040,Note_on_c,1,60,81
2,235738004,Note_on_c,1,60,81
2,235738989,Note_off_c,1,60,0
2,235839482,Note_on_c,1,60,81
2,235840182,Note_off_c,1,60,0
2,235852999,Note_on_c,1,60,81
2,235853060,Note_off_c,1,60,0
2,235883640,Note_off_c,1,60,0
2,235915414,Note_on_c,1,60,81
2,235915521,Note_off_c,1,60,0
2,235942552,Note_on_c,1,60,81
2,235943805,Note_off_c,1,60,0
2,235957878,Note_on_c,1,60,81
2,235971825,Note_off_c,1,60,0
2,235975829,Note_on_c,1,60,81
2,236060676,Note_on_c,1,60,81
2,236060772,Note_off_c,1,60,0
2,236065109,Note_off_c,1,60,0
2,236110060,Note_on_c,1,60,81
2,236112370,Note_off_c,1,60,0
2,236123666,Note_on_c,1,60,81
2,236130415,Note_off_c,1,60,0
2,236142504,Note_on_c,1,60,81
2,236214680,Note_on_c,1,60,81
2,236221865,Note_off_c,1,60,0
2,236267779,Note_on_c,1,60,81
2,236267958,Note_off_c,1,60,0
2,236282019,Note_off_c,1,60,0
2,236285975,Note_on_c,1,60,81
2,236286960,Note_off_c,1,60,0
2,236348256,Note_on_c,1,60,81
2,236483164,Note_on_c,1,60,81
2,236484468,Note_off_c,1,60,0
2,236502915,Note_off_c,1,60,0
2,236517999,Note_on_c,1,60,81
2,236523051,Note_on_c,1,60,81
2,236524508,Note_off_c,1,60,0
2,236536161,Note_on_c,1,60,81
2,236536704,Note_off_c,1,60,0
2,236540093,Note_on_c,1,60,81
2,236549004,Note_on_c,1,60,81
2,236550280,Note_off_c,1,60,0
2,236552981,Note_off_c,1,60,0
2,236604516,Note_off_c,1,60,0
2,236664140,Note_on_c,1,60,81
2,236764631,Note_off_c,1,60,0
2,236795259,Note_on_c,1,60,81
2,236819633,Note_on_c,1,60,81
2,236820518,Note_off_c,1,60,0
2,236921278,Note_off_c,1,60,0
2,236981338,Note_on_c,1,60,81
2,236981708,Note_off_c,1,60,0
2,237004102,Note_on_c,1,60,81
2,237004441,Note_off_c,1,60,0
2,237013372,Note_on_c,1,60,81
2,237014200,Note_off_c,1,60,0
2,237042183,Note_on_c,1,60,81
2,237120806,Note_on_c,1,60,81
2,237121109,Note_off_c,1,60,0
2,237471118,Note_on_c,1,60,81
2,237471191,Note_off_c,1,60,0
2,237555039,Note_on_c,1,60,81
2,237555171,Note_off_c,1,60,0
2,237814958,Note_on_c,1,60,81
2,237816706,Note_off_c,1,60,0
2,237833988,Note_off_c,1,60,0
2,237862174,Note_on_c,1,60,81
2,237877863,Note_on_c,1,60,81
2,237890922,Note_off_c,1,60,0
2,237926830,Note_on_c,1,60,81
2,237927605,Note_off_c,1,60,0
2,237928321,Note_off_c,1,60,0
2,237940761,Note_on_c,1,60,81
2,237941061,Note_off_c,1,60,0
2,237941451,Note_on_c,1,60,81
2,237942492,Note_off_c,1,60,0
2,237942697,Note_on_c,1,60,81
2,237943653,Note_off_c,1,60,0
2,237943723,Note_on_c,1,60,81
2,237945275,Note_off_c,1,60,0
2,237948016,Note_on_c,1,60,81
2,237949143,Note_off_c,1,60,0
2,237949213,Note_on_c,1,60,81
2,237949734,Note_off_c,1,60,0
2,237949735,Note_on_c,1,60,81
2,237951536,Note_off_c,1,60,0
2,238107735,Note_on_c,1,60,81
2,238108567,Note_off_c,1,60,0
2,238238942,Note_on_c,1,60,81
2,238268493,Note_on_c,1,60,81
2,238268595,Note_off_c,1,60,0
2,238325686,Note_on_c,1,60,81
2,238325788,Note_off_c,1,60,0
2,238404906,Note_off_c,1,60,0
2,238476541,Note_on_c,1,60,81
2,238485444,Note_on_c,1,60,81
2,238486060,Note_off_c,1,60,0
2,238491357,Note_on_c,1,60,81
2,238492644,Note_off_c,1,60,0
2,238538305,Note_off_c,1,60,0
2,238777048,Note_on_c,1,60,81
2,238779200,Note_off_c,1,60,0
2,238842766,Note_on_c,1,60,81
2,238848115,Note_off_c,1,60,0
2,239052747,Note_on_c,1,60,81
2,239052903,Note_off_c,1,60,0
2,239205137,Note_on_c,1,60,81
2,239212284,Note_off_c,1,60,0
2,239247807,Note_on_c,1,60,81
2,239250818,Note_off_c,1,60,0
2,239386564,Note_on_c,1,60,81
2,239703380,Note_on_c,1,60,81
2,239770130,Note_off_c,1,60,0
2,239898015,Note_on_c,1,60,81
2,239899872,Note_off_c,1,60,0
2,239915438,Note_on_c,1,60,81
2,239915452,Note_off_c,1,60,0
2,239916955,Note_off_c,1,60,0
2,239972786,Note_on_c,1,60,81
2,239974245,Note_off_c,1,60,0
2,240007523,Note_on_c,1,60,81
2,240008381,Note_off_c,1,60,0
2,240012645,Note_on_c,1,60,81
2,240013226,Note_off_c,1,60,0
2,240014347,Note_on_c,1,60,81
2,240142669,Note_on_c,1,60,81
2,240145389,Note_off_c,1,60,0
2,240154650,Note_on_c,1,60,81
2,240154772,Note_off_c,1,60,0
2,240170154,Note_on_c,1,60,81
2,240171291,Note_off_c,1,60,0
2,240177838,Note_on_c,1,60,81
2,240179644,Note_off_c,1,60,0
2,240341384,Note_on_c,1,60,81
2,240341477,Note_off_c,1,60,0
2,240400670,Note_on_c,1,60,81
2,240401123,Note_off_c,1,60,0
2,240475187,Note_off_c,1,60,0
2,240489572,Note_on_c,1,60,81
2,240530451,Note_on_c,1,60,81
2,240530862,Note_off_c,1,60,0
2,240549866,Note_on_c,1,60,81
2,240550378,Note_off_c,1,60,0
2,240588521,Note_on_c,1,60,81
2,240590748,Note_off_c,1,60,0
2,240612155,Note_off_c,1,60,0
2,240636598,Note_on_c,1,60,81
2,240637052,Note_off_c,1,60,0
2,240653366,Note_on_c,1,60,81
2,240653477,Note_off_c,1,60,0
2,240654240,Note_on_c,1,60,81
2,240654625,Note_off_c,1,60,0
2,240698319,Note_on_c,1,60,81
2,240698429,Note_off_c,1,60,0
2,240739130,Note_on_c,1,60,81
2,240743904,Note_off_c,1,60,0
2,240763333,Note_on_c,1,60,81
2,240767635,Note_on_c,1,60,81
2,240769419,Note_on_c,1,60,81
2,240771534,Note_off_c,1,60,0
2,240776824,Note_off_c,1,60,0
2,240823005,Note_on_c,1,60,81
2,240823433,Note_off_c,1,60,0
2,240919652,Note_on_c,1,60,81
2,240920609,Note_off_c,1,60,0
2,240998450,Note_on_c,1,60,81
2,240998794,Note_off_c,1,60,0
2,241132271,Note_on_c,1,60,81
2,241132346,Note_off_c,1,60,0
2,241305579,Note_on_c,1,60,81
2,241305882,Note_off_c,1,60,0
2,241357342,Note_on_c,1,60,81
2,241357374,Note_off_c,1,60,0
2,241364054,Note_off_c,1,60,0
2,241413715,Note_on_c,1,60,81
2,241453750,Note_on_c,1,60,81
2,241468661,Note_off_c,1,60,0
2,241484995,Note_off_c,1,60,0
2,241497510,Note_on_c,1,60,81
2,241519799,Note_off_c,1,60,0
2,241532133,Note_on_c,1,60,81
2,241590101,Note_on_c,1,60,81
2,241595642,Note_off_c,1,60,0
2,241628850,Note_on_c,1,60,81
2,241640369,Note_off_c,1,60,0
2,241640554,Note_on_c,1,60,81
2,241641835,Note_off_c,1,60,0
2,241652277,Note_on_c,1,60,81
2,241677376,Note_off_c,1,60,0
2,241722925,Note_on_c,1,60,81
2,241802777,Note_off_c,1,60,0
2,241831934,Note_on_c,1,60,81
2,241832787,Note_off_c,1,60,0
2,241847966,Note_on_c,1,60,81
2,241848128,Note_off_c,1,60,0
2,241895148,Note_off_c,1,60,0
2,241916122,Note_on_c,1,60,81
2,241916543,Note_off_c,1,60,0
2,241957766,Note_on_c,1,60,81
2,241959062,Note_off_c,1,60,0
2,241993184,Note_on_c,1,60,81
2,241993682,Note_off_c,1,60,0
2,241995489,Note_on_c,1,60,81
2,241999098,Note_off_c,1,60,0
2,242057084,Note_on_c,1,60,81
2,242060242,Note_off_c,1,60,0
2,242060489,Note_on_c,1,60,81
2,242062595,Note_off_c,1,60,0
2,242082985,Note_on_c,1,60,81
2,242147229,Note_on_c,1,60,81
2,242188646,Note_on_c,1,60,81
2,242188789,Note_off_c,1,60,0
2,242203554,Note_on_c,1,60,81
2,242209129,Note_off_c,1,60,0
2,242210827,Note_off_c,1,60,0
2,242345557,Note_on_c,1,60,81
2,242345718,Note_off_c,1,60,0
2,242365188,Note_on_c,1,60,81
2,242365822,Note_off_c,1,60,0
2,242376922,Note_on_c,1,60,81
2,242377432,Note_off_c,1,60,0
2,242524697,Note_off_c,1,60,0
2,242671139,Note_on_c,1,60,81
2,242671576,Note_off_c,1,60,0
2,242772619,Note_on_c,1,60,81
2,242773103,Note_off_c,1,60,0
2,242882065,Note_on_c,1,60,81
2,242883475,Note_off_c,1,60,0
2,242890246,Note_on_c,1,60,81
2,242890803,Note_off_c,1,60,0
2,242975004,Note_on_c,1,60,81
2,242975084,Note_off_c,1,60,0
2,243005844,Note_on_c,1,60,81
2,243007468,Note_off_c,1,60,0
2,243029511,Note_on_c,1,60,81
2,243049781,Note_on_c,1,60,81
2,243051619,Note_off_c,1,60,0
2,243052252,Note_off_c,1,60,0
2,243054860,Note_on_c,1,60,81
2,243056306,Note_on_c,1,60,81
2,243056394,Note_off_c,1,60,0
2,243081155,Note_on_c,1,60,81
2,243081259,Note_off_c,1,60,0
2,243101744,Note_off_c,1,60,0
2,243124427,Note_on_c,1,60,81
2,243135897,Note_on_c,1,60,81
2,243140588,Note_off_c,1,60,0
2,243164637,Note_on_c,1,60,81
2,243169445,Note_off_c,1,60,0
2,243255348,Note_off_c,1,60,0
2,243256033,Note_on_c,1,60,81
2,243267256,Note_on_c,1,60,81
2,243268119,Note_off_c,1,60,0
2,243346175,Note_on_c,1,60,81
2,243346255,Note_off_c,1,60,0
2,243488232,Note_on_c,1,60,81
2,243500091,Note_off_c,1,60,0
2,243545531,Note_on_c,1,60,81
2,243548329,Note_off_c,1,60,0
2,243624665,Note_on_c,1,60,81
2,243625056,Note_off_c,1,60,0
2,243702856,Note_on_c,1,60,81
2,243740821,Note_off_c,1,60,0
2,243793204,Note_on_c,1,60,81
2,243794400,Note_off_c,1,60,0
2,243851079,Note_off_c,1,60,0
2,243917401,Note_on_c,1,60,81
2,244047317,Note_off_c,1,60,0
2,244047518,Note_on_c,1,60,81
2,244048244,Note_off_c,1,60,0
2,244048938,Note_on_c,1,60,81
2,244057476,Note_off_c,1,60,0
2,244064329,Note_on_c,1,60,81
2,244067909,Note_off_c,1,60,0
2,244068819,Note_on_c,1,60,81
2,244087305,Note_on_c,1,60,81
2,244090295,Note_off_c,1,60,0
2,244093026,Note_off_c,1,60,0
2,244103931,Note_on_c,1,60,81
2,244104210,Note_off_c,1,60,0
2,244107364,Note_on_c,1,60,81
2,244109011,Note_off_c,1,60,0
2,244184952,Note_on_c,1,60,81
2,244187559,Note_off_c,1,60,0
2,244308557,Note_on_c,1,60,81
2,244325179,Note_off_c,1,60,0
2,244352634,Note_on_c,1,60,81
2,244375099,Note_on_c,1,60,81
2,244389663,Note_off_c,1,60,0
2,244394975,Note_on_c,1,60,81
2,244395660,Note_off_c,1,60,0
2,244408493,Note_on_c,1,60,81
2,244409592,Note_off_c,1,60,0
2,244451909,Note_off_c,1,60,0
2,244454376,Note_on_c,1,60,81
2,244598390,Note_on_c,1,60,81
2,244598687,Note_off_c,1,60,0
2,244641177,Note_off_c,1,60,0
2,244653102,Note_on_c,1,60,81
2,244694431,Note_on_c,1,60,81
2,244694720,Note_off_c,1,60,0
2,244709033,Note_off_c,1,60,0
2,244729897,Note_on_c,1,60,81
2,244730962,Note_off_c,1,60,0
2,244731023,Note_on_c,1,60,81
2,244731586,Note_off_c,1,60,0
2,244834373,Note_on_c,1,60,81
2,244835011,Note_off_c,1,60,0
2,244835615,Note_on_c,1,60,81
2,244840637,Note_on_c,1,60,81
2,244845057,Note_off_c,1,60,0
2,244864560,Note_off_c,1,60,0
2,244864737,Note_on_c,1,60,81
2,244865272,Note_off_c,1,60,0
2,244943909,Note_on_c,1,60,81
2,244944216,Note_off_c,1,60,0
2,244954857,Note_on_c,1,60,81
2,244954963,Note_off_c,1,60,0
2,244969349,Note_on_c,1,60,81
2,244969681,Note_on_c,1,60,81
2,244971088,Note_off_c,1,60,0
2,245023014,Note_on_c,1,60,81
2,245023118,Note_off_c,1,60,0
2,245043927,Note_on_c,1,60,81
2,245044032,Note_off_c,1,60,0
2,245123470,Note_on_c,1,60,81
2,245124450,Note_off_c,1,60,0
2,245127164,Note_off_c,1,60,0
2,245133926,Note_on_c,1,60,81
2,245134090,Note_off_c,1,60,0
2,245154984,Note_on_c,1,60,81
2,245206443,Note_on_c,1,60,81
2,245234501,Note_off_c,1,60,0
2,245282830,Note_on_c,1,60,81
2,245283089,Note_off_c,1,60,0
2,245614772,Note_on_c,1,60,81
2,245615145,Note_off_c,1,60,0
2,245673731,Note_on_c,1,60,81
2,245676478,Note_off_c,1,60,0
2,245709432,Note_off_c,1,60,0
2,245749341,Note_on_c,1,60,81
2,246025896,Note_on_c,1,60,81
2,246035603,Note_off_c,1,60,0
2,246108625,Note_on_c,1,60,81
2,246113866,Note_off_c,1,60,0
2,246178777,Note_on_c,1,60,81
2,246179204,Note_off_c,1,60,0
2,246189013,Note_on_c,1,60,81
2,246189118,Note_off_c,1,60,0
2,246321662,Note_on_c,1,60,81
2,246322438,Note_off_c,1,60,0
2,246426005,Note_on_c,1,60,81
2,246426119,Note_off_c,1,60,0
2,246507312,Note_off_c,1,60,0
2,246509037,Note_on_c,1,60,81
2,246516038,Note_on_c,1,60,81
2,246522592,Note_off_c,1,60,0
2,246524287,Note_off_c,1,60,0
2,246527029,Note_on_c,1,60,81
2,246528155,Note_off_c,1,60,0
2,246528561,Note_on_c,1,60,81
2,246528841,Note_off_c,1,60,0
2,246540560,Note_on_c,1,60,81
2,246566261,Note_off_c,1,60,0
2,246566443,Note_on_c,1,60,81
2,246605872,Note_on_c,1,60,81
2,246608102,Note_off_c,1,60,0
2,246632250,Note_on_c,1,60,81
2,246632478,Note_off_c,1,60,0
2,246668595,Note_off_c,1,60,0
2,246682107,Note_on_c,1,60,81
2,246685075,Note_off_c,1,60,0
2,246690046,Note_on_c,1,60,81
2,246691821,Note_off_c,1,60,0
2,246724408,Note_on_c,1,60,81
2,246755510,Note_on_c,1,60,81
2,246755832,Note_off_c,1,60,0
2,246768137,Note_off_c,1,60,0
2,246771836,Note_on_c,1,60,81
2,246772300,Note_on_c,1,60,81
2,246775772,Note_off_c,1,60,0
2,246775879,Note_on_c,1,60,81
2,246792385,Note_off_c,1,60,0
2,246818075,Note_on_c,1,60,81
2,246818180,Note_off_c,1,60,0
2,246833447,Note_on_c,1,60,81
2,246833529,Note_off_c,1,60,0
2,246839097,Note_on_c,1,60,81
2,246839611,Note_off_c,1,60,0
2,246931948,Note_off_c,1,60,0
2,246945546,Note_on_c,1,60,81
2,246945546,Note_on_c,1,60,81
2,247008093,Note_off_c,1,60,0
2,247015067,Note_on_c,1,60,81
2,247017291,Note_off_c,1,60,0
2,247034636,Note_on_c,1,60,81
2,247042790,Note_on_c,1,60,81
2,247044021,Note_off_c,1,60,0
2,247078811,Note_off_c,1,60,0
2,247078811,Note_off_c,1,60,0
2,247085388,Note_on_c,1,60,81
2,247086067,Note_off_c,1,60,0
2,247099961,Note_on_c,1,60,81
2,247104372,Note_off_c,1,60,0
2,247105404,Note_on_c,1,60,81
2,247108929,Note_off_c,1,60,0
2,247110159,Note_on_c,1,60,81
2,247112417,Note_off_c,1,60,0
2,247119668,Note_on_c,1,60,81
2,247120278,Note_off_c,1,60,0
2,247121974,Note_on_c,1,60,81
2,247172020,Note_off_c,1,60,0
2,247175255,Note_on_c,1,60,81
2,247175525,Note_off_c,1,60,0
2,247183812,Note_on_c,1,60,81
2,247185482,Note_off_c,1,60,0
2,247187280,Note_on_c,1,60,81
2,247188526,Note_off_c,1,60,0
2,247189850,Note_on_c,1,60,81
2,247201966,Note_on_c,1,60,81
2,247202060,Note_off_c,1,60,0
2,247204569,Note_on_c,1,60,81
2,247204661,Note_off_c,1,60,0
2,247210690,Note_on_c,1,60,81
2,247210856,Note_off_c,1,60,0
2,247229939,Note_on_c,1,60,81
2,247231880,Note_off_c,1,60,0
2,247236867,Note_on_c,1,60,81
2,247237957,Note_off_c,1,60,0
2,247241823,Note_off_c,1,60,0
2,247255971,Note_on_c,1,60,81
2,247257210,Note_off_c,1,60,0
2,247273431,Note_on_c,1,60,81
2,247286489,Note_off_c,1,60,0
2,247294834,Note_on_c,1,60,81
2,247294941,Note_off_c,1,60,0
2,247297411,Note_on_c,1,60,81
2,247331867,Note_off_c,1,60,0
2,247332053,Note_on_c,1,60,81
2,247334578,Note_off_c,1,60,0
2,247337885,Note_on_c,1,60,81
2,247348076,Note_off_c,1,60,0
2,247390242,Note_on_c,1,60,81
2,247393839,Note_off_c,1,60,0
2,247416155,Note_on_c,1,60,81
2,247449108,Note_off_c,1,60,0
2,247449117,Note_on_c,1,60,81
2,247458105,Note_off_c,1,60,0
2,247488092,Note_on_c,1,60,81
2,247492415,Note_off_c,1,60,0
2,247507057,Note_on_c,1,60,81
2,247524676,Note_on_c,1,60,81
2,247536440,Note_off_c,1,60,0
2,247565638,Note_on_c,1,60,81
2,247577690,Note_off_c,1,60,0
2,247588359,Note_on_c,1,60,81
2,247589313,Note_off_c,1,60,0
2,247605585,Note_on_c,1,60,81
2,247606515,Note_off_c,1,60,0
2,247607125,Note_on_c,1,60,81
2,247607201,Note_off_c,1,60,0
2,247617142,Note_on_c,1,60,81
2,247622372,Note_off_c,1,60,0
2,247639629,Note_on_c,1,60,81
2,247640854,Note_off_c,1,60,0
2,247666886,Note_on_c,1,60,81
2,247667841,Note_off_c,1,60,0
2,247670811,Note_on_c,1,60,81
2,247679739,Note_off_c,1,60,0
2,247711435,Note_on_c,1,60,81
2,247711812,Note_on_c,1,60,81
2,247716646,Note_off_c,1,60,0
2,247722956,Note_on_c,1,60,81
2,247723764,Note_off_c,1,60,0
2,247724043,Note_off_c,1,60,0
2,247738614,Note_on_c,1,60,81
2,247739559,Note_off_c,1,60,0
2,247754845,Note_on_c,1,60,81
2,247760556,Note_off_c,1,60,0
2,247761255,Note_off_c,1,60,0
2,247770168,Note_on_c,1,60,81
2,247779524,Note_off_c,1,60,0
2,247814659,Note_on_c,1,60,81
2,247824119,Note_off_c,1,60,0
2,247827485,Note_on_c,1,60,81
2,247828502,Note_off_c,1,60,0
2,247833348,Note_on_c,1,60,81
2,247834288,Note_off_c,1,60,0
2,247840927,Note_on_c,1,60,81
2,247841896,Note_off_c,1,60,0
2,247857186,Note_on_c,1,60,81
2,247880138,Note_off_c,1,60,0
2,247895586,Note_on_c,1,60,81
2,247896531,Note_off_c,1,60,0
2,247920251,Note_on_c,1,60,81
2,247923152,Note_off_c,1,60,0
2,247924888,Note_on_c,1,60,81
2,247935339,Note_off_c,1,60,0
2,247936060,Note_on_c,1,60,81
2,247937176,Note_on_c,1,60,81
2,247937513,Note_off_c,1,60,0
2,247937764,Note_off_c,1,60,0
2,247938972,Note_on_c,1,60,81
2,247939659,Note_off_c,1,60,0
2,247948857,Note_on_c,1,60,81
2,247949796,Note_off_c,1,60,0
2,247965232,Note_on_c,1,60,81
2,247966386,Note_off_c,1,60,0
2,247974740,Note_on_c,1,60,81
2,247975653,Note_off_c,1,60,0
2,247980871,Note_on_c,1,60,81
2,247991204,Note_off_c,1,60,0
2,247996999,Note_on_c,1,60,81
2,247997096,Note_off_c,1,60,0
2,248003128,Note_on_c,1,60,81
2,248004068,Note_off_c,1,60,0
2,248013659,Note_on_c,1,60,81
2,248024276,Note_off_c,1,60,0
2,248029119,Note_on_c,1,60,81
2,248029221,Note_off_c,1,60,0
2,248030069,Note_on_c,1,60,81
2,248042305,Note_off_c,1,60,0
2,248045787,Note_on_c,1,60,81
2,248045889,Note_off_c,1,60,0
2,248046835,Note_on_c,1,60,81
2,248063407,Note_off_c,1,60,0
2,248083521,Note_on_c,1,60,81
2,248087522,Note_off_c,1,60,0
2,248095183,Note_on_c,1,60,81
2,248101103,Note_off_c,1,60,0
2,248121931,Note_on_c,1,60,81
2,248122882,Note_off_c,1,60,0
2,248145147,Note_on_c,1,60,81
2,248146086,Note_off_c,1,60,0
2,248174820,Note_on_c,1,60,81
2,248181067,Note_off_c,1,60,0
2,248197264,Note_on_c,1,60,81
2,248212925,Note_off_c,1,60,0
2,248231416,Note_on_c,1,60,81
2,248244679,Note_off_c,1,60,0
2,248269916,Note_on_c,1,60,81
2,248277976,Note_off_c,1,60,0
2,248290138,Note_on_c,1,60,81
2,248303424,Note_off_c,1,60,0
2,248323629,Note_on_c,1,60,81
2,248324568,Note_off_c,1,60,0
2,248348774,Note_on_c,1,60,81
2,248349713,Note_off_c,1,60,0
2,248361664,Note_on_c,1,60,81
2,248362627,Note_off_c,1,60,0
2,248375745,Note_on_c,1,60,81
2,248391811,Note_off_c,1,60,0
2,248403047,Note_on_c,1,60,81
2,248408020,Note_off_c,1,60,0
2,248436358,Note_on_c,1,60,81
2,248444316,Note_off_c,1,60,0
2,248445511,Note_on_c,1,60,81
2,248455725,Note_off_c,1,60,0
2,248473350,Note_on_c,1,60,81
2,248474307,Note_off_c,1,60,0
2,248484244,Note_on_c,1,60,81
2,248485484,Note_off_c,1,60,0
2,248488588,Note_on_c,1,60,81
2,248491113,Note_off_c,1,60,0
2,248498307,Note_on_c,1,60,81
2,248498649,Note_off_c,1,60,0
2,248508072,Note_on_c,1,60,81
2,248527337,Note_off_c,1,60,0
2,248548755,Note_on_c,1,60,81
2,248549443,Note_on_c,1,60,81
2,248549762,Note_off_c,1,60,0
2,248556911,Note_on_c,1,60,81
2,248562772,Note_off_c,1,60,0
2,248565299,Note_off_c,1,60,0
2,248573800,Note_on_c,1,60,81
2,248574757,Note_off_c,1,60,0
2,248590486,Note_on_c,1,60,81
2,248594924,Note_on_c,1,60,81
2,248595033,Note_off_c,1,60,0
2,248597700,Note_off_c,1,60,0
2,248601415,Note_on_c,1,60,81
2,248601869,Note_off_c,1,60,0
2,248623556,Note_on_c,1,60,81
2,248635091,Note_off_c,1,60,0
2,248636355,Note_on_c,1,60,81
2,248645278,Note_off_c,1,60,0
2,248649837,Note_on_c,1,60,81
2,248655528,Note_off_c,1,60,0
2,248681248,Note_on_c,1,60,81
2,248681321,Note_on_c,1,60,81
2,248682328,Note_off_c,1,60,0
2,248691759,Note_on_c,1,60,81
2,248708201,Note_on_c,1,60,81
2,248708641,Note_off_c,1,60,0
2,248716755,Note_off_c,1,60,0
2,248721992,Note_on_c,1,60,81
2,248722201,Note_off_c,1,60,0
2,248739414,Note_on_c,1,60,81
2,248748349,Note_off_c,1,60,0
2,248755759,Note_off_c,1,60,0
2,248771634,Note_on_c,1,60,81
2,248773792,Note_off_c,1,60,0
2,248810445,Note_on_c,1,60,81
2,248825915,Note_off_c,1,60,0
2,248826376,Note_on_c,1,60,81
2,248826443,Note_off_c,1,60,0
2,248838209,Note_on_c,1,60,81
2,248849517,Note_off_c,1,60,0
2,248850005,Note_on_c,1,60,81
2,248859144,Note_off_c,1,60,0
2,248859163,Note_on_c,1,60,81
2,248864796,Note_off_c,1,60,0
2,248906195,Note_on_c,1,60,81
2,248912689,Note_on_c,1,60,81
2,248912795,Note_off_c,1,60,0
2,248919946,Note_off_c,1,60,0
2,248936580,Note_on_c,1,60,81
2,248937043,Note_off_c,1,60,0
2, 248937043, End_track
0, 0, End_of_file